# Blender 5.2.0 LTS
# www.blender.org
mtllib cam.mtl
o Кулачок
v -0.004469 0.009142 -0.002056
v -0.004473 0.001868 -0.001811
v -0.004410 0.001782 -0.002761
v -0.004340 0.001782 -0.000503
v -0.004408 0.009127 -0.000875
v -0.004382 0.009135 -0.003245
v -0.004238 0.009442 -0.001708
v -0.004265 0.001596 -0.001234
v -0.004288 0.009376 -0.002709
v -0.004256 0.001948 -0.004026
v -0.004240 0.009372 -0.000691
v -0.004224 0.001701 -0.003758
v -0.004235 0.009152 0.000169
v -0.004183 0.001836 0.000367
v -0.004105 0.009362 -0.004031
v -0.004184 0.009134 -0.004264
v -0.004141 0.001520 -0.002654
v -0.004004 0.009488 -0.003512
v -0.003944 0.009372 0.000735
v -0.003969 0.001507 -0.000564
v -0.003904 0.009122 0.001259
v -0.003983 0.001598 0.000418
v -0.003921 0.009495 -0.000140
v -0.003872 0.001879 0.001337
v -0.003995 0.000000 -0.000453
v -0.003887 0.001882 -0.005208
v -0.003887 0.009128 -0.005191
v -0.003848 0.000000 0.001190
v -0.003880 0.001594 -0.004660
v -0.003758 0.001715 0.001401
v -0.003638 0.009372 -0.005427
v -0.003680 0.001500 -0.001590
v -0.003491 0.009489 0.001321
v -0.003509 0.009168 -0.006019
v -0.003583 0.001717 -0.005732
v -0.003375 0.000000 -0.002228
v -0.003545 0.009136 0.001951
v -0.003362 0.009493 -0.005494
v -0.003295 0.009406 0.002023
v -0.003481 0.001512 -0.005315
v -0.003271 0.001855 0.002345
v -0.003303 0.001938 -0.006441
v -0.003225 0.000000 0.002378
v -0.003097 0.009206 0.002523
v -0.003121 0.001500 -0.002516
v -0.002810 0.009443 -0.006804
v -0.002932 0.001718 -0.006898
v -0.002768 0.009134 -0.007257
v -0.002942 0.000001 -0.000787
v -0.002771 0.001539 -0.006746
v -0.002843 0.000001 0.001091
v -0.002656 0.001942 -0.007412
v -0.002620 0.009117 0.003022
v -0.002654 0.001977 0.002999
v -0.002508 0.000000 0.003126
v -0.002467 0.009363 0.002967
v -0.002598 0.003500 -0.000237
v -0.002587 0.000400 0.000338
v -0.002129 0.009372 -0.007790
v -0.002557 0.000400 -0.000517
v -0.002434 0.003500 0.001032
v -0.002003 0.009492 0.003065
v -0.002334 0.001500 -0.003259
v -0.002454 0.005500 -0.000585
v -0.002477 0.009500 -0.000479
v -0.002428 0.005500 0.000687
v -0.002396 0.009500 0.000790
v -0.001760 0.000000 -0.003641
v -0.002293 0.003500 -0.001274
v -0.002338 0.000400 0.001156
v -0.002134 0.000000 -0.002134
v -0.002166 0.001717 -0.007852
v -0.002252 0.000400 -0.001316
v -0.002019 0.009131 -0.008090
v -0.002023 0.001517 -0.007628
v -0.001660 0.000001 0.002552
v -0.001681 0.001890 -0.008393
v -0.001858 0.005500 -0.001707
v -0.001929 0.009500 -0.001626
v -0.002010 0.005500 0.001486
v -0.002010 0.009500 0.001486
v -0.001839 0.000400 0.001850
v -0.001854 0.009260 0.003494
v -0.001397 0.009488 -0.008156
v -0.001697 0.000403 -0.001982
v -0.001555 0.000000 0.003694
v -0.001411 0.003500 -0.002212
v -0.001286 0.003500 0.002309
v -0.001457 0.005500 0.002059
v -0.001368 0.009500 0.002120
v -0.001442 0.001604 -0.008336
v -0.001378 0.001500 -0.003764
v -0.001201 0.009128 -0.008693
v -0.001256 0.009144 0.003789
v -0.001414 0.003500 -0.000615
v -0.001472 0.005500 0.000458
v -0.001384 0.003500 0.000679
v -0.001261 0.009372 -0.008479
v -0.001411 0.005500 -0.000531
v -0.000787 0.000001 -0.002942
v -0.000935 0.000404 0.002451
v -0.000789 0.005500 -0.002396
v -0.000891 0.009500 -0.002360
v -0.000367 0.009491 -0.008604
v -0.000954 0.005500 -0.001186
v -0.000955 0.000400 -0.002428
v -0.000843 0.001886 -0.008849
v -0.000826 0.001704 -0.008761
v -0.000604 0.005500 0.001419
v -0.000898 0.001516 -0.008464
v -0.000783 0.009424 0.003708
v -0.000601 0.003500 -0.001399
v -0.000683 0.009372 -0.008736
v 0.000003 0.000000 0.004043
v -0.000526 0.003500 0.001428
v -0.000188 0.003500 -0.002617
v -0.000461 0.005500 0.002465
v -0.000386 0.009500 0.002478
v 0.000070 0.000001 0.003037
v -0.000434 0.009143 -0.008948
v -0.000321 0.001500 -0.003996
v -0.000220 0.000000 -0.004002
v -0.000236 0.009144 0.003985
v -0.000281 0.001884 -0.008979
v -0.000335 0.001555 -0.008736
v 0.000240 0.009490 0.003630
v -0.000119 0.000400 -0.002606
v -0.000042 0.005500 -0.001522
v -0.000097 0.009352 -0.008869
v 0.000188 0.003500 0.002616
v 0.000130 0.000400 0.002605
v 0.000512 0.001637 -0.008857
v 0.000438 0.001839 -0.008980
v 0.000192 0.003500 -0.001496
v 0.000480 0.005500 -0.002477
v 0.000158 0.009111 -0.008996
v 0.000623 0.009403 -0.008790
v 0.000373 0.009500 -0.002495
v 0.000244 0.009355 0.003852
v 0.000604 0.003500 0.001419
v 0.000526 0.005500 0.001428
v 0.000386 0.005500 0.002478
v 0.000461 0.009500 0.002465
v 0.000994 0.009489 -0.008468
v 0.001091 0.000001 -0.002844
v 0.000799 0.009144 0.003911
v 0.001062 0.000000 -0.003875
v 0.000730 0.000400 -0.002505
v 0.001072 0.001500 -0.003884
v 0.000961 0.001510 -0.008514
v 0.000824 0.009140 -0.008911
v 0.001095 0.003500 -0.001086
v 0.001025 0.005500 -0.001152
v 0.001286 0.003500 -0.002310
v 0.000966 0.000400 0.002423
v 0.001167 0.009424 0.003606
v 0.001155 0.001855 -0.008779
v 0.001368 0.005500 0.002120
v 0.001256 0.009500 0.002171
v 0.001384 0.005500 0.000679
v 0.001411 0.003500 0.002211
v 0.001373 0.000000 0.002677
v 0.001677 0.001508 -0.007819
v 0.001436 0.005500 -0.002057
v 0.001373 0.009500 -0.002099
v 0.001318 0.003500 0.000732
v 0.001524 0.001642 -0.008377
v 0.001484 0.009146 -0.008570
v 0.002049 0.000000 0.003486
v 0.001501 0.000400 -0.002134
v 0.001756 0.009493 -0.007612
v 0.001526 0.009417 -0.008294
v 0.001483 0.005500 -0.000273
v 0.001522 0.003500 -0.000041
v 0.001698 0.000400 0.001980
v 0.001781 0.009144 0.003572
v 0.002025 0.009490 0.003022
v 0.001746 0.001855 -0.008325
v 0.001908 0.009500 0.001628
v 0.002031 0.009144 -0.007926
v 0.002039 0.005500 -0.001461
v 0.001994 0.009500 -0.001522
v 0.002127 0.009355 0.003221
v 0.002002 0.001645 -0.007654
v 0.002005 0.009353 -0.007649
v 0.002464 0.000001 0.001790
v 0.002237 0.000399 -0.001369
v 0.002010 0.005500 0.001486
v 0.002107 0.001879 -0.007748
v 0.002487 0.000000 -0.003168
v 0.002553 0.000001 -0.001660
v 0.002434 0.003500 -0.001033
v 0.002172 0.003500 0.001444
v 0.002329 0.001500 -0.003263
v 0.002247 0.000400 0.001325
v 0.002396 0.005500 0.000790
v 0.002428 0.009500 0.000687
v 0.002477 0.005500 -0.000479
v 0.002454 0.009500 -0.000585
v 0.002642 0.009144 0.002992
v 0.002583 0.003500 0.000460
v 0.002555 0.000400 0.000527
v 0.002587 0.000403 -0.000338
v 0.002808 0.009424 0.002545
v 0.003253 0.001540 -0.002357
v 0.003037 0.000001 0.000069
v 0.003274 0.009489 0.001595
v 0.003531 0.000000 0.001970
v 0.003324 0.009144 0.002210
v 0.003394 0.000000 -0.002135
v 0.003447 0.009355 0.001738
v 0.003639 0.009488 -0.000259
v 0.003769 0.009416 0.000575
v 0.003782 0.009144 0.001278
v 0.003798 0.009362 -0.000663
v 0.003777 0.001880 -0.001330
v 0.003836 0.000000 -0.001161
v 0.003935 0.009126 -0.000676
v 0.003983 0.009144 0.000260
v 0.004019 0.000000 0.000174
vn -0.1191 0.9403 0.3187
vn -0.4540 0.7182 0.5274
vn -0.4207 0.4103 0.8091
vn -0.6422 0.1870 0.7434
vn 0.9672 0.1905 -0.1678
vn 0.6897 0.7118 -0.1332
vn 0.9602 0.2677 0.0794
vn 0.6023 0.7912 0.1062
vn 0.9020 0.2693 0.3375
vn 0.6550 0.6780 0.3335
vn 0.7836 0.2668 0.5610
vn 0.4376 0.8073 0.3959
vn 0.6158 0.2599 0.7438
vn 0.4000 0.6773 0.6174
vn 0.4001 0.2674 0.8766
vn 0.1821 0.8072 0.5615
vn 0.1632 0.2597 0.9518
vn 0.0403 0.6776 0.7344
vn -0.0895 0.2680 0.9592
vn -0.1249 0.8170 0.5629
vn -0.3503 0.3126 0.8829
vn 0.2822 0.9555 -0.0860
vn 0.2269 0.9719 0.0631
vn 0.1730 0.9722 0.1579
vn 0.0763 0.9705 0.2285
vn 0.8122 0.2881 -0.5074
vn 0.6872 0.6917 -0.2220
vn 0.1978 0.9765 -0.0860
vn 0.0570 0.1851 -0.9811
vn -0.0535 0.6801 -0.7311
vn 0.3438 0.2682 -0.8999
vn 0.1207 0.7657 -0.6318
vn 0.6116 0.2635 -0.7460
vn 0.4399 0.7848 -0.4365
vn 0.0672 0.9597 -0.2727
vn -0.0864 0.9612 -0.2621
vn -0.9385 0.3046 -0.1629
vn -0.9554 0.2951 0.0146
vn -0.6920 0.7200 -0.0527
vn -0.6765 0.7173 -0.1666
vn -0.2225 0.7177 -0.6598
vn -0.7004 0.3916 0.5968
vn -0.4980 0.7964 0.3432
vn -0.8431 0.2744 0.4625
vn -0.8900 0.2912 0.3508
vn -0.6649 0.7150 0.2161
vn -0.9269 0.3248 0.1881
vn -0.6844 0.7232 0.0928
vn -0.9545 0.2918 0.0621
vn -0.5343 0.8449 0.0244
vn -0.3055 0.9483 0.0862
vn -0.2879 0.9547 -0.0753
vn -0.4401 0.8487 -0.2932
vn -0.2834 0.9525 -0.1116
vn -0.1478 0.9543 -0.2599
vn -0.2243 0.2468 -0.9427
vn -0.2658 0.9592 0.0961
vn -0.6398 0.7230 -0.2606
vn -0.4900 0.7313 -0.4744
vn -0.9182 0.3100 -0.2467
vn -0.8895 0.2973 -0.3471
vn -0.8253 0.3702 -0.4265
vn -0.7521 0.3411 -0.5639
vn -0.6268 0.3300 -0.7058
vn -0.4505 0.3038 -0.8395
vn -0.3678 0.7194 -0.5892
vn 0.1059 -0.3260 -0.9394
vn 0.4593 -0.2817 -0.8425
vn 0.7595 -0.2362 -0.6061
vn 0.9156 -0.1873 -0.3557
vn 0.9444 -0.0306 -0.3274
vn -0.0634 -0.0047 -0.9980
vn -0.0782 -0.0053 -0.9969
vn 0.2713 -0.0037 -0.9625
vn 0.2753 -0.0076 -0.9613
vn 0.6073 -0.0035 -0.7945
vn 0.5697 0.0071 -0.8218
vn 0.8097 0.0228 -0.5864
vn -0.4453 -0.0185 -0.8952
vn -0.3226 0.0034 -0.9465
vn -0.6004 -0.0135 -0.7996
vn -0.8295 -0.0266 -0.5578
vn -0.7648 0.0042 -0.6443
vn -0.9239 -0.0047 -0.3826
vn -0.9924 -0.0247 -0.1207
vn -0.9891 -0.0125 -0.1466
vn -0.9191 -0.3627 0.1539
vn -0.9571 -0.0157 0.2894
vn -0.8873 -0.2360 0.3964
vn -0.7829 -0.0219 0.6218
vn -0.8101 -0.0065 0.5862
vn -0.6213 0.0007 0.7836
vn -0.6880 -0.0156 0.7256
vn -0.3714 0.0005 0.9285
vn 0.0210 -0.0044 0.9998
vn 0.5068 -0.0073 0.8620
vn 0.8683 -0.0064 0.4961
vn 0.9980 -0.0041 0.0634
vn 0.9611 -0.0034 -0.2760
vn 0.8428 -0.0089 -0.5382
vn -0.0039 1.0000 0.0062
vn -0.0086 0.9999 0.0053
vn -0.0066 1.0000 0.0041
vn -0.0039 1.0000 -0.0011
vn -0.0034 1.0000 -0.0015
vn -0.0007 1.0000 -0.0016
vn 0.0001 1.0000 -0.0015
vn -0.0013 1.0000 0.0091
vn 0.0022 1.0000 0.0094
vn 0.0043 1.0000 0.0082
vn 0.0099 0.9999 0.0065
vn 0.0103 0.9999 0.0027
vn 0.0117 0.9999 -0.0038
vn 0.0076 1.0000 -0.0020
vn 0.0009 1.0000 -0.0012
vn -0.6245 -0.7803 0.0330
vn -0.3539 -0.9259 0.1318
vn -0.9296 -0.3518 0.1095
vn -0.9341 -0.2822 0.2189
vn -0.8718 -0.2226 0.4363
vn -0.9550 -0.2884 0.0695
vn -0.9096 -0.4004 -0.1105
vn -0.7804 -0.6054 -0.1567
vn -0.3585 -0.9335 0.0038
vn -0.6153 -0.7679 -0.1781
vn -0.2617 -0.9482 -0.1800
vn -0.3751 -0.8975 -0.2319
vn -0.2037 -0.9492 -0.2398
vn -0.1293 -0.9255 -0.3560
vn -0.3714 -0.7582 -0.5359
vn -0.6191 -0.5245 -0.5844
vn -0.5984 -0.2345 -0.7661
vn -0.7421 -0.5611 -0.3668
vn 0.1291 -0.7216 -0.6802
vn -0.1509 -0.2933 -0.9440
vn -0.0656 -0.8525 -0.5186
vn -0.2882 -0.6140 -0.7348
vn -0.3550 -0.1698 -0.9193
vn 0.2064 -0.9149 -0.3470
vn -0.9574 -0.1332 -0.2563
vn -0.8931 -0.2482 -0.3751
vn -0.6922 -0.5413 -0.4773
vn -0.8270 -0.1867 -0.5302
vn -0.7326 -0.2061 -0.6487
vn 0.6773 -0.6948 -0.2419
vn 0.4694 -0.7039 -0.5331
vn 0.2354 -0.9641 -0.1227
vn 0.6065 -0.7794 -0.1569
vn 0.6542 0.0041 0.7563
vn 0.5386 -0.0137 0.8424
vn 0.8682 -0.0097 0.4962
vn 0.8620 0.0027 0.5069
vn 0.9800 0.0047 0.1989
vn 0.9967 -0.0125 0.0807
vn 0.9918 0.0077 -0.1273
vn 0.9104 -0.0194 -0.4133
vn 0.8940 0.0078 -0.4480
vn 0.6991 0.0037 -0.7150
vn 0.4954 -0.0208 -0.8684
vn 0.3497 0.0070 -0.9369
vn -0.0577 -0.0146 -0.9982
vn -0.0334 0.0024 -0.9994
vn -0.3676 0.0059 -0.9300
vn -0.5281 -0.0121 -0.8491
vn -0.6531 0.0068 -0.7572
vn -0.8328 -0.0071 -0.5535
vn -0.8623 0.0006 -0.5065
vn -0.9881 -0.0121 -0.1532
vn -0.9790 0.0025 -0.2037
vn -0.9903 0.0085 0.1390
vn -0.9146 -0.0197 0.4039
vn -0.8481 0.0017 0.5298
vn -0.4985 -0.0188 0.8667
vn -0.5942 0.0027 0.8043
vn -0.2737 0.0041 0.9618
vn 0.0588 -0.0165 0.9981
vn 0.0432 0.0025 0.9991
vn 0.3645 0.0062 0.9312
vn 0.0374 -0.9993 -0.0071
vn 0.0006 -1.0000 -0.0019
vn -0.0010 -1.0000 -0.0032
vn -0.0018 -1.0000 -0.0042
vn -0.0030 -1.0000 -0.0041
vn -0.0143 -0.9999 -0.0054
vn -0.0306 -0.9995 -0.0051
vn 0.4426 -0.6940 0.5678
vn 0.5076 -0.6929 0.5120
vn 0.1801 -0.7053 0.6856
vn 0.3025 -0.6994 0.6475
vn -0.0047 -0.6514 0.7587
vn -0.2550 -0.6998 0.6673
vn -0.1638 -0.7150 0.6797
vn -0.4621 -0.6499 0.6034
vn -0.5972 -0.7003 0.3911
vn -0.5990 -0.7216 0.3470
vn -0.7198 -0.6791 0.1436
vn -0.7184 -0.6954 -0.0145
vn -0.7228 -0.6636 -0.1928
vn -0.5759 -0.7087 -0.4076
vn -0.6259 -0.7089 -0.3252
vn -0.4636 -0.6878 -0.5585
vn -0.3293 -0.6956 -0.6386
vn -0.2499 -0.6953 -0.6739
vn -0.0098 -0.7064 -0.7078
vn -0.0370 -0.7283 -0.6843
vn 0.2371 -0.6618 -0.7112
vn 0.3945 -0.7033 -0.5913
vn 0.5563 -0.6588 -0.5065
vn 0.6664 -0.7000 -0.2567
vn 0.6138 -0.7101 -0.3449
vn 0.7596 -0.6469 -0.0671
vn 0.6881 -0.7036 0.1772
vn 0.6808 -0.7238 0.1120
vn 0.6342 -0.6749 0.3773
vn -0.0000 -1.0000 -0.0000
vn -0.0000 1.0000 -0.0000
vn 0.3534 -0.0052 0.9355
vn 0.3127 0.0052 0.9498
vn -0.1351 -0.0048 0.9908
vn -0.1754 0.0042 0.9845
vn -0.5345 -0.0036 0.8452
vn -0.5621 0.0028 0.8271
vn -0.8025 -0.0028 0.5967
vn -0.8217 0.0036 0.5699
vn -0.9762 -0.0042 0.2170
vn -0.9842 0.0048 0.1770
vn -0.9656 -0.0048 -0.2599
vn -0.9586 0.0004 -0.2846
vn -0.7714 -0.0058 -0.6363
vn -0.7989 0.0009 -0.6014
vn -0.5337 0.0044 -0.8456
vn -0.4980 -0.0028 -0.8672
vn -0.1855 -0.0002 -0.9826
vn -0.1665 0.0028 -0.9860
vn 0.1665 -0.0028 -0.9860
vn 0.1989 0.0036 -0.9800
vn 0.5343 -0.0035 -0.8453
vn 0.5621 0.0024 -0.8271
vn 0.7975 -0.0022 -0.6033
vn 0.8104 0.0022 -0.5859
vn 0.9591 -0.0028 -0.2830
vn 0.9686 0.0045 -0.2488
vn 0.9819 -0.0052 0.1896
vn 0.9728 0.0052 0.2317
vn 0.7647 -0.0052 0.6443
vn 0.7363 0.0052 0.6767
vn -0.0001 -1.0000 0.0004
vn -0.0002 -1.0000 0.0004
vn -0.0000 -1.0000 0.0004
vn 0.0001 -1.0000 0.0004
vn 0.0002 -1.0000 0.0002
vn 0.0001 -1.0000 0.0002
vn 0.0003 -1.0000 0.0001
vn 0.0004 -1.0000 -0.0000
vn 0.0004 -1.0000 -0.0001
vn 0.0003 -1.0000 -0.0002
vn 0.0002 -1.0000 -0.0003
vn 0.0003 -1.0000 -0.0003
vn 0.0001 -1.0000 -0.0004
vn -0.0000 -1.0000 -0.0003
vn -0.0001 -1.0000 -0.0002
vn -0.0003 -1.0000 -0.0002
vn -0.0004 -1.0000 -0.0002
vn -0.0003 -1.0000 -0.0000
vn -0.0003 -1.0000 0.0001
vn -0.0003 -1.0000 0.0002
vn -0.0003 -1.0000 0.0003
vn 0.0060 -0.0260 0.9996
vn 0.4240 0.0265 0.9053
vn -0.1558 0.0143 0.9877
vn -0.6552 -0.0158 0.7553
vn -0.7187 0.0158 0.6951
vn -0.9811 -0.0164 0.1929
vn -0.9978 0.0181 0.0641
vn -0.8863 -0.0171 -0.4628
vn -0.8586 0.0149 -0.5124
vn -0.3757 -0.0034 -0.9267
vn -0.3389 -0.0088 -0.9408
vn 0.3977 -0.0105 -0.9175
vn 0.3389 0.0088 -0.9408
vn 0.9020 0.0205 -0.4313
vn 0.9479 -0.0137 -0.3182
vn 0.9249 0.0307 0.3789
vn 0.9464 -0.0149 0.3227
vn 0.6145 -0.0195 0.7887
vt -0.062790 -0.430780
vt -0.039402 -0.476104
vt -0.026149 -0.414158
vt -0.010707 -0.476104
vt -0.013181 0.440337
vt -0.037925 0.446192
vt -0.014488 0.351097
vt -0.041867 0.322014
vt -0.014485 0.250853
vt -0.039270 0.198720
vt -0.014485 0.150615
vt -0.049280 0.097390
vt -0.014486 0.050381
vt -0.039270 -0.001745
vt -0.014489 -0.049848
vt -0.049340 -0.103188
vt -0.014494 -0.150076
vt -0.039270 -0.202210
vt -0.014501 -0.250301
vt -0.049425 -0.303769
vt -0.014510 -0.350527
vt -0.064537 0.409346
vt -0.063393 0.205313
vt -0.063337 0.002778
vt -0.063836 -0.199056
vt -0.193649 -0.028255
vt 0.477668 -0.027576
vt 0.477668 0.003704
vt -0.193649 -0.006033
vt 0.477668 0.025246
vt -0.193649 0.027888
vt 0.011332 -0.582311
vt 0.031416 -0.582311
vt 0.014353 -0.529699
vt 0.044044 -0.543487
vt 0.014623 -0.460343
vt 0.042633 -0.440213
vt 0.014282 -0.381610
vt 0.038769 -0.356676
vt 0.064089 -0.497920
vt 0.061810 -0.367690
vt 0.062832 -0.582311
vt -0.013570 0.734484
vt -0.013770 0.852373
vt -0.041232 0.787438
vt -0.040055 0.654283
vt -0.037377 0.014677
vt -0.041105 0.062054
vt -0.065460 0.039998
vt -0.011127 1.393652
vt -0.040343 1.396360
vt -0.019276 1.326837
vt -0.044046 1.278730
vt -0.013508 1.258549
vt -0.012007 1.185457
vt -0.041198 1.137472
vt -0.012397 1.072487
vt -0.041227 0.992369
vt -0.011271 0.969285
vt -0.046102 0.893545
vt -0.065048 1.051742
vt -0.060176 0.703230
vt -0.049909 0.345465
vt -0.064839 0.489967
vt -0.062165 0.150198
vt -0.047003 0.000000
vt -0.013841 0.036709
vt -0.011294 0.000000
vt -0.064831 1.382927
vt -0.062490 1.206941
vt -0.041208 0.507071
vt -0.041132 0.226531
vt -0.013626 0.632322
vt -0.010670 0.538103
vt -0.015431 0.447155
vt -0.012571 0.305446
vt -0.011910 0.195965
vt -0.013070 0.105821
vt -0.041215 0.120194
vt -0.750000 -0.108882
vt -0.050000 -0.131812
vt -0.050000 -0.075043
vt -0.750000 -0.037453
vt -0.050000 -0.000207
vt -0.750000 0.037868
vt -0.050000 0.084746
vt -0.750000 0.105548
vt -0.284019 0.050000
vt 0.387298 0.050000
vt -0.284019 0.750000
vt 0.387298 0.750000
vt -0.000000 1.256637
vt -0.150000 1.257037
vt -0.150000 1.148849
vt 0.000000 1.149714
vt 0.000000 0.990510
vt -0.150000 1.008659
vt -0.157141 0.879588
vt -0.150000 -1.224534
vt 0.000000 -1.234692
vt 0.000000 -1.076516
vt -0.150000 -1.116251
vt -0.150000 -1.007978
vt 0.000000 -0.861757
vt -0.150000 -0.899713
vt -0.150000 -0.791457
vt 0.000000 -0.673439
vt -0.151358 -0.680796
vt -0.160346 -0.584992
vt 0.000000 -0.508276
vt -0.172342 -0.480251
vt -0.182175 -0.383589
vt 0.000000 -0.374158
vt 0.000000 -0.270443
vt -0.194690 -0.289631
vt -0.900000 -0.259005
vt -0.900000 -0.206984
vt 0.000000 -0.159365
vt -0.900000 -0.128655
vt 0.000000 0.000318
vt -0.900000 -0.024621
vt -0.900000 0.079414
vt 0.000000 0.212535
vt -0.900000 0.183450
vt -0.900000 0.287488
vt 0.000000 0.424766
vt -0.900000 0.391532
vt -0.900000 0.495579
vt 0.000000 0.610883
vt -0.900000 0.599633
vt -0.900000 0.692265
vt 0.000000 0.745819
vt -0.188066 0.763680
vt 0.000000 0.852873
vt 0.306128 -0.152746
vt 0.208193 -0.134344
vt 0.148658 -0.200999
vt 0.077695 -0.235003
vt 0.156190 -0.318567
vt -0.050177 -0.380473
vt -0.046781 -0.243053
vt -0.159376 -0.189373
vt -0.368023 -0.378072
vt -0.605487 -0.290550
vt -0.231494 -0.087599
vt -0.761877 -0.177893
vt -0.837569 -0.055696
vt -0.244819 0.036424
vt -0.836249 0.078973
vt -0.775909 0.153226
vt 0.246157 -0.038360
vt 0.343678 0.039665
vt 0.244875 0.045836
vt 0.215617 0.124795
vt 0.274251 0.210894
vt 0.161726 0.189498
vt 0.067492 0.238406
vt 0.126529 0.321989
vt -0.028819 0.347100
vt -0.057348 0.241047
vt -0.151172 0.198020
vt -0.208505 0.136348
vt -0.041748 0.478899
vt -0.068341 0.407758
vt -0.045831 0.310406
vt -0.017810 0.405626
vt -0.014203 0.318698
vt -0.028436 0.212364
vt -0.008539 0.221761
vt -0.009863 0.537236
vt -0.020776 0.630219
vt -0.030848 0.733555
vt -0.059182 0.627646
vt -0.045473 0.828803
vt -0.061293 0.904867
vt -0.056022 1.068282
vt -0.060792 1.184051
vt -0.059011 1.325322
vt -0.044529 1.275346
vt -0.029555 1.192327
vt -0.009807 1.257907
vt -0.029545 0.940395
vt -0.039237 1.415608
vt -0.010941 1.391283
vt -0.015627 1.415608
vt -0.047759 1.386977
vt -0.031592 1.343017
vt -0.008325 1.342628
vt -0.078112 1.401054
vt -0.008451 0.134404
vt -0.005688 0.757250
vt -0.008628 0.878602
vt -0.029539 1.072685
vt -0.005868 1.014695
vt -0.005911 1.127592
vt 0.039338 -0.029681
vt 0.062611 -0.082502
vt 0.062832 0.000000
vt 0.012940 -0.219979
vt 0.038339 -0.224981
vt 0.014623 -0.157255
vt 0.039270 -0.137712
vt 0.014623 -0.087450
vt 0.014081 -0.021251
vt 0.064471 -0.192220
vt 0.284019 0.028945
vt -0.353099 0.027081
vt 0.284019 -0.003421
vt -0.241301 -0.017108
vt 0.284019 -0.027782
vt -0.011878 0.750000
vt 0.016145 0.050000
vt 0.025820 0.750000
vt -1.404957 0.750000
vt -1.406264 0.050000
vt -1.322136 0.750000
vt -1.337398 0.050000
vt -1.287205 0.050000
vt -1.188150 0.750000
vt -1.171838 0.050000
vt -1.074229 0.750000
vt -1.061602 0.050000
vt -0.975993 0.750000
vt -0.962100 0.050000
vt -0.834554 0.750000
vt -0.841360 0.050000
vt -0.725580 0.050000
vt -0.750670 0.750000
vt -0.636165 0.750000
vt -0.614770 0.050000
vt -0.495498 0.750000
vt -0.513727 0.050000
vt -0.426290 0.050000
vt -0.378661 0.750000
vt -0.318234 0.050000
vt -0.284254 0.750000
vt -0.201761 0.050000
vt -0.151902 0.750000
vt -0.103078 0.050000
vt -0.075747 0.750000
vt -0.034835 0.050000
vt 0.310000 0.224281
vt 0.000000 0.260907
vt 0.000000 0.131937
vt 0.310000 0.137445
vt 0.310000 0.051787
vt 0.000000 0.023604
vt 0.310000 -0.033841
vt 0.000000 -0.104284
vt 0.310000 -0.119449
vt 0.310000 -0.205055
vt 0.000000 -0.276245
vt 0.310000 -0.313611
vt 0.000000 -0.426936
vt 0.310000 -0.421377
vt 0.310000 -0.507029
vt 0.000000 -0.555907
vt 0.310000 -0.592653
vt 0.000000 -0.664238
vt 0.310000 -0.678260
vt 0.000000 -0.770858
vt 0.310000 -0.763866
vt 0.310000 -0.827562
vt 0.310000 0.783028
vt 0.000000 0.816814
vt 0.000000 0.712530
vt 0.310000 0.673924
vt 0.000000 0.540570
vt 0.310000 0.567783
vt 0.310000 0.482164
vt 0.000000 0.389878
vt 0.310000 0.396558
vt 0.310000 0.310951
vt -0.290474 -0.125000
vt -0.231880 -0.075169
vt -0.143868 0.386537
vt -0.105766 -0.017047
vt 0.032004 -0.002178
vt 0.208727 0.326141
vt 0.089726 0.426156
vt 0.137219 -0.025227
vt 0.342852 0.089716
vt 0.232432 -0.075566
vt 0.310712 -0.149523
vt 0.394487 -0.165092
vt 0.366365 -0.241710
vt 0.390915 -0.315232
vt -0.048028 0.443404
vt -0.021213 -0.858025
vt 0.035355 -0.858311
vt 0.035355 -0.732947
vt -0.021213 -0.764687
vt -0.021213 -0.672495
vt 0.035355 -0.557126
vt -0.021213 -0.580304
vt -0.021213 -0.488098
vt 0.035355 -0.381319
vt -0.021213 -0.373793
vt -0.021213 -0.256297
vt 0.035355 -0.213475
vt -0.021213 -0.162891
vt 0.035355 -0.043958
vt -0.021213 -0.070699
vt -0.021213 0.021493
vt 0.035355 0.087243
vt -0.021213 0.113703
vt 0.035355 0.213476
vt -0.021213 0.205945
vt -0.021213 0.321999
vt 0.035355 0.381320
vt -0.021213 0.438906
vt 0.035355 0.557126
vt -0.021213 0.531097
vt -0.021213 0.623290
vt 0.035355 0.732947
vt -0.021213 0.715504
vt -0.021213 0.807752
vt 0.035355 0.865443
vt -0.021213 0.879646
vt -0.045305 0.253558
vt 0.003979 0.147779
vt 0.099774 0.235310
vt 0.102504 0.103507
vt 0.223266 0.124410
vt 0.147930 0.019032
vt 0.256922 -0.018326
vt 0.135810 -0.058395
vt 0.217233 -0.138399
vt 0.058215 -0.133536
vt 0.125180 -0.225110
vt 0.023497 -0.258053
vt -0.064088 -0.130819
vt -0.099774 -0.235310
vt -0.223266 -0.124410
vt -0.138756 -0.051002
vt -0.256921 0.018327
vt -0.134097 0.056912
vt -0.217233 0.138399
vt -0.143485 0.215768
vt -0.072434 0.130379
vt -0.147778 -0.004027
vt -0.243264 0.047066
vt -0.235327 -0.077549
vt -0.115208 -0.092637
vt -0.167624 -0.182469
vt -0.052477 -0.139613
vt -0.057348 -0.241047
vt 0.043436 -0.139047
vt 0.067492 -0.238406
vt 0.134097 -0.056912
vt 0.201951 -0.143104
vt 0.244875 -0.045836
vt 0.138756 0.051002
vt 0.246157 0.038360
vt 0.208193 0.134344
vt 0.064088 0.130819
vt 0.148658 0.200999
vt 0.077695 0.235003
vt -0.027012 0.146683
vt -0.046781 0.243053
vt -0.108905 0.096749
vt -0.145074 0.202530
vt -0.204258 0.142632
vt 0.400000 -0.694989
vt 0.000000 -0.705793
vt 0.400000 -0.785398
vt 0.000000 -0.785398
vt 0.400000 0.748445
vt 0.000000 0.737641
vt 0.400000 0.640606
vt 0.000000 0.633012
vt 0.400000 0.555698
vt 0.000000 0.548104
vt 0.400000 0.451070
vt 0.000000 0.440266
vt 0.400000 0.323708
vt 0.000000 0.312904
vt 0.400000 0.216067
vt 0.000000 0.233497
vt 0.000000 0.143286
vt 0.400000 0.131159
vt 0.400000 0.046251
vt 0.000000 0.038657
vt 0.400000 -0.038657
vt 0.000000 -0.046251
vt 0.400000 -0.143286
vt 0.000000 -0.154090
vt 0.400000 -0.233497
vt 0.000000 -0.233497
vt 0.400000 -0.312904
vt 0.000000 -0.323708
vt 0.400000 -0.440266
vt 0.000000 -0.451070
vt 0.400000 -0.567627
vt 0.000000 -0.578431
vt 0.383496 0.105025
vt 0.275876 0.105884
vt 0.398535 -0.021879
vt 0.285471 -0.076408
vt 0.356142 -0.172144
vt 0.210535 -0.210429
vt 0.217977 -0.330075
vt 0.076408 -0.285471
vt 0.044774 -0.395118
vt -0.105884 -0.275876
vt -0.117470 -0.379608
vt -0.236870 -0.321214
vt -0.247791 -0.161067
vt -0.311316 -0.249756
vt -0.367850 -0.154834
vt -0.295764 0.006817
vt -0.395584 0.000315
vt -0.341048 0.200433
vt -0.266172 0.136482
vt -0.173707 0.239051
vt -0.192738 0.345458
vt -0.006817 0.295764
vt -0.017336 0.397182
vt 0.115558 0.382021
vt 0.161067 0.247791
vt 0.212470 0.337861
vt 0.312641 0.245311
vt 0.200000 -0.458913
vt 0.000000 -0.410299
vt 0.000000 -0.471239
vt 0.200000 0.457921
vt 0.000000 0.452058
vt 0.200000 0.362244
vt 0.000000 0.352739
vt 0.200000 0.262926
vt 0.000000 0.239685
vt 0.200000 0.167249
vt 0.000000 0.159565
vt 0.000000 0.060246
vt 0.200000 0.052808
vt 0.200000 -0.060246
vt 0.000000 -0.052808
vt 0.000000 -0.167249
vt 0.200000 -0.190243
vt 0.000000 -0.297246
vt 0.200000 -0.289562
vt 0.200000 -0.369682
s 1
usemtl 165,132,0.001
f 62/1/1 56/2/2 83/3/3
f 56/2/2 53/4/4 83/3/3
f 218/5/5 215/6/6 219/7/7
f 219/7/7 215/6/6 213/8/8
f 219/7/7 213/8/8 214/9/9
f 214/9/9 213/8/8 211/10/10
f 214/9/9 211/10/10 209/11/11
f 209/11/11 211/10/10 204/12/12
f 209/11/11 204/12/12 200/13/13
f 200/13/13 204/12/12 183/14/14
f 200/13/13 183/14/14 176/15/15
f 176/15/15 183/14/14 156/16/16
f 176/15/15 156/16/16 146/17/17
f 146/17/17 156/16/16 139/18/18
f 146/17/17 139/18/18 123/19/19
f 123/19/19 139/18/18 111/20/20
f 123/19/19 111/20/20 94/21/21
f 94/21/21 111/20/20 83/3/3
f 215/6/6 212/22/22 213/8/8
f 211/10/10 213/8/8 207/23/23
f 211/10/10 207/23/23 204/12/12
f 183/14/14 204/12/12 177/24/24
f 183/14/14 177/24/24 156/16/16
f 139/18/18 156/16/16 126/25/25
f 139/18/18 126/25/25 111/20/20
f 83/3/3 111/20/20 62/1/1
f 213/8/8 212/22/22 207/23/23
f 204/12/12 207/23/23 177/24/24
f 156/16/16 177/24/24 126/25/25
f 111/20/20 126/25/25 62/1/1
f 218/26/5 180/27/26 185/28/27
f 218/26/5 185/28/27 215/29/6
f 215/29/6 185/28/27 171/30/28
f 215/29/6 171/30/28 212/31/22
f 136/32/29 129/33/30 151/34/31
f 151/34/31 129/33/30 137/35/32
f 151/34/31 137/35/32 168/36/33
f 168/36/33 137/35/32 172/37/34
f 168/36/33 172/37/34 180/38/26
f 180/38/26 172/37/34 185/39/27
f 137/35/32 144/40/35 172/37/34
f 185/39/27 172/37/34 171/41/28
f 137/35/32 104/42/36 144/40/35
f 172/37/34 144/40/35 171/41/28
f 6/43/37 1/44/38 9/45/39
f 6/43/37 9/45/39 15/46/40
f 129/47/30 113/48/41 104/49/36
f 53/50/4 56/51/2 44/52/42
f 44/52/42 39/53/43 37/54/44
f 37/54/44 39/53/43 21/55/45
f 21/55/45 39/53/43 19/56/46
f 21/55/45 19/56/46 13/57/47
f 13/57/47 19/56/46 11/58/48
f 13/57/47 11/58/48 5/59/49
f 5/59/49 11/58/48 1/44/38
f 1/44/38 11/58/48 7/60/50
f 1/44/38 7/60/50 9/45/39
f 19/56/46 23/61/51 11/58/48
f 23/61/51 7/60/50 11/58/48
f 7/60/50 23/61/51 18/62/52
f 46/63/53 38/64/54 84/65/55
f 129/47/30 104/49/36 137/66/32
f 120/67/56 129/47/30 136/68/29
f 39/53/43 56/51/2 62/69/1
f 39/53/43 62/69/1 33/70/57
f 44/52/42 56/51/2 39/53/43
f 15/46/40 18/62/52 31/71/58
f 31/71/58 18/62/52 38/64/54
f 31/71/58 38/64/54 46/63/53
f 59/72/59 46/63/53 84/65/55
f 19/56/46 39/53/43 33/70/57
f 19/56/46 33/70/57 23/61/51
f 15/46/40 9/45/39 18/62/52
f 7/60/50 18/62/52 9/45/39
f 6/43/37 15/46/40 16/73/60
f 16/73/60 15/46/40 27/74/61
f 27/74/61 15/46/40 31/71/58
f 27/74/61 31/71/58 34/75/62
f 34/75/62 31/71/58 46/63/53
f 34/75/62 46/63/53 48/76/63
f 48/76/63 46/63/53 59/72/59
f 48/76/63 59/72/59 74/77/64
f 74/77/64 59/72/59 93/78/65
f 93/78/65 59/72/59 98/79/66
f 93/78/65 98/79/66 113/48/41
f 93/78/65 113/48/41 120/67/56
f 120/67/56 113/48/41 129/47/30
f 59/72/59 84/65/55 98/79/66
f 98/79/66 84/65/55 113/48/41
f 113/48/41 84/65/55 104/49/36
f 133/80/67 136/81/29 151/82/31
f 133/80/67 151/82/31 157/83/68
f 157/83/68 151/82/31 168/84/33
f 157/83/68 168/84/33 178/85/69
f 178/85/69 168/84/33 180/86/26
f 178/85/69 180/86/26 189/87/70
f 180/88/26 218/89/5 189/90/70
f 189/90/70 218/89/5 216/91/71
f 122/92/72 121/93/73 149/94/74
f 122/92/72 149/94/74 147/95/75
f 147/95/75 149/94/74 190/96/76
f 190/96/76 149/94/74 194/97/77
f 190/96/76 194/97/77 205/98/78
f 121/99/73 122/100/72 68/101/79
f 121/99/73 68/101/79 92/102/80
f 92/102/80 68/101/79 63/103/81
f 63/103/81 68/101/79 36/104/82
f 63/103/81 36/104/82 45/105/83
f 45/105/83 36/104/82 32/106/84
f 32/106/84 36/104/82 25/107/85
f 32/106/84 25/107/85 20/108/86
f 20/108/86 25/107/85 22/109/87
f 22/109/87 25/107/85 28/110/88
f 22/109/87 28/110/88 30/111/89
f 30/111/89 28/110/88 41/112/90
f 41/112/90 28/110/88 43/113/91
f 41/112/90 43/113/91 55/114/92
f 41/112/90 55/114/92 54/115/93
f 54/115/93 55/114/92 53/116/4
f 53/116/4 55/114/92 83/117/3
f 83/117/3 55/114/92 86/118/94
f 83/117/3 86/118/94 94/119/21
f 94/119/21 86/118/94 114/120/95
f 94/119/21 114/120/95 123/121/19
f 123/121/19 114/120/95 146/122/17
f 146/122/17 114/120/95 169/123/96
f 146/122/17 169/123/96 176/124/15
f 176/124/15 169/123/96 200/125/13
f 200/125/13 169/123/96 208/126/97
f 200/125/13 208/126/97 209/127/11
f 209/127/11 208/126/97 214/128/9
f 214/128/9 208/126/97 220/129/98
f 214/128/9 220/129/98 219/130/7
f 219/130/7 220/129/98 218/131/5
f 218/131/5 220/129/98 217/132/99
f 218/131/5 217/132/99 216/133/71
f 216/133/71 217/132/99 210/134/100
f 216/133/71 210/134/100 205/98/78
f 205/98/78 210/134/100 190/96/76
f 62/135/1 90/136/101 81/137/102
f 62/135/1 81/137/102 67/138/103
f 62/135/1 67/138/103 33/139/57
f 33/139/57 67/138/103 23/140/51
f 23/140/51 67/138/103 65/141/104
f 23/140/51 65/141/104 79/142/105
f 23/140/51 79/142/105 18/143/52
f 18/143/52 79/142/105 38/144/54
f 38/144/54 79/142/105 103/145/106
f 38/144/54 103/145/106 84/146/55
f 84/146/55 103/145/106 104/147/36
f 104/147/36 103/145/106 138/148/107
f 104/147/36 138/148/107 144/149/35
f 144/149/35 138/148/107 171/150/28
f 90/136/101 62/135/1 118/151/108
f 118/151/108 62/135/1 126/152/25
f 118/151/108 126/152/25 143/153/109
f 143/153/109 126/152/25 159/154/110
f 159/154/110 126/152/25 177/155/24
f 159/154/110 177/155/24 179/156/111
f 179/156/111 177/155/24 197/157/112
f 197/157/112 177/155/24 207/158/23
f 197/157/112 207/158/23 212/159/22
f 197/157/112 212/159/22 199/160/113
f 171/150/28 182/161/114 212/159/22
f 212/159/22 182/161/114 199/160/113
f 171/150/28 138/148/107 165/162/115
f 171/150/28 165/162/115 182/161/114
f 8/163/116 20/164/117 22/165/87
f 4/166/118 22/165/87 14/167/119
f 22/165/87 30/168/89 14/167/119
f 14/167/119 30/168/89 24/169/120
f 8/163/116 2/170/121 3/171/122
f 3/171/122 12/172/123 17/173/124
f 17/173/124 29/174/125 40/175/126
f 40/175/126 50/176/127 75/177/128
f 110/178/129 75/177/128 91/179/130
f 91/179/130 75/177/128 72/180/131
f 91/179/130 72/180/131 77/181/132
f 17/173/124 12/172/123 29/174/125
f 29/174/125 35/182/133 40/175/126
f 132/183/134 124/184/135 133/185/67
f 132/183/134 125/186/136 124/184/135
f 124/184/135 125/186/136 108/187/137
f 107/188/138 108/187/137 77/181/132
f 150/189/139 110/178/129 125/186/136
f 3/171/122 17/173/124 8/163/116
f 2/170/121 8/163/116 4/166/118
f 17/173/124 20/164/117 8/163/116
f 8/163/116 22/165/87 4/166/118
f 41/190/90 24/169/120 30/168/89
f 3/171/122 10/191/140 12/172/123
f 12/172/123 26/192/141 29/174/125
f 29/174/125 26/192/141 35/182/133
f 40/175/126 35/182/133 50/176/127
f 12/172/123 10/191/140 26/192/141
f 35/182/133 47/193/142 50/176/127
f 50/176/127 47/193/142 75/177/128
f 47/193/142 72/180/131 75/177/128
f 26/192/141 42/194/143 35/182/133
f 35/182/133 42/194/143 47/193/142
f 42/194/143 52/195/144 47/193/142
f 47/193/142 52/195/144 72/180/131
f 77/181/132 72/180/131 52/195/144
f 77/181/132 108/187/137 91/179/130
f 91/179/130 108/187/137 110/178/129
f 108/187/137 107/188/138 124/184/135
f 108/187/137 125/186/136 110/178/129
f 132/196/134 150/197/139 125/198/136
f 189/199/70 184/200/145 178/201/69
f 178/201/69 184/200/145 167/202/146
f 178/201/69 167/202/146 157/203/68
f 157/203/68 167/202/146 132/196/134
f 157/203/68 132/196/134 133/204/67
f 184/200/145 163/205/147 167/202/146
f 167/202/146 163/205/147 150/197/139
f 167/202/146 150/197/139 132/196/134
f 189/206/70 216/207/71 184/208/145
f 184/208/145 216/207/71 205/209/148
f 184/208/145 205/209/148 163/210/147
f 124/211/135 136/212/29 133/213/67
f 54/214/93 53/215/4 41/216/90
f 41/216/90 53/215/4 44/217/42
f 41/216/90 44/217/42 37/218/44
f 41/216/90 37/218/44 24/219/120
f 24/219/120 37/218/44 21/220/45
f 24/219/120 21/220/45 14/221/119
f 14/221/119 21/220/45 13/222/47
f 14/221/119 13/222/47 4/223/118
f 4/223/118 13/222/47 5/224/49
f 4/223/118 5/224/49 2/225/121
f 2/225/121 5/224/49 1/226/38
f 2/225/121 1/226/38 6/227/37
f 2/225/121 6/227/37 3/228/122
f 3/228/122 6/227/37 10/229/140
f 10/229/140 6/227/37 16/230/60
f 10/229/140 16/230/60 26/231/141
f 26/231/141 16/230/60 27/232/61
f 26/231/141 27/232/61 34/233/62
f 26/231/141 34/233/62 42/234/143
f 42/234/143 34/233/62 48/235/63
f 42/234/143 48/235/63 52/236/144
f 52/236/144 48/235/63 74/237/64
f 52/236/144 74/237/64 77/238/132
f 77/238/132 74/237/64 93/239/65
f 77/238/132 93/239/65 107/240/138
f 107/240/138 93/239/65 120/241/56
f 107/240/138 120/241/56 124/211/135
f 124/211/135 120/241/56 136/212/29
f 85/242/149 87/243/150 69/244/151
f 85/242/149 69/244/151 73/245/152
f 73/245/152 69/244/151 60/246/153
f 60/246/153 69/244/151 57/247/154
f 60/246/153 57/247/154 58/248/155
f 58/248/155 57/247/154 61/249/156
f 58/248/155 61/249/156 70/250/157
f 70/250/157 61/249/156 82/251/158
f 82/251/158 61/249/156 88/252/159
f 82/251/158 88/252/159 101/253/160
f 101/253/160 88/252/159 130/254/161
f 101/253/160 130/254/161 131/255/162
f 131/255/162 130/254/161 155/256/163
f 155/256/163 130/254/161 161/257/164
f 155/256/163 161/257/164 175/258/165
f 175/258/165 161/257/164 193/259/166
f 175/258/165 193/259/166 195/260/167
f 195/260/167 193/259/166 201/261/168
f 195/260/167 201/261/168 202/262/169
f 202/262/169 201/261/168 203/263/170
f 203/264/170 201/265/168 192/266/171
f 203/264/170 192/266/171 187/267/172
f 187/267/172 192/266/171 154/268/173
f 187/267/172 154/268/173 170/269/174
f 170/269/174 154/268/173 148/270/175
f 148/270/175 154/268/173 116/271/176
f 148/270/175 116/271/176 127/272/177
f 127/272/177 116/271/176 106/273/178
f 106/273/178 116/271/176 87/243/150
f 106/273/178 87/243/150 85/242/149
f 205/274/148 194/275/179 163/276/147
f 163/276/147 194/275/179 149/277/180
f 163/276/147 149/277/180 121/278/181
f 121/278/181 75/279/128 110/280/129
f 92/281/182 75/279/128 121/278/181
f 92/281/182 40/282/126 75/279/128
f 40/282/126 92/281/182 63/283/183
f 40/282/126 63/283/183 45/284/184
f 40/282/126 45/284/184 17/285/124
f 17/285/124 45/284/184 32/286/185
f 17/285/124 32/286/185 20/287/117
f 121/278/181 110/280/129 163/276/147
f 163/276/147 110/280/129 150/288/139
f 85/289/186 71/290/187 100/291/188
f 85/289/186 100/291/188 106/292/189
f 106/292/189 100/291/188 127/293/190
f 127/293/190 100/291/188 145/294/191
f 127/293/190 145/294/191 148/295/192
f 148/295/192 145/294/191 170/296/193
f 170/296/193 145/294/191 191/297/194
f 170/296/193 191/297/194 187/298/195
f 187/298/195 191/297/194 203/299/196
f 203/299/196 191/297/194 206/300/197
f 203/299/196 206/300/197 202/301/198
f 202/301/198 206/300/197 186/302/199
f 202/301/198 186/302/199 195/303/200
f 195/303/200 186/302/199 175/304/201
f 175/304/201 186/302/199 162/305/202
f 175/304/201 162/305/202 155/306/203
f 155/306/203 162/305/202 119/307/204
f 155/306/203 119/307/204 131/308/205
f 131/308/205 119/307/204 101/309/206
f 101/309/206 119/307/204 76/310/207
f 101/309/206 76/310/207 82/311/208
f 82/311/208 76/310/207 51/312/209
f 82/311/208 51/312/209 70/313/210
f 70/313/210 51/312/209 58/314/211
f 58/314/211 51/312/209 49/315/212
f 58/314/211 49/315/212 60/316/213
f 60/316/213 49/315/212 73/317/214
f 73/317/214 49/315/212 71/318/187
f 73/317/214 71/318/187 85/319/186
f 201/320/215 174/321/215 192/322/215
f 192/322/215 174/321/215 152/323/215
f 192/322/215 152/323/215 154/324/215
f 154/324/215 152/323/215 134/325/215
f 154/324/215 134/325/215 116/326/215
f 116/326/215 134/325/215 112/327/215
f 116/326/215 112/327/215 87/328/215
f 87/328/215 112/327/215 95/329/215
f 87/328/215 95/329/215 69/330/215
f 69/330/215 95/329/215 57/331/215
f 57/331/215 95/329/215 97/332/215
f 57/331/215 97/332/215 61/333/215
f 61/333/215 97/332/215 88/334/215
f 88/334/215 97/332/215 115/335/215
f 88/334/215 115/335/215 130/336/215
f 130/336/215 115/335/215 140/337/215
f 130/336/215 140/337/215 161/338/215
f 161/338/215 140/337/215 193/339/215
f 193/339/215 140/337/215 166/340/215
f 193/339/215 166/340/215 201/320/215
f 201/320/215 166/340/215 174/321/215
f 128/341/216 135/342/216 102/343/216
f 128/341/216 102/343/216 105/344/216
f 105/344/216 102/343/216 78/345/216
f 105/344/216 78/345/216 99/346/216
f 99/346/216 78/345/216 64/347/216
f 99/346/216 64/347/216 96/348/216
f 96/348/216 64/347/216 66/349/216
f 96/348/216 66/349/216 80/137/216
f 96/348/216 80/137/216 109/350/216
f 109/350/216 80/137/216 89/351/216
f 109/350/216 89/351/216 117/352/216
f 109/350/216 117/352/216 141/353/216
f 141/353/216 117/352/216 142/354/216
f 141/353/216 142/354/216 158/355/216
f 141/353/216 158/355/216 160/356/216
f 160/356/216 158/355/216 188/357/216
f 160/356/216 188/357/216 196/358/216
f 160/356/216 196/358/216 173/359/216
f 173/359/216 196/358/216 198/360/216
f 173/359/216 198/360/216 153/361/216
f 153/361/216 198/360/216 181/362/216
f 153/361/216 181/362/216 164/363/216
f 153/361/216 164/363/216 135/342/216
f 153/361/216 135/342/216 128/341/216
f 103/364/217 102/365/218 138/366/219
f 138/366/219 102/365/218 135/367/220
f 138/368/219 135/369/220 165/370/221
f 165/370/221 135/369/220 164/371/222
f 165/370/221 164/371/222 182/372/223
f 182/372/223 164/371/222 181/373/224
f 182/372/223 181/373/224 199/374/225
f 199/374/225 181/373/224 198/375/226
f 199/374/225 198/375/226 197/376/227
f 197/376/227 198/375/226 196/377/228
f 197/376/227 196/377/228 179/378/229
f 179/378/229 196/377/228 188/379/230
f 179/378/229 188/379/230 158/380/231
f 179/378/229 158/380/231 159/381/232
f 159/381/232 158/380/231 143/382/233
f 143/382/233 158/380/231 142/383/234
f 143/382/233 142/383/234 118/384/235
f 118/384/235 142/383/234 117/385/236
f 118/384/235 117/385/236 90/386/237
f 90/386/237 117/385/236 89/387/238
f 90/386/237 89/387/238 81/388/239
f 81/388/239 89/387/238 80/389/240
f 81/388/239 80/389/240 67/390/241
f 67/390/241 80/389/240 66/391/242
f 67/390/241 66/391/242 65/392/243
f 65/392/243 66/391/242 64/393/244
f 65/392/243 64/393/244 79/394/245
f 79/394/245 64/393/244 78/395/246
f 79/394/245 78/395/246 103/364/217
f 103/364/217 78/395/246 102/365/218
f 147/396/247 145/397/248 122/398/249
f 122/398/249 145/397/248 100/399/250
f 122/398/249 100/399/250 68/400/251
f 68/400/251 100/399/250 71/401/252
f 68/400/251 71/401/252 36/402/252
f 36/402/252 71/401/252 49/403/253
f 36/402/252 49/403/253 25/404/254
f 25/404/254 49/403/253 51/405/255
f 25/404/254 51/405/255 28/406/255
f 28/406/255 51/405/255 43/407/256
f 43/407/256 51/405/255 76/408/257
f 43/407/256 76/408/257 55/409/258
f 55/409/258 76/408/257 86/410/259
f 86/410/259 76/408/257 119/411/260
f 86/410/259 119/411/260 114/412/260
f 114/412/260 119/411/260 169/413/261
f 169/413/261 119/411/260 162/414/215
f 169/413/261 162/414/215 186/415/262
f 169/413/261 186/415/262 208/416/263
f 208/416/263 186/415/262 206/417/264
f 208/416/263 206/417/264 220/418/264
f 220/418/264 206/417/264 217/419/265
f 217/419/265 206/417/264 191/420/266
f 217/419/265 191/420/266 210/421/266
f 210/421/266 191/420/266 190/422/267
f 190/422/267 191/420/266 145/397/248
f 190/422/267 145/397/248 147/396/247
f 128/423/268 112/424/269 134/425/270
f 128/426/268 134/427/270 153/428/271
f 153/428/271 134/427/270 152/429/272
f 153/428/271 152/429/272 173/430/273
f 173/430/273 152/429/272 174/431/274
f 173/430/273 174/431/274 160/432/275
f 160/432/275 174/431/274 166/433/276
f 160/432/275 166/433/276 140/434/277
f 160/432/275 140/434/277 141/435/278
f 141/435/278 140/434/277 109/436/279
f 109/436/279 140/434/277 115/437/280
f 109/436/279 115/437/280 97/438/281
f 109/436/279 97/438/281 96/439/282
f 96/439/282 97/438/281 95/440/283
f 96/439/282 95/440/283 99/441/284
f 99/441/284 95/440/283 105/442/285
f 105/442/285 95/440/283 112/424/269
f 105/442/285 112/424/269 128/423/268
