# Blender 5.2.0 LTS
# www.blender.org
mtllib cap.mtl
o cap
v 0.011499 -0.000018 0.000000
v 0.011428 0.001270 0.000000
v 0.011424 -0.001306 0.000000
v 0.011214 0.002542 0.000000
v 0.011206 -0.002577 0.000000
v 0.011195 0.000320 0.007000
v 0.011159 -0.000958 0.007000
v 0.011086 0.001594 0.007000
v 0.010977 -0.002224 0.007000
v 0.010858 0.003783 0.000000
v 0.010847 -0.003815 0.000000
v 0.010832 0.002847 0.007000
v 0.010652 -0.003461 0.007000
v 0.010437 0.004063 0.007000
v 0.010366 0.004975 0.000000
v 0.010352 -0.005006 0.000000
v 0.010188 -0.004653 0.007000
v 0.009906 0.005227 0.007000
v 0.009743 0.006106 0.000000
v 0.009727 -0.006133 0.000000
v 0.009591 -0.005784 0.007000
v 0.009245 0.006322 0.007000
v 0.008998 0.007159 0.000000
v 0.008980 -0.007183 0.000000
v 0.008869 -0.006839 0.007000
v 0.008696 0.000279 0.007000
v 0.008660 -0.000835 0.007000
v 0.008588 0.001389 0.007000
v 0.008296 0.000266 0.014200
v 0.008482 -0.001936 0.007000
v 0.008464 0.007334 0.007000
v 0.008194 0.001325 0.014200
v 0.008340 0.002475 0.007000
v 0.008262 -0.000797 0.014200
v 0.008165 -0.003005 0.007000
v 0.008139 0.008122 0.000000
v 0.008120 -0.008142 0.000000
v 0.008095 -0.000271 0.017800
v 0.007937 -0.001647 0.017800
v 0.008059 0.000811 0.017800
v 0.008032 -0.007806 0.007000
v 0.007636 -0.002711 0.017800
v 0.007811 0.002159 0.017800
v 0.007955 0.003522 0.007000
v 0.007443 0.003201 0.017800
v 0.007713 -0.004024 0.007000
v 0.007573 0.008251 0.007000
v 0.007223 -0.003673 0.017800
v 0.007440 0.004510 0.007000
v 0.007177 0.008983 0.000000
v 0.007158 -0.009000 0.000000
v 0.007135 -0.004977 0.007000
v 0.006969 0.004134 0.017800
v 0.007090 -0.008670 0.007000
v 0.006689 -0.004573 0.017800
v 0.006802 0.005424 0.007000
v 0.006583 0.009061 0.007000
v 0.006378 0.004997 0.017800
v 0.006440 -0.005849 0.007000
v 0.006044 -0.005396 0.017800
v 0.006125 0.009731 0.000000
v 0.006107 -0.009744 0.000000
v 0.006055 -0.009422 0.007000
v 0.006052 0.006250 0.007000
v 0.005680 0.005777 0.017800
v 0.005640 -0.006625 0.007000
v 0.005507 0.009752 0.007000
v 0.005297 -0.006130 0.017800
v 0.005204 0.006972 0.007000
v 0.004888 0.006461 0.017800
v 0.004995 0.010357 0.000000
v 0.004979 -0.010366 0.000000
v 0.004942 -0.010051 0.007000
v 0.004746 -0.007291 0.007000
v 0.004462 -0.006762 0.017800
v 0.004360 0.010317 0.007000
v 0.004269 0.007580 0.007000
v 0.004014 0.007037 0.017800
v 0.003802 0.010851 0.000000
v 0.003789 -0.010858 0.000000
v 0.003775 -0.007838 0.007000
v 0.003764 -0.010549 0.007000
v 0.003552 -0.007281 0.017800
v 0.003321 0.008038 0.007000
v 0.003161 0.007454 0.017800
v 0.003155 0.010746 0.007000
v 0.002999 0.007777 0.013560
v 0.002999 0.007277 0.013560
v 0.002952 0.007831 0.012971
v 0.002950 0.007332 0.012960
v 0.002934 0.007769 0.014123
v 0.002927 0.007269 0.014157
v 0.002786 0.007925 0.012387
v 0.002768 0.007435 0.012332
v 0.002754 0.007801 0.014690
v 0.002748 0.007302 0.014709
v 0.002741 -0.008257 0.007000
v 0.002583 -0.007678 0.017800
v 0.002509 0.007356 0.015157
v 0.002562 0.011209 0.000000
v 0.002552 -0.011213 0.000000
v 0.002537 -0.010909 0.007000
v 0.002431 0.007580 0.011737
v 0.002504 0.008049 0.011855
v 0.002461 0.007867 0.015211
v 0.002207 0.008415 0.007000
v 0.002154 0.008223 0.010600
v 0.002142 0.008180 0.011400
v 0.002160 0.007674 0.011416
v 0.002140 0.007812 0.017800
v 0.002104 0.007946 0.015639
v 0.002108 0.007446 0.015636
v 0.002026 0.007589 0.013501
v 0.001910 0.011036 0.007000
v 0.001697 0.008304 0.011027
v 0.001691 0.007806 0.011023
v 0.001663 -0.008540 0.007000
v 0.001661 0.008030 0.015997
v 0.001652 0.007532 0.016003
v 0.001583 -0.007945 0.017800
v 0.001289 0.011426 0.000000
v 0.001283 -0.011428 -0.000000
v 0.001277 -0.011127 0.007000
v 0.001167 0.008412 0.010736
v 0.001145 0.007915 0.010727
v 0.001140 0.008105 0.016275
v 0.001140 0.007605 0.016275
v 0.001113 0.008629 0.007000
v 0.001080 0.008028 0.017800
v 0.000659 0.007976 0.010574
v 0.000639 0.011182 0.007000
v 0.000588 0.008481 0.010560
v 0.000574 0.007655 0.016444
v 0.000573 0.008155 0.016444
v 0.000557 -0.008682 0.007000
v 0.000534 -0.008082 0.017800
v 0.000000 0.008008 0.010493
v -0.000000 0.011498 0.000000
v 0.000000 0.008700 0.007000
v 0.000002 0.008505 0.010502
v 0.000003 0.008172 0.016500
v 0.000000 0.008100 0.017800
v -0.000008 0.007671 0.016500
v -0.000000 -0.011200 0.007000
v -0.000000 -0.011500 -0.000000
v -0.000680 0.007976 0.010573
v -0.000534 -0.008082 0.017800
v -0.000557 -0.008682 0.007000
v -0.000571 0.008155 0.016444
v -0.000591 0.008481 0.010563
v -0.000591 0.007654 0.016440
v -0.000639 0.011182 0.007000
v -0.001121 0.007607 0.016283
v -0.001080 0.008028 0.017800
v -0.001166 0.008412 0.010736
v -0.001113 0.008629 0.007000
v -0.001140 0.008105 0.016275
v -0.001165 0.007913 0.010732
v -0.001289 0.011426 0.000000
v -0.001283 -0.011428 -0.000000
v -0.001277 -0.011127 0.007000
v -0.001606 0.007828 0.010961
v -0.001568 -0.007947 0.017800
v -0.001653 0.007532 0.016003
v -0.001661 0.008030 0.015997
v -0.001663 -0.008540 0.007000
v -0.001694 0.008305 0.011029
v -0.001910 0.011036 0.007000
v -0.002064 0.007706 0.011319
v -0.002104 0.007946 0.015639
v -0.002147 0.007438 0.015602
v -0.002140 0.007812 0.017800
v -0.002143 0.008180 0.011405
v -0.002207 0.008415 0.007000
v -0.002493 0.007557 0.011818
v -0.002457 0.007369 0.015223
v -0.002469 0.007866 0.015203
v -0.002509 0.008048 0.011860
v -0.002562 0.011209 0.000000
v -0.002552 -0.011213 0.000000
v -0.002537 -0.010909 0.007000
v -0.002600 -0.007672 0.017800
v -0.002741 -0.008257 0.007000
v -0.002754 0.007801 0.014690
v -0.002754 0.007301 0.014690
v -0.002786 0.007925 0.012387
v -0.002783 0.007427 0.012377
v -0.002921 0.007770 0.014172
v -0.002959 0.007266 0.014019
v -0.002950 0.007332 0.012959
v -0.002952 0.007830 0.012972
v -0.002999 0.007777 0.013560
v -0.002999 0.007277 0.013560
v -0.003143 0.007465 0.017800
v -0.003155 0.010746 0.007000
v -0.003356 0.008021 0.007000
v -0.003574 -0.007270 0.017800
v -0.003775 -0.007838 0.007000
v -0.003802 0.010851 0.000000
v -0.003789 -0.010858 0.000000
v -0.003764 -0.010549 0.007000
v -0.004016 0.007036 0.017800
v -0.004269 0.007580 0.007000
v -0.004360 0.010317 0.007000
v -0.004487 -0.006746 0.017800
v -0.004746 -0.007291 0.007000
v -0.004995 0.010357 0.000000
v -0.004979 -0.010366 0.000000
v -0.004942 -0.010051 0.007000
v -0.004890 0.006460 0.017800
v -0.005204 0.006972 0.007000
v -0.005295 -0.006132 0.017800
v -0.005507 0.009752 0.007000
v -0.005640 -0.006625 0.007000
v -0.005714 0.005747 0.017800
v -0.006052 0.006250 0.007000
v -0.006124 0.009731 0.000000
v -0.006107 -0.009744 0.000000
v -0.006055 -0.009422 0.007000
v -0.006041 -0.005398 0.017800
v -0.006440 -0.005849 0.007000
v -0.006410 0.004959 0.017800
v -0.006583 0.009061 0.007000
v -0.006802 0.005424 0.007000
v -0.006687 -0.004575 0.017800
v -0.007177 0.008983 0.000000
v -0.007158 -0.009000 0.000000
v -0.007090 -0.008670 0.007000
v -0.006971 0.004131 0.017800
v -0.007135 -0.004977 0.007000
v -0.007245 -0.003629 0.017800
v -0.007440 0.004510 0.007000
v -0.007713 -0.004024 0.007000
v -0.007468 0.003150 0.017800
v -0.007573 0.008252 0.007000
v -0.007635 -0.002714 0.017800
v -0.007955 0.003522 0.007000
v -0.007796 0.002212 0.017800
v -0.007934 -0.001648 0.017800
v -0.008139 0.008122 0.000000
v -0.008120 -0.008142 0.000000
v -0.008032 -0.007806 0.007000
v -0.008059 0.000811 0.017800
v -0.008095 -0.000271 0.017800
v -0.008165 -0.003005 0.007000
v -0.008194 0.001325 0.014200
v -0.008262 -0.000797 0.014200
v -0.008482 -0.001936 0.007000
v -0.008296 0.000266 0.014200
v -0.008340 0.002475 0.007000
v -0.008660 -0.000835 0.007000
v -0.008464 0.007334 0.007000
v -0.008588 0.001389 0.007000
v -0.008696 0.000279 0.007000
v -0.008869 -0.006839 0.007000
v -0.008998 0.007159 0.000000
v -0.008980 -0.007183 0.000000
v -0.009245 0.006322 0.007000
v -0.009591 -0.005784 0.007000
v -0.009743 0.006106 0.000000
v -0.009727 -0.006133 0.000000
v -0.009906 0.005227 0.007000
v -0.010188 -0.004653 0.007000
v -0.010366 0.004975 0.000000
v -0.010352 -0.005006 0.000000
v -0.010437 0.004063 0.007000
v -0.010652 -0.003461 0.007000
v -0.010858 0.003783 0.000000
v -0.010847 -0.003815 0.000000
v -0.010832 0.002847 0.007000
v -0.010977 -0.002224 0.007000
v -0.011214 0.002542 0.000000
v -0.011206 -0.002577 0.000000
v -0.011086 0.001594 0.007000
v -0.011159 -0.000958 0.007000
v -0.011195 0.000320 0.007000
v -0.011428 0.001270 0.000000
v -0.011424 -0.001306 0.000000
v -0.011499 -0.000018 0.000000
vn -0.0785 0.7175 0.6922
vn -0.2033 0.6692 0.7147
vn -0.1420 0.7229 0.6762
vn -0.2262 0.7399 0.6335
vn -0.3990 0.7110 0.5791
vn -0.3236 0.7627 0.5600
vn -0.3490 0.8080 0.4748
vn -0.5523 0.7469 0.3703
vn -0.4730 0.8118 0.3425
vn -0.5141 0.8315 0.2106
vn -0.5143 0.8466 -0.1370
vn -0.5513 0.7753 -0.3082
vn -0.4764 0.8267 -0.2993
vn -0.3886 0.8145 -0.4309
vn -0.3881 0.7498 -0.5359
vn -0.3324 0.7921 -0.5120
vn -0.2348 0.7832 -0.5757
vn -0.2038 0.7100 -0.6741
vn -0.1635 0.7657 -0.6221
vn -0.0739 0.7581 -0.6479
vn 0.0734 0.7577 -0.6484
vn 0.2167 0.7061 -0.6741
vn 0.1648 0.7674 -0.6196
vn 0.2329 0.7783 -0.5831
vn 0.4100 0.7462 -0.5244
vn 0.6986 -0.0037 -0.7155
vn 0.4768 0.7686 -0.4265
vn 0.4095 0.8176 -0.4047
vn 0.4715 0.8351 -0.2833
vn 0.5304 0.8469 0.0382
vn 0.5189 0.8444 -0.1333
vn 0.6106 0.7919 -0.0044
vn 0.6074 0.7908 -0.0751
vn 0.5406 0.7815 -0.3116
vn 0.0785 0.7088 0.7010
vn 0.1626 0.7339 0.6595
vn 0.2041 0.6750 0.7091
vn 0.2401 0.7444 0.6231
vn 0.3931 0.7737 0.4968
vn 0.4735 0.8035 0.3607
vn 0.5385 0.7671 0.3486
vn 0.5105 0.8356 0.2027
vn 0.5795 0.7879 0.2084
vn 0.4737 0.7225 0.5036
vn 0.3264 0.7650 0.5553
vn 0.3784 0.7084 0.5958
vn 0.2709 0.6831 0.6782
vn 0.1309 0.6532 0.7458
vn 0.0078 0.0196 0.9998
vn 0.0081 0.7128 0.7013
vn -0.1233 0.6605 0.7406
vn -0.2967 0.6849 0.6655
vn -0.4477 0.7280 0.5192
vn -0.5898 0.7755 0.2251
vn -0.9998 0.0001 -0.0201
vn -0.5269 0.8493 0.0321
vn -0.5886 0.7901 -0.1714
vn -0.4810 0.7731 -0.4135
vn -0.3051 0.7230 -0.6198
vn -0.0067 0.6941 -0.7198
vn -0.0001 0.7551 -0.6556
vn -0.1085 0.6998 -0.7060
vn 0.1302 0.5773 -0.8061
vn 0.2967 0.7249 -0.6217
vn -0.0001 0.9986 0.0520
vn 0.2487 0.9671 0.0542
vn 0.3593 0.9316 0.0555
vn 0.1331 0.9896 0.0555
vn -0.0000 0.9985 0.0555
vn 0.2650 0.9626 0.0557
vn 0.2888 0.6382 0.7136
vn 0.2541 0.6233 0.7395
vn 0.2497 0.9667 0.0552
vn 0.1727 0.6487 0.7412
vn 0.1277 0.9903 0.0555
vn 0.9863 0.1558 0.0548
vn 0.6806 0.1824 0.7096
vn 0.9927 0.1068 0.0564
vn 0.9980 0.0326 0.0546
vn 0.9976 -0.0399 0.0564
vn 0.9942 -0.0915 0.0560
vn 0.6893 -0.1369 0.7114
vn -0.4354 -0.5117 0.7407
vn -0.3667 -0.5630 0.7406
vn -0.4588 -0.5305 0.7128
vn -0.7391 -0.6713 0.0550
vn -0.5230 -0.4676 0.7127
vn -0.8189 -0.5713 0.0549
vn -0.5796 -0.3959 0.7122
vn -0.5958 -0.3106 0.7406
vn -0.6305 -0.2323 0.7406
vn -0.6618 -0.2334 0.7124
vn -0.6553 -0.1497 0.7404
vn -0.6715 0.0215 0.7407
vn -0.6690 -0.0643 0.7405
vn -0.9981 0.0316 0.0531
vn -0.9857 0.1594 0.0555
vn -0.9862 0.1567 0.0539
vn -0.9572 0.2842 0.0556
vn -0.6783 0.1824 0.7117
vn -0.6145 0.2718 0.7406
vn -0.5745 0.3485 0.7406
vn -0.6043 0.3563 0.7126
vn -0.5252 0.4188 0.7408
vn -0.4018 0.5386 0.7406
vn -0.4675 0.4825 0.7407
vn -0.4235 0.5595 0.7124
vn -0.4904 0.8697 0.0556
vn -0.3485 0.6089 0.7126
vn -0.2551 0.6224 0.7400
vn -0.1747 0.6487 0.7407
vn -0.2686 0.6500 0.7109
vn -0.2634 0.9631 0.0554
vn -0.2555 0.9652 0.0555
vn -0.1331 0.9896 0.0555
vn -0.1360 -0.6884 0.7125
vn -0.2243 -0.6650 0.7123
vn -0.2117 -0.6377 0.7406
vn -0.2915 -0.6055 0.7405
vn -0.3090 -0.6301 0.7124
vn -0.3879 -0.5848 0.7124
vn -0.6268 -0.3167 0.7119
vn -0.6909 -0.1374 0.7098
vn -0.9943 -0.0914 0.0549
vn -0.9976 -0.0407 0.0565
vn -0.9925 0.1085 0.0567
vn -0.6468 0.2746 0.7115
vn -0.5555 0.4299 0.7118
vn -0.4946 0.4989 0.7117
vn -0.1277 0.9903 0.0556
vn -0.0000 0.9985 0.0556
vn -0.1284 -0.6595 0.7407
vn -0.0430 -0.6704 0.7407
vn -0.0457 -0.7001 0.7125
vn 0.0458 -0.7003 0.7124
vn 0.0431 -0.6704 0.7407
vn 0.1364 -0.6883 0.7124
vn 0.1284 -0.6594 0.7407
vn 0.2237 -0.6650 0.7126
vn 0.3146 -0.9476 0.0556
vn 0.3075 -0.6308 0.7125
vn 0.4332 -0.8996 0.0556
vn 0.3863 -0.5858 0.7124
vn 0.5447 -0.8368 0.0556
vn 0.4587 -0.5311 0.7124
vn 0.6472 -0.7603 0.0556
vn 0.5234 -0.4676 0.7124
vn 0.7391 -0.6713 0.0557
vn 0.5793 -0.3962 0.7123
vn 0.8189 -0.5712 0.0557
vn 0.6255 -0.3183 0.7123
vn 0.8852 -0.4618 0.0557
vn 0.6614 -0.2348 0.7123
vn 0.6305 -0.2323 0.7406
vn 0.6552 -0.1494 0.7405
vn 0.6687 -0.0645 0.7407
vn 0.9979 0.0320 0.0555
vn 0.6632 0.1072 0.7407
vn 0.6442 0.1911 0.7406
vn 0.6452 0.2762 0.7123
vn 0.9130 0.4042 0.0548
vn 0.6032 0.3580 0.7127
vn 0.8538 0.5176 0.0549
vn 0.5521 0.4328 0.7127
vn 0.7806 0.6226 0.0550
vn 0.4917 0.5004 0.7127
vn 0.6946 0.7173 0.0550
vn 0.4231 0.5596 0.7127
vn 0.5972 0.8002 0.0551
vn 0.3478 0.6091 0.7127
vn 0.3298 0.5854 0.7406
vn -0.0000 -0.0000 1.0000
vn -0.0000 -0.0001 1.0000
vn 0.0003 -0.0000 1.0000
vn -0.1139 -0.9926 0.0428
vn -0.0819 -0.7293 -0.6792
vn -0.0000 -0.9991 0.0427
vn -0.0000 -0.7339 -0.6792
vn 0.0819 -0.7293 -0.6792
vn -0.1629 -0.7156 -0.6793
vn -0.2263 -0.9731 0.0428
vn -0.2417 -0.6930 -0.6792
vn -0.3358 -0.9410 0.0425
vn -0.3177 -0.6614 -0.6794
vn -0.4409 -0.8966 0.0423
vn -0.3895 -0.6220 -0.6793
vn -0.5402 -0.8405 0.0422
vn -0.4566 -0.5745 -0.6793
vn -0.6325 -0.7734 0.0421
vn -0.5180 -0.5198 -0.6794
vn -0.7165 -0.6963 0.0420
vn -0.5728 -0.4586 -0.6794
vn -0.7912 -0.6101 0.0419
vn -0.6205 -0.3918 -0.6793
vn -0.8556 -0.5159 0.0418
vn -0.6604 -0.3198 -0.6794
vn -0.9088 -0.4151 0.0417
vn -0.6921 -0.2439 -0.6794
vn -0.9502 -0.3088 0.0416
vn -0.7150 -0.1649 -0.6794
vn -0.9792 -0.1984 0.0415
vn -0.7292 -0.0839 -0.6792
vn -0.9955 -0.0855 0.0415
vn -0.7346 -0.0017 -0.6785
vn -0.9987 0.0285 0.0414
vn -0.7293 0.0804 -0.6794
vn -0.9890 0.1422 0.0413
vn -0.7157 0.1616 -0.6794
vn -0.9663 0.2540 0.0412
vn -0.6931 0.2407 -0.6794
vn -0.9311 0.3625 0.0411
vn -0.6618 0.3168 -0.6794
vn -0.8837 0.4663 0.0411
vn -0.6221 0.3890 -0.6794
vn -0.8248 0.5640 0.0410
vn -0.5746 0.4562 -0.6795
vn -0.7551 0.6543 0.0410
vn -0.5199 0.5178 -0.6795
vn -0.6756 0.7361 0.0410
vn -0.4586 0.5727 -0.6795
vn -0.5873 0.8083 0.0409
vn -0.3916 0.6205 -0.6794
vn -0.4913 0.8700 0.0409
vn -0.3195 0.6605 -0.6794
vn -0.3889 0.9204 0.0409
vn -0.2435 0.6922 -0.6794
vn -0.2815 0.9587 0.0408
vn -0.1644 0.7151 -0.6794
vn -0.1704 0.9845 0.0409
vn -0.0832 0.7290 -0.6794
vn -0.0570 0.9975 0.0409
vn -0.0010 0.7338 -0.6794
vn 0.0570 0.9975 0.0409
vn 0.0814 0.7292 -0.6794
vn 0.1704 0.9845 0.0409
vn 0.1626 0.7155 -0.6794
vn 0.2815 0.9587 0.0408
vn 0.2418 0.6927 -0.6794
vn 0.3889 0.9204 0.0409
vn 0.3179 0.6613 -0.6794
vn 0.4913 0.8700 0.0409
vn 0.3901 0.6215 -0.6794
vn 0.5873 0.8083 0.0409
vn 0.4573 0.5738 -0.6795
vn 0.6756 0.7361 0.0410
vn 0.5188 0.5188 -0.6795
vn 0.7551 0.6543 0.0410
vn 0.5737 0.4574 -0.6795
vn 0.8248 0.5640 0.0410
vn 0.6213 0.3903 -0.6795
vn 0.8837 0.4663 0.0411
vn 0.6611 0.3182 -0.6794
vn 0.9311 0.3625 0.0411
vn 0.6926 0.2420 -0.6795
vn 0.9663 0.2540 0.0412
vn 0.7154 0.1629 -0.6795
vn 0.9890 0.1422 0.0413
vn 0.7294 0.0818 -0.6792
vn 0.9987 0.0285 0.0414
vn 0.7345 -0.0005 -0.6786
vn 0.9955 -0.0855 0.0415
vn 0.7291 -0.0827 -0.6794
vn 0.9792 -0.1984 0.0415
vn 0.7152 -0.1639 -0.6794
vn 0.9502 -0.3088 0.0416
vn 0.6923 -0.2430 -0.6794
vn 0.9088 -0.4151 0.0417
vn 0.6608 -0.3190 -0.6794
vn 0.8556 -0.5159 0.0418
vn 0.6210 -0.3909 -0.6794
vn 0.7912 -0.6101 0.0419
vn 0.5733 -0.4580 -0.6794
vn 0.7165 -0.6963 0.0420
vn 0.5185 -0.5193 -0.6793
vn 0.6325 -0.7734 0.0421
vn 0.4570 -0.5741 -0.6794
vn 0.5402 -0.8405 0.0422
vn 0.3900 -0.6217 -0.6793
vn 0.4409 -0.8966 0.0423
vn 0.3179 -0.6614 -0.6793
vn 0.3358 -0.9410 0.0425
vn 0.2420 -0.6928 -0.6793
vn 0.2263 -0.9731 0.0428
vn 0.1629 -0.7156 -0.6793
vn 0.1139 -0.9926 0.0428
vn -0.0001 -0.0000 1.0000
vt -0.530742 0.000014
vt -0.589626 0.049906
vt -0.589626 0.000000
vt -0.648511 0.000026
vt -0.707396 0.050518
vt -0.707395 0.000000
vt -0.766475 -0.000025
vt -0.821498 0.049722
vt -0.825555 0.000000
vt -0.884634 0.000023
vt -1.000524 0.000008
vt -1.057336 0.049883
vt -1.057335 0.000000
vt -1.114146 -0.000146
vt -1.170956 0.050083
vt -1.170956 0.000000
vt -1.228046 0.000027
vt -1.285136 0.050009
vt -1.285136 0.000000
vt -1.342227 -0.000001
vt -1.456407 -0.000014
vt -1.513497 0.049995
vt -1.513497 0.000000
vt -1.570587 0.000025
vt -1.631266 0.050313
vt -1.627677 0.000000
vt -1.683218 0.049926
vt -1.684488 0.000000
vt -1.741298 0.000000
vt -1.854920 0.000000
vt -1.798109 -0.000114
vt -1.854920 0.050000
vt -1.809119 0.050019
vt -1.741298 0.050000
vt -0.412972 0.000065
vt -0.354088 0.000000
vt -0.354086 0.049836
vt -0.295203 -0.000004
vt -0.177239 0.000117
vt -0.118159 0.000000
vt -0.118159 0.049835
vt -0.059080 0.000032
vt -0.000000 0.000000
vt -0.000000 0.050000
vt -0.060093 0.050024
vt -0.181085 0.049941
vt -0.236318 -0.000151
vt -0.247531 0.049984
vt -0.306161 0.049953
vt -0.404184 0.049962
vt -0.471912 0.049990
vt -0.471857 0.000055
vt -0.537625 0.049954
vt -0.647930 0.049979
vt -0.752486 0.049987
vt -0.883774 0.050024
vt -0.943714 0.049999
vt -0.943714 -0.000001
vt -1.003259 0.050032
vt -1.108287 0.050026
vt -1.228945 0.049979
vt -1.400645 0.050000
vt -1.399317 0.000000
vt -1.342157 0.049952
vt -1.458138 0.049953
vt -1.569783 0.049980
vt 0.116175 -0.306942
vt 0.162054 -0.302733
vt 0.229342 -0.282992
vt 0.281814 -0.252831
vt -0.107876 -0.205420
vt 0.321791 -0.218290
vt 0.360833 -0.169234
vt 0.388736 -0.116507
vt -0.143406 -0.158409
vt -0.166557 -0.115116
vt -0.181940 -0.066497
vt 0.410638 -0.001337
vt -0.189939 0.000042
vt -0.182878 0.064668
vt -0.167219 0.115147
vt -0.137889 0.167520
vt 0.110300 0.204632
vt -0.100156 0.213612
vt -0.066033 0.243188
vt -0.005063 0.279984
vt 0.056127 0.300423
vt 0.175927 0.300432
vt 0.116175 0.306946
vt 0.404671 -0.060293
vt 0.405003 0.058578
vt 0.388113 0.116476
vt 0.360887 0.169151
vt 0.324397 0.215792
vt 0.275533 0.256828
vt 0.229344 0.282995
vt -0.057659 -0.249311
vt -0.001289 -0.281880
vt 0.055973 -0.300389
vt 0.540833 -2.526643
vt 0.405019 -2.579998
vt 0.540833 -2.638938
vt 0.410632 -2.638938
vt 0.540833 2.638938
vt 0.410632 2.638938
vt 0.405019 2.579998
vt 0.540833 -2.414347
vt 0.360379 -2.467745
vt 0.388113 -2.521607
vt 0.540846 -2.302052
vt 0.229343 -2.353869
vt 0.280742 -2.383473
vt 0.324397 -2.421563
vt 0.173159 -2.335763
vt 0.116175 -2.329744
vt -0.540807 -2.315803
vt 0.056991 -2.336133
vt -0.001289 -2.354990
vt -0.180278 -2.423714
vt -0.054667 -2.385264
vt -0.100156 -2.423758
vt -0.137555 -2.469691
vt -0.540833 -2.423514
vt -0.540833 -2.531226
vt 0.180279 -1.454109
vt 0.537245 -1.516441
vt 0.540833 -1.403690
vt 0.180287 -1.346397
vt 0.540833 -1.291395
vt 0.180278 -1.238685
vt 0.536879 -1.178572
vt -0.540833 0.592415
vt -0.540833 0.484703
vt 0.539555 0.617535
vt -0.540833 0.700126
vt 0.539036 0.729771
vt -0.540833 0.807838
vt 0.538430 0.841985
vt -0.540833 0.915550
vt -0.540833 1.023262
vt 0.536964 1.066338
vt -0.540833 1.130973
vt -0.540833 1.346397
vt -0.540833 1.238685
vt 0.180271 1.346397
vt -0.540833 1.454109
vt 0.180279 1.454109
vt -0.540833 1.561820
vt 0.536582 1.516525
vt -0.540833 1.669532
vt -0.540833 1.777244
vt 0.538122 1.740852
vt -0.540833 1.884956
vt -0.540833 2.100379
vt -0.540833 1.992667
vt 0.539794 2.077527
vt -0.540833 2.208091
vt 0.540175 2.189791
vt -0.540786 2.315803
vt -0.540833 2.423514
vt -0.099465 2.423759
vt -0.137555 2.469691
vt -0.054667 2.385264
vt -0.001289 2.354990
vt 0.056991 2.336133
vt 0.116175 2.329744
vt 0.540758 2.302055
vt 0.173159 2.335763
vt 0.229343 2.353869
vt 0.540833 2.414347
vt 0.280742 2.383473
vt 0.324397 2.421563
vt 0.360379 2.467745
vt 0.540833 2.526643
vt 0.388113 2.521607
vt 0.540745 0.168441
vt 0.540639 0.280732
vt -0.540833 0.269279
vt -0.540833 0.376991
vt 0.540437 0.393015
vt 0.540160 0.505289
vt 0.538270 0.954232
vt 0.536873 1.178571
vt 0.180278 1.238685
vt 0.540833 1.291395
vt 0.540833 1.403690
vt 0.537972 1.628608
vt 0.539154 1.853020
vt 0.539624 1.965258
vt -0.540833 2.531226
vt -0.166721 2.523075
vt -0.184345 2.580642
vt -0.540833 2.638938
vt -0.190293 2.638938
vt -0.540833 -2.638938
vt -0.190293 -2.638938
vt -0.184345 -2.580642
vt -0.166729 -2.523080
vt -0.540833 0.161568
vt -0.540833 0.053856
vt 0.540829 0.056148
vt 0.540828 -0.056148
vt -0.540833 -0.053856
vt 0.540769 -0.168442
vt -0.540833 -0.161568
vt 0.540581 -0.280730
vt -0.540833 -0.269279
vt 0.540331 -0.393011
vt -0.540833 -0.376991
vt 0.539994 -0.505280
vt -0.540833 -0.484703
vt 0.539568 -0.617536
vt -0.540833 -0.592415
vt 0.539054 -0.729772
vt -0.540833 -0.700126
vt 0.538452 -0.841987
vt -0.540833 -0.807838
vt 0.537765 -0.954177
vt -0.540833 -0.915550
vt 0.536995 -1.066342
vt -0.540833 -1.023262
vt -0.540833 -1.130973
vt -0.540833 -1.238685
vt -0.540833 -1.346397
vt -0.540833 -1.454109
vt -0.540833 -1.561820
vt 0.537358 -1.628679
vt -0.540833 -1.669532
vt 0.538092 -1.740855
vt -0.540833 -1.777244
vt 0.538742 -1.853057
vt -0.540833 -1.884956
vt 0.539304 -1.965283
vt -0.540833 -1.992667
vt 0.539780 -2.077528
vt -0.540833 -2.100379
vt 0.540166 -2.189791
vt -0.540833 -2.208091
vt -0.810000 0.000000
vt -0.802773 -0.107962
vt -0.802773 0.107962
vt -0.781220 0.213998
vt -0.781220 -0.213998
vt -0.745726 0.316215
vt -0.696925 0.412789
vt -0.635688 0.501997
vt -0.563106 0.582247
vt -0.480476 0.652107
vt -0.389271 0.710329
vt -0.291120 0.755876
vt -0.187774 0.787934
vt -0.081078 0.805932
vt 0.027066 0.809548
vt 0.134727 0.798717
vt -0.745726 -0.316215
vt 0.239983 0.773633
vt 0.340957 0.734744
vt 0.435847 0.682743
vt 0.522959 0.618558
vt 0.600738 0.543336
vt 0.667798 0.458417
vt 0.722940 0.365318
vt 0.765182 0.265700
vt 0.793769 0.161341
vt 0.808191 0.054102
vt 0.808191 -0.054102
vt 0.793769 -0.161341
vt 0.765182 -0.265700
vt 0.722940 -0.365318
vt -0.696925 -0.412789
vt 0.667798 -0.458417
vt -0.635688 -0.501997
vt 0.600738 -0.543336
vt -0.563106 -0.582247
vt 0.522959 -0.618558
vt -0.480476 -0.652107
vt 0.435847 -0.682743
vt -0.389271 -0.710329
vt 0.340957 -0.734744
vt -0.291120 -0.755876
vt 0.239983 -0.773633
vt -0.187774 -0.787934
vt 0.134727 -0.798717
vt -0.081078 -0.805932
vt 0.027066 -0.809548
vt 0.350321 -3.436045
vt -0.350321 -3.438361
vt 0.350321 -3.565708
vt -0.000000 -3.565708
vt 0.350321 3.565708
vt -0.350321 3.565708
vt -0.350321 3.438361
vt -0.350320 -3.311014
vt 0.350321 -3.306383
vt -0.350319 -3.183667
vt 0.350321 -3.176721
vt -0.350319 -3.056321
vt 0.350321 -3.047059
vt -0.350318 -2.928974
vt 0.350321 -2.917397
vt -0.350317 -2.801627
vt 0.350321 -2.787735
vt -0.350316 -2.674281
vt 0.350321 -2.658073
vt -0.350315 -2.546934
vt 0.350321 -2.528411
vt -0.350314 -2.419587
vt 0.350321 -2.398749
vt -0.350313 -2.292241
vt 0.350321 -2.269087
vt -0.350313 -2.164894
vt 0.350321 -2.139425
vt -0.350312 -2.037547
vt 0.350321 -2.009763
vt -0.350309 -1.910200
vt 0.350321 -1.880100
vt -0.350300 -1.782854
vt 0.350321 -1.750438
vt -0.350309 -1.655507
vt 0.350321 -1.620776
vt -0.350309 -1.528160
vt 0.350321 -1.491114
vt -0.350308 -1.400814
vt 0.350321 -1.361452
vt -0.350307 -1.273467
vt 0.350321 -1.231790
vt -0.350307 -1.146120
vt 0.350321 -1.102128
vt -0.350306 -1.018774
vt 0.350321 -0.972466
vt -0.350306 -0.891427
vt 0.350321 -0.842804
vt -0.350305 -0.764080
vt 0.350321 -0.713142
vt -0.350305 -0.636733
vt 0.350321 -0.583479
vt -0.350305 -0.509387
vt 0.350321 -0.453817
vt -0.350304 -0.382040
vt 0.350321 -0.324155
vt -0.350304 -0.254693
vt 0.350321 -0.194493
vt -0.350304 -0.127347
vt 0.350321 -0.064831
vt -0.350304 0.000000
vt 0.350321 0.064831
vt -0.350304 0.127347
vt 0.350321 0.194493
vt -0.350304 0.254693
vt 0.350321 0.324155
vt -0.350304 0.382040
vt 0.350321 0.453817
vt -0.350305 0.509387
vt 0.350321 0.583479
vt -0.350305 0.636733
vt 0.350321 0.713142
vt -0.350305 0.764080
vt 0.350321 0.842804
vt -0.350306 0.891427
vt 0.350321 0.972466
vt -0.350306 1.018774
vt 0.350321 1.102128
vt -0.350307 1.146120
vt 0.350321 1.231790
vt -0.350307 1.273467
vt 0.350321 1.361452
vt -0.350308 1.400814
vt 0.350321 1.491114
vt -0.350309 1.528160
vt 0.350321 1.620776
vt -0.350307 1.655507
vt 0.350321 1.750438
vt -0.350300 1.782854
vt 0.350321 1.880100
vt -0.350311 1.910200
vt 0.350321 2.009763
vt -0.350312 2.037547
vt 0.350321 2.139425
vt -0.350313 2.164894
vt 0.350321 2.269087
vt -0.350313 2.292241
vt 0.350321 2.398749
vt -0.350314 2.419587
vt 0.350321 2.528411
vt -0.350315 2.546934
vt 0.350321 2.658073
vt -0.350316 2.674281
vt 0.350321 2.787735
vt -0.350317 2.801627
vt 0.350321 2.917397
vt -0.350318 2.928974
vt 0.350321 3.047059
vt -0.350319 3.056321
vt 0.350321 3.176721
vt -0.350319 3.183667
vt 0.350321 3.306383
vt -0.350320 3.311014
vt 0.350321 3.436045
vt -1.112700 -0.127670
vt -0.868213 -0.055741
vt -1.120000 0.000000
vt -0.868213 0.055741
vt -1.112700 0.127670
vt -0.853957 0.166308
vt -1.090893 0.253676
vt -0.825679 0.274144
vt -1.054866 0.376375
vt -0.783843 0.377479
vt -1.005086 0.494168
vt -0.729137 0.474615
vt -0.942204 0.605518
vt -0.867039 0.708974
vt -0.662458 0.563959
vt -0.780570 0.803188
vt -0.584902 0.644042
vt -0.683926 0.886931
vt -0.497742 0.713550
vt -0.578365 0.959111
vt -0.402408 0.771341
vt -0.465265 1.018788
vt -0.300468 0.816468
vt -0.346099 1.065183
vt -0.193593 0.848187
vt -0.222421 1.097692
vt -0.083540 0.865980
vt -0.095844 1.115892
vt 0.027885 0.869553
vt 0.031983 1.119543
vt 0.159393 1.108600
vt 0.138852 0.858848
vt 0.284725 1.083205
vt 0.247539 0.834041
vt 0.406345 1.043688
vt 0.352161 0.795539
vt 0.522667 0.990565
vt 0.451002 0.743974
vt 0.632176 0.924529
vt 0.542436 0.680193
vt 0.733444 0.846440
vt 0.624964 0.605244
vt 0.825150 0.757316
vt 0.697230 0.520356
vt 0.906099 0.658319
vt 0.758047 0.426924
vt 0.975236 0.550741
vt 1.031659 0.435983
vt 0.806418 0.326482
vt 1.074632 0.315540
vt 0.841547 0.220680
vt 1.103596 0.190985
vt 0.862857 0.111253
vt 1.118173 0.063939
vt 0.870000 0.000000
vt 1.118173 -0.063939
vt 0.862857 -0.111253
vt 1.103596 -0.190985
vt 0.841547 -0.220680
vt 1.074632 -0.315540
vt 0.806418 -0.326482
vt 1.031659 -0.435983
vt 0.758047 -0.426924
vt 0.975236 -0.550741
vt 0.906099 -0.658319
vt 0.697230 -0.520356
vt 0.825150 -0.757316
vt 0.624964 -0.605244
vt 0.733444 -0.846440
vt 0.542436 -0.680193
vt 0.632176 -0.924529
vt 0.451002 -0.743974
vt 0.522667 -0.990565
vt 0.352161 -0.795539
vt 0.406345 -1.043688
vt 0.247539 -0.834041
vt 0.284725 -1.083205
vt 0.138852 -0.858848
vt 0.159393 -1.108600
vt 0.027885 -0.869553
vt 0.031983 -1.119543
vt -0.095844 -1.115892
vt -0.083540 -0.865980
vt -0.222421 -1.097692
vt -0.193593 -0.848187
vt -0.346099 -1.065183
vt -0.300468 -0.816468
vt -0.465265 -1.018788
vt -0.402408 -0.771341
vt -0.578365 -0.959111
vt -0.497742 -0.713550
vt -0.683926 -0.886931
vt -0.584902 -0.644042
vt -0.780570 -0.803188
vt -0.662458 -0.563959
vt -0.867039 -0.708974
vt -0.729137 -0.474615
vt -0.942204 -0.605518
vt -1.005086 -0.494168
vt -0.783843 -0.377479
vt -1.054866 -0.376375
vt -0.825679 -0.274144
vt -1.090893 -0.253676
vt -0.853957 -0.166308
vt 1.142769 0.128759
vt -1.142769 0.128759
vt 1.150000 0.000000
vt -1.150000 0.000000
vt 1.142769 -0.128759
vt -1.142769 -0.128759
vt 1.121167 -0.255899
vt -1.121167 -0.255899
vt 1.085466 -0.379821
vt -1.085466 -0.379821
vt 1.036114 -0.498966
vt -1.036114 -0.498966
vt 0.973733 -0.611837
vt -0.973733 -0.611837
vt 0.899106 -0.717013
vt -0.899106 -0.717013
vt 0.813173 -0.813173
vt -0.813173 -0.813173
vt 0.717013 -0.899106
vt -0.717013 -0.899106
vt 0.611837 -0.973733
vt -0.611837 -0.973733
vt 0.498966 -1.036114
vt -0.498966 -1.036114
vt 0.379821 -1.085466
vt -0.379821 -1.085466
vt 0.255899 -1.121167
vt -0.255899 -1.121167
vt 0.128759 -1.142769
vt -0.128759 -1.142769
vt -0.000000 -1.150000
vt -1.121167 0.255899
vt 1.121167 0.255899
vt -1.085466 0.379821
vt 1.085466 0.379821
vt -1.036114 0.498966
vt 1.036114 0.498966
vt -0.973733 0.611837
vt 0.973733 0.611837
vt -0.899106 0.717013
vt 0.899106 0.717013
vt -0.813173 0.813173
vt 0.813173 0.813173
vt -0.717013 0.899106
vt 0.717013 0.899106
vt -0.611837 0.973733
vt 0.611837 0.973733
vt -0.498966 1.036114
vt 0.498966 1.036114
vt -0.379821 1.085466
vt 0.379821 1.085466
vt -0.255899 1.121167
vt 0.255899 1.121167
vt -0.128759 1.142769
vt 0.128759 1.142769
vt -0.000000 1.150000
s 1
usemtl 246,246,243.001
f 132/1/1 125/2/2 124/3/3
f 124/3/3 125/2/2 115/4/4
f 115/4/4 109/5/5 108/6/6
f 108/6/6 109/5/5 104/7/7
f 104/7/7 94/8/8 93/9/9
f 93/9/9 94/8/8 89/10/10
f 91/11/11 96/12/12 95/13/13
f 95/13/13 96/12/12 105/14/14
f 105/14/14 112/15/15 111/16/16
f 111/16/16 112/15/15 118/17/17
f 118/17/17 127/18/18 126/19/19
f 126/19/19 127/18/18 134/20/20
f 149/21/21 153/22/22 157/23/23
f 157/23/23 153/22/22 165/24/24
f 165/24/24 171/25/25 170/26/26
f 170/26/26 171/25/25 176/27/27
f 170/26/26 176/27/27 177/28/28
f 177/28/28 176/27/27 184/29/29
f 192/30/30 188/31/31 193/32/32
f 193/32/32 188/31/31 189/33/33
f 189/33/33 188/31/31 185/34/34
f 185/34/34 188/31/31 184/29/29
f 185/34/34 184/29/29 176/27/27
f 150/35/35 155/36/36 158/37/37
f 158/37/37 155/36/36 167/38/38
f 178/39/39 186/40/40 187/41/41
f 187/41/41 186/40/40 191/42/42
f 191/42/42 192/43/30 193/44/32
f 193/44/32 190/45/43 191/42/42
f 191/42/42 190/45/43 187/41/41
f 187/41/41 175/46/44 178/39/39
f 178/39/39 175/46/44 173/47/45
f 173/47/45 175/46/44 169/48/46
f 173/47/45 169/48/46 167/38/38
f 167/38/38 169/48/46 162/49/47
f 167/38/38 162/49/47 158/37/37
f 158/37/37 146/50/48 150/35/35
f 150/35/35 146/50/48 137/51/49
f 150/35/35 137/51/49 140/52/50
f 140/52/50 137/51/49 132/1/1
f 132/1/1 137/51/49 130/53/51
f 132/1/1 130/53/51 125/2/2
f 125/2/2 116/54/52 115/4/4
f 115/4/4 116/54/52 109/5/5
f 109/5/5 103/55/53 104/7/7
f 104/7/7 103/55/53 94/8/8
f 94/8/8 90/56/54 89/10/10
f 89/10/10 90/56/54 88/57/55
f 89/10/10 88/57/55 87/58/56
f 87/58/56 88/57/55 91/11/11
f 88/57/55 92/59/57 91/11/11
f 91/11/11 92/59/57 96/12/12
f 96/12/12 99/60/58 105/14/14
f 105/14/14 99/60/58 112/15/15
f 118/17/17 112/15/15 119/61/59
f 118/17/17 119/61/59 127/18/18
f 143/62/60 141/63/61 133/64/62
f 133/64/62 141/63/61 134/20/20
f 133/64/62 134/20/20 127/18/18
f 141/63/61 143/62/60 149/21/21
f 149/21/21 143/62/60 151/65/63
f 149/21/21 151/65/63 153/22/22
f 153/22/22 164/66/64 165/24/24
f 165/24/24 164/66/64 171/25/25
f 193/67/32 189/68/33 185/69/34
f 193/67/32 185/69/34 176/70/27
f 193/67/32 176/70/27 169/71/46
f 169/71/46 176/70/27 171/72/25
f 171/72/25 164/73/64 169/71/46
f 169/71/46 164/73/64 153/74/22
f 169/71/46 153/74/22 162/75/47
f 162/75/47 153/74/22 158/76/37
f 158/76/37 153/74/22 146/77/48
f 146/77/48 153/74/22 143/78/60
f 146/77/48 143/78/60 137/79/65
f 137/79/65 143/78/60 130/80/51
f 130/80/51 143/78/60 125/81/2
f 116/82/52 125/81/2 113/83/66
f 116/82/52 113/83/66 109/84/5
f 109/84/5 113/83/66 103/85/53
f 103/85/53 113/83/66 94/86/8
f 94/86/8 113/83/66 90/87/54
f 90/87/54 113/83/66 92/88/57
f 90/87/54 92/88/57 88/89/67
f 153/74/22 151/90/63 143/78/60
f 143/78/60 133/91/62 125/81/2
f 125/81/2 133/91/62 127/92/18
f 125/81/2 127/92/18 119/93/59
f 125/81/2 119/93/59 113/83/66
f 113/83/66 119/93/59 112/94/15
f 113/83/66 112/94/15 99/95/58
f 113/83/66 99/95/58 96/96/12
f 113/83/66 96/96/12 92/88/57
f 169/71/46 175/97/44 193/67/32
f 193/67/32 175/97/44 187/98/41
f 193/67/32 187/98/41 190/99/43
usemtl 51,51,51.001
f 129/100/68 134/101/20 142/102/69
f 142/102/69 134/101/20 141/103/61
f 142/104/69 141/105/61 149/106/21
f 110/107/70 118/108/17 129/100/68
f 129/100/68 118/108/17 126/109/19
f 129/100/68 126/109/19 134/101/20
f 85/110/71 95/111/13 110/107/70
f 110/107/70 95/111/13 105/112/14
f 110/107/70 105/112/14 111/113/16
f 95/111/13 85/110/71 91/114/11
f 91/114/11 85/110/71 87/115/56
f 87/115/56 85/110/71 84/116/72
f 87/115/56 84/116/72 89/117/10
f 89/117/10 84/116/72 93/118/9
f 93/118/9 84/116/72 107/119/73
f 93/118/9 107/119/73 104/120/7
f 104/120/7 107/119/73 108/121/6
f 108/121/6 107/119/73 115/122/4
f 115/122/4 107/119/73 106/123/74
f 115/122/4 106/123/74 128/124/75
f 32/125/76 43/126/77 40/127/78
f 32/125/76 40/127/78 29/128/79
f 29/128/79 40/127/78 38/129/80
f 29/128/79 38/129/80 34/130/81
f 34/130/81 38/129/80 39/131/82
f 214/132/83 206/133/84 212/134/85
f 214/132/83 212/134/85 221/135/86
f 221/135/86 212/134/85 220/136/87
f 221/135/86 220/136/87 230/137/88
f 230/137/88 220/136/87 225/138/89
f 230/137/88 225/138/89 233/139/90
f 245/140/91 233/139/90 236/141/92
f 245/140/91 236/141/92 248/142/93
f 254/143/94 251/144/95 249/145/96
f 254/143/94 249/145/96 253/146/97
f 253/146/97 249/145/96 246/147/98
f 253/146/97 246/147/98 250/148/99
f 250/148/99 246/147/98 238/149/100
f 250/148/99 238/149/100 237/150/101
f 232/151/102 237/150/101 229/152/103
f 232/151/102 229/152/103 224/153/104
f 211/154/105 216/155/106 210/156/107
f 211/154/105 210/156/107 203/157/108
f 203/157/108 210/156/107 202/158/109
f 203/157/108 202/158/109 196/159/110
f 174/160/111 196/159/110 173/161/45
f 174/160/111 173/161/45 167/162/38
f 178/163/39 173/161/45 196/159/110
f 178/163/39 196/159/110 186/164/40
f 186/164/40 196/159/110 191/165/42
f 191/165/42 196/159/110 192/166/30
f 192/166/30 196/159/110 194/167/112
f 192/166/30 194/167/112 188/168/31
f 188/168/31 194/167/112 184/169/29
f 184/169/29 194/167/112 172/170/113
f 184/169/29 172/170/113 177/171/28
f 177/171/28 172/170/113 170/172/114
f 170/172/114 172/170/113 165/173/24
f 165/173/24 172/170/113 154/174/115
f 165/173/24 154/174/115 157/175/23
f 157/175/23 154/174/115 149/106/21
f 149/106/21 154/174/115 142/104/69
f 163/176/116 182/177/117 183/178/118
f 183/178/118 182/177/117 198/179/119
f 182/177/117 197/180/120 198/179/119
f 198/179/119 197/180/120 206/133/84
f 197/180/120 205/181/121 206/133/84
f 206/133/84 205/181/121 212/134/85
f 225/138/89 231/182/122 233/139/90
f 233/139/90 231/182/122 236/141/92
f 236/141/92 239/183/123 248/142/93
f 248/142/93 239/183/123 251/144/95
f 239/183/123 247/184/124 251/144/95
f 251/144/95 247/184/124 249/145/96
f 239/183/123 244/185/125 247/184/124
f 247/184/124 244/185/125 249/145/96
f 244/185/125 243/186/126 249/145/96
f 249/145/96 243/186/126 246/147/98
f 243/186/126 238/149/100 246/147/98
f 238/149/100 234/187/127 237/150/101
f 237/150/101 234/187/127 229/152/103
f 229/152/103 222/188/128 224/153/104
f 224/153/104 222/188/128 216/155/106
f 222/188/128 215/189/129 216/155/106
f 216/155/106 215/189/129 210/156/107
f 202/158/109 194/167/112 196/159/110
f 174/160/111 167/162/38 156/190/130
f 156/190/130 167/162/38 155/191/36
f 155/191/36 150/192/35 156/190/130
f 156/190/130 150/192/35 139/193/131
f 139/193/131 150/192/35 140/194/50
f 139/195/131 140/196/50 132/197/1
f 132/197/1 124/198/3 128/124/75
f 132/197/1 128/124/75 139/195/131
f 128/124/75 124/198/3 115/122/4
f 111/113/16 118/108/17 110/107/70
f 183/178/118 166/199/132 163/176/116
f 163/176/116 166/199/132 148/200/133
f 163/176/116 148/200/133 147/201/134
f 147/201/134 148/200/133 136/202/135
f 148/200/133 135/203/136 136/202/135
f 136/202/135 135/203/136 120/204/137
f 135/203/136 117/205/138 120/204/137
f 120/204/137 117/205/138 98/206/139
f 117/205/138 97/207/140 98/206/139
f 98/206/139 97/207/140 83/208/141
f 97/207/140 81/209/142 83/208/141
f 83/208/141 81/209/142 75/210/143
f 81/209/142 74/211/144 75/210/143
f 75/210/143 74/211/144 68/212/145
f 74/211/144 66/213/146 68/212/145
f 68/212/145 66/213/146 60/214/147
f 66/213/146 59/215/148 60/214/147
f 60/214/147 59/215/148 55/216/149
f 59/215/148 52/217/150 55/216/149
f 55/216/149 52/217/150 48/218/151
f 52/217/150 46/219/152 48/218/151
f 48/218/151 46/219/152 42/220/153
f 46/219/152 35/221/154 42/220/153
f 42/220/153 35/221/154 30/222/155
f 42/220/153 30/222/155 39/131/82
f 39/131/82 30/222/155 34/130/81
f 30/222/155 27/223/156 34/130/81
f 34/130/81 27/223/156 29/128/79
f 27/223/156 26/224/157 29/128/79
f 29/128/79 26/224/157 32/125/76
f 26/224/157 28/225/158 32/125/76
f 32/125/76 28/225/158 33/226/159
f 32/125/76 33/226/159 43/126/77
f 43/126/77 33/226/159 45/227/160
f 33/226/159 44/228/161 45/227/160
f 45/227/160 44/228/161 53/229/162
f 44/228/161 49/230/163 53/229/162
f 53/229/162 49/230/163 58/231/164
f 49/230/163 56/232/165 58/231/164
f 58/231/164 56/232/165 65/233/166
f 56/232/165 64/234/167 65/233/166
f 65/233/166 64/234/167 70/235/168
f 64/234/167 69/236/169 70/235/168
f 70/235/168 69/236/169 78/237/170
f 69/236/169 77/238/171 78/237/170
f 78/237/170 77/238/171 84/116/72
f 78/237/170 84/116/72 85/110/71
f 84/116/72 106/123/74 107/119/73
f 142/239/172 154/240/172 129/241/172
f 129/241/172 154/240/172 110/242/173
f 110/242/173 154/240/172 172/243/172
f 110/242/173 172/243/172 85/244/71
f 85/244/71 172/243/172 78/245/170
f 78/245/170 172/243/172 70/246/168
f 70/246/168 172/243/172 65/247/166
f 65/247/166 172/243/172 58/248/164
f 58/248/164 172/243/172 53/249/162
f 53/249/162 172/243/172 45/250/160
f 45/250/160 172/243/172 43/251/77
f 43/251/77 172/243/172 40/252/172
f 40/252/172 172/243/172 38/253/172
f 38/253/172 172/243/172 39/254/82
f 39/254/82 172/243/172 194/255/112
f 39/254/82 194/255/112 42/256/153
f 42/256/153 194/255/112 48/257/151
f 48/257/151 194/255/112 55/258/149
f 55/258/149 194/255/112 60/259/147
f 60/259/147 194/255/112 68/260/145
f 68/260/145 194/255/112 75/261/143
f 75/261/143 194/255/112 83/262/141
f 83/262/141 194/255/112 98/263/139
f 98/263/139 194/255/112 120/264/137
f 120/264/137 194/255/112 136/265/135
f 136/265/135 194/255/112 147/266/134
f 147/266/134 194/255/112 163/267/116
f 163/267/116 194/255/112 182/268/117
f 182/268/117 194/255/112 197/269/120
f 197/269/120 194/255/112 202/270/109
f 197/269/120 202/270/109 205/271/121
f 205/271/121 202/270/109 210/272/107
f 205/271/121 210/272/107 212/273/85
f 212/273/85 210/272/107 215/274/129
f 212/273/85 215/274/129 220/275/87
f 220/275/87 215/274/129 222/276/128
f 220/275/87 222/276/128 225/277/89
f 225/277/89 222/276/128 229/278/103
f 225/277/89 229/278/103 231/279/122
f 231/279/122 229/278/103 234/280/127
f 231/279/122 234/280/127 236/281/92
f 236/281/92 234/280/127 238/282/100
f 236/281/92 238/282/100 239/283/123
f 239/283/123 238/282/100 243/284/174
f 239/283/123 243/284/174 244/285/174
f 161/286/175 160/287/176 144/288/177
f 144/288/177 160/287/176 145/289/178
f 144/290/177 145/291/178 122/292/179
f 160/287/176 161/286/175 180/293/180
f 180/293/180 161/286/175 181/294/181
f 180/293/180 181/294/181 200/295/182
f 200/295/182 181/294/181 201/296/183
f 200/295/182 201/296/183 208/297/184
f 208/297/184 201/296/183 209/298/185
f 208/297/184 209/298/185 218/299/186
f 218/299/186 209/298/185 219/300/187
f 218/299/186 219/300/187 227/301/188
f 227/301/188 219/300/187 228/302/189
f 227/301/188 228/302/189 241/303/190
f 241/303/190 228/302/189 242/304/191
f 241/303/190 242/304/191 257/305/192
f 257/305/192 242/304/191 255/306/193
f 257/305/192 255/306/193 261/307/194
f 261/307/194 255/306/193 259/308/195
f 261/307/194 259/308/195 265/309/196
f 265/309/196 259/308/195 263/310/197
f 265/309/196 263/310/197 269/311/198
f 269/311/198 263/310/197 267/312/199
f 269/311/198 267/312/199 273/313/200
f 273/313/200 267/312/199 271/314/201
f 273/313/200 271/314/201 278/315/202
f 278/315/202 271/314/201 275/316/203
f 278/315/202 275/316/203 279/317/204
f 279/317/204 275/316/203 276/318/205
f 279/317/204 276/318/205 277/319/206
f 277/319/206 276/318/205 274/320/207
f 277/319/206 274/320/207 272/321/208
f 272/321/208 274/320/207 270/322/209
f 272/321/208 270/322/209 268/323/210
f 268/323/210 270/322/209 266/324/211
f 268/323/210 266/324/211 264/325/212
f 264/325/212 266/324/211 262/326/213
f 264/325/212 262/326/213 260/327/214
f 260/327/214 262/326/213 258/328/215
f 260/327/214 258/328/215 256/329/216
f 256/329/216 258/328/215 252/330/217
f 256/329/216 252/330/217 240/331/218
f 240/331/218 252/330/217 235/332/219
f 240/331/218 235/332/219 226/333/220
f 226/333/220 235/332/219 223/334/221
f 226/333/220 223/334/221 217/335/222
f 217/335/222 223/334/221 213/336/223
f 217/335/222 213/336/223 207/337/224
f 207/337/224 213/336/223 204/338/225
f 207/337/224 204/338/225 199/339/226
f 199/339/226 204/338/225 195/340/227
f 199/339/226 195/340/227 179/341/228
f 179/341/228 195/340/227 168/342/229
f 179/341/228 168/342/229 159/343/230
f 159/343/230 168/342/229 152/344/231
f 159/343/230 152/344/231 138/345/232
f 138/345/232 152/344/231 131/346/233
f 138/345/232 131/346/233 121/347/234
f 121/347/234 131/346/233 114/348/235
f 121/347/234 114/348/235 100/349/236
f 100/349/236 114/348/235 86/350/237
f 100/349/236 86/350/237 79/351/238
f 79/351/238 86/350/237 76/352/239
f 79/351/238 76/352/239 71/353/240
f 71/353/240 76/352/239 67/354/241
f 71/353/240 67/354/241 61/355/242
f 61/355/242 67/354/241 57/356/243
f 61/355/242 57/356/243 50/357/244
f 50/357/244 57/356/243 47/358/245
f 50/357/244 47/358/245 36/359/246
f 36/359/246 47/358/245 31/360/247
f 36/359/246 31/360/247 23/361/248
f 23/361/248 31/360/247 22/362/249
f 23/361/248 22/362/249 19/363/250
f 19/363/250 22/362/249 18/364/251
f 19/363/250 18/364/251 15/365/252
f 15/365/252 18/364/251 14/366/253
f 15/365/252 14/366/253 10/367/254
f 10/367/254 14/366/253 12/368/255
f 10/367/254 12/368/255 4/369/256
f 4/369/256 12/368/255 8/370/257
f 4/369/256 8/370/257 2/371/258
f 2/371/258 8/370/257 6/372/259
f 2/371/258 6/372/259 1/373/260
f 1/373/260 6/372/259 7/374/261
f 1/373/260 7/374/261 3/375/262
f 3/375/262 7/374/261 9/376/263
f 3/375/262 9/376/263 5/377/264
f 5/377/264 9/376/263 13/378/265
f 5/377/264 13/378/265 11/379/266
f 11/379/266 13/378/265 17/380/267
f 11/379/266 17/380/267 16/381/268
f 16/381/268 17/380/267 21/382/269
f 16/381/268 21/382/269 20/383/270
f 20/383/270 21/382/269 25/384/271
f 20/383/270 25/384/271 24/385/272
f 24/385/272 25/384/271 41/386/273
f 24/385/272 41/386/273 37/387/274
f 37/387/274 41/386/273 54/388/275
f 37/387/274 54/388/275 51/389/276
f 51/389/276 54/388/275 63/390/277
f 51/389/276 63/390/277 62/391/278
f 62/391/278 63/390/277 73/392/279
f 62/391/278 73/392/279 72/393/280
f 72/393/280 73/392/279 82/394/281
f 72/393/280 82/394/281 80/395/282
f 80/395/282 82/394/281 102/396/283
f 80/395/282 102/396/283 101/397/284
f 101/397/284 102/396/283 123/398/285
f 101/397/284 123/398/285 122/292/179
f 122/292/179 123/398/285 144/290/177
f 123/399/172 135/400/136 144/401/172
f 144/401/172 135/400/136 148/402/133
f 144/401/172 148/402/133 161/403/172
f 161/403/172 148/402/133 166/404/132
f 161/403/172 166/404/132 181/405/172
f 181/405/172 166/404/132 183/406/118
f 181/405/172 183/406/118 201/407/172
f 201/407/172 183/406/118 198/408/119
f 201/407/172 198/408/119 209/409/172
f 209/409/172 198/408/119 206/410/84
f 209/409/172 206/410/84 219/411/172
f 219/411/172 206/410/84 228/412/172
f 228/412/172 206/410/84 214/413/83
f 228/412/172 214/413/83 242/414/172
f 242/414/172 214/413/83 221/415/172
f 242/414/172 221/415/172 255/416/172
f 255/416/172 221/415/172 230/417/172
f 255/416/172 230/417/172 259/418/172
f 259/418/172 230/417/172 233/419/90
f 259/418/172 233/419/90 263/420/172
f 263/420/172 233/419/90 245/421/91
f 263/420/172 245/421/91 267/422/172
f 267/422/172 245/421/91 248/423/93
f 267/422/172 248/423/93 271/424/172
f 271/424/172 248/423/93 251/425/95
f 271/424/172 251/425/95 275/426/172
f 275/426/172 251/425/95 254/427/94
f 275/426/172 254/427/94 276/428/172
f 276/428/172 254/427/94 274/429/172
f 274/429/172 254/427/94 253/430/172
f 274/429/172 253/430/172 270/431/172
f 270/431/172 253/430/172 250/432/172
f 270/431/172 250/432/172 266/433/172
f 266/433/172 250/432/172 237/434/101
f 266/433/172 237/434/101 262/435/172
f 262/435/172 237/434/101 232/436/102
f 262/435/172 232/436/102 258/437/172
f 258/437/172 232/436/102 224/438/104
f 258/437/172 224/438/104 252/439/172
f 252/439/172 224/438/104 216/440/106
f 252/439/172 216/440/106 235/441/172
f 235/441/172 216/440/106 211/442/105
f 235/441/172 211/442/105 223/443/172
f 223/443/172 211/442/105 203/444/286
f 223/443/172 203/444/286 213/445/172
f 213/445/172 203/444/286 204/446/172
f 204/446/172 203/444/286 196/447/110
f 204/446/172 196/447/110 195/448/172
f 195/448/172 196/447/110 174/449/111
f 195/448/172 174/449/111 168/450/172
f 168/450/172 174/449/111 156/451/172
f 168/450/172 156/451/172 152/452/172
f 152/452/172 156/451/172 139/453/172
f 152/452/172 139/453/172 131/454/172
f 131/454/172 139/453/172 128/455/172
f 131/454/172 128/455/172 114/456/172
f 114/456/172 128/455/172 106/457/74
f 114/456/172 106/457/74 86/458/172
f 86/458/172 106/457/74 84/459/72
f 86/458/172 84/459/72 76/460/172
f 76/460/172 84/459/72 77/461/171
f 76/460/172 77/461/171 67/462/172
f 67/462/172 77/461/171 57/463/172
f 57/463/172 77/461/171 69/464/172
f 57/463/172 69/464/172 47/465/172
f 47/465/172 69/464/172 64/466/172
f 47/465/172 64/466/172 31/467/172
f 31/467/172 64/466/172 56/468/172
f 31/467/172 56/468/172 22/469/172
f 22/469/172 56/468/172 49/470/172
f 22/469/172 49/470/172 18/471/172
f 18/471/172 49/470/172 44/472/172
f 18/471/172 44/472/172 14/473/172
f 14/473/172 44/472/172 33/474/159
f 14/473/172 33/474/159 12/475/172
f 12/475/172 33/474/159 28/476/158
f 12/475/172 28/476/158 8/477/172
f 8/477/172 28/476/158 26/478/172
f 8/477/172 26/478/172 6/479/172
f 6/479/172 26/478/172 7/480/172
f 7/480/172 26/478/172 27/481/156
f 7/480/172 27/481/156 9/482/172
f 9/482/172 27/481/156 30/483/155
f 9/482/172 30/483/155 13/484/172
f 13/484/172 30/483/155 35/485/154
f 13/484/172 35/485/154 17/486/172
f 17/486/172 35/485/154 46/487/172
f 17/486/172 46/487/172 21/488/172
f 21/488/172 46/487/172 52/489/172
f 21/488/172 52/489/172 25/490/172
f 25/490/172 52/489/172 59/491/172
f 25/490/172 59/491/172 41/492/172
f 41/492/172 59/491/172 66/493/172
f 41/492/172 66/493/172 54/494/172
f 54/494/172 66/493/172 74/495/172
f 54/494/172 74/495/172 63/496/172
f 63/496/172 74/495/172 73/497/172
f 73/497/172 74/495/172 81/498/172
f 73/497/172 81/498/172 82/499/172
f 82/499/172 81/498/172 97/500/172
f 82/499/172 97/500/172 102/501/172
f 102/501/172 97/500/172 117/502/138
f 102/501/172 117/502/138 123/399/172
f 123/399/172 117/502/138 135/400/136
f 160/503/176 159/504/230 145/505/178
f 145/505/178 159/504/230 138/506/232
f 145/505/178 138/506/232 122/507/179
f 122/507/179 138/506/232 121/508/234
f 122/507/179 121/508/234 101/509/284
f 101/509/284 121/508/234 100/510/236
f 101/509/284 100/510/236 80/511/282
f 80/511/282 100/510/236 79/512/238
f 80/511/282 79/512/238 72/513/280
f 72/513/280 79/512/238 71/514/240
f 72/513/280 71/514/240 62/515/278
f 62/515/278 71/514/240 61/516/242
f 62/515/278 61/516/242 51/517/276
f 51/517/276 61/516/242 50/518/244
f 51/517/276 50/518/244 37/519/274
f 37/519/274 50/518/244 36/520/246
f 37/519/274 36/520/246 24/521/272
f 24/521/272 36/520/246 23/522/248
f 24/521/272 23/522/248 20/523/270
f 20/523/270 23/522/248 19/524/250
f 20/523/270 19/524/250 16/525/268
f 16/525/268 19/524/250 15/526/252
f 16/525/268 15/526/252 11/527/266
f 11/527/266 15/526/252 10/528/254
f 11/527/266 10/528/254 5/529/264
f 5/529/264 10/528/254 4/530/256
f 5/529/264 4/530/256 3/531/262
f 3/531/262 4/530/256 2/532/258
f 3/531/262 2/532/258 1/533/260
f 159/504/230 160/503/176 179/534/228
f 179/534/228 160/503/176 180/535/180
f 179/534/228 180/535/180 199/536/226
f 199/536/226 180/535/180 200/537/182
f 199/536/226 200/537/182 207/538/224
f 207/538/224 200/537/182 208/539/184
f 207/538/224 208/539/184 217/540/222
f 217/540/222 208/539/184 218/541/186
f 217/540/222 218/541/186 226/542/220
f 226/542/220 218/541/186 227/543/188
f 226/542/220 227/543/188 240/544/218
f 240/544/218 227/543/188 241/545/190
f 240/544/218 241/545/190 256/546/216
f 256/546/216 241/545/190 257/547/192
f 256/546/216 257/547/192 260/548/214
f 260/548/214 257/547/192 261/549/194
f 260/548/214 261/549/194 264/550/212
f 264/550/212 261/549/194 265/551/196
f 264/550/212 265/551/196 268/552/210
f 268/552/210 265/551/196 269/553/198
f 268/552/210 269/553/198 272/554/208
f 272/554/208 269/553/198 273/555/200
f 272/554/208 273/555/200 277/556/206
f 277/556/206 273/555/200 278/557/202
f 277/556/206 278/557/202 279/558/204
