# Blender 5.1.2
# www.blender.org
mtllib can_cap.mtl
o can_cap
v 0.000000 0.013800 -0.000027
v -0.001545 0.013713 -0.000027
v 0.001545 0.013713 -0.000027
v 0.000000 0.013620 -0.003982
v -0.001525 0.013534 -0.003982
v 0.001525 0.013534 -0.003982
v -0.003071 0.013454 -0.000027
v 0.003071 0.013454 -0.000027
v -0.000000 0.013440 -0.007937
v -0.001532 0.013352 -0.007937
v 0.001532 0.013352 -0.007937
v -0.003031 0.013279 -0.003982
v 0.003031 0.013279 -0.003982
v -0.003044 0.013091 -0.007937
v 0.003044 0.013091 -0.007937
v -0.004558 0.013026 -0.000027
v 0.004558 0.013026 -0.000027
v -0.004498 0.012856 -0.003982
v 0.004498 0.012856 -0.003982
v -0.004517 0.012658 -0.007937
v 0.004517 0.012658 -0.007937
v -0.005988 0.012433 -0.000027
v 0.005988 0.012433 -0.000027
v -0.005909 0.012271 -0.003982
v 0.005909 0.012271 -0.003982
v -0.005930 0.012061 -0.007937
v 0.005930 0.012061 -0.007937
v -0.007342 0.011685 -0.000027
v 0.007342 0.011685 -0.000027
v -0.007246 0.011532 -0.003982
v 0.007246 0.011532 -0.003982
v -0.007266 0.011306 -0.007937
v 0.007266 0.011306 -0.007937
v -0.008604 0.010789 -0.000027
v 0.008604 0.010789 -0.000027
v -0.008492 0.010649 -0.003982
v 0.008492 0.010649 -0.003982
v -0.000669 0.010419 -0.007937
v 0.000669 0.010419 -0.007937
v -0.008508 0.010404 -0.007937
v 0.008508 0.010404 -0.007937
v -0.001996 0.010247 -0.007937
v 0.001996 0.010247 -0.007937
v -0.000654 0.010179 -0.012005
v 0.000654 0.010179 -0.012005
v -0.001950 0.010012 -0.012005
v 0.001950 0.010012 -0.012005
v -0.000638 0.009940 -0.016073
v 0.000638 0.009940 -0.016073
v -0.003290 0.009908 -0.007937
v 0.003290 0.009908 -0.007937
v -0.001904 0.009776 -0.016073
v 0.001904 0.009776 -0.016073
v -0.009758 0.009758 -0.000027
v 0.009758 0.009758 -0.000027
v -0.000649 0.009698 -0.020141
v 0.000649 0.009698 -0.020141
v -0.003214 0.009680 -0.012005
v 0.003214 0.009680 -0.012005
v -0.009631 0.009631 -0.003982
v 0.009631 0.009631 -0.003982
v -0.001936 0.009525 -0.020141
v 0.001936 0.009525 -0.020141
v -0.003138 0.009453 -0.016073
v 0.003138 0.009453 -0.016073
v -0.004530 0.009406 -0.007937
v 0.004530 0.009406 -0.007937
v -0.009638 0.009367 -0.007937
v 0.009638 0.009367 -0.007937
v -0.004426 0.009190 -0.012005
v 0.004426 0.009190 -0.012005
v -0.003188 0.009182 -0.020141
v 0.003188 0.009182 -0.020141
v -0.004321 0.008974 -0.016073
v 0.004321 0.008974 -0.016073
v -0.005695 0.008750 -0.007937
v 0.005695 0.008750 -0.007937
v -0.004384 0.008675 -0.020141
v 0.004384 0.008675 -0.020141
v -0.010789 0.008604 -0.000027
v 0.010789 0.008604 -0.000027
v -0.005564 0.008548 -0.012005
v 0.005564 0.008548 -0.012005
v -0.010649 0.008492 -0.003982
v 0.010649 0.008492 -0.003982
v -0.005434 0.008347 -0.016073
v 0.005434 0.008347 -0.016073
v -0.010643 0.008207 -0.007937
v 0.010643 0.008207 -0.007937
v -0.005501 0.008014 -0.020141
v 0.005501 0.008014 -0.020141
v -0.006768 0.007949 -0.007937
v 0.006768 0.007949 -0.007937
v -0.006612 0.007767 -0.012005
v 0.006612 0.007767 -0.012005
v -0.006456 0.007584 -0.016073
v 0.006456 0.007584 -0.016073
v -0.011685 0.007342 -0.000027
v 0.011685 0.007342 -0.000027
v -0.011532 0.007246 -0.003982
v 0.011532 0.007246 -0.003982
v -0.006520 0.007209 -0.020141
v 0.006520 0.007209 -0.020141
v -0.007729 0.007019 -0.007937
v 0.007729 0.007019 -0.007937
v -0.011509 0.006940 -0.007937
v 0.011509 0.006940 -0.007937
v -0.007551 0.006857 -0.012005
v 0.007551 0.006857 -0.012005
v -0.007373 0.006696 -0.016073
v 0.007373 0.006696 -0.016073
v -0.007423 0.006276 -0.020141
v 0.007423 0.006276 -0.020141
v -0.012433 0.005988 -0.000027
v 0.012433 0.005988 -0.000027
v -0.008563 0.005973 -0.007937
v 0.008563 0.005973 -0.007937
v -0.012271 0.005909 -0.003982
v 0.012271 0.005909 -0.003982
v -0.008366 0.005836 -0.012005
v 0.008366 0.005836 -0.012005
v -0.008169 0.005698 -0.016073
v 0.008169 0.005698 -0.016073
v -0.012225 0.005583 -0.007937
v 0.012225 0.005583 -0.007937
v -0.008193 0.005230 -0.020141
v 0.008193 0.005230 -0.020141
v -0.009256 0.004829 -0.007937
v 0.009256 0.004829 -0.007937
v -0.009043 0.004718 -0.012005
v 0.009043 0.004718 -0.012005
v -0.008831 0.004607 -0.016073
v 0.008831 0.004607 -0.016073
v -0.013026 0.004558 -0.000027
v 0.013026 0.004558 -0.000027
v -0.012856 0.004498 -0.003982
v 0.012856 0.004498 -0.003982
v -0.012782 0.004153 -0.007937
v 0.012782 0.004153 -0.007937
v -0.008817 0.004091 -0.020141
v 0.008817 0.004091 -0.020141
v -0.009798 0.003606 -0.007937
v 0.009798 0.003606 -0.007937
v -0.009572 0.003523 -0.012005
v 0.009572 0.003523 -0.012005
v -0.009347 0.003440 -0.016073
v 0.009347 0.003440 -0.016073
v -0.013454 0.003071 -0.000027
v 0.013454 0.003071 -0.000027
v -0.013279 0.003031 -0.003982
v 0.013279 0.003031 -0.003982
v -0.009284 0.002880 -0.020141
v 0.009284 0.002880 -0.020141
v -0.013172 0.002669 -0.007937
v 0.013172 0.002669 -0.007937
v -0.010178 0.002323 -0.007937
v 0.010178 0.002323 -0.007937
v -0.009944 0.002270 -0.012005
v 0.009944 0.002270 -0.012005
v -0.009710 0.002216 -0.016073
v 0.009710 0.002216 -0.016073
v -0.009585 0.001617 -0.020141
v 0.009585 0.001617 -0.020141
v -0.013713 0.001545 -0.000027
v 0.013713 0.001545 -0.000027
v -0.013534 0.001525 -0.003982
v 0.013534 0.001525 -0.003982
v -0.013391 0.001150 -0.007937
v 0.013391 0.001150 -0.007937
v -0.010392 0.001002 -0.007937
v 0.010392 0.001002 -0.007937
v -0.010153 0.000979 -0.012005
v 0.010153 0.000979 -0.012005
v -0.009914 0.000956 -0.016073
v 0.009914 0.000956 -0.016073
v -0.009715 0.000325 -0.020141
v 0.009715 0.000325 -0.020141
v -0.013800 0.000000 -0.000027
v -0.013620 0.000000 -0.003982
v 0.013620 -0.000000 -0.003982
v 0.013800 -0.000000 -0.000027
v -0.009955 -0.000319 -0.016073
v 0.009955 -0.000319 -0.016073
v -0.010195 -0.000327 -0.012005
v 0.010195 -0.000327 -0.012005
v -0.010435 -0.000335 -0.007937
v 0.010435 -0.000335 -0.007937
v -0.013435 -0.000384 -0.007937
v 0.013435 -0.000384 -0.007937
v -0.009671 -0.000973 -0.020141
v 0.009671 -0.000973 -0.020141
v -0.013534 -0.001525 -0.003982
v 0.013534 -0.001525 -0.003982
v -0.013713 -0.001545 -0.000027
v 0.013713 -0.001545 -0.000027
v -0.009832 -0.001590 -0.016073
v 0.009832 -0.001590 -0.016073
v -0.010069 -0.001628 -0.012005
v 0.010069 -0.001628 -0.012005
v -0.010306 -0.001666 -0.007937
v 0.010306 -0.001666 -0.007937
v -0.013303 -0.001913 -0.007937
v 0.013303 -0.001913 -0.007937
v -0.009455 -0.002253 -0.020141
v 0.009455 -0.002253 -0.020141
v -0.009548 -0.002834 -0.016073
v 0.009548 -0.002834 -0.016073
v -0.009778 -0.002902 -0.012005
v 0.009778 -0.002902 -0.012005
v -0.010008 -0.002970 -0.007937
v 0.010008 -0.002970 -0.007937
v -0.013279 -0.003031 -0.003982
v 0.013279 -0.003031 -0.003982
v -0.013454 -0.003071 -0.000027
v 0.013454 -0.003071 -0.000027
v -0.012998 -0.003417 -0.007937
v 0.012998 -0.003417 -0.007937
v -0.009071 -0.003493 -0.020141
v 0.009071 -0.003493 -0.020141
v -0.009108 -0.004032 -0.016073
v 0.009108 -0.004032 -0.016073
v -0.009327 -0.004129 -0.012005
v 0.009327 -0.004129 -0.012005
v -0.009546 -0.004226 -0.007937
v 0.009546 -0.004226 -0.007937
v -0.012856 -0.004498 -0.003982
v 0.012856 -0.004498 -0.003982
v -0.013026 -0.004558 -0.000027
v 0.013026 -0.004558 -0.000027
v -0.008524 -0.004671 -0.020141
v 0.008524 -0.004671 -0.020141
v -0.012524 -0.004876 -0.007937
v 0.012524 -0.004876 -0.007937
v -0.008517 -0.005163 -0.016073
v 0.008517 -0.005163 -0.016073
v -0.008722 -0.005288 -0.012005
v 0.008722 -0.005288 -0.012005
v -0.008928 -0.005412 -0.007937
v 0.008928 -0.005412 -0.007937
v -0.007825 -0.005766 -0.020141
v 0.007825 -0.005766 -0.020141
v -0.012271 -0.005909 -0.003982
v 0.012271 -0.005909 -0.003982
v -0.012433 -0.005988 -0.000027
v 0.012433 -0.005988 -0.000027
v -0.007787 -0.006210 -0.016073
v 0.007787 -0.006210 -0.016073
v -0.011887 -0.006272 -0.007937
v 0.011887 -0.006272 -0.007937
v -0.007975 -0.006360 -0.012005
v 0.007975 -0.006360 -0.012005
v -0.008162 -0.006509 -0.007937
v 0.008162 -0.006509 -0.007937
v -0.006987 -0.006757 -0.020141
v 0.006987 -0.006757 -0.020141
v -0.006929 -0.007155 -0.016073
v 0.006929 -0.007155 -0.016073
v -0.011532 -0.007246 -0.003982
v 0.011532 -0.007246 -0.003982
v -0.007096 -0.007327 -0.012005
v 0.007096 -0.007327 -0.012005
v -0.011685 -0.007342 -0.000027
v 0.011685 -0.007342 -0.000027
v -0.007263 -0.007500 -0.007937
v 0.007263 -0.007500 -0.007937
v -0.011094 -0.007586 -0.007937
v 0.011094 -0.007586 -0.007937
v -0.006024 -0.007628 -0.020141
v 0.006024 -0.007628 -0.020141
v -0.005957 -0.007982 -0.016073
v 0.005957 -0.007982 -0.016073
v -0.006101 -0.008174 -0.012005
v 0.006101 -0.008174 -0.012005
v -0.004953 -0.008363 -0.020141
v 0.004953 -0.008363 -0.020141
v -0.006244 -0.008367 -0.007937
v 0.006244 -0.008367 -0.007937
v -0.010649 -0.008492 -0.003982
v 0.010649 -0.008492 -0.003982
v -0.010789 -0.008604 -0.000027
v 0.010789 -0.008604 -0.000027
v -0.004888 -0.008678 -0.016073
v 0.004888 -0.008678 -0.016073
v -0.003539 -0.008719 -0.015939
v 0.003517 -0.008723 -0.016004
v -0.003451 -0.008732 -0.016261
v -0.003599 -0.008733 -0.015350
v 0.003599 -0.008733 -0.015350
v -0.003305 -0.008761 -0.016627
v 0.003305 -0.008761 -0.016627
v 0.003558 -0.008788 -0.014728
v -0.003553 -0.008789 -0.014738
v -0.010157 -0.008801 -0.007937
v 0.010157 -0.008801 -0.007937
v -0.002979 -0.008835 -0.017178
v -0.003479 -0.008838 -0.014405
v 0.003478 -0.008839 -0.014394
v 0.002951 -0.008841 -0.017218
v -0.005005 -0.008887 -0.012005
v 0.005005 -0.008887 -0.012005
v -0.003343 -0.008910 -0.014024
v 0.003343 -0.008910 -0.014024
v -0.002524 -0.008936 -0.017699
v 0.002524 -0.008936 -0.017699
v -0.003795 -0.008949 -0.020141
v 0.003795 -0.008949 -0.020141
v -0.003206 -0.008975 -0.013744
v -0.002227 -0.008995 -0.017949
v -0.003519 -0.009022 -0.015993
v 0.003519 -0.009022 -0.015993
v -0.003599 -0.009032 -0.015350
v 0.001981 -0.009038 -0.018112
v -0.001944 -0.009045 -0.018141
v -0.003027 -0.009051 -0.013453
v 0.003024 -0.009052 -0.013450
v -0.003305 -0.009061 -0.016627
v 0.003305 -0.009061 -0.016627
v -0.003542 -0.009096 -0.014682
v 0.003542 -0.009096 -0.014682
v -0.005123 -0.009097 -0.007937
v 0.005123 -0.009097 -0.007937
v -0.002431 -0.009107 -0.015282
v 0.002431 -0.009107 -0.015282
v -0.001367 -0.009126 -0.018418
v 0.001367 -0.009126 -0.018418
v -0.002963 -0.009138 -0.017206
v 0.002963 -0.009138 -0.017206
v -0.000760 -0.009182 -0.018595
v 0.000587 -0.009190 -0.018623
v 0.000206 -0.009204 -0.018665
v -0.000134 -0.009206 -0.018669
v -0.003343 -0.009210 -0.014024
v 0.003343 -0.009210 -0.014024
v -0.002571 -0.009216 -0.012909
v 0.002571 -0.009216 -0.012909
v -0.003738 -0.009232 -0.016073
v 0.003738 -0.009232 -0.016073
v -0.002524 -0.009235 -0.017699
v 0.002524 -0.009235 -0.017699
v -0.002291 -0.009299 -0.012667
v 0.002273 -0.009305 -0.012650
v -0.003519 -0.009323 -0.015993
v 0.003519 -0.009323 -0.015993
v -0.001225 -0.009331 -0.015282
v 0.001225 -0.009331 -0.015282
v -0.003599 -0.009333 -0.015350
v 0.003599 -0.009333 -0.015350
v -0.001992 -0.009336 -0.018105
v 0.001992 -0.009336 -0.018105
v -0.003009 -0.009358 -0.013422
v 0.003009 -0.009358 -0.013422
v -0.003305 -0.009361 -0.016627
v 0.003305 -0.009361 -0.016627
v -0.002029 -0.009367 -0.012483
v -0.002568 -0.009375 -0.020141
v 0.002568 -0.009375 -0.020141
v 0.001989 -0.009378 -0.012451
v -0.003542 -0.009397 -0.014682
v 0.003542 -0.009397 -0.014682
v -0.000000 -0.009407 -0.015282
v -0.001367 -0.009425 -0.018418
v 0.001367 -0.009425 -0.018418
v -0.001739 -0.009432 -0.012314
v -0.002963 -0.009439 -0.017206
v 0.002963 -0.009439 -0.017206
v -0.003828 -0.009455 -0.012005
v 0.003828 -0.009455 -0.012005
v -0.000688 -0.009485 -0.018609
v 0.000688 -0.009485 -0.018609
v -0.001402 -0.009494 -0.012160
v 0.001402 -0.009494 -0.012160
v -0.000000 -0.009506 -0.018672
v -0.003343 -0.009510 -0.014024
v 0.003343 -0.009510 -0.014024
v -0.002571 -0.009515 -0.012909
v 0.002571 -0.009515 -0.012909
v -0.002524 -0.009536 -0.017699
v 0.002524 -0.009536 -0.017699
v 0.001016 -0.009547 -0.012031
v -0.000837 -0.009568 -0.011982
v 0.000619 -0.009584 -0.011944
v 0.000221 -0.009604 -0.011899
v -0.000164 -0.009605 -0.011895
v -0.009631 -0.009631 -0.003982
v 0.009631 -0.009631 -0.003982
v -0.001296 -0.009633 -0.020141
v 0.001296 -0.009633 -0.020141
v -0.001992 -0.009636 -0.018105
v 0.001992 -0.009636 -0.018105
v -0.003009 -0.009658 -0.013422
v 0.003009 -0.009658 -0.013422
v -0.002036 -0.009665 -0.012487
v 0.002036 -0.009665 -0.012487
v -0.003918 -0.009677 -0.007937
v 0.003918 -0.009677 -0.007937
v -0.000000 -0.009720 -0.020141
v -0.001367 -0.009726 -0.018418
v 0.001367 -0.009726 -0.018418
v -0.009758 -0.009758 -0.000027
v 0.009758 -0.009758 -0.000027
v -0.000688 -0.009786 -0.018609
v 0.000688 -0.009786 -0.018609
v -0.001402 -0.009793 -0.012160
v 0.001402 -0.009793 -0.012160
v -0.000000 -0.009807 -0.018672
v -0.002571 -0.009816 -0.012909
v 0.002571 -0.009816 -0.012909
v -0.002585 -0.009867 -0.012005
v 0.002585 -0.009867 -0.012005
v -0.000707 -0.009877 -0.011959
v 0.000707 -0.009877 -0.011959
v -0.009088 -0.009902 -0.007937
v 0.009088 -0.009902 -0.007937
v -0.000000 -0.009906 -0.011892
v -0.002036 -0.009966 -0.012487
v 0.002036 -0.009966 -0.012487
v -0.001402 -0.010094 -0.012160
v 0.001402 -0.010094 -0.012160
v -0.002648 -0.010099 -0.007937
v 0.002648 -0.010099 -0.007937
v -0.001304 -0.010116 -0.012005
v 0.001304 -0.010116 -0.012005
v -0.000707 -0.010178 -0.011959
v 0.000707 -0.010178 -0.011959
v -0.000000 -0.010207 -0.011892
v -0.001335 -0.010354 -0.007937
v 0.001335 -0.010354 -0.007937
v -0.000000 -0.010440 -0.007937
v -0.008492 -0.010649 -0.003982
v 0.008492 -0.010649 -0.003982
v -0.008604 -0.010789 -0.000027
v 0.008604 -0.010789 -0.000027
v -0.007900 -0.010873 -0.007937
v 0.007900 -0.010873 -0.007937
v -0.007246 -0.011532 -0.003982
v 0.007246 -0.011532 -0.003982
v -0.007342 -0.011685 -0.000027
v 0.007342 -0.011685 -0.000027
v -0.006609 -0.011703 -0.007937
v 0.006609 -0.011703 -0.007937
v -0.005909 -0.012271 -0.003982
v 0.005909 -0.012271 -0.003982
v -0.005232 -0.012380 -0.007937
v 0.005232 -0.012380 -0.007937
v -0.005988 -0.012433 -0.000027
v 0.005988 -0.012433 -0.000027
v -0.004498 -0.012856 -0.003982
v 0.004498 -0.012856 -0.003982
v -0.003786 -0.012896 -0.007937
v 0.003786 -0.012896 -0.007937
v -0.004558 -0.013026 -0.000027
v 0.004558 -0.013026 -0.000027
v -0.002292 -0.013243 -0.007937
v 0.002292 -0.013243 -0.007937
v -0.003031 -0.013279 -0.003982
v 0.003031 -0.013279 -0.003982
v -0.000767 -0.013418 -0.007937
v 0.000767 -0.013418 -0.007937
v -0.003071 -0.013454 -0.000027
v 0.003071 -0.013454 -0.000027
v -0.001525 -0.013534 -0.003982
v 0.001525 -0.013534 -0.003982
v -0.000000 -0.013620 -0.003982
v -0.001545 -0.013713 -0.000027
v 0.001545 -0.013713 -0.000027
v -0.000000 -0.013800 -0.000027
vn -0.9998 -0.0000 0.0212
vn -0.9822 -0.0000 -0.1876
vn -0.9206 -0.0000 -0.3905
vn -0.8203 -0.0000 -0.5719
vn -0.6928 -0.0000 -0.7211
vn -0.5425 -0.0000 -0.8401
vn -0.5425 -0.0000 -0.8400
vn -0.3700 -0.0000 -0.9290
vn -0.1855 -0.0000 -0.9826
vn -0.0000 -0.0000 -1.0000
vn 0.1855 -0.0000 -0.9826
vn 0.3700 -0.0000 -0.9290
vn 0.5425 -0.0000 -0.8401
vn 0.5425 -0.0000 -0.8400
vn 0.6928 -0.0000 -0.7211
vn 0.8203 -0.0000 -0.5719
vn 0.9206 -0.0000 -0.3905
vn 0.9822 -0.0000 -0.1876
vn 0.9998 -0.0000 0.0212
vn 0.9750 -0.0000 0.2221
vn 0.9750 -0.0000 0.2220
vn 0.9089 -0.0000 0.4171
vn 0.9089 -0.0000 0.4170
vn 0.8067 -0.0000 0.5910
vn 0.6795 -0.0000 0.7337
vn 0.5304 -0.0000 0.8478
vn 0.3607 -0.0000 0.9327
vn 0.3606 -0.0000 0.9327
vn 0.1803 -0.0000 0.9836
vn -0.0000 -0.0000 1.0000
vn -0.1803 -0.0000 0.9836
vn -0.3606 -0.0000 0.9327
vn -0.5303 -0.0000 0.8478
vn -0.5304 0.0001 0.8478
vn -0.6795 -0.0000 0.7337
vn -0.6797 -0.0001 0.7335
vn -0.8067 -0.0000 0.5910
vn -0.9089 -0.0000 0.4170
vn -0.9089 -0.0001 0.4171
vn -0.9750 -0.0000 0.2221
vn -0.9750 0.0002 0.2221
vn -0.9743 0.0002 0.2252
vn -0.8040 -0.0000 0.5947
vn -0.5275 -0.0000 0.8495
vn -0.1547 -0.0000 0.9880
vn -0.0558 -0.0000 0.9984
vn 0.0366 -0.0000 0.9993
vn 0.1987 -0.0000 0.9801
vn 0.5168 -0.0000 0.8561
vn 0.5936 -0.0000 0.8048
vn 0.8122 -0.0000 0.5834
vn 0.9530 -0.0000 0.3029
vn 0.9787 -0.0000 0.2054
vn 0.9854 -0.0000 -0.1705
vn 0.9624 -0.0000 -0.2716
vn 0.8787 -0.0000 -0.4774
vn 0.8262 -0.0000 -0.5633
vn 0.6120 -0.0000 -0.7909
vn 0.5407 -0.0000 -0.8412
vn 0.4628 -0.0000 -0.8865
vn 0.2186 -0.0000 -0.9758
vn 0.0446 -0.0000 -0.9990
vn -0.0598 -0.0000 -0.9982
vn -0.1628 -0.0000 -0.9867
vn -0.2653 -0.0000 -0.9642
vn -0.5292 -0.0000 -0.8485
vn -0.6066 -0.0000 -0.7950
vn -0.8255 -0.0000 -0.5645
vn -0.9616 -0.0000 -0.2746
vn -0.9849 -0.0000 -0.1733
vn 0.3592 -0.9314 -0.0589
vn 0.3538 -0.9335 -0.0589
vn 0.3524 -0.9340 -0.0589
vn 0.3452 -0.9367 -0.0589
vn 0.3323 -0.9413 -0.0589
vn 0.3311 -0.9418 -0.0589
vn 0.2424 -0.9684 -0.0589
vn 0.2984 -0.9526 -0.0589
vn 0.2529 -0.9657 -0.0589
vn 0.2233 -0.9730 -0.0589
vn 0.1951 -0.9790 -0.0589
vn 0.1222 -0.9908 -0.0589
vn 0.1374 -0.9888 -0.0589
vn 0.0995 -0.9933 -0.0589
vn 0.0605 -0.9964 -0.0589
vn -0.0000 -0.9983 -0.0587
vn 0.0598 -0.9965 -0.0589
vn 0.0210 -0.9980 -0.0589
vn -0.0137 -0.9982 -0.0589
vn -0.0773 -0.9953 -0.0589
vn -0.1220 -0.9908 -0.0590
vn -0.1390 -0.9885 -0.0589
vn -0.1972 -0.9786 -0.0589
vn -0.2426 -0.9683 -0.0589
vn -0.2257 -0.9724 -0.0589
vn -0.2554 -0.9650 -0.0589
vn -0.3006 -0.9519 -0.0589
vn -0.3592 -0.9314 -0.0589
vn -0.3323 -0.9413 -0.0589
vn -0.3462 -0.9363 -0.0589
vn -0.3544 -0.9332 -0.0589
vn 0.0218 -0.9980 -0.0590
vn -0.0161 -0.9981 -0.0589
vn -0.0819 -0.9949 -0.0589
vn -0.1373 -0.9888 -0.0589
vn -0.1705 -0.9836 -0.0589
vn -0.1991 -0.9782 -0.0589
vn -0.2251 -0.9726 -0.0589
vn -0.2529 -0.9657 -0.0589
vn -0.2987 -0.9525 -0.0589
vn -0.3170 -0.9466 -0.0589
vn -0.3311 -0.9418 -0.0589
vn -0.3452 -0.9367 -0.0589
vn -0.3533 -0.9337 -0.0589
vn 0.1390 -0.9885 -0.0589
vn 0.2010 -0.9778 -0.0589
vn 0.2554 -0.9650 -0.0589
vn 0.2978 -0.9528 -0.0589
vn 0.1331 -0.9894 -0.0589
vn 0.0700 -0.9958 -0.0589
vn -0.0000 -0.9983 -0.0589
vn -0.0000 -0.9983 -0.0591
vn -0.0700 -0.9958 -0.0589
vn 0.2637 -0.9628 -0.0589
vn 0.2021 -0.9776 -0.0589
vn 0.3897 -0.9191 -0.0589
vn 0.2990 -0.9524 -0.0589
vn 0.2555 -0.9650 -0.0589
vn 0.5087 -0.8589 -0.0590
vn 0.4899 -0.8698 -0.0590
vn 0.3746 -0.9253 -0.0589
vn 0.3525 -0.9339 -0.0589
vn 0.3521 -0.9341 -0.0589
vn 0.2530 -0.9657 -0.0589
vn 0.2969 -0.9531 -0.0589
vn 0.1998 -0.9781 -0.0589
vn 0.2532 -0.9656 -0.0589
vn 0.1277 -0.9901 -0.0589
vn 0.5971 -0.8000 -0.0586
vn 0.6187 -0.7834 -0.0589
vn 0.6945 -0.7171 -0.0588
vn 0.7176 -0.6940 -0.0589
vn 0.7805 -0.6224 -0.0590
vn 0.8037 -0.5922 -0.0589
vn 0.8537 -0.5175 -0.0587
vn 0.8754 -0.4797 -0.0589
vn 0.9128 -0.4041 -0.0589
vn 0.9316 -0.3588 -0.0589
vn 0.9570 -0.2840 -0.0588
vn 0.9711 -0.2314 -0.0589
vn 0.9855 -0.1593 -0.0588
vn 0.9933 -0.0999 -0.0589
vn 0.9978 -0.0320 -0.0588
vn 0.9977 0.0334 -0.0589
vn 0.9937 0.0959 -0.0587
vn 0.9844 0.1660 -0.0589
vn 0.9732 0.2221 -0.0589
vn 0.9534 0.2958 -0.0589
vn 0.9368 0.3448 -0.0588
vn 0.9055 0.4202 -0.0589
vn 0.8851 0.4617 -0.0589
vn 0.8414 0.5371 -0.0589
vn 0.8188 0.5711 -0.0589
vn 0.7623 0.6445 -0.0589
vn 0.7390 0.6711 -0.0588
vn 0.6696 0.7404 -0.0590
vn 0.6471 0.7601 -0.0587
vn 0.5650 0.8230 -0.0589
vn 0.5446 0.8366 -0.0588
vn 0.4502 0.8910 -0.0590
vn 0.4331 0.8994 -0.0586
vn 0.3275 0.9430 -0.0589
vn 0.3143 0.9475 -0.0583
vn 0.1988 0.9783 -0.0590
vn 0.1907 0.9799 -0.0586
vn 0.0667 0.9960 -0.0587
vn 0.0641 0.9962 -0.0589
vn -0.0667 0.9960 -0.0587
vn -0.0641 0.9962 -0.0590
vn -0.1908 0.9799 -0.0586
vn -0.1910 0.9798 -0.0589
vn -0.3145 0.9474 -0.0589
vn -0.4331 0.8994 -0.0589
vn -0.4332 0.8994 -0.0589
vn -0.5447 0.8366 -0.0590
vn -0.5446 0.8366 -0.0589
vn -0.6470 0.7602 -0.0589
vn -0.7389 0.6712 -0.0590
vn -0.7390 0.6712 -0.0590
vn -0.8187 0.5713 -0.0589
vn -0.8188 0.5711 -0.0589
vn -0.8850 0.4618 -0.0589
vn -0.8851 0.4616 -0.0589
vn -0.9369 0.3447 -0.0590
vn -0.9368 0.3448 -0.0589
vn -0.9732 0.2221 -0.0590
vn -0.9732 0.2223 -0.0589
vn -0.9937 0.0957 -0.0589
vn -0.9936 0.0960 -0.0589
vn -0.9977 -0.0322 -0.0589
vn -0.9977 -0.0321 -0.0589
vn -0.9854 -0.1597 -0.0589
vn -0.9854 -0.1596 -0.0589
vn -0.9570 -0.2841 -0.0589
vn -0.9570 -0.2839 -0.0588
vn -0.9130 -0.4038 -0.0588
vn -0.9127 -0.4043 -0.0590
vn -0.8536 -0.5175 -0.0589
vn -0.8537 -0.5175 -0.0589
vn -0.7806 -0.6223 -0.0588
vn -0.7805 -0.6224 -0.0589
vn -0.6945 -0.7171 -0.0589
vn -0.6943 -0.7173 -0.0589
vn -0.5970 -0.8000 -0.0590
vn -0.5970 -0.8001 -0.0589
vn -0.4898 -0.8698 -0.0591
vn -0.4901 -0.8697 -0.0589
vn -0.3747 -0.9253 -0.0589
vn -0.3746 -0.9253 -0.0589
vn -0.2532 -0.9656 -0.0589
vn -0.2530 -0.9657 -0.0589
vn -0.1998 -0.9781 -0.0589
vn -0.2969 -0.9531 -0.0589
vn -0.3521 -0.9341 -0.0589
vn -0.3525 -0.9339 -0.0589
vn -0.3897 -0.9190 -0.0589
vn -0.2637 -0.9628 -0.0589
vn -0.2990 -0.9524 -0.0589
vn -0.2555 -0.9650 -0.0589
vn -0.2020 -0.9776 -0.0589
vn -0.1331 -0.9894 -0.0589
vn -0.1988 0.9783 -0.0590
vn -0.3145 0.9474 -0.0588
vn -0.3275 0.9430 -0.0589
vn -0.4331 0.8994 -0.0590
vn -0.4502 0.8910 -0.0590
vn -0.5446 0.8366 -0.0590
vn -0.5650 0.8230 -0.0589
vn -0.6471 0.7601 -0.0587
vn -0.6696 0.7404 -0.0590
vn -0.7390 0.6711 -0.0588
vn -0.7623 0.6445 -0.0589
vn -0.8188 0.5711 -0.0587
vn -0.8414 0.5371 -0.0589
vn -0.8851 0.4617 -0.0589
vn -0.9055 0.4202 -0.0589
vn -0.9368 0.3448 -0.0588
vn -0.9534 0.2958 -0.0589
vn -0.9732 0.2221 -0.0588
vn -0.9844 0.1660 -0.0589
vn -0.9937 0.0959 -0.0587
vn -0.9977 0.0334 -0.0589
vn -0.9978 -0.0320 -0.0589
vn -0.9933 -0.0999 -0.0589
vn -0.9855 -0.1593 -0.0588
vn -0.9711 -0.2314 -0.0589
vn -0.9570 -0.2840 -0.0589
vn -0.9316 -0.3588 -0.0589
vn -0.9128 -0.4041 -0.0589
vn -0.8754 -0.4797 -0.0589
vn -0.8537 -0.5175 -0.0588
vn -0.8037 -0.5922 -0.0589
vn -0.7176 -0.6940 -0.0589
vn -0.6945 -0.7171 -0.0588
vn -0.6187 -0.7834 -0.0589
vn -0.5971 -0.8000 -0.0586
vn -0.5087 -0.8589 -0.0590
vn -0.4899 -0.8698 -0.0589
vn -0.1277 -0.9901 -0.0589
vn -0.1374 -0.9888 -0.0589
vn -0.1276 -0.9901 -0.0589
vn -0.0692 -0.9959 -0.0589
vn -0.0000 -0.9983 -0.0588
vn 0.0692 -0.9959 -0.0589
vn 0.1276 -0.9901 -0.0589
vn -0.0640 0.9962 -0.0588
vn -0.0643 0.9962 -0.0590
vn 0.0640 0.9962 -0.0589
vn 0.0642 0.9962 -0.0589
vn 0.1910 0.9798 -0.0589
vn 0.1911 0.9798 -0.0588
vn 0.3145 0.9474 -0.0589
vn 0.3147 0.9474 -0.0589
vn 0.4332 0.8994 -0.0589
vn 0.5446 0.8366 -0.0589
vn 0.5445 0.8367 -0.0590
vn 0.6470 0.7602 -0.0589
vn 0.6471 0.7602 -0.0589
vn 0.7389 0.6712 -0.0590
vn 0.7389 0.6713 -0.0590
vn 0.8187 0.5711 -0.0589
vn 0.8189 0.5709 -0.0589
vn 0.8852 0.4615 -0.0588
vn 0.8851 0.4617 -0.0590
vn 0.9368 0.3448 -0.0590
vn 0.9732 0.2223 -0.0589
vn 0.9733 0.2220 -0.0589
vn 0.9936 0.0960 -0.0589
vn 0.9936 0.0961 -0.0589
vn 0.9977 -0.0321 -0.0589
vn 0.9978 -0.0318 -0.0589
vn 0.9854 -0.1596 -0.0589
vn 0.9854 -0.1597 -0.0589
vn 0.9570 -0.2839 -0.0588
vn 0.9570 -0.2841 -0.0588
vn 0.9128 -0.4040 -0.0588
vn 0.9129 -0.4039 -0.0589
vn 0.8537 -0.5174 -0.0589
vn 0.7805 -0.6224 -0.0589
vn 0.7804 -0.6225 -0.0588
vn 0.6943 -0.7172 -0.0589
vn 0.6946 -0.7170 -0.0590
vn 0.5970 -0.8001 -0.0589
vn 0.5970 -0.8001 -0.0590
vn 0.4901 -0.8697 -0.0590
vn 0.3746 -0.9253 -0.0588
vn -0.1138 0.9925 -0.0456
vn -0.1116 0.9927 -0.0454
vn -0.0000 0.9990 -0.0453
vn -0.0000 0.9990 -0.0455
vn 0.1116 0.9927 -0.0454
vn 0.1118 0.9927 -0.0454
vn -0.2220 0.9740 -0.0453
vn -0.2262 0.9730 -0.0457
vn -0.3297 0.9430 -0.0456
vn -0.3357 0.9409 -0.0455
vn -0.4334 0.9000 -0.0455
vn -0.4408 0.8965 -0.0455
vn -0.5315 0.8459 -0.0453
vn -0.5401 0.8404 -0.0457
vn -0.6228 0.7811 -0.0452
vn -0.6324 0.7733 -0.0456
vn -0.7064 0.7064 -0.0453
vn -0.7164 0.6962 -0.0455
vn -0.7810 0.6229 -0.0455
vn -0.7911 0.6100 -0.0455
vn -0.8459 0.5315 -0.0453
vn -0.8555 0.5159 -0.0455
vn -0.9000 0.4334 -0.0453
vn -0.9087 0.4150 -0.0454
vn -0.9429 0.3299 -0.0454
vn -0.9501 0.3087 -0.0455
vn -0.9739 0.2223 -0.0452
vn -0.9791 0.1984 -0.0456
vn -0.9927 0.1119 -0.0453
vn -0.9953 0.0855 -0.0455
vn -0.9990 -0.0000 -0.0455
vn -0.9986 -0.0285 -0.0455
vn -0.9927 -0.1118 -0.0453
vn -0.9888 -0.1422 -0.0455
vn -0.9739 -0.2223 -0.0453
vn -0.9661 -0.2540 -0.0455
vn -0.9429 -0.3299 -0.0454
vn -0.9309 -0.3624 -0.0455
vn -0.9000 -0.4334 -0.0453
vn -0.8835 -0.4662 -0.0455
vn -0.8459 -0.5315 -0.0453
vn -0.8246 -0.5639 -0.0455
vn -0.7810 -0.6229 -0.0454
vn -0.7550 -0.6542 -0.0455
vn -0.7064 -0.7064 -0.0454
vn -0.6755 -0.7360 -0.0454
vn -0.6229 -0.7810 -0.0454
vn -0.5872 -0.8082 -0.0455
vn -0.5315 -0.8459 -0.0454
vn -0.4912 -0.8698 -0.0455
vn -0.4334 -0.9000 -0.0454
vn -0.3889 -0.9202 -0.0455
vn -0.3299 -0.9429 -0.0454
vn -0.2814 -0.9585 -0.0454
vn -0.2223 -0.9739 -0.0453
vn -0.1704 -0.9843 -0.0455
vn -0.1119 -0.9927 -0.0454
vn -0.0570 -0.9973 -0.0455
vn -0.0000 -0.9990 -0.0456
vn 0.0570 -0.9973 -0.0455
vn 0.1119 -0.9927 -0.0455
vn 0.1704 -0.9843 -0.0455
vn 0.2223 -0.9739 -0.0454
vn 0.2814 -0.9585 -0.0454
vn 0.3299 -0.9429 -0.0455
vn 0.3889 -0.9202 -0.0455
vn 0.4334 -0.9000 -0.0454
vn 0.4912 -0.8698 -0.0455
vn 0.5315 -0.8459 -0.0454
vn 0.5872 -0.8082 -0.0455
vn 0.6229 -0.7810 -0.0454
vn 0.6755 -0.7360 -0.0454
vn 0.7064 -0.7064 -0.0454
vn 0.7550 -0.6542 -0.0455
vn 0.7810 -0.6228 -0.0454
vn 0.8246 -0.5639 -0.0455
vn 0.8459 -0.5315 -0.0454
vn 0.8835 -0.4662 -0.0455
vn 0.9000 -0.4334 -0.0453
vn 0.9309 -0.3624 -0.0455
vn 0.9429 -0.3299 -0.0454
vn 0.9661 -0.2540 -0.0455
vn 0.9739 -0.2223 -0.0453
vn 0.9888 -0.1422 -0.0455
vn 0.9927 -0.1118 -0.0453
vn 0.9986 -0.0285 -0.0455
vn 0.9990 -0.0000 -0.0455
vn 0.9953 0.0855 -0.0455
vn 0.9927 0.1119 -0.0454
vn 0.9791 0.1984 -0.0456
vn 0.9739 0.2223 -0.0453
vn 0.9501 0.3087 -0.0455
vn 0.9429 0.3299 -0.0455
vn 0.9087 0.4150 -0.0454
vn 0.9000 0.4334 -0.0454
vn 0.8555 0.5159 -0.0455
vn 0.8459 0.5315 -0.0454
vn 0.7911 0.6100 -0.0455
vn 0.7810 0.6229 -0.0454
vn 0.7164 0.6962 -0.0455
vn 0.7064 0.7064 -0.0453
vn 0.6324 0.7733 -0.0456
vn 0.6228 0.7811 -0.0452
vn 0.5401 0.8404 -0.0457
vn 0.5314 0.8459 -0.0453
vn 0.4408 0.8965 -0.0455
vn 0.4335 0.9000 -0.0453
vn 0.3357 0.9409 -0.0455
vn 0.3298 0.9429 -0.0455
vn 0.2262 0.9730 -0.0457
vn 0.2221 0.9740 -0.0452
vn 0.1138 0.9925 -0.0456
vn 0.2221 0.9740 -0.0454
vn 0.3300 0.9429 -0.0455
vn 0.4333 0.9001 -0.0454
vn 0.5314 0.8459 -0.0455
vn 0.6229 0.7810 -0.0453
vn 0.7810 0.6228 -0.0454
vn 0.8458 0.5315 -0.0456
vn 0.9000 0.4335 -0.0455
vn 0.9429 0.3301 -0.0455
vn 0.9740 0.2220 -0.0454
vn 0.9927 0.1118 -0.0455
vn 0.9927 -0.1118 -0.0454
vn 0.9740 -0.2221 -0.0454
vn 0.9429 -0.3300 -0.0455
vn 0.9001 -0.4333 -0.0454
vn 0.8459 -0.5314 -0.0455
vn 0.7810 -0.6229 -0.0453
vn 0.7064 -0.7064 -0.0457
vn 0.6228 -0.7810 -0.0454
vn 0.5315 -0.8458 -0.0456
vn 0.4335 -0.9000 -0.0455
vn 0.3301 -0.9429 -0.0455
vn 0.2220 -0.9740 -0.0454
vn 0.1118 -0.9927 -0.0455
vn -0.0000 -0.9990 -0.0455
vn -0.1118 -0.9927 -0.0454
vn -0.2221 -0.9740 -0.0454
vn -0.3300 -0.9429 -0.0455
vn -0.4333 -0.9001 -0.0454
vn -0.5314 -0.8459 -0.0455
vn -0.6229 -0.7810 -0.0453
vn -0.7064 -0.7064 -0.0453
vn -0.7810 -0.6228 -0.0454
vn -0.8458 -0.5315 -0.0456
vn -0.9000 -0.4335 -0.0455
vn -0.9429 -0.3301 -0.0455
vn -0.9740 -0.2220 -0.0454
vn -0.9927 -0.1118 -0.0455
vn -0.9927 0.1118 -0.0454
vn -0.9740 0.2221 -0.0454
vn -0.9429 0.3300 -0.0455
vn -0.9001 0.4333 -0.0454
vn -0.8459 0.5314 -0.0455
vn -0.7810 0.6229 -0.0453
vn -0.7064 0.7064 -0.0457
vn -0.6228 0.7810 -0.0454
vn -0.5315 0.8458 -0.0456
vn -0.4335 0.9000 -0.0455
vn -0.3301 0.9429 -0.0455
vn -0.2220 0.9740 -0.0454
vn -0.1118 0.9927 -0.0455
vt 0.000000 0.060000
vt 0.000000 0.000000
vt 0.066788 0.030053
vt 0.066788 0.000000
vt 0.133577 0.000000
vt 0.133577 0.030053
vt 0.200365 0.000000
vt 0.200365 0.030053
vt 0.267153 0.000000
vt 0.267153 0.030053
vt 0.333721 0.000000
vt 0.333721 0.030053
vt 0.400289 0.000000
vt 0.400289 0.030053
vt 0.466857 0.000000
vt 0.466857 0.030053
vt 0.533425 0.000000
vt 0.533425 0.030053
vt 0.599993 0.000000
vt 0.599993 0.030053
vt 0.666561 0.000000
vt 0.666561 0.030053
vt 0.733129 0.000000
vt 0.733129 0.030053
vt 0.799697 0.000000
vt 0.799697 0.030053
vt 0.866486 0.000000
vt 0.866486 0.030053
vt 0.933274 0.000000
vt 0.933274 0.030053
vt 1.000062 0.000000
vt 1.000062 0.030053
vt 1.066851 0.000000
vt 1.066851 0.030053
vt 1.131074 0.000000
vt 1.131074 0.030053
vt 1.195297 0.000000
vt 1.195297 0.030053
vt 1.259521 0.000000
vt 1.259521 0.030053
vt 1.323744 0.000000
vt 1.323744 0.030053
vt 1.388283 0.000000
vt 1.388283 0.030053
vt 1.452823 0.000000
vt 1.452823 0.030053
vt 1.517362 0.000000
vt 1.517362 0.030053
vt 1.581901 0.000000
vt 1.581901 0.030053
vt 1.646441 0.000000
vt 1.646441 0.030053
vt 1.710980 0.000000
vt 1.710980 0.030053
vt 1.775519 0.000000
vt 1.775519 0.030053
vt 1.840059 0.000000
vt 1.840059 0.030053
vt 1.904282 0.000000
vt 1.904282 0.030053
vt 1.968505 0.000000
vt 1.968505 0.030053
vt 2.032728 0.000000
vt 2.032728 0.030053
vt 2.096952 0.000000
vt 2.096952 0.060000
vt 2.031660 0.060029
vt 1.968505 0.060000
vt 1.902763 0.059976
vt 1.840059 0.060000
vt 1.774355 0.059983
vt 1.710980 0.060000
vt 1.637105 0.060098
vt 1.601442 0.060032
vt 1.569151 0.059993
vt 1.510651 0.059964
vt 1.452823 0.060000
vt 1.393827 0.059979
vt 1.361612 0.060001
vt 1.323744 0.060000
vt 1.256399 0.059912
vt 1.195297 0.060000
vt 1.157763 0.060106
vt 1.125623 0.060106
vt 1.066851 0.060000
vt 1.005678 0.060046
vt 0.972368 0.060055
vt 0.933274 0.060000
vt 0.903161 0.059967
vt 0.869990 0.059942
vt 0.799697 0.060000
vt 0.763089 0.059989
vt 0.732369 0.059974
vt 0.700912 0.059980
vt 0.666561 0.060000
vt 0.612097 0.059853
vt 0.549015 0.059976
vt 0.512466 0.060004
vt 0.475168 0.060014
vt 0.437716 0.060009
vt 0.400289 0.060000
vt 0.339285 0.059926
vt 0.306122 0.059965
vt 0.267153 0.060000
vt 0.197337 0.059935
vt 0.133577 0.060000
vt 0.095462 0.060106
vt 0.062105 0.060106
vt 0.131303 0.368332
vt 0.068982 0.362498
vt 0.196800 0.360992
vt 0.035600 0.353305
vt 0.259208 0.339593
vt -0.001457 0.338258
vt 0.124552 0.245555
vt -0.059026 0.303787
vt -0.113198 0.256336
vt -0.139176 0.225774
vt -0.159067 0.196851
vt 0.124552 0.122777
vt -0.188248 0.138141
vt -0.201171 0.099886
vt -0.209889 0.060715
vt 0.124552 0.000000
vt 0.459175 0.059936
vt 0.463435 0.021023
vt 0.463858 -0.013684
vt 0.456422 -0.077570
vt 0.124552 -0.122777
vt 0.438654 -0.139772
vt 0.410869 -0.199004
vt 0.124552 -0.245555
vt 0.391725 -0.228200
vt 0.366640 -0.258952
vt 0.314463 -0.306024
vt 0.131303 -0.368332
vt 0.259208 -0.339593
vt 0.222633 -0.354451
vt 0.190376 -0.363172
vt -0.214395 0.021660
vt -0.214754 -0.016083
vt -0.206007 -0.082187
vt -0.188248 -0.138141
vt -0.172763 -0.171782
vt -0.155906 -0.200932
vt -0.137398 -0.227538
vt -0.113198 -0.256336
vt -0.058650 -0.304121
vt -0.029500 -0.323370
vt -0.001457 -0.338258
vt 0.036651 -0.353352
vt 0.070053 -0.362027
vt 0.438654 0.139772
vt 0.408024 0.202882
vt 0.366640 0.258952
vt 0.318431 0.303147
vt 0.611261 -3.031971
vt 0.457762 -3.095998
vt 0.611261 -3.166726
vt 0.464106 -3.166726
vt 0.611261 3.166726
vt 0.464106 3.166726
vt 0.457762 3.095998
vt 0.611261 -2.897217
vt 0.407309 -2.961294
vt 0.438654 -3.025928
vt 0.611261 -2.762463
vt 0.259208 -2.824643
vt 0.317301 -2.860168
vt 0.366640 -2.905875
vt 0.611261 -2.627708
vt 0.203754 -2.649709
vt 0.203754 -2.778963
vt 0.195707 -2.802916
vt 0.131303 -2.795693
vt -0.203754 -2.778963
vt 0.064412 -2.803360
vt -0.001457 -2.825988
vt -0.203754 -2.908457
vt -0.061786 -2.862317
vt -0.113198 -2.908510
vt -0.155467 -2.963629
vt -0.611261 -2.908217
vt -0.611261 -3.037471
vt 0.203754 -2.520455
vt 0.611261 -2.492954
vt 0.203754 -2.391201
vt 0.611261 -2.358200
vt 0.203754 -2.261947
vt 0.611261 -2.223445
vt 0.203754 -2.132693
vt 0.611261 -2.088691
vt 0.203754 -2.003438
vt 0.611261 -1.953937
vt 0.203754 -1.874184
vt 0.611261 -1.819183
vt 0.203754 -1.744930
vt 0.611261 -1.684428
vt 0.203754 -1.615676
vt 0.611261 -1.549674
vt 0.203754 -1.486422
vt 0.611261 -1.414920
vt 0.203754 -1.357168
vt 0.611261 -1.280166
vt 0.203754 -1.227914
vt 0.611261 -1.145411
vt 0.203754 -1.098660
vt 0.611261 -1.010657
vt 0.203754 -0.969406
vt 0.611261 -0.875903
vt 0.203754 -0.840152
vt 0.611261 -0.741149
vt 0.203754 -0.710898
vt 0.611261 -0.606394
vt 0.203754 -0.581643
vt 0.611261 -0.471640
vt 0.203754 -0.452389
vt 0.611261 -0.336886
vt 0.203754 -0.323135
vt 0.611261 -0.202131
vt 0.203754 -0.193881
vt 0.611261 -0.067377
vt 0.203754 -0.064627
vt 0.611261 0.067377
vt 0.203754 0.064627
vt 0.203754 0.193881
vt -0.203754 0.193881
vt -0.203754 0.323135
vt -0.611261 0.323135
vt -0.611261 0.452389
vt -0.203754 0.452389
vt -0.611261 0.581643
vt -0.203754 0.581643
vt -0.611261 0.710898
vt -0.203754 0.710898
vt -0.611261 0.840152
vt -0.203754 0.840152
vt -0.611261 0.969406
vt -0.203754 0.969406
vt -0.611261 1.098660
vt -0.203754 1.098660
vt -0.611261 1.227914
vt -0.203754 1.227914
vt -0.611261 1.357168
vt -0.203754 1.357168
vt -0.611261 1.486422
vt -0.203754 1.486422
vt -0.611261 1.615676
vt -0.203754 1.615676
vt -0.611261 1.744930
vt -0.203754 1.744930
vt -0.611261 1.874184
vt -0.203754 1.874184
vt -0.611261 2.003438
vt -0.203754 2.003438
vt -0.611261 2.132693
vt -0.203754 2.132693
vt -0.611261 2.261947
vt -0.203754 2.261947
vt -0.611261 2.391201
vt -0.203754 2.391201
vt -0.611261 2.520455
vt -0.203754 2.520455
vt -0.611261 2.649709
vt -0.203754 2.649709
vt -0.611261 2.778963
vt -0.203754 2.778963
vt -0.611261 2.908217
vt -0.203754 2.908457
vt -0.155467 2.963629
vt -0.113198 2.908510
vt -0.061786 2.862317
vt -0.001457 2.825988
vt 0.064412 2.803360
vt 0.131303 2.795693
vt 0.203754 2.778963
vt 0.195707 2.802916
vt 0.611261 2.762463
vt 0.259208 2.824643
vt 0.611261 2.897217
vt 0.317301 2.860168
vt 0.366640 2.905875
vt 0.407309 2.961294
vt 0.611261 3.031971
vt 0.438654 3.025928
vt 0.611261 0.202131
vt 0.203754 0.323135
vt 0.611261 0.336886
vt 0.203754 0.452389
vt 0.611261 0.471640
vt 0.203754 0.581643
vt 0.611261 0.606394
vt 0.203754 0.710898
vt 0.611261 0.741149
vt 0.203754 0.840152
vt 0.611261 0.875903
vt 0.203754 0.969406
vt 0.611261 1.010657
vt 0.203754 1.098660
vt 0.611261 1.145411
vt 0.203754 1.227914
vt 0.611261 1.280166
vt 0.203754 1.357168
vt 0.611261 1.414920
vt 0.203754 1.486422
vt 0.611261 1.549674
vt 0.203754 1.615676
vt 0.611261 1.684428
vt 0.203754 1.744930
vt 0.611261 1.819183
vt 0.203754 1.874184
vt 0.611261 1.953937
vt 0.203754 2.003438
vt 0.611261 2.088691
vt 0.203754 2.132693
vt 0.611261 2.223445
vt 0.203754 2.261947
vt 0.611261 2.358200
vt 0.203754 2.391201
vt 0.611261 2.492954
vt 0.203754 2.520455
vt 0.611261 2.627708
vt 0.203754 2.649709
vt -0.611261 3.037471
vt -0.188248 3.027572
vt -0.203754 3.037471
vt -0.208351 3.096771
vt -0.611261 3.166726
vt -0.215073 3.166726
vt -0.611261 -3.166726
vt -0.215073 -3.166726
vt -0.208351 -3.096771
vt -0.188248 -3.027572
vt -0.203754 -3.037471
vt -0.611261 0.193881
vt -0.203754 0.064627
vt -0.611261 0.064627
vt -0.203754 -0.064627
vt -0.611261 -0.064627
vt -0.203754 -0.193881
vt -0.611261 -0.193881
vt -0.203754 -0.323135
vt -0.611261 -0.323135
vt -0.203754 -0.452389
vt -0.611261 -0.452389
vt -0.203754 -0.581643
vt -0.611261 -0.581643
vt -0.203754 -0.710898
vt -0.611261 -0.710898
vt -0.203754 -0.840152
vt -0.611261 -0.840152
vt -0.203754 -0.969406
vt -0.611261 -0.969406
vt -0.203754 -1.098660
vt -0.611261 -1.098660
vt -0.203754 -1.227914
vt -0.611261 -1.227914
vt -0.203754 -1.357168
vt -0.611261 -1.357168
vt -0.203754 -1.486422
vt -0.611261 -1.486422
vt -0.203754 -1.615676
vt -0.611261 -1.615676
vt -0.203754 -1.744930
vt -0.611261 -1.744930
vt -0.203754 -1.874184
vt -0.611261 -1.874184
vt -0.203754 -2.003438
vt -0.611261 -2.003438
vt -0.203754 -2.132693
vt -0.611261 -2.132693
vt -0.203754 -2.261947
vt -0.611261 -2.261947
vt -0.203754 -2.391201
vt -0.611261 -2.391201
vt -0.203754 -2.520455
vt -0.611261 -2.520455
vt -0.203754 -2.649709
vt -0.611261 -2.649709
vt -0.611261 -2.778963
vt -0.972000 0.000000
vt -0.963327 -0.129555
vt -0.963327 0.129555
vt -0.937464 0.256798
vt -0.937464 -0.256798
vt -0.894872 0.379458
vt -0.836310 0.495347
vt -0.762825 0.602397
vt -0.675727 0.698697
vt -0.576571 0.782528
vt -0.467125 0.852395
vt -0.349344 0.907052
vt -0.225329 0.945521
vt -0.097293 0.967118
vt 0.032479 0.971457
vt 0.161672 0.958460
vt -0.894872 -0.379458
vt 0.287980 0.928360
vt 0.409149 0.881692
vt 0.523016 0.819291
vt 0.627550 0.742270
vt 0.720886 0.652003
vt 0.801357 0.550101
vt 0.867528 0.438382
vt 0.918218 0.318840
vt 0.952523 0.193609
vt 0.969829 0.064922
vt 0.969829 -0.064922
vt 0.952523 -0.193609
vt 0.918218 -0.318840
vt 0.867528 -0.438382
vt -0.836310 -0.495347
vt 0.801357 -0.550101
vt -0.762825 -0.602397
vt 0.720886 -0.652003
vt -0.675727 -0.698697
vt 0.627550 -0.742270
vt -0.576571 -0.782528
vt 0.523016 -0.819291
vt -0.467125 -0.852395
vt 0.409149 -0.881692
vt -0.349344 -0.907052
vt 0.287980 -0.928360
vt -0.225329 -0.945521
vt 0.161672 -0.958460
vt -0.097293 -0.967118
vt 0.032479 -0.971457
vt 0.395909 -4.123254
vt -0.000000 -4.126033
vt 0.395909 -4.278849
vt -0.000000 -4.278849
vt 0.395909 4.278849
vt -0.000000 4.278849
vt -0.000000 4.126033
vt -0.395909 4.278849
vt -0.395909 4.126033
vt -0.000000 -3.973217
vt 0.395909 -3.967660
vt -0.000000 -3.820401
vt 0.395909 -3.812066
vt -0.000000 -3.667585
vt 0.395909 -3.656471
vt -0.000000 -3.514769
vt 0.395909 -3.500877
vt -0.000000 -3.361953
vt 0.395909 -3.345282
vt -0.000000 -3.209137
vt 0.395909 -3.189687
vt -0.000000 -3.056321
vt 0.395909 -3.034093
vt -0.000000 -2.903505
vt 0.395909 -2.878499
vt -0.000000 -2.750689
vt 0.395909 -2.722904
vt -0.000000 -2.597873
vt 0.395909 -2.567310
vt -0.000000 -2.445057
vt 0.395909 -2.411715
vt -0.000000 -2.292241
vt 0.395909 -2.256120
vt -0.000000 -2.139425
vt 0.395909 -2.100526
vt -0.000000 -1.986609
vt 0.395909 -1.944931
vt -0.000000 -1.833792
vt 0.395909 -1.789337
vt -0.000000 -1.680977
vt 0.395909 -1.633742
vt -0.000000 -1.528160
vt 0.395909 -1.478148
vt -0.000000 -1.375344
vt 0.395909 -1.322553
vt -0.000000 -1.222528
vt 0.395909 -1.166959
vt -0.000000 -1.069712
vt 0.395909 -1.011364
vt -0.000000 -0.916896
vt 0.395909 -0.855770
vt -0.000000 -0.764080
vt 0.395909 -0.700175
vt -0.000000 -0.611264
vt 0.395909 -0.544581
vt -0.000000 -0.458448
vt 0.395909 -0.388986
vt -0.000000 -0.305632
vt 0.395909 -0.233392
vt -0.000000 -0.152816
vt 0.395909 -0.077797
vt 0.395909 0.077797
vt -0.000000 0.152816
vt 0.395909 0.233392
vt -0.000000 0.305632
vt 0.395909 0.388986
vt -0.000000 0.458448
vt 0.395909 0.544581
vt -0.000000 0.611264
vt 0.395909 0.700175
vt -0.000000 0.764080
vt 0.395909 0.855770
vt -0.000000 0.916896
vt 0.395909 1.011364
vt -0.000000 1.069712
vt 0.395909 1.166959
vt -0.000000 1.222528
vt 0.395909 1.322553
vt -0.000000 1.375344
vt 0.395909 1.478148
vt -0.000000 1.528160
vt 0.395909 1.633742
vt -0.000000 1.680977
vt 0.395909 1.789337
vt -0.000000 1.833792
vt 0.395909 1.944931
vt -0.000000 1.986609
vt 0.395909 2.100526
vt -0.000000 2.139425
vt 0.395909 2.256120
vt -0.000000 2.292241
vt 0.395909 2.411715
vt -0.000000 2.445057
vt 0.395909 2.567310
vt -0.000000 2.597873
vt 0.395909 2.722904
vt -0.000000 2.750689
vt 0.395909 2.878499
vt -0.000000 2.903505
vt 0.395909 3.034093
vt -0.000000 3.056321
vt 0.395909 3.189687
vt -0.000000 3.209137
vt 0.395909 3.345282
vt -0.000000 3.361953
vt 0.395909 3.500877
vt -0.000000 3.514769
vt 0.395909 3.656471
vt -0.000000 3.667585
vt 0.395909 3.812066
vt -0.000000 3.820401
vt 0.395909 3.967660
vt -0.000000 3.973217
vt 0.395909 4.123254
vt -0.395909 3.973217
vt -0.395909 3.820401
vt -0.395909 3.667585
vt -0.395909 3.514769
vt -0.395909 3.361953
vt -0.395909 3.209137
vt -0.395909 3.056321
vt -0.395909 2.903505
vt -0.395909 2.750689
vt -0.395909 2.597873
vt -0.395909 2.445057
vt -0.395909 2.292241
vt -0.395909 2.139425
vt -0.395909 1.986609
vt -0.395909 1.833792
vt -0.395909 1.680977
vt -0.395909 1.528160
vt -0.395909 1.375344
vt -0.395909 1.222528
vt -0.395909 1.069712
vt -0.395909 0.916896
vt -0.395909 0.764080
vt -0.395909 0.611264
vt -0.395909 0.458448
vt -0.395909 0.305632
vt -0.395909 0.152816
vt -0.395909 0.000000
vt -0.395909 -0.152816
vt -0.395909 -0.305632
vt -0.395909 -0.458448
vt -0.395909 -0.611264
vt -0.395909 -0.764080
vt -0.395909 -0.916896
vt -0.395909 -1.069712
vt -0.395909 -1.222528
vt -0.395909 -1.375344
vt -0.395909 -1.528160
vt -0.395909 -1.680977
vt -0.395909 -1.833792
vt -0.395909 -1.986609
vt -0.395909 -2.139425
vt -0.395909 -2.292241
vt -0.395909 -2.445057
vt -0.395909 -2.597873
vt -0.395909 -2.750689
vt -0.395909 -2.903505
vt -0.395909 -3.056321
vt -0.395909 -3.209137
vt -0.395909 -3.361953
vt -0.395909 -3.514769
vt -0.395909 -3.667585
vt -0.395909 -3.820401
vt -0.395909 -3.973217
vt -0.395909 -4.126033
vt -0.395909 4.431665
vt 1.335239 0.153204
vt 1.041855 0.066889
vt 1.344000 0.000000
vt 1.041855 -0.066889
vt 1.335239 -0.153204
vt 1.024748 -0.199570
vt 1.309072 -0.304412
vt 0.990814 -0.328973
vt 1.265839 -0.451650
vt 0.940611 -0.452975
vt 1.206103 -0.593001
vt 0.874964 -0.569538
vt 1.130645 -0.726621
vt 1.040446 -0.850769
vt 0.794950 -0.676750
vt 0.936684 -0.963825
vt 0.701882 -0.772850
vt 0.820711 -1.064317
vt 0.597290 -0.856260
vt 0.694038 -1.150933
vt 0.482890 -0.925610
vt 0.558318 -1.222545
vt 0.360561 -0.979761
vt 0.415319 -1.278220
vt 0.232312 -1.017825
vt 0.266906 -1.317231
vt 0.100248 -1.039176
vt 0.115013 -1.339070
vt -0.033462 -1.043464
vt -0.038379 -1.343452
vt -0.191271 -1.330320
vt -0.166622 -1.030618
vt -0.341669 -1.299845
vt -0.297047 -1.000849
vt -0.487614 -1.252425
vt -0.422594 -0.954647
vt -0.627201 -1.188678
vt -0.541202 -0.892769
vt -0.758612 -1.109434
vt -0.650923 -0.816232
vt -0.880133 -1.015727
vt -0.749957 -0.726293
vt -0.990180 -0.908779
vt -0.836676 -0.624427
vt -1.087319 -0.789983
vt -0.909657 -0.512309
vt -1.170283 -0.660889
vt -1.237990 -0.523179
vt -0.967701 -0.391779
vt -1.289559 -0.378649
vt -1.009856 -0.264815
vt -1.324316 -0.229182
vt -1.035429 -0.133504
vt -1.341808 -0.076727
vt -1.044000 0.000000
vt -1.341808 0.076727
vt -1.035429 0.133504
vt -1.324316 0.229182
vt -1.009856 0.264815
vt -1.289559 0.378649
vt -0.967701 0.391779
vt -1.237990 0.523179
vt -0.909657 0.512309
vt -1.170283 0.660889
vt -1.087319 0.789983
vt -0.836676 0.624427
vt -0.990180 0.908779
vt -0.749957 0.726293
vt -0.880133 1.015727
vt -0.650923 0.816232
vt -0.758612 1.109434
vt -0.541202 0.892769
vt -0.627201 1.188678
vt -0.422594 0.954647
vt -0.487614 1.252425
vt -0.297047 1.000849
vt -0.341669 1.299845
vt -0.166622 1.030618
vt -0.191271 1.330320
vt -0.033462 1.043464
vt -0.038379 1.343452
vt 0.115013 1.339070
vt 0.100248 1.039176
vt 0.266906 1.317231
vt 0.232312 1.017825
vt 0.415319 1.278220
vt 0.360561 0.979761
vt 0.558318 1.222545
vt 0.482890 0.925610
vt 0.694038 1.150933
vt 0.597290 0.856260
vt 0.820711 1.064317
vt 0.701882 0.772850
vt 0.936684 0.963825
vt 0.794950 0.676750
vt 1.040446 0.850769
vt 0.874964 0.569538
vt 1.130645 0.726621
vt 1.206103 0.593001
vt 0.940611 0.452975
vt 1.265839 0.451650
vt 0.990814 0.328973
vt 1.309072 0.304412
vt 1.024748 0.199570
vt -1.371323 -0.154511
vt 1.371323 -0.154511
vt -1.380000 0.000000
vt 1.380000 0.000000
vt -1.371323 0.154511
vt 1.371323 0.154511
vt -1.345401 0.307079
vt 1.345401 0.307079
vt -1.302559 0.455785
vt 1.302559 0.455785
vt -1.243337 0.598760
vt 1.243337 0.598760
vt -1.168479 0.734204
vt 1.168479 0.734204
vt -1.078927 0.860416
vt 1.078927 0.860416
vt -0.975807 0.975807
vt 0.975807 0.975807
vt -0.860416 1.078927
vt 0.860416 1.078927
vt -0.734204 1.168479
vt 0.734204 1.168479
vt -0.598760 1.243337
vt 0.598760 1.243337
vt -0.455785 1.302559
vt 0.455785 1.302559
vt -0.307079 1.345401
vt 0.307079 1.345401
vt -0.154511 1.371323
vt 0.154511 1.371323
vt -0.000000 1.380000
vt 1.345401 -0.307079
vt -1.345401 -0.307079
vt 1.302559 -0.455785
vt -1.302559 -0.455785
vt 1.243337 -0.598760
vt -1.243337 -0.598760
vt 1.168479 -0.734204
vt -1.168479 -0.734204
vt 1.078927 -0.860416
vt -1.078927 -0.860416
vt 0.975807 -0.975807
vt -0.975807 -0.975807
vt 0.860416 -1.078927
vt -0.860416 -1.078927
vt 0.734204 -1.168479
vt -0.734204 -1.168479
vt 0.598760 -1.243337
vt -0.598760 -1.243337
vt 0.455785 -1.302559
vt -0.455785 -1.302559
vt 0.307079 -1.345401
vt -0.307079 -1.345401
vt 0.154511 -1.371323
vt -0.154511 -1.371323
vt -0.000000 -1.380000
s 1
usemtl 246,246,243.002
f 288/1/1 347/2/1 319/3/2
f 319/3/2 347/2/1 359/4/2
f 319/3/2 359/4/2 374/5/3
f 319/3/2 374/5/3 333/6/3
f 333/6/3 374/5/3 391/7/4
f 333/6/3 391/7/4 351/8/4
f 351/8/4 391/7/4 407/9/5
f 351/8/4 407/9/5 376/10/5
f 376/10/5 407/9/5 416/11/6
f 376/10/5 416/11/6 393/12/7
f 393/12/7 416/11/6 418/13/8
f 393/12/7 418/13/8 404/14/8
f 404/14/8 418/13/8 424/15/9
f 404/14/8 424/15/9 411/16/9
f 411/16/9 424/15/9 425/17/10
f 411/16/9 425/17/10 414/18/10
f 414/18/10 425/17/10 423/19/11
f 414/18/10 423/19/11 410/20/11
f 410/20/11 423/19/11 417/21/12
f 410/20/11 417/21/12 403/22/12
f 403/22/12 417/21/12 415/23/13
f 403/22/12 415/23/13 392/24/14
f 392/24/14 415/23/13 406/25/15
f 392/24/14 406/25/15 375/26/15
f 375/26/15 406/25/15 390/27/16
f 375/26/15 390/27/16 350/28/16
f 350/28/16 390/27/16 373/29/17
f 350/28/16 373/29/17 332/30/17
f 332/30/17 373/29/17 358/31/18
f 332/30/17 358/31/18 318/32/18
f 318/32/18 358/31/18 346/33/19
f 318/32/18 346/33/19 311/34/19
f 311/34/19 346/33/19 342/35/20
f 311/34/19 342/35/20 309/36/21
f 309/36/21 342/35/20 352/37/22
f 309/36/21 352/37/22 316/38/23
f 316/38/23 352/37/22 364/39/24
f 316/38/23 364/39/24 326/40/24
f 326/40/24 364/39/24 377/41/25
f 326/40/24 377/41/25 338/42/25
f 338/42/25 377/41/25 388/43/26
f 338/42/25 388/43/26 348/44/26
f 348/44/26 388/43/26 397/45/27
f 348/44/26 397/45/27 361/46/28
f 361/46/28 397/45/27 401/47/29
f 361/46/28 401/47/29 368/48/29
f 368/48/29 401/47/29 405/49/30
f 368/48/29 405/49/30 372/50/30
f 372/50/30 405/49/30 402/51/31
f 372/50/30 402/51/31 369/52/31
f 369/52/31 402/51/31 398/53/32
f 369/52/31 398/53/32 362/54/32
f 362/54/32 398/53/32 389/55/33
f 362/54/32 389/55/33 349/56/34
f 349/56/34 389/55/33 378/57/35
f 349/56/34 378/57/35 339/58/36
f 339/58/36 378/57/35 365/59/37
f 339/58/36 365/59/37 327/60/37
f 327/60/37 365/59/37 353/61/38
f 327/60/37 353/61/38 317/62/39
f 317/62/39 353/61/38 343/63/40
f 317/62/39 343/63/40 310/64/41
f 310/64/41 343/63/40 347/65/1
f 310/64/41 347/65/1 288/66/1
f 288/66/1 285/67/42 310/64/41
f 310/64/41 285/67/42 317/62/39
f 285/67/42 290/68/38 317/62/39
f 317/62/39 290/68/38 327/60/37
f 290/68/38 298/69/43 327/60/37
f 327/60/37 298/69/43 339/58/36
f 298/69/43 304/70/35 339/58/36
f 339/58/36 304/70/35 349/56/34
f 304/70/35 312/71/44 349/56/34
f 349/56/34 312/71/44 362/54/32
f 312/71/44 325/72/32 362/54/32
f 362/54/32 325/72/32 369/52/31
f 325/72/32 329/73/45 369/52/31
f 369/52/31 329/73/45 330/74/46
f 369/52/31 330/74/46 372/50/30
f 372/50/30 330/74/46 331/75/47
f 372/50/30 331/75/47 368/48/29
f 368/48/29 331/75/47 328/76/48
f 368/48/29 328/76/48 361/46/28
f 361/46/28 328/76/48 324/77/28
f 361/46/28 324/77/28 313/78/49
f 361/46/28 313/78/49 348/44/26
f 348/44/26 313/78/49 308/79/50
f 348/44/26 308/79/50 338/42/25
f 338/42/25 308/79/50 303/80/25
f 338/42/25 303/80/25 326/40/24
f 326/40/24 303/80/25 295/81/51
f 326/40/24 295/81/51 316/38/23
f 316/38/23 295/81/51 289/82/22
f 316/38/23 289/82/22 286/83/52
f 316/38/23 286/83/52 309/36/21
f 309/36/21 286/83/52 284/84/53
f 309/36/21 284/84/53 311/34/19
f 311/34/19 284/84/53 287/85/19
f 311/34/19 287/85/19 292/86/54
f 311/34/19 292/86/54 318/32/18
f 318/32/18 292/86/54 296/87/55
f 318/32/18 296/87/55 332/30/17
f 332/30/17 296/87/55 301/88/17
f 332/30/17 301/88/17 307/89/56
f 332/30/17 307/89/56 350/28/16
f 350/28/16 307/89/56 314/90/57
f 350/28/16 314/90/57 334/91/15
f 350/28/16 334/91/15 375/26/15
f 375/26/15 334/91/15 340/92/58
f 375/26/15 340/92/58 392/24/14
f 392/24/14 340/92/58 354/93/59
f 392/24/14 354/93/59 363/94/60
f 392/24/14 363/94/60 403/22/12
f 403/22/12 363/94/60 370/95/12
f 403/22/12 370/95/12 380/96/61
f 403/22/12 380/96/61 410/20/11
f 410/20/11 380/96/61 383/97/62
f 410/20/11 383/97/62 414/18/10
f 414/18/10 383/97/62 382/98/63
f 414/18/10 382/98/63 411/16/9
f 411/16/9 382/98/63 381/99/64
f 411/16/9 381/99/64 379/100/65
f 411/16/9 379/100/65 404/14/8
f 404/14/8 379/100/65 371/101/8
f 404/14/8 371/101/8 357/102/66
f 404/14/8 357/102/66 393/12/7
f 393/12/7 357/102/66 341/103/67
f 393/12/7 341/103/67 376/10/5
f 376/10/5 341/103/67 335/104/5
f 376/10/5 335/104/5 351/8/4
f 351/8/4 335/104/5 315/105/68
f 351/8/4 315/105/68 333/6/3
f 333/6/3 315/105/68 302/106/3
f 333/6/3 302/106/3 297/107/69
f 333/6/3 297/107/69 319/3/2
f 319/3/2 297/107/69 291/108/70
f 319/3/2 291/108/70 288/1/1
f 288/109/71 291/110/72 285/111/73
f 285/111/73 291/110/72 297/112/74
f 285/111/73 297/112/74 290/113/75
f 290/113/75 297/112/74 302/114/76
f 290/113/75 302/114/76 323/115/77
f 323/115/77 302/114/76 315/116/78
f 323/115/77 315/116/78 335/117/79
f 335/117/79 341/118/80 323/115/77
f 323/115/77 341/118/80 357/119/81
f 323/115/77 357/119/81 345/120/82
f 345/120/82 357/119/81 371/121/83
f 345/120/82 371/121/83 379/122/84
f 379/122/84 381/123/85 345/120/82
f 345/120/82 381/123/85 360/124/86
f 345/120/82 360/124/86 329/125/87
f 329/125/87 360/124/86 330/126/88
f 330/126/88 360/124/86 331/127/89
f 331/127/89 360/124/86 328/128/90
f 328/128/90 360/124/86 344/129/91
f 328/128/90 344/129/91 324/130/92
f 324/130/92 344/129/91 313/131/93
f 313/131/93 344/129/91 322/132/94
f 313/131/93 322/132/94 308/133/95
f 308/133/95 322/132/94 303/134/96
f 303/134/96 322/132/94 295/135/97
f 295/135/97 322/132/94 287/136/98
f 295/135/97 287/136/98 289/137/99
f 289/137/99 287/136/98 286/138/100
f 286/138/100 287/136/98 284/139/101
f 381/123/85 382/140/102 360/124/86
f 360/124/86 382/140/102 383/141/103
f 360/124/86 383/141/103 380/142/104
f 360/124/86 380/142/104 344/129/91
f 344/129/91 380/142/104 370/143/105
f 344/129/91 370/143/105 363/144/106
f 344/129/91 363/144/106 322/132/94
f 322/132/94 363/144/106 354/145/107
f 322/132/94 354/145/107 340/146/108
f 340/146/108 334/147/109 322/132/94
f 322/132/94 334/147/109 314/148/110
f 322/132/94 314/148/110 287/136/98
f 287/136/98 314/148/110 307/149/111
f 287/136/98 307/149/111 301/150/112
f 301/150/112 296/151/113 287/136/98
f 287/136/98 296/151/113 292/152/114
f 329/125/87 325/153/115 345/120/82
f 345/120/82 325/153/115 312/154/116
f 345/120/82 312/154/116 323/115/77
f 323/115/77 312/154/116 304/155/117
f 323/115/77 304/155/117 298/156/118
f 298/156/118 290/113/75 323/115/77
usemtl 51,51,51.001
f 387/157/119 402/158/120 396/159/121
f 396/159/121 402/158/120 405/160/122
f 396/161/121 405/162/122 401/163/123
f 356/164/124 389/165/125 387/157/119
f 387/157/119 389/165/125 398/166/115
f 387/157/119 398/166/115 402/158/120
f 306/167/126 353/168/75 356/164/124
f 356/164/124 353/168/75 365/169/127
f 356/164/124 365/169/127 378/170/128
f 275/171/129 283/172/130 306/167/126
f 306/167/126 283/172/130 337/173/131
f 306/167/126 337/173/131 353/168/75
f 353/168/75 337/173/131 343/174/132
f 343/174/132 337/173/131 347/175/71
f 347/175/71 337/173/131 367/176/131
f 347/175/71 367/176/131 359/177/133
f 359/177/133 367/176/131 374/178/76
f 374/178/76 367/176/131 409/179/134
f 374/178/76 409/179/134 391/180/135
f 391/180/135 409/179/134 407/181/79
f 407/181/79 409/179/134 416/182/136
f 416/182/136 409/179/134 420/183/137
f 416/182/136 420/183/137 427/184/138
f 283/172/130 275/171/129 271/185/139
f 271/185/139 275/171/129 269/186/140
f 271/185/139 269/186/140 257/187/141
f 257/187/141 269/186/140 255/188/142
f 257/187/141 255/188/142 247/189/143
f 247/189/143 255/188/142 241/190/144
f 247/189/143 241/190/144 235/191/145
f 235/191/145 241/190/144 231/192/146
f 235/191/145 231/192/146 221/193/147
f 221/193/147 231/192/146 219/194/148
f 221/193/147 219/194/148 207/195/149
f 207/195/149 219/194/148 205/196/150
f 207/195/149 205/196/150 197/197/151
f 197/197/151 205/196/150 191/198/152
f 197/197/151 191/198/152 183/199/153
f 183/199/153 191/198/152 177/200/154
f 183/199/153 177/200/154 175/201/155
f 175/201/155 177/200/154 163/202/156
f 175/201/155 163/202/156 161/203/157
f 161/203/157 163/202/156 153/204/158
f 161/203/157 153/204/158 147/205/159
f 147/205/159 153/204/158 141/206/160
f 147/205/159 141/206/160 133/207/161
f 133/207/161 141/206/160 127/208/162
f 133/207/161 127/208/162 123/209/163
f 123/209/163 127/208/162 113/210/164
f 123/209/163 113/210/164 111/211/165
f 111/211/165 113/210/164 103/212/166
f 111/211/165 103/212/166 97/213/167
f 97/213/167 103/212/166 91/214/168
f 97/213/167 91/214/168 87/215/169
f 87/215/169 91/214/168 79/216/170
f 87/215/169 79/216/170 75/217/171
f 75/217/171 79/216/170 73/218/172
f 75/217/171 73/218/172 65/219/173
f 65/219/173 73/218/172 63/220/174
f 65/219/173 63/220/174 53/221/175
f 53/221/175 63/220/174 57/222/176
f 53/221/175 57/222/176 49/223/177
f 49/223/177 57/222/176 56/224/178
f 49/223/177 56/224/178 48/225/179
f 48/225/179 56/224/178 52/226/180
f 48/225/179 52/226/180 46/227/181
f 46/227/181 52/226/180 58/228/182
f 46/227/181 58/228/182 50/229/182
f 50/229/182 58/228/182 66/230/183
f 66/230/183 58/228/182 70/231/184
f 66/230/183 70/231/184 76/232/185
f 76/232/185 70/231/184 82/233/186
f 76/232/185 82/233/186 92/234/187
f 92/234/187 82/233/186 94/235/187
f 92/234/187 94/235/187 104/236/188
f 104/236/188 94/235/187 108/237/189
f 104/236/188 108/237/189 116/238/190
f 116/238/190 108/237/189 120/239/191
f 116/238/190 120/239/191 128/240/192
f 128/240/192 120/239/191 130/241/193
f 128/240/192 130/241/193 142/242/194
f 142/242/194 130/241/193 144/243/195
f 142/242/194 144/243/195 156/244/196
f 156/244/196 144/243/195 158/245/197
f 156/244/196 158/245/197 170/246/198
f 170/246/198 158/245/197 172/247/199
f 170/246/198 172/247/199 186/248/200
f 186/248/200 172/247/199 184/249/201
f 186/248/200 184/249/201 200/250/202
f 200/250/202 184/249/201 198/251/203
f 200/250/202 198/251/203 210/252/204
f 210/252/204 198/251/203 208/253/205
f 210/252/204 208/253/205 224/254/206
f 224/254/206 208/253/205 222/255/207
f 224/254/206 222/255/207 238/256/208
f 238/256/208 222/255/207 236/257/209
f 238/256/208 236/257/209 252/258/210
f 252/258/210 236/257/209 250/259/211
f 252/258/210 250/259/211 264/260/212
f 264/260/212 250/259/211 260/261/213
f 264/260/212 260/261/213 276/262/214
f 276/262/214 260/261/213 272/263/215
f 276/262/214 272/263/215 320/264/216
f 320/264/216 272/263/215 299/265/217
f 320/264/216 299/265/217 394/266/218
f 394/266/218 299/265/217 366/267/219
f 394/266/218 366/267/219 419/268/220
f 419/268/220 366/267/219 408/269/221
f 419/268/220 408/269/221 415/270/222
f 415/270/222 408/269/221 406/271/109
f 406/271/109 408/269/221 390/272/223
f 390/272/223 408/269/221 366/267/219
f 390/272/223 366/267/219 373/273/112
f 373/273/112 366/267/219 358/274/224
f 358/274/224 366/267/219 346/275/98
f 346/275/98 366/267/219 336/276/219
f 346/275/98 336/276/219 342/277/225
f 342/277/225 336/276/219 305/278/226
f 342/277/225 305/278/226 352/279/99
f 352/279/99 305/278/226 355/280/227
f 352/279/99 355/280/227 364/281/228
f 364/281/228 355/280/227 377/282/229
f 377/282/229 355/280/227 388/283/230
f 388/283/230 355/280/227 386/284/231
f 388/283/230 386/284/231 397/285/92
f 397/285/92 386/284/231 401/163/123
f 401/163/123 386/284/231 396/161/121
f 56/224/178 62/286/232 52/226/180
f 52/226/180 62/286/232 64/287/233
f 52/226/180 64/287/233 58/228/182
f 58/228/182 64/287/233 70/231/184
f 62/286/232 72/288/234 64/287/233
f 64/287/233 72/288/234 74/289/235
f 64/287/233 74/289/235 70/231/184
f 70/231/184 74/289/235 82/233/186
f 72/288/234 78/290/236 74/289/235
f 74/289/235 78/290/236 86/291/237
f 74/289/235 86/291/237 82/233/186
f 82/233/186 86/291/237 94/235/187
f 78/290/236 90/292/238 86/291/237
f 86/291/237 90/292/238 96/293/239
f 86/291/237 96/293/239 94/235/187
f 94/235/187 96/293/239 108/237/189
f 90/292/238 102/294/240 96/293/239
f 96/293/239 102/294/240 110/295/241
f 96/293/239 110/295/241 108/237/189
f 108/237/189 110/295/241 120/239/191
f 102/294/240 112/296/242 110/295/241
f 110/295/241 112/296/242 122/297/243
f 110/295/241 122/297/243 120/239/191
f 120/239/191 122/297/243 130/241/193
f 112/296/242 126/298/244 122/297/243
f 122/297/243 126/298/244 132/299/245
f 122/297/243 132/299/245 130/241/193
f 130/241/193 132/299/245 144/243/195
f 126/298/244 140/300/246 132/299/245
f 132/299/245 140/300/246 146/301/247
f 132/299/245 146/301/247 144/243/195
f 144/243/195 146/301/247 158/245/197
f 140/300/246 152/302/248 146/301/247
f 146/301/247 152/302/248 160/303/249
f 146/301/247 160/303/249 158/245/197
f 158/245/197 160/303/249 172/247/199
f 152/302/248 162/304/250 160/303/249
f 160/303/249 162/304/250 174/305/251
f 160/303/249 174/305/251 172/247/199
f 172/247/199 174/305/251 184/249/201
f 162/304/250 176/306/252 174/305/251
f 174/305/251 176/306/252 182/307/253
f 174/305/251 182/307/253 184/249/201
f 184/249/201 182/307/253 198/251/203
f 176/306/252 190/308/254 182/307/253
f 182/307/253 190/308/254 196/309/255
f 182/307/253 196/309/255 198/251/203
f 198/251/203 196/309/255 208/253/205
f 190/308/254 204/310/256 196/309/255
f 196/309/255 204/310/256 206/311/257
f 196/309/255 206/311/257 208/253/205
f 208/253/205 206/311/257 222/255/207
f 204/310/256 218/312/258 206/311/257
f 206/311/257 218/312/258 220/313/259
f 206/311/257 220/313/259 222/255/207
f 222/255/207 220/313/259 236/257/209
f 218/312/258 230/314/260 220/313/259
f 220/313/259 230/314/260 234/315/261
f 220/313/259 234/315/261 236/257/209
f 236/257/209 234/315/261 250/259/211
f 230/314/260 240/316/262 234/315/261
f 234/315/261 240/316/262 246/317/211
f 234/315/261 246/317/211 250/259/211
f 250/259/211 246/317/211 260/261/213
f 240/316/262 254/318/263 246/317/211
f 246/317/211 254/318/263 256/319/264
f 246/317/211 256/319/264 260/261/213
f 260/261/213 256/319/264 272/263/215
f 254/318/263 268/320/265 256/319/264
f 256/319/264 268/320/265 270/321/266
f 256/319/264 270/321/266 272/263/215
f 272/263/215 270/321/266 299/265/217
f 268/320/265 274/322/267 270/321/266
f 270/321/266 274/322/267 282/323/268
f 270/321/266 282/323/268 299/265/217
f 299/265/217 282/323/268 366/267/219
f 274/322/267 305/278/226 282/323/268
f 282/323/268 305/278/226 336/276/219
f 282/323/268 336/276/219 366/267/219
f 378/170/128 389/165/125 356/164/124
f 419/268/220 415/270/222 426/324/269
f 426/324/269 415/270/222 417/325/270
f 426/324/269 417/325/270 421/326/271
f 421/326/271 417/325/270 423/327/272
f 421/326/271 423/327/272 426/324/269
f 426/324/269 423/327/272 428/328/121
f 428/328/121 423/327/272 425/329/273
f 428/330/121 425/331/273 424/332/274
f 418/333/83 422/334/275 424/332/274
f 424/332/274 422/334/275 427/184/138
f 424/332/274 427/184/138 428/330/121
f 422/334/275 418/333/83 427/184/138
f 427/184/138 418/333/83 416/182/136
f 50/229/182 42/335/181 46/227/181
f 46/227/181 42/335/181 44/336/276
f 46/227/181 44/336/276 48/225/179
f 48/225/179 44/336/276 49/223/177
f 42/335/181 38/337/277 44/336/276
f 44/336/276 38/337/277 45/338/278
f 44/336/276 45/338/278 49/223/177
f 49/223/177 45/338/278 53/221/175
f 38/337/277 39/339/279 45/338/278
f 45/338/278 39/339/279 47/340/280
f 45/338/278 47/340/280 53/221/175
f 53/221/175 47/340/280 65/219/173
f 39/339/279 43/341/281 47/340/280
f 47/340/280 43/341/281 59/342/282
f 47/340/280 59/342/282 65/219/173
f 65/219/173 59/342/282 75/217/171
f 43/341/281 51/343/283 59/342/282
f 59/342/282 51/343/283 71/344/284
f 59/342/282 71/344/284 75/217/171
f 75/217/171 71/344/284 87/215/169
f 51/343/283 67/345/284 71/344/284
f 71/344/284 67/345/284 83/346/285
f 71/344/284 83/346/285 87/215/169
f 87/215/169 83/346/285 97/213/167
f 67/345/284 77/347/286 83/346/285
f 83/346/285 77/347/286 95/348/287
f 83/346/285 95/348/287 97/213/167
f 97/213/167 95/348/287 111/211/165
f 77/347/286 93/349/288 95/348/287
f 95/348/287 93/349/288 109/350/289
f 95/348/287 109/350/289 111/211/165
f 111/211/165 109/350/289 123/209/163
f 93/349/288 105/351/290 109/350/289
f 109/350/289 105/351/290 121/352/291
f 109/350/289 121/352/291 123/209/163
f 123/209/163 121/352/291 133/207/161
f 105/351/290 117/353/292 121/352/291
f 121/352/291 117/353/292 131/354/293
f 121/352/291 131/354/293 133/207/161
f 133/207/161 131/354/293 147/205/159
f 117/353/292 129/355/294 131/354/293
f 131/354/293 129/355/294 145/356/295
f 131/354/293 145/356/295 147/205/159
f 147/205/159 145/356/295 161/203/157
f 129/355/294 143/357/295 145/356/295
f 145/356/295 143/357/295 159/358/296
f 145/356/295 159/358/296 161/203/157
f 161/203/157 159/358/296 175/201/155
f 143/357/295 157/359/297 159/358/296
f 159/358/296 157/359/297 173/360/298
f 159/358/296 173/360/298 175/201/155
f 175/201/155 173/360/298 183/199/153
f 157/359/297 171/361/299 173/360/298
f 173/360/298 171/361/299 185/362/300
f 173/360/298 185/362/300 183/199/153
f 183/199/153 185/362/300 197/197/151
f 171/361/299 187/363/301 185/362/300
f 185/362/300 187/363/301 199/364/302
f 185/362/300 199/364/302 197/197/151
f 197/197/151 199/364/302 207/195/149
f 187/363/301 201/365/303 199/364/302
f 199/364/302 201/365/303 209/366/304
f 199/364/302 209/366/304 207/195/149
f 207/195/149 209/366/304 221/193/147
f 201/365/303 211/367/305 209/366/304
f 209/366/304 211/367/305 223/368/306
f 209/366/304 223/368/306 221/193/147
f 221/193/147 223/368/306 235/191/145
f 211/367/305 225/369/307 223/368/306
f 223/368/306 225/369/307 237/370/308
f 223/368/306 237/370/308 235/191/145
f 235/191/145 237/370/308 247/189/143
f 225/369/307 239/371/308 237/370/308
f 237/370/308 239/371/308 251/372/309
f 237/370/308 251/372/309 247/189/143
f 247/189/143 251/372/309 257/187/141
f 239/371/308 253/373/310 251/372/309
f 251/372/309 253/373/310 261/374/311
f 251/372/309 261/374/311 257/187/141
f 257/187/141 261/374/311 271/185/139
f 253/373/310 265/375/312 261/374/311
f 261/374/311 265/375/312 273/376/313
f 261/374/311 273/376/313 271/185/139
f 271/185/139 273/376/313 283/172/130
f 265/375/312 277/377/314 273/376/313
f 273/376/313 277/377/314 300/378/315
f 273/376/313 300/378/315 283/172/130
f 283/172/130 300/378/315 337/173/131
f 277/377/314 321/379/130 300/378/315
f 300/378/315 321/379/130 367/176/131
f 300/378/315 367/176/131 337/173/131
f 321/379/130 395/380/316 367/176/131
f 367/176/131 395/380/316 420/183/137
f 367/176/131 420/183/137 409/179/134
f 396/381/10 386/382/10 387/383/10
f 387/383/10 386/382/10 356/384/10
f 356/384/10 386/382/10 355/385/10
f 356/384/10 355/385/10 306/386/10
f 306/386/10 355/385/10 275/387/10
f 275/387/10 355/385/10 269/388/10
f 269/388/10 355/385/10 255/389/10
f 255/389/10 355/385/10 241/390/10
f 241/390/10 355/385/10 231/391/10
f 231/391/10 355/385/10 219/392/10
f 219/392/10 355/385/10 205/393/10
f 205/393/10 355/385/10 191/394/10
f 191/394/10 355/385/10 177/395/10
f 177/395/10 355/385/10 163/396/10
f 163/396/10 355/385/10 305/397/10
f 163/396/10 305/397/10 153/398/10
f 153/398/10 305/397/10 141/399/10
f 141/399/10 305/397/10 127/400/10
f 127/400/10 305/397/10 113/401/10
f 113/401/10 305/397/10 103/402/10
f 103/402/10 305/397/10 91/403/10
f 91/403/10 305/397/10 79/404/10
f 79/404/10 305/397/10 73/405/10
f 73/405/10 305/397/10 63/406/10
f 63/406/10 305/397/10 57/407/10
f 57/407/10 305/397/10 56/408/10
f 56/408/10 305/397/10 62/409/10
f 62/409/10 305/397/10 72/410/10
f 72/410/10 305/397/10 78/411/10
f 78/411/10 305/397/10 274/412/10
f 78/411/10 274/412/10 90/413/10
f 90/413/10 274/412/10 268/414/10
f 90/413/10 268/414/10 102/415/10
f 102/415/10 268/414/10 254/416/10
f 102/415/10 254/416/10 112/417/10
f 112/417/10 254/416/10 240/418/10
f 112/417/10 240/418/10 126/419/10
f 126/419/10 240/418/10 230/420/10
f 126/419/10 230/420/10 140/421/10
f 140/421/10 230/420/10 218/422/10
f 140/421/10 218/422/10 152/423/10
f 152/423/10 218/422/10 204/424/10
f 152/423/10 204/424/10 162/425/10
f 162/425/10 204/424/10 190/426/10
f 162/425/10 190/426/10 176/427/10
f 10/428/317 5/429/318 9/430/319
f 9/430/319 5/429/318 4/431/320
f 9/432/319 4/433/320 6/434/321
f 6/434/321 4/433/320 1/435/320
f 6/434/321 1/435/320 3/436/322
f 5/429/318 10/428/317 12/437/323
f 12/437/323 10/428/317 14/438/324
f 12/437/323 14/438/324 18/439/325
f 18/439/325 14/438/324 20/440/326
f 18/439/325 20/440/326 24/441/327
f 24/441/327 20/440/326 26/442/328
f 24/441/327 26/442/328 30/443/329
f 30/443/329 26/442/328 32/444/330
f 30/443/329 32/444/330 36/445/331
f 36/445/331 32/444/330 40/446/332
f 36/445/331 40/446/332 60/447/333
f 60/447/333 40/446/332 68/448/334
f 60/447/333 68/448/334 84/449/335
f 84/449/335 68/448/334 88/450/336
f 84/449/335 88/450/336 100/451/337
f 100/451/337 88/450/336 106/452/338
f 100/451/337 106/452/338 118/453/339
f 118/453/339 106/452/338 124/454/340
f 118/453/339 124/454/340 136/455/341
f 136/455/341 124/454/340 138/456/342
f 136/455/341 138/456/342 150/457/343
f 150/457/343 138/456/342 154/458/344
f 150/457/343 154/458/344 166/459/345
f 166/459/345 154/458/344 168/460/346
f 166/459/345 168/460/346 179/461/347
f 179/461/347 168/460/346 188/462/348
f 179/461/347 188/462/348 192/463/349
f 192/463/349 188/462/348 202/464/350
f 192/463/349 202/464/350 212/465/351
f 212/465/351 202/464/350 216/466/352
f 212/465/351 216/466/352 226/467/353
f 226/467/353 216/466/352 232/468/354
f 226/467/353 232/468/354 242/469/355
f 242/469/355 232/468/354 248/470/356
f 242/469/355 248/470/356 258/471/357
f 258/471/357 248/470/356 266/472/358
f 258/471/357 266/472/358 278/473/359
f 278/473/359 266/472/358 293/474/360
f 278/473/359 293/474/360 384/475/361
f 384/475/361 293/474/360 412/476/362
f 384/475/361 412/476/362 429/477/363
f 429/477/363 412/476/362 433/478/364
f 429/477/363 433/478/364 435/479/365
f 435/479/365 433/478/364 439/480/366
f 435/479/365 439/480/366 441/481/367
f 441/481/367 439/480/366 443/482/368
f 441/481/367 443/482/368 447/483/369
f 447/483/369 443/482/368 449/484/370
f 447/483/369 449/484/370 455/485/371
f 455/485/371 449/484/370 453/486/372
f 455/485/371 453/486/372 461/487/373
f 461/487/373 453/486/372 457/488/374
f 461/487/373 457/488/374 463/2/375
f 463/2/375 457/488/374 458/489/376
f 463/2/375 458/489/376 462/490/377
f 462/490/377 458/489/376 454/491/378
f 462/490/377 454/491/378 456/492/379
f 456/492/379 454/491/378 450/493/380
f 456/492/379 450/493/380 448/494/381
f 448/494/381 450/493/380 444/495/382
f 448/494/381 444/495/382 442/496/383
f 442/496/383 444/495/382 440/497/384
f 442/496/383 440/497/384 436/498/385
f 436/498/385 440/497/384 434/499/386
f 436/498/385 434/499/386 430/500/387
f 430/500/387 434/499/386 413/501/388
f 430/500/387 413/501/388 385/502/389
f 385/502/389 413/501/388 294/503/390
f 385/502/389 294/503/390 279/504/391
f 279/504/391 294/503/390 267/505/392
f 279/504/391 267/505/392 259/506/393
f 259/506/393 267/505/392 249/507/394
f 259/506/393 249/507/394 243/508/395
f 243/508/395 249/507/394 233/509/396
f 243/508/395 233/509/396 227/510/397
f 227/510/397 233/509/396 217/511/398
f 227/510/397 217/511/398 213/512/399
f 213/512/399 217/511/398 203/513/400
f 213/512/399 203/513/400 193/514/401
f 193/514/401 203/513/400 189/515/402
f 193/514/401 189/515/402 180/516/403
f 180/516/403 189/515/402 169/517/404
f 180/516/403 169/517/404 167/518/405
f 167/518/405 169/517/404 155/519/406
f 167/518/405 155/519/406 151/520/407
f 151/520/407 155/519/406 139/521/408
f 151/520/407 139/521/408 137/522/409
f 137/522/409 139/521/408 125/523/410
f 137/522/409 125/523/410 119/524/411
f 119/524/411 125/523/410 107/525/412
f 119/524/411 107/525/412 101/526/413
f 101/526/413 107/525/412 89/527/414
f 101/526/413 89/527/414 85/528/415
f 85/528/415 89/527/414 69/529/416
f 85/528/415 69/529/416 61/530/417
f 61/530/417 69/529/416 41/531/418
f 61/530/417 41/531/418 37/532/419
f 37/532/419 41/531/418 33/533/420
f 37/532/419 33/533/420 31/534/421
f 31/534/421 33/533/420 27/535/422
f 31/534/421 27/535/422 25/536/423
f 25/536/423 27/535/422 21/537/424
f 25/536/423 21/537/424 19/538/425
f 19/538/425 21/537/424 15/539/426
f 19/538/425 15/539/426 13/540/427
f 13/540/427 15/539/426 11/541/428
f 13/540/427 11/541/428 6/434/321
f 6/434/321 11/541/428 9/432/319
f 6/434/321 3/436/322 13/540/427
f 13/540/427 3/436/322 8/542/429
f 13/540/427 8/542/429 19/538/425
f 19/538/425 8/542/429 17/543/430
f 19/538/425 17/543/430 25/536/423
f 25/536/423 17/543/430 23/544/431
f 25/536/423 23/544/431 31/534/421
f 31/534/421 23/544/431 29/545/432
f 31/534/421 29/545/432 37/532/419
f 37/532/419 29/545/432 35/546/433
f 37/532/419 35/546/433 61/530/417
f 61/530/417 35/546/433 55/547/417
f 61/530/417 55/547/417 85/528/415
f 85/528/415 55/547/417 81/548/434
f 85/528/415 81/548/434 101/526/413
f 101/526/413 81/548/434 99/549/435
f 101/526/413 99/549/435 119/524/411
f 119/524/411 99/549/435 115/550/436
f 119/524/411 115/550/436 137/522/409
f 137/522/409 115/550/436 135/551/437
f 137/522/409 135/551/437 151/520/407
f 151/520/407 135/551/437 149/552/438
f 151/520/407 149/552/438 167/518/405
f 167/518/405 149/552/438 165/553/439
f 167/518/405 165/553/439 180/516/403
f 180/516/403 165/553/439 181/554/403
f 180/516/403 181/554/403 193/514/401
f 193/514/401 181/554/403 195/555/440
f 193/514/401 195/555/440 213/512/399
f 213/512/399 195/555/440 215/556/441
f 213/512/399 215/556/441 227/510/397
f 227/510/397 215/556/441 229/557/442
f 227/510/397 229/557/442 243/508/395
f 243/508/395 229/557/442 245/558/443
f 243/508/395 245/558/443 259/506/393
f 259/506/393 245/558/443 263/559/444
f 259/506/393 263/559/444 279/504/391
f 279/504/391 263/559/444 281/560/445
f 279/504/391 281/560/445 385/502/389
f 385/502/389 281/560/445 400/561/446
f 385/502/389 400/561/446 430/500/387
f 430/500/387 400/561/446 432/562/447
f 430/500/387 432/562/447 436/498/385
f 436/498/385 432/562/447 438/563/448
f 436/498/385 438/563/448 442/496/383
f 442/496/383 438/563/448 446/564/449
f 442/496/383 446/564/449 448/494/381
f 448/494/381 446/564/449 452/565/450
f 448/494/381 452/565/450 456/492/379
f 456/492/379 452/565/450 460/566/451
f 456/492/379 460/566/451 462/490/377
f 462/490/377 460/566/451 465/567/452
f 462/490/377 465/567/452 463/2/375
f 463/2/375 465/567/452 466/568/453
f 463/2/375 466/568/453 461/487/373
f 461/487/373 466/568/453 464/569/454
f 461/487/373 464/569/454 455/485/371
f 455/485/371 464/569/454 459/570/455
f 455/485/371 459/570/455 447/483/369
f 447/483/369 459/570/455 451/571/456
f 447/483/369 451/571/456 441/481/367
f 441/481/367 451/571/456 445/572/457
f 441/481/367 445/572/457 435/479/365
f 435/479/365 445/572/457 437/573/458
f 435/479/365 437/573/458 429/477/363
f 429/477/363 437/573/458 431/574/459
f 429/477/363 431/574/459 384/475/361
f 384/475/361 431/574/459 399/575/460
f 384/475/361 399/575/460 278/473/359
f 278/473/359 399/575/460 280/576/461
f 278/473/359 280/576/461 258/471/357
f 258/471/357 280/576/461 262/577/462
f 258/471/357 262/577/462 242/469/355
f 242/469/355 262/577/462 244/578/463
f 242/469/355 244/578/463 226/467/353
f 226/467/353 244/578/463 228/579/464
f 226/467/353 228/579/464 212/465/351
f 212/465/351 228/579/464 214/580/465
f 212/465/351 214/580/465 192/463/349
f 192/463/349 214/580/465 194/581/466
f 192/463/349 194/581/466 179/461/347
f 179/461/347 194/581/466 178/582/347
f 179/461/347 178/582/347 166/459/345
f 166/459/345 178/582/347 164/583/467
f 166/459/345 164/583/467 150/457/343
f 150/457/343 164/583/467 148/584/468
f 150/457/343 148/584/468 136/455/341
f 136/455/341 148/584/468 134/585/469
f 136/455/341 134/585/469 118/453/339
f 118/453/339 134/585/469 114/586/470
f 118/453/339 114/586/470 100/451/337
f 100/451/337 114/586/470 98/587/471
f 100/451/337 98/587/471 84/449/335
f 84/449/335 98/587/471 80/588/472
f 84/449/335 80/588/472 60/447/333
f 60/447/333 80/588/472 54/589/473
f 60/447/333 54/589/473 36/445/331
f 36/445/331 54/589/473 34/590/474
f 36/445/331 34/590/474 30/443/329
f 30/443/329 34/590/474 28/591/475
f 30/443/329 28/591/475 24/441/327
f 24/441/327 28/591/475 22/592/476
f 24/441/327 22/592/476 18/439/325
f 18/439/325 22/592/476 16/593/477
f 18/439/325 16/593/477 12/437/323
f 12/437/323 16/593/477 7/594/478
f 12/437/323 7/594/478 5/429/318
f 5/429/318 7/594/478 2/595/479
f 5/429/318 2/595/479 4/431/320
f 4/433/320 2/596/479 1/435/320
f 11/597/10 39/598/10 9/599/10
f 9/599/10 39/598/10 38/600/10
f 9/599/10 38/600/10 10/601/10
f 10/601/10 38/600/10 42/602/10
f 10/601/10 42/602/10 14/603/10
f 14/603/10 42/602/10 50/604/10
f 14/603/10 50/604/10 20/605/10
f 20/605/10 50/604/10 66/606/10
f 20/605/10 66/606/10 26/607/10
f 26/607/10 66/606/10 76/608/10
f 26/607/10 76/608/10 32/609/10
f 32/609/10 76/608/10 40/610/10
f 40/610/10 76/608/10 92/611/10
f 40/610/10 92/611/10 68/612/10
f 68/612/10 92/611/10 104/613/10
f 68/612/10 104/613/10 88/614/10
f 88/614/10 104/613/10 116/615/10
f 88/614/10 116/615/10 106/616/10
f 106/616/10 116/615/10 128/617/10
f 106/616/10 128/617/10 124/618/10
f 124/618/10 128/617/10 142/619/10
f 124/618/10 142/619/10 138/620/10
f 138/620/10 142/619/10 156/621/10
f 138/620/10 156/621/10 154/622/10
f 154/622/10 156/621/10 170/623/10
f 154/622/10 170/623/10 168/624/10
f 168/624/10 170/623/10 186/625/10
f 168/624/10 186/625/10 188/626/10
f 188/626/10 186/625/10 202/627/10
f 202/627/10 186/625/10 200/628/10
f 202/627/10 200/628/10 216/629/10
f 216/629/10 200/628/10 210/630/10
f 216/629/10 210/630/10 232/631/10
f 232/631/10 210/630/10 224/632/10
f 232/631/10 224/632/10 248/633/10
f 248/633/10 224/632/10 238/634/10
f 248/633/10 238/634/10 266/635/10
f 266/635/10 238/634/10 252/636/10
f 266/635/10 252/636/10 293/637/10
f 293/637/10 252/636/10 264/638/10
f 293/637/10 264/638/10 412/639/10
f 412/639/10 264/638/10 276/640/10
f 412/639/10 276/640/10 433/641/10
f 433/641/10 276/640/10 320/642/10
f 433/641/10 320/642/10 439/643/10
f 439/643/10 320/642/10 443/644/10
f 443/644/10 320/642/10 394/645/10
f 443/644/10 394/645/10 449/646/10
f 449/646/10 394/645/10 419/647/10
f 449/646/10 419/647/10 453/648/10
f 453/648/10 419/647/10 426/649/10
f 453/648/10 426/649/10 457/650/10
f 457/650/10 426/649/10 428/651/10
f 457/650/10 428/651/10 458/652/10
f 458/652/10 428/651/10 427/653/10
f 458/652/10 427/653/10 454/654/10
f 454/654/10 427/653/10 420/655/10
f 454/654/10 420/655/10 450/656/10
f 450/656/10 420/655/10 395/657/10
f 450/656/10 395/657/10 444/658/10
f 444/658/10 395/657/10 321/659/10
f 444/658/10 321/659/10 440/660/10
f 440/660/10 321/659/10 434/661/10
f 434/661/10 321/659/10 277/662/10
f 434/661/10 277/662/10 413/663/10
f 413/663/10 277/662/10 265/664/10
f 413/663/10 265/664/10 294/665/10
f 294/665/10 265/664/10 253/666/10
f 294/665/10 253/666/10 267/667/10
f 267/667/10 253/666/10 239/668/10
f 267/667/10 239/668/10 249/669/10
f 249/669/10 239/668/10 225/670/10
f 249/669/10 225/670/10 233/671/10
f 233/671/10 225/670/10 211/672/10
f 233/671/10 211/672/10 217/673/10
f 217/673/10 211/672/10 201/674/10
f 217/673/10 201/674/10 203/675/10
f 203/675/10 201/674/10 187/676/10
f 203/675/10 187/676/10 189/677/10
f 189/677/10 187/676/10 169/678/10
f 169/678/10 187/676/10 171/679/10
f 169/678/10 171/679/10 155/680/10
f 155/680/10 171/679/10 157/681/10
f 155/680/10 157/681/10 139/682/10
f 139/682/10 157/681/10 143/683/10
f 139/682/10 143/683/10 125/684/10
f 125/684/10 143/683/10 129/685/10
f 125/684/10 129/685/10 107/686/10
f 107/686/10 129/685/10 117/687/10
f 107/686/10 117/687/10 89/688/10
f 89/688/10 117/687/10 105/689/10
f 89/688/10 105/689/10 69/690/10
f 69/690/10 105/689/10 93/691/10
f 69/690/10 93/691/10 41/692/10
f 41/692/10 93/691/10 77/693/10
f 41/692/10 77/693/10 33/694/10
f 33/694/10 77/693/10 27/695/10
f 27/695/10 77/693/10 67/696/10
f 27/695/10 67/696/10 21/697/10
f 21/697/10 67/696/10 51/698/10
f 21/697/10 51/698/10 15/699/10
f 15/699/10 51/698/10 43/700/10
f 15/699/10 43/700/10 11/597/10
f 11/597/10 43/700/10 39/598/10
f 2/701/30 464/702/30 1/703/30
f 1/703/30 464/702/30 466/704/30
f 1/703/30 466/704/30 3/705/30
f 3/705/30 466/704/30 465/706/30
f 3/705/30 465/706/30 8/707/30
f 8/707/30 465/706/30 460/708/30
f 8/707/30 460/708/30 17/709/30
f 17/709/30 460/708/30 452/710/30
f 17/709/30 452/710/30 23/711/30
f 23/711/30 452/710/30 446/712/30
f 23/711/30 446/712/30 29/713/30
f 29/713/30 446/712/30 438/714/30
f 29/713/30 438/714/30 35/715/30
f 35/715/30 438/714/30 432/716/30
f 35/715/30 432/716/30 55/717/30
f 55/717/30 432/716/30 400/718/30
f 55/717/30 400/718/30 81/719/30
f 81/719/30 400/718/30 281/720/30
f 81/719/30 281/720/30 99/721/30
f 99/721/30 281/720/30 263/722/30
f 99/721/30 263/722/30 115/723/30
f 115/723/30 263/722/30 245/724/30
f 115/723/30 245/724/30 135/725/30
f 135/725/30 245/724/30 229/726/30
f 135/725/30 229/726/30 149/727/30
f 149/727/30 229/726/30 215/728/30
f 149/727/30 215/728/30 165/729/30
f 165/729/30 215/728/30 195/730/30
f 165/729/30 195/730/30 181/731/30
f 464/702/30 2/701/30 459/732/30
f 459/732/30 2/701/30 7/733/30
f 459/732/30 7/733/30 451/734/30
f 451/734/30 7/733/30 16/735/30
f 451/734/30 16/735/30 445/736/30
f 445/736/30 16/735/30 22/737/30
f 445/736/30 22/737/30 437/738/30
f 437/738/30 22/737/30 28/739/30
f 437/738/30 28/739/30 431/740/30
f 431/740/30 28/739/30 34/741/30
f 431/740/30 34/741/30 399/742/30
f 399/742/30 34/741/30 54/743/30
f 399/742/30 54/743/30 280/744/30
f 280/744/30 54/743/30 80/745/30
f 280/744/30 80/745/30 262/746/30
f 262/746/30 80/745/30 98/747/30
f 262/746/30 98/747/30 244/748/30
f 244/748/30 98/747/30 114/749/30
f 244/748/30 114/749/30 228/750/30
f 228/750/30 114/749/30 134/751/30
f 228/750/30 134/751/30 214/752/30
f 214/752/30 134/751/30 148/753/30
f 214/752/30 148/753/30 194/754/30
f 194/754/30 148/753/30 164/755/30
f 194/754/30 164/755/30 178/756/30
