# Blender 5.1.2
# www.blender.org
mtllib lever.mtl
o Качалка
v -0.019967 0.015828 -0.003379
v -0.017451 0.015807 -0.003260
v -0.015325 0.015615 -0.002553
v -0.022528 0.015634 -0.002592
v -0.018779 0.014902 -0.004403
v -0.020179 0.014894 -0.004305
v -0.016950 0.014857 -0.004155
v -0.021665 0.014816 -0.003918
v -0.015102 0.014674 -0.003391
v -0.022946 0.014671 -0.003315
v -0.023444 0.015045 -0.002537
v -0.014453 0.014981 -0.002556
v -0.015430 0.014738 0.002600
v -0.022556 0.014734 0.002599
v -0.023950 0.014188 -0.002844
v -0.013985 0.014042 -0.002940
v -0.018765 0.013706 -0.005153
v -0.020177 0.013691 -0.005062
v -0.017536 0.013680 -0.005018
v -0.021640 0.013627 -0.004675
v -0.016393 0.013625 -0.004705
v -0.015269 0.013534 -0.004192
v -0.014119 0.013715 0.002420
v -0.023848 0.013650 0.002408
v -0.023151 0.013526 -0.003897
v -0.013956 0.013062 -0.003435
v -0.023977 0.011983 -0.003861
v -0.023975 0.012217 -0.003766
v -0.018767 0.010302 -0.006439
v -0.020177 0.010926 -0.006132
v -0.016940 0.010887 -0.005975
v -0.021641 0.010226 -0.005959
v -0.015052 0.010233 -0.005323
v -0.023143 0.010807 -0.004964
v -0.013975 0.009775 -0.004590
v -0.023975 0.009775 -0.004590
v -0.013975 0.007438 0.001449
v -0.023975 0.007940 0.001427
v -0.020323 0.007226 -0.007148
v -0.017782 0.006209 -0.007428
v -0.016470 0.006388 -0.007038
v -0.022887 0.006945 -0.006212
v -0.013943 0.005671 -0.005682
v -0.023979 0.005557 -0.005723
v -0.023991 0.006636 0.001877
v -0.013975 0.006008 -0.005594
v -0.023975 0.006312 -0.005523
v 0.000000 0.006708 -0.000178
v -0.013975 0.006441 0.002096
v -0.013975 0.006631 -0.001028
v 0.000000 0.006410 0.001986
v 0.000000 0.006295 -0.002322
v -0.019383 0.004743 -0.007834
v -0.021636 0.005097 -0.007268
v -0.015266 0.004991 -0.006784
v -0.023941 0.005763 -0.001289
v -0.013975 0.005948 -0.003107
v 0.000000 0.005434 0.003936
v -0.023986 0.005030 0.004512
v -0.000000 0.005216 -0.004221
v -0.023897 0.004877 0.002911
v -0.023522 0.004666 0.000377
v -0.013975 0.004270 -0.005224
v -0.023670 0.004675 -0.001751
v -0.023942 0.003238 -0.004883
v -0.023529 0.003967 0.002465
v -0.000001 0.004179 -0.001061
v 0.000000 0.003883 0.005472
v -0.023090 0.003786 -0.001627
v 0.000000 0.004108 0.001179
v -0.000000 0.003585 -0.005672
v -0.018430 0.001269 -0.008509
v -0.016897 0.000929 -0.008288
v -0.022577 0.003671 -0.000532
v -0.015799 0.000646 -0.007919
v -0.022577 0.003675 0.000501
v -0.023670 0.003036 -0.003962
v -0.023376 0.001597 -0.007017
v -0.023313 0.003354 -0.002845
v -0.022577 0.003395 0.001494
v 0.000000 0.003274 0.002745
v -0.000000 0.002863 -0.003206
v -0.021488 0.003281 0.000435
v -0.023819 0.002599 0.004614
v -0.023975 0.002743 0.006123
v -0.021491 0.003221 -0.000694
v -0.001999 0.003217 0.000590
v -0.022274 0.003136 -0.001673
v -0.013973 0.001726 -0.006489
v -0.023983 0.000602 -0.006695
v -0.001998 0.003143 -0.000904
v -0.021488 0.002793 -0.001776
v -0.021491 0.002913 0.001539
v -0.022268 0.002737 0.002286
v -0.022580 0.002664 -0.002571
v -0.023100 0.002511 0.003304
v -0.002019 0.002376 0.002298
v -0.020226 0.001001 -0.008468
v -0.021321 0.000804 -0.008206
v -0.002020 0.002159 -0.002503
v -0.022570 0.000920 -0.007667
v -0.021488 0.002234 0.002442
v -0.014702 0.001112 -0.007192
v -0.023313 0.001907 -0.003964
v 0.000000 0.001924 0.006428
v 0.000000 0.001593 0.003992
v -0.021491 0.002021 -0.002602
v -0.022560 0.001669 -0.003304
v -0.000000 0.001577 -0.006522
v -0.021844 0.001407 0.003053
v -0.023532 0.000442 -0.004663
v -0.021488 0.000998 -0.003156
v -0.000000 0.000962 -0.004164
v -0.023522 0.000439 0.004660
v -0.023992 0.000203 0.006726
v -0.022594 0.000573 -0.003678
v -0.022824 0.000428 0.003911
v -0.001998 0.000721 0.003190
v -0.023899 -0.000301 -0.005638
v -0.023897 -0.000488 0.005659
v -0.018271 0.000276 -0.008574
v -0.001999 0.000403 -0.003246
v -0.022268 0.000133 0.003563
v -0.021488 0.000142 0.003307
v 0.000000 -0.000336 0.006710
v -0.013968 -0.000390 -0.006703
v -0.021491 -0.000124 -0.003292
v -0.000000 -0.000352 -0.006717
v -0.010612 -0.000500 -0.006708
v 0.000000 -0.000521 0.004242
v -0.000001 -0.001281 -0.004117
v -0.020390 -0.000707 -0.008390
v -0.022580 -0.000642 -0.003647
v -0.001999 -0.000774 0.003178
v -0.016635 -0.000853 -0.008150
v -0.022679 -0.000789 -0.007589
v -0.023524 -0.001518 -0.004431
v -0.014726 -0.001595 -0.007092
v -0.009767 -0.001104 -0.007011
v -0.001998 -0.001084 -0.003086
v -0.021488 -0.001264 -0.003059
v -0.021491 -0.001010 0.003136
v -0.022577 -0.001387 0.003447
v -0.000000 -0.001646 -0.007472
v -0.018942 -0.001674 -0.008301
v -0.023524 -0.001986 0.004242
v -0.022580 -0.001622 -0.003328
v -0.009068 -0.001808 -0.007873
v -0.021488 -0.002017 0.002624
v -0.010605 -0.002362 -0.006317
v -0.016880 -0.002029 -0.007890
v -0.020735 -0.002013 -0.007970
v -0.015594 -0.002114 -0.007392
v -0.022644 -0.002105 -0.007276
v -0.000001 -0.002612 0.003431
v -0.001998 -0.002108 0.002502
v -0.023985 -0.001517 -0.006524
v -0.023980 -0.004642 0.004893
v -0.023975 -0.002366 0.006279
v -0.013975 -0.002394 -0.006267
v 0.000000 -0.002554 0.006205
v -0.021491 -0.002211 -0.002442
v -0.002021 -0.002622 -0.002013
v -0.023897 -0.003579 -0.004410
v -0.022580 -0.002477 -0.002752
v -0.022580 -0.002478 0.002751
v -0.017889 -0.003061 -0.007630
v -0.009773 -0.003028 -0.006425
v -0.021488 -0.002935 -0.001531
v -0.021491 -0.002789 0.001753
v -0.000000 -0.003349 -0.002695
v -0.023531 -0.003107 -0.003467
v -0.002011 -0.003006 0.001290
v -0.022560 -0.003244 -0.001783
v -0.022256 -0.003267 0.001465
v -0.020649 -0.003160 -0.007463
v -0.023966 -0.003600 -0.005702
v -0.000000 -0.003174 -0.013277
v -0.009000 -0.003242 -0.013324
v -0.015290 -0.003398 -0.006637
v -0.009020 -0.004180 -0.007291
v -0.022363 -0.003352 -0.006782
v -0.023821 -0.003629 0.003858
v -0.021488 -0.003232 0.000714
v -0.023102 -0.003494 0.002225
v -0.001999 -0.003264 -0.000216
v -0.021491 -0.003264 -0.000450
v -0.010593 -0.003673 -0.005648
v -0.022567 -0.003686 -0.000484
v -0.023304 -0.004042 -0.001770
v -0.000000 -0.004069 0.001387
v -0.022836 -0.003833 0.000829
v -0.009273 -0.004598 -0.006204
v -0.000000 -0.004250 -0.013102
v -0.013978 -0.004392 -0.005090
v 0.000000 -0.005098 0.004458
v -0.023816 -0.004866 -0.002078
v -0.018242 -0.004295 -0.006714
v -0.020736 -0.004321 -0.006563
v -0.015864 -0.004406 -0.006100
v -0.000000 -0.004209 -0.000743
v -0.009000 -0.004239 -0.013122
v -0.009747 -0.004531 -0.005497
v -0.022995 -0.004477 -0.005614
v -0.023516 -0.004640 0.000267
v -0.023828 -0.005178 0.001336
v -0.023985 -0.006381 -0.002146
v -0.023983 -0.006238 0.002482
v 0.000005 -0.004843 -0.014159
v -0.010343 -0.004871 -0.004708
v -0.009000 -0.004898 -0.014199
v -0.018377 -0.005205 -0.005645
v -0.020329 -0.005350 -0.005381
v -0.016499 -0.005168 -0.005416
v -0.022070 -0.005528 -0.004718
v -0.014006 -0.005658 -0.003672
v -0.023965 -0.005441 -0.003999
v -0.010620 -0.005620 -0.003725
v -0.000998 -0.005636 -0.014973
v -0.008000 -0.005633 -0.014979
v -0.000000 -0.006340 -0.013617
v -0.009021 -0.007122 -0.004508
v -0.009401 -0.006076 -0.004356
v -0.018128 -0.006026 -0.004052
v -0.015822 -0.005920 -0.003916
v -0.001000 -0.006346 -0.014691
v -0.010348 -0.006228 -0.002721
v -0.021259 -0.006086 -0.003664
v -0.010475 -0.006220 0.002560
v -0.000000 -0.006066 -0.012385
v -0.009000 -0.006044 -0.012379
v -0.014032 -0.006428 -0.001929
v -0.009004 -0.006359 -0.013570
v -0.000000 -0.006694 0.002122
v -0.008000 -0.006334 -0.014693
v -0.000000 -0.006882 -0.011933
v -0.010602 -0.006488 0.001817
v -0.009401 -0.006977 -0.002686
v -0.010350 -0.006779 0.000214
v -0.023975 -0.006701 0.000332
v -0.010359 -0.006618 -0.001405
v -0.009000 -0.006875 -0.011954
v -0.009742 -0.007048 0.001073
v -0.009385 -0.007225 0.001912
v -0.009401 -0.007479 -0.000471
v 0.000005 -0.007681 -0.012843
v -0.000000 -0.007917 0.001842
v -0.009000 -0.007743 -0.012871
v -0.009028 -0.008364 -0.000638
v -0.009028 -0.008074 0.001865
v -0.000998 -0.008626 -0.013474
v -0.008000 -0.008624 -0.013480
v -0.000000 -0.009033 -0.012001
v -0.000000 -0.008509 -0.010853
v -0.009000 -0.008486 -0.010852
v -0.000000 -0.009213 -0.010241
v -0.009004 -0.009041 -0.011952
v -0.009000 -0.009210 -0.010264
v -0.001000 -0.009262 -0.013050
v -0.008000 -0.009250 -0.013055
v 0.000005 -0.010183 -0.010966
v -0.009000 -0.010250 -0.010979
v -0.000000 -0.010579 -0.008847
v -0.009000 -0.010556 -0.008850
v -0.000000 -0.011330 -0.009861
v -0.000998 -0.011239 -0.011386
v -0.008000 -0.011238 -0.011393
v -0.000000 -0.011140 -0.008103
v -0.009000 -0.011158 -0.008107
v -0.009004 -0.011329 -0.009811
v -0.001000 -0.011773 -0.010840
v -0.008000 -0.011762 -0.010846
v 0.000003 -0.012258 -0.008607
v -0.009004 -0.012263 -0.008618
v -0.000000 -0.012187 -0.006454
v -0.009000 -0.012166 -0.006462
v -0.000000 -0.012581 -0.005610
v -0.009000 -0.012600 -0.005610
v -0.000000 -0.013133 -0.007290
v -0.009002 -0.013144 -0.007261
v -0.000998 -0.013361 -0.008800
v -0.000000 -0.013385 0.002953
v -0.009000 -0.013341 0.002945
v -0.000000 -0.013263 -0.003779
v -0.009000 -0.013243 -0.003791
v -0.000000 -0.013472 -0.002872
v 0.000003 -0.013780 -0.005870
v -0.009004 -0.013787 -0.005880
v -0.008000 -0.013374 -0.008789
v -0.009000 -0.013491 -0.002868
v -0.001000 -0.013769 -0.008155
v -0.008003 -0.013770 -0.008143
v -0.009000 -0.013640 0.001923
v -0.000000 -0.013655 0.001923
v -0.000000 -0.013759 -0.000963
v -0.009000 -0.013744 -0.000923
v -0.000000 -0.013775 -0.000008
v -0.009000 -0.013792 0.000000
v -0.009002 -0.014367 -0.004370
v 0.000009 -0.014760 0.001892
v -0.000000 -0.014362 -0.004400
v 0.000001 -0.014741 -0.002871
v -0.009004 -0.014708 -0.002885
v -0.000998 -0.014898 -0.005830
v -0.009002 -0.014902 0.001852
v 0.000005 -0.014913 -0.001276
v 0.000001 -0.015016 0.000256
v -0.009004 -0.014986 0.000236
v -0.001000 -0.015164 -0.005114
v -0.008003 -0.015162 -0.005102
v -0.009000 -0.014962 -0.001318
v -0.008000 -0.014909 -0.005817
v -0.000998 -0.015785 -0.002605
v -0.001000 -0.015933 0.001496
v -0.008003 -0.015927 0.001506
v -0.001000 -0.015896 -0.001850
v -0.008003 -0.015892 -0.001839
v -0.000998 -0.015982 0.000734
v -0.008000 -0.015792 -0.002590
v -0.008000 -0.015986 0.000750
vn 0.0478 -0.6950 0.7174
vn -0.0545 -0.8521 0.5206
vn -0.0100 -0.5621 0.8270
vn -0.4667 -0.6406 0.6098
vn 0.0143 0.0008 0.9999
vn -0.6635 -0.0917 0.7426
vn -0.6433 -0.4305 0.6331
vn 0.6068 -0.3646 0.7063
vn 0.0081 0.8037 -0.5949
vn -0.6278 0.5498 -0.5510
vn -0.3231 0.1917 -0.9268
vn 0.0276 0.2694 -0.9626
vn -0.1217 -0.0218 -0.9923
vn -0.8266 0.3350 0.4523
vn -0.7141 0.5255 0.4625
vn 0.1342 0.8659 0.4819
vn 0.0050 0.8096 0.5869
vn 0.0044 0.9554 0.2953
vn 0.0041 0.5784 0.8158
vn -0.6582 0.3098 0.6861
vn 0.0033 0.2850 0.9585
vn -0.7003 0.0645 0.7109
vn 0.0022 -0.0505 0.9987
vn -0.6598 -0.2661 0.7027
vn 0.0026 -0.4003 0.9164
vn -0.7121 -0.4673 0.5240
vn -0.7276 -0.6284 0.2750
vn -0.1144 -0.9573 0.2654
vn -0.3331 -0.9428 0.0136
vn -0.6650 -0.7461 0.0329
vn -0.3291 -0.9182 -0.2206
vn -0.7490 -0.6396 -0.1726
vn 0.0112 -0.9313 -0.3641
vn -0.3553 -0.8483 -0.3926
vn 0.1403 -0.8181 -0.5578
vn 0.1099 -0.8505 -0.5143
vn -0.3014 -0.6648 -0.6836
vn 0.2020 -0.6457 -0.7364
vn -0.1965 -0.5139 -0.8351
vn -0.2283 -0.2957 -0.9276
vn -0.0075 -0.3652 -0.9309
vn -0.0036 -0.0548 -0.9985
vn 0.0003 0.2470 -0.9690
vn 0.0792 0.2751 -0.9581
vn 0.0047 0.5326 -0.8464
vn 0.7575 0.4111 -0.5071
vn 0.0065 0.7779 -0.6283
vn -0.0063 0.8808 -0.4734
vn 0.0056 0.9382 -0.3462
vn -0.0071 0.9916 -0.1290
vn 0.0038 0.9997 -0.0258
vn -0.5944 -0.3442 -0.7268
vn -0.9795 -0.1969 -0.0434
vn -0.5584 -0.8221 0.1107
vn -0.7983 -0.6014 -0.0314
vn -0.8539 -0.3225 -0.4085
vn -0.7988 -0.4763 -0.3675
vn -0.6230 -0.5131 -0.5904
vn -0.7708 -0.5978 -0.2204
vn -0.9852 -0.1027 -0.1373
vn -0.9885 -0.1424 -0.0516
vn -0.8548 -0.3048 0.4200
vn -1.0000 -0.0026 0.0002
vn -0.6967 -0.3313 0.6363
vn -0.9475 -0.3194 0.0166
vn -0.8721 -0.4021 0.2788
vn -0.8810 -0.4268 0.2043
vn -1.0000 -0.0017 0.0002
vn -1.0000 -0.0016 -0.0005
vn -0.6960 -0.5604 0.4490
vn -1.0000 -0.0011 -0.0010
vn -1.0000 -0.0015 -0.0009
vn -0.8542 -0.0494 -0.5176
vn -0.9488 -0.2320 -0.2143
vn -0.7010 0.1320 -0.7008
vn -0.5938 0.4490 -0.6677
vn -0.8465 0.2409 -0.4748
vn -1.0000 -0.0006 -0.0013
vn -0.9488 -0.1248 -0.2902
vn -0.7011 0.4056 -0.5864
vn -0.8540 0.0591 -0.5169
vn -1.0000 -0.0009 -0.0011
vn -0.9488 -0.1824 -0.2579
vn -0.7010 0.2748 -0.6581
vn -1.0000 -0.0019 -0.0010
vn -0.6960 -0.6414 0.3227
vn -0.9474 -0.2682 -0.1744
vn -0.9475 -0.2986 -0.1149
vn -0.6981 -0.4691 0.5410
vn -0.9477 -0.3151 -0.0503
vn 0.5260 0.3611 -0.7700
vn 0.9555 -0.2921 0.0420
vn 0.7209 -0.6887 0.0767
vn 0.6966 -0.4342 -0.5712
vn 0.2923 -0.8681 -0.4013
vn -0.2923 -0.8045 0.5171
vn 0.0096 -0.7150 0.6991
vn 0.0511 -0.1336 0.9897
vn 0.9476 -0.3175 -0.0350
vn 0.7109 -0.6979 -0.0874
vn 0.6942 -0.3017 -0.6535
vn 0.2923 -0.7657 -0.5730
vn 0.0046 -0.1012 -0.9949
vn 0.8901 -0.2741 -0.3642
vn 0.0800 -0.6002 -0.7958
vn -0.0160 -0.6633 -0.7482
vn -0.7096 -0.7032 0.0436
vn 0.0046 -0.2714 -0.9625
vn 0.8901 -0.3439 -0.2991
vn 0.0800 -0.7525 -0.6537
vn -0.0160 -0.8044 -0.5939
vn -0.7087 -0.6977 -0.1046
vn -0.2924 -0.8905 0.3486
vn -0.7096 -0.6602 -0.2462
vn -0.2917 -0.9452 0.1464
vn 0.6889 -0.5784 0.4369
vn 0.8547 -0.4858 0.1831
vn 0.2908 -0.9438 0.1568
vn 0.7106 -0.6560 -0.2544
vn 0.9495 -0.2899 -0.1200
vn 0.6917 -0.6575 0.2988
vn 0.2908 -0.9558 -0.0428
vn 0.7106 -0.5887 -0.3852
vn 0.9495 -0.2586 -0.1777
vn -0.0160 -0.3017 -0.9533
vn 0.0168 -0.2991 -0.9541
vn -0.2916 -0.9551 -0.0533
vn 0.8575 -0.5106 0.0634
vn 0.0167 -0.9801 0.1978
vn -0.7096 -0.5946 -0.3782
vn 0.0046 0.3122 -0.9500
vn -0.0047 0.3154 -0.9489
vn -0.0339 -0.2468 -0.9685
vn 0.0800 -0.2246 -0.9712
vn -0.2919 -0.0763 -0.9534
vn -0.7105 -0.4033 -0.5767
vn -0.0001 -0.9388 0.3445
vn 0.6983 -0.7155 0.0205
vn 0.8574 -0.4922 -0.1501
vn 0.0167 -0.9761 -0.2168
vn 0.2916 -0.8535 -0.4319
vn -0.0282 -0.9605 -0.2769
vn 0.0169 0.1152 -0.9932
vn -0.2920 -0.2728 -0.9167
vn -0.7105 -0.5144 -0.4803
vn -0.0001 -0.8466 0.5322
vn 0.6983 -0.6956 0.1689
vn 0.8542 -0.5189 -0.0311
vn 0.0167 -0.9998 -0.0094
vn 0.2917 -0.9246 -0.2450
vn -0.0281 -0.9971 -0.0712
vn 0.0169 -0.0938 -0.9954
vn 0.7121 -0.4928 -0.5000
vn 0.9509 -0.2119 -0.2255
vn 0.7121 -0.3781 -0.5916
vn 0.9509 -0.1604 -0.2646
vn 0.2917 -0.7450 -0.5999
vn 0.7121 -0.2468 -0.6572
vn 0.6930 -0.7065 -0.1436
vn 0.9509 -0.1019 -0.2921
vn -0.2919 0.1236 -0.9484
vn 0.0169 0.3192 -0.9475
vn -0.0281 -0.8819 -0.4706
vn -0.0001 -0.9899 0.1418
vn 0.8575 -0.4502 -0.2491
vn 0.0167 -0.9097 -0.4150
vn -0.7105 -0.2746 -0.6480
vn -0.0015 0.8140 -0.5809
vn 0.8552 0.2235 -0.4676
vn -0.0339 -0.4427 -0.8960
vn 0.0800 -0.4217 -0.9032
vn -0.0015 0.5074 -0.8617
vn -0.0179 -0.0454 -0.9988
vn -0.0015 0.6755 -0.7374
vn -0.0179 0.1633 -0.9864
vn 0.8801 -0.3284 0.3430
vn 0.0096 -0.8395 0.5432
vn 0.0184 -0.3486 0.9371
vn -0.0780 -0.7954 0.6010
vn -0.0160 -0.4933 -0.8697
vn 0.0168 -0.4909 -0.8710
vn 0.0046 0.1078 -0.9942
vn -0.0047 0.1113 -0.9938
vn 0.7858 0.1368 0.6031
vn 0.0047 0.0380 0.9993
vn -0.2478 0.6209 0.7437
vn -0.6890 0.2299 0.6873
vn 0.7038 0.2369 0.6698
vn 0.2643 0.6378 0.7234
vn -0.0000 0.2931 -0.9561
vn 0.0052 0.3738 -0.9275
vn 0.0094 0.3276 -0.9448
vn 0.5599 0.3835 -0.7345
vn 0.8079 0.5553 0.1972
vn -0.0000 0.2858 -0.9583
vn 0.0007 0.2839 -0.9589
vn 0.0037 0.2332 -0.9724
vn -0.0007 0.2276 -0.9738
vn -0.0004 0.9687 0.2482
vn 0.6406 0.1161 -0.7590
vn 0.0149 -0.9389 -0.3438
vn -0.8806 0.0337 -0.4727
vn -0.5887 0.1433 -0.7955
vn -0.4710 0.0818 -0.8783
vn -0.8332 -0.3206 -0.4505
vn -0.3449 -0.5010 -0.7938
vn -0.3464 -0.6503 -0.6761
vn -0.7552 -0.5419 -0.3687
vn -0.1679 -0.8363 -0.5219
vn -0.0465 -0.9472 -0.3171
vn -0.0660 -0.8370 -0.5432
vn 0.0291 -0.8248 -0.5646
vn 0.1508 -0.8065 -0.5717
vn 0.0462 -0.6788 -0.7329
vn 0.2608 -0.6616 -0.7030
vn 0.3887 -0.4840 -0.7840
vn 0.3925 -0.3228 -0.8612
vn 0.5266 -0.2032 -0.8254
vn 0.5754 -0.3202 -0.7526
vn 0.5812 -0.0652 -0.8112
vn 0.5718 0.0954 -0.8148
vn 0.4325 0.0403 -0.9007
vn 0.0645 0.1434 -0.9876
vn 0.0806 -0.0382 -0.9960
vn -0.1524 0.0881 -0.9844
vn 0.2657 0.0925 -0.9596
vn 0.1193 -0.9023 -0.4143
vn -0.4266 -0.3092 -0.8499
vn -0.8767 -0.1649 -0.4519
vn -0.4595 -0.1206 -0.8799
vn 0.2895 -0.1559 -0.9444
vn 0.2338 -0.3439 -0.9094
vn 0.1040 -0.5061 -0.8562
vn 0.0086 -0.2933 -0.9560
vn -0.1840 -0.1432 -0.9724
vn -0.1562 -0.5091 -0.8464
vn -0.1370 -0.6802 -0.7201
vn -0.2196 -0.3254 -0.9197
vn -0.3157 0.0582 -0.9471
vn -0.0000 -0.2972 0.9548
vn -0.0037 -0.3126 0.9499
vn 0.0005 -0.3636 0.9316
vn 0.9687 -0.0524 0.2427
vn -0.9128 0.1226 -0.3895
vn -0.9584 -0.0595 0.2792
vn 0.8799 0.1809 -0.4393
vn 0.9574 -0.0628 0.2819
vn 0.9809 0.1901 0.0415
vn 1.0000 0.0008 0.0001
vn 1.0000 0.0011 0.0010
vn 1.0000 -0.0000 -0.0000
vn 1.0000 -0.0000 0.0001
vn 0.3004 0.9407 0.1575
vn 0.7605 0.6403 0.1080
vn -0.3455 0.9120 -0.2213
vn -0.0072 0.9842 0.1769
vn 0.0103 0.9843 0.1760
vn -0.8795 0.3444 -0.3283
vn -0.6832 0.6949 -0.2246
vn 0.4577 0.8861 0.0727
vn 0.4435 0.8819 0.1598
vn 0.4522 0.7026 0.5494
vn 0.4430 0.6892 0.5733
vn 0.4486 0.2771 0.8497
vn 0.4385 0.8459 -0.3038
vn 0.4501 0.8156 -0.3636
vn 0.4425 0.5498 -0.7085
vn 0.4542 0.5832 -0.6735
vn 0.4534 0.2143 -0.8652
vn 0.4357 0.1124 -0.8930
vn 0.4646 -0.2016 -0.8623
vn 0.4385 -0.3337 -0.8345
vn 0.4633 -0.6413 -0.6116
vn 0.4367 -0.6906 -0.5765
vn 0.4493 -0.8605 -0.2402
vn 0.4546 -0.8736 -0.1737
vn 0.4490 -0.8629 0.2320
vn 0.4546 -0.8483 0.2716
vn 0.4521 -0.5885 0.6703
vn 0.4425 -0.6078 0.6594
vn 0.4435 -0.2030 0.8730
vn 0.4553 -0.1232 0.8818
vn 0.4545 0.3210 0.8309
vn -0.2034 -0.9572 0.2061
vn -0.0051 -0.9558 0.2940
vn -0.1515 -0.9819 -0.1135
vn -0.0049 -0.9797 -0.2006
vn -0.2039 -0.8806 -0.4277
vn -0.0084 -0.7207 -0.6932
vn -0.1058 -0.6922 -0.7139
vn -0.2573 -0.4151 -0.8726
vn -0.0077 -0.2388 -0.9710
vn -0.1123 -0.0462 -0.9926
vn -0.0043 0.2373 -0.9714
vn -0.1611 0.2612 -0.9517
vn -0.1512 0.6043 -0.7823
vn -0.0038 0.6442 -0.7649
vn -0.1000 0.8265 -0.5539
vn -0.0052 0.9194 -0.3933
vn -0.1202 0.9706 -0.2087
vn -0.0066 0.9963 0.0862
vn -0.1578 0.9778 0.1377
vn -0.1430 0.8832 0.4466
vn -0.0048 0.7941 0.6078
vn -0.1998 0.6786 0.7068
vn -0.1545 0.3841 0.9103
vn -0.0043 0.3500 0.9367
vn -0.1802 0.0756 0.9807
vn -0.0056 -0.1444 0.9895
vn -0.1589 -0.2953 0.9421
vn -0.0073 -0.6514 0.7587
vn -0.1609 -0.6087 0.7769
vn -0.1448 -0.8371 0.5275
vn -0.8317 -0.5524 -0.0560
vn -0.5297 -0.8361 0.1426
vn -0.5471 -0.8278 -0.1245
vn -0.5407 0.3888 0.7460
vn -0.5494 0.5622 0.6181
vn -0.8320 0.1885 0.5218
vn -0.8529 0.3620 0.3762
vn -0.9367 0.2276 0.2661
vn -0.9125 -0.2646 0.3119
vn -0.9929 -0.0639 0.1004
vn -0.8394 -0.0701 0.5389
vn -0.7153 -0.2855 0.6378
vn -0.5482 -0.1306 0.8261
vn -0.5483 0.1331 0.8256
vn -0.9788 0.0089 0.2047
vn -0.9576 0.2632 0.1172
vn -0.9590 0.2795 -0.0466
vn -0.4434 0.8183 -0.3658
vn -0.7320 0.5687 -0.3752
vn -0.5121 0.5954 -0.6191
vn -0.5444 0.2785 -0.7912
vn -0.8065 0.2585 -0.5317
vn -0.9607 0.1761 -0.2148
vn -0.9791 0.0337 -0.2004
vn -0.8450 -0.0713 -0.5300
vn -0.9496 -0.1428 -0.2791
vn -0.7101 -0.4321 -0.5559
vn -0.3951 -0.7112 -0.5815
vn -0.5287 -0.7747 -0.3469
vn -0.8613 -0.4251 -0.2783
vn -0.9822 -0.1611 -0.0961
vn -0.9932 -0.1160 -0.0023
vn -0.6293 -0.0845 -0.7726
vn -0.4284 0.0038 -0.9036
vn -0.6443 0.7449 -0.1731
vn -0.7939 0.6080 -0.0071
vn -0.5444 0.8324 0.1038
vn -0.7789 0.5764 0.2471
vn -0.5429 0.7326 0.4106
vn -0.5249 -0.3950 0.7540
vn -0.5250 -0.6111 0.5923
vn -0.7203 -0.6397 0.2684
vn -0.7573 -0.5061 0.4127
vn -0.8963 -0.3994 0.1928
vn -0.4220 -0.8065 0.4140
vn -0.9999 -0.0053 0.0102
vn -1.0000 -0.0023 0.0074
vn -1.0000 0.0036 0.0051
vn -1.0000 0.0038 -0.0032
vn -0.4685 0.5602 -0.6832
vn -0.3111 0.6131 -0.7262
vn -0.1096 0.7326 -0.6718
vn -0.1464 0.6200 -0.7708
vn 0.0360 0.6372 -0.7699
vn -0.0549 0.2086 -0.9765
vn 0.0321 0.3008 -0.9532
vn 0.1473 0.2257 -0.9630
vn 0.5070 0.2620 -0.8211
vn 0.4526 0.5606 -0.6935
vn 0.5203 0.6011 -0.6065
vn 0.1591 0.7306 -0.6640
vn 0.2408 0.6174 -0.7489
vn 0.3794 0.6771 -0.6305
vn 0.4930 0.1877 -0.8495
vn -0.3483 0.2001 -0.9158
vn -0.5199 0.2090 -0.8283
vn -0.3522 0.2819 -0.8925
vn -0.5405 0.2667 -0.7979
vn -0.3464 0.4216 -0.8380
vn -0.5324 0.3740 -0.7594
vn -0.6283 0.2868 -0.7232
vn -0.1529 0.4451 -0.8823
vn -0.1591 0.3216 -0.9334
vn -0.1762 0.2398 -0.9547
vn 0.0242 0.4531 -0.8911
vn 0.1708 0.4508 -0.8761
vn 0.2724 0.3070 -0.9119
vn 0.3460 0.4206 -0.8387
vn 0.3418 0.2212 -0.9134
vn 0.4784 0.3954 -0.7841
vn 1.0000 -0.0001 0.0001
vn 1.0000 -0.0002 0.0002
vn 1.0000 0.0002 0.0002
vn 1.0000 0.0001 -0.0000
vn 1.0000 0.0002 0.0010
vn 1.0000 0.0001 0.0001
vn 1.0000 -0.0001 0.0002
vn 1.0000 -0.0002 -0.0000
vn 1.0000 -0.0004 0.0001
vn 1.0000 -0.0002 -0.0001
vn 1.0000 -0.0001 -0.0001
vn 1.0000 -0.0000 -0.0002
vn 1.0000 0.0001 -0.0002
vn 1.0000 0.0002 -0.0001
vn 1.0000 0.0010 -0.0004
vn 1.0000 0.0003 0.0005
vn 1.0000 0.0002 0.0006
vn 1.0000 -0.0000 0.0010
vt 1.897500 0.133855
vt 0.849050 0.086928
vt 1.897500 0.024084
vt 0.957270 -0.035130
vt 1.897500 -0.101044
vt 0.991630 -0.112780
vt 0.923976 0.100000
vt 0.923976 1.000000
vt 0.450459 0.098998
vt 0.445625 1.000000
vt -1.897500 -0.054604
vt -0.984545 -0.092043
vt -0.909770 0.025662
vt -1.897500 0.094948
vt -0.815446 0.118002
vt 0.500000 0.155361
vt 0.500000 0.370989
vt -0.500000 0.122715
vt -1.897500 0.302520
vt -1.897500 0.084132
vt -1.897500 0.521081
vt 0.500000 0.652293
vt -1.897500 0.739401
vt 0.500000 0.913013
vt -1.897500 0.967440
vt 0.500000 1.175010
vt -1.897500 1.195244
vt 0.500000 1.441930
vt -1.897500 1.504006
vt 0.500000 1.724679
vt -0.797500 1.677625
vt -0.797500 1.782357
vt -0.797500 1.933722
vt 0.500000 1.951685
vt -0.797500 2.096552
vt 0.500000 2.105711
vt -0.500000 2.105711
vt -0.797500 2.201284
vt -0.797500 -2.001880
vt -0.500000 -2.012887
vt -0.797500 -1.849205
vt -0.500000 -1.841800
vt -0.797500 -1.687685
vt -0.500000 -1.641305
vt -0.797500 -1.582953
vt -0.797500 -1.429862
vt -0.500000 -1.411640
vt -0.797500 -1.218394
vt -0.500000 -1.231704
vt -1.897500 -1.164026
vt -1.897500 -1.008887
vt -0.500000 -0.967548
vt -1.897500 -0.790646
vt -0.500000 -0.708884
vt -1.897500 -0.571953
vt -0.500000 -0.438818
vt -1.897500 -0.353259
vt -0.500000 -0.219623
vt -1.897500 -0.134564
vt -0.378873 -0.981710
vt -0.497122 -0.820987
vt -0.505391 -1.030264
vt -0.598195 -0.891141
vt -0.358108 -0.053837
vt -0.356373 0.165714
vt -0.440238 0.190382
vt -0.486075 0.116555
vt -0.439938 -0.050661
vt -0.418879 -0.678830
vt -0.444766 -0.449644
vt -0.486574 -0.649661
vt -0.564842 0.017003
vt -0.561093 -0.147863
vt -0.444766 -0.264552
vt -0.562843 -0.300327
vt -0.559281 -0.566924
vt -0.575119 0.285466
vt -0.589692 0.195226
vt -0.598189 -0.433915
vt -0.587652 -0.724696
vt -0.600088 -1.087326
vt -0.350818 -0.764273
vt -0.354454 -0.409764
vt -0.686500 0.180416
vt -0.531106 0.154399
vt -0.634674 0.666755
vt -0.538718 0.679763
vt -0.342235 0.636811
vt -0.490104 0.790737
vt -0.336998 0.754955
vt -0.182004 -0.036381
vt -0.259802 0.607037
vt -0.000396 0.478901
vt -0.075784 0.524772
vt 0.161551 0.359785
vt 0.089062 0.560539
vt 0.091263 -0.488088
vt 0.409608 0.076489
vt 0.359396 0.149058
vt 0.508821 -0.098650
vt 0.522596 0.114891
vt 0.601909 -0.020540
vt 0.125186 -0.742259
vt 0.617282 -0.748619
vt 0.639889 -0.658256
vt 0.620490 -0.457897
vt 0.739329 -0.468770
vt 0.756700 -0.624753
vt 0.603763 -0.371560
vt 0.543133 -0.179621
vt 0.661635 -0.165549
vt 0.711057 -0.314512
vt 0.225754 0.299242
vt 0.330230 0.360495
vt 0.433076 0.241560
vt 0.214389 0.465585
vt -0.187542 0.706975
vt -0.046098 0.639246
vt 0.524461 0.098998
vt 0.529295 1.000000
vt 0.050944 1.000000
vt 0.050944 0.100000
vt 0.070711 0.116876
vt -0.070264 0.071391
vt 0.070711 -0.044603
vt -0.070032 -0.000235
vt -0.202601 0.800737
vt -0.203056 0.099684
vt -0.081843 0.000000
vt -0.094599 0.900000
vt 0.014125 0.900000
vt 0.202879 0.099520
vt 0.093797 0.899446
vt 0.095176 0.000000
vt 0.000000 0.000000
vt 0.000000 0.900000
vt 0.203397 0.800000
vt -0.070711 -0.000175
vt -0.069668 -0.071798
vt 0.070711 -0.116111
vt 0.069882 0.045194
vt 0.070711 -0.116013
vt -0.095833 0.000000
vt -0.094585 0.900000
vt 0.014896 0.000000
vt 0.070711 0.116039
vt 0.070711 -0.045440
vt -0.800000 0.000181
vt -0.100000 0.000000
vt -0.100000 0.073533
vt -0.800000 0.073740
vt -0.094584 0.900000
vt -0.069668 -0.071797
vt 0.093140 0.000000
vt 0.070711 0.044601
vt -0.070005 0.000071
vt -0.070711 -0.071436
vt 0.069896 -0.116634
vt -0.093514 0.899458
vt -0.203397 0.800000
vt -0.093515 0.899458
vt 0.070711 0.116038
vt 0.202858 0.800499
vt 0.091489 0.000000
vt 0.095833 0.900000
vt 0.025208 0.900000
vt 0.000000 1.328454
vt -0.900000 1.327589
vt -0.900000 1.263210
vt -0.000000 1.264075
vt 0.000000 1.040491
vt -0.900000 1.039626
vt -0.900000 0.975248
vt -0.000000 0.976112
vt 0.025210 0.900000
vt 0.000000 0.752528
vt -0.900000 0.751663
vt -0.900000 0.687285
vt -0.000000 0.688149
vt 0.091490 0.000000
vt 0.025207 0.900000
vt 0.000000 0.464565
vt -0.900000 0.463701
vt -0.900000 0.399322
vt -0.000000 0.400187
vt 0.000000 0.176341
vt -0.900000 0.175738
vt -0.900000 0.124631
vt -0.000000 0.123890
vt 0.000000 2.179069
vt -0.900000 2.179811
vt -0.900000 2.127358
vt -0.000000 2.127962
vt 0.014800 0.000000
vt -0.091861 0.000000
vt -0.095833 0.900000
vt 0.014680 0.900000
vt 0.014852 0.000000
vt 0.000000 1.616416
vt -0.900000 1.615551
vt -0.900000 1.551172
vt -0.000000 1.552037
vt 0.000000 1.904378
vt -0.900000 1.903514
vt -0.900000 1.839136
vt -0.000000 1.840000
vt 0.500000 0.040184
vt -0.500000 0.097264
vt -0.500000 -0.045658
vt 0.500000 -0.094811
vt 0.011811 -0.355564
vt 0.119144 -0.475888
vt 0.113396 0.472681
vt 0.654375 -0.500000
vt 0.654375 0.500000
vt 0.010915 0.352149
vt 1.030359 0.200000
vt 1.276304 0.200000
vt 1.030359 1.200000
vt 1.445641 1.200000
vt 1.456363 0.200000
vt 0.988884 0.200000
vt 0.988884 1.200000
vt 0.679092 0.200000
vt 0.650493 1.200000
vt 0.048915 0.200000
vt 0.216625 1.200000
vt 0.091350 -0.494080
vt 0.058914 0.439056
vt -0.082998 -0.061078
vt -0.564933 0.087100
vt -0.450710 0.000000
vt -0.367993 0.060895
vt -0.574195 0.504826
vt -0.355296 0.517553
vt -0.431313 0.655979
vt -0.555032 0.726805
vt -0.306249 0.844280
vt -0.550870 1.021887
vt -0.225394 0.985911
vt 0.090535 0.974508
vt -0.121833 0.816241
vt 0.058848 0.799142
vt 0.256962 0.777183
vt 0.072500 0.655136
vt 0.324296 0.655591
vt 0.394161 0.517506
vt 0.357018 0.378123
vt 0.466701 0.311930
vt 0.572949 0.388232
vt 0.560104 0.191178
vt 0.471140 0.027837
vt 0.364441 0.080328
vt 0.053249 0.020899
vt 0.070330 0.139431
vt -0.108077 0.066658
vt 0.239675 0.064661
vt 0.572949 0.000000
vt 0.576008 0.618747
vt 0.328891 0.930822
vt 0.566777 1.009057
vt 0.562802 0.820973
vt -0.390478 0.380247
vt -0.572949 0.292838
vt -0.393067 0.241165
vt 0.238861 0.246701
vt 0.213944 0.378189
vt 0.114078 0.488332
vt 0.000217 0.344214
vt -0.142860 0.241955
vt -0.165032 0.512584
vt -0.178787 0.654973
vt -0.178604 0.379666
vt -0.242408 0.073151
vt -0.814494 1.000000
vt -0.814494 0.000000
vt -0.581175 1.000000
vt -0.567899 0.000000
vt -0.399947 1.000000
vt -0.393828 0.000000
vt -0.690941 1.000000
vt -1.012157 1.000000
vt -0.690941 0.000000
vt -1.026789 0.000000
vt -1.653508 0.000000
vt -1.672407 1.000000
vt 0.747025 0.157086
vt 1.364175 -0.310081
vt 1.280230 0.225858
vt 0.638063 0.208721
vt 0.658911 -0.102050
vt 0.977450 -0.459042
vt 0.591012 -0.308683
vt 0.600468 -0.557801
vt 0.419734 -0.512910
vt 0.187427 -0.630202
vt 0.275932 0.091207
vt -0.250000 0.103270
vt -0.250000 -0.064193
vt 0.262865 -0.015702
vt 0.278148 -0.110180
vt -0.047227 -0.300000
vt 0.500000 -0.300000
vt -0.098538 -0.098072
vt 0.500000 0.300000
vt -0.092522 0.151782
vt -0.047227 0.300000
vt -0.277353 -0.106686
vt 0.250000 -0.070880
vt -0.262551 -0.006439
vt 0.250000 0.099699
vt -0.278320 0.101663
vt -0.111803 -0.040715
vt 0.111803 -0.000000
vt -0.111803 0.179808
vt 0.111803 0.188863
vt 0.111803 0.410674
vt 0.111803 -0.188863
vt -0.111803 -0.217516
vt 0.111803 -0.410674
vt -0.111803 -0.391985
vt -0.111803 -0.564911
vt 0.111803 -0.608711
vt -0.111803 -0.737896
vt 0.111803 -0.797122
vt -0.111803 -0.955662
vt 0.111803 -0.981863
vt 0.111803 -1.138775
vt -0.111803 -1.134464
vt 0.111803 1.178097
vt -0.111803 1.180619
vt 0.111803 1.019540
vt -0.111803 1.007613
vt -0.111803 0.790169
vt 0.111803 0.797122
vt 0.111803 0.608711
vt -0.111803 0.569953
vt -0.111803 0.396924
vt 0.700000 0.132383
vt -1.197500 0.147753
vt 0.700000 0.026194
vt -1.197500 -0.002186
vt 0.700000 -0.094509
vt -1.197500 -0.192777
vt 0.700000 -0.200699
vt 0.700000 -0.321402
vt -1.197500 -0.381507
vt 0.700000 -0.427592
vt -1.197500 -0.531428
vt 0.700000 -0.548295
vt 0.700000 -0.654485
vt -1.197500 -0.681297
vt 0.700000 -0.775188
vt -1.197500 -0.832504
vt 0.700000 -0.881378
vt -1.197500 -0.985731
vt 0.700000 -1.002080
vt 0.700000 -1.077711
vt 0.700000 0.933765
vt -1.197500 1.021018
vt -1.197500 0.865184
vt 0.700000 0.813062
vt 0.700000 0.706872
vt -1.197500 0.677017
vt 0.700000 0.586169
vt -1.197500 0.527058
vt 0.700000 0.479979
vt -1.197500 0.336205
vt 0.700000 0.359276
vt 0.700000 0.253086
vt -0.642122 1.257848
vt -0.774643 1.340998
vt -0.774643 1.240638
vt -0.890670 -0.346133
vt -0.892649 -0.490991
vt -0.773907 -0.460349
vt -0.773907 -0.345055
vt -0.643810 -0.503283
vt -0.639198 -0.343943
vt -0.538559 -0.366662
vt -0.471239 -0.457145
vt -0.471239 -0.216938
vt -0.605879 -0.918472
vt -0.522600 -0.892274
vt -0.638106 -0.689014
vt -0.673198 -0.833743
vt -0.770079 -0.706854
vt -0.773907 -0.575643
vt -0.890670 -0.634369
vt -0.471239 -0.665368
vt -0.538559 -0.626472
vt -0.580399 -0.157065
vt -0.471239 0.177962
vt -0.561343 0.112573
vt -0.807838 0.174080
vt -0.705994 0.228032
vt -0.773907 0.346713
vt -0.892649 0.373718
vt -0.890670 0.518576
vt -0.773592 0.491153
vt -0.643810 0.476657
vt -0.572574 0.336785
vt -0.538559 0.613380
vt -0.471239 0.457145
vt -0.471239 0.665368
vt -0.642122 0.681376
vt -0.574470 0.856507
vt -0.708542 0.910677
vt -0.853636 0.820199
vt -0.807838 1.009695
vt -0.892649 0.950190
vt -0.892649 1.238426
vt -0.890670 1.095048
vt -0.774642 1.125344
vt -0.638972 1.069272
vt -0.538559 1.074670
vt -0.471239 1.122161
vt -0.474606 1.264048
vt -0.471239 0.914748
vt -0.740518 0.693540
vt -0.807838 0.663811
vt -0.892649 0.661954
vt -0.890670 0.230340
vt -0.740518 0.087895
vt -0.644024 0.018641
vt -0.892649 0.085481
vt -0.775616 -0.055215
vt -0.673198 -0.170361
vt -0.890670 -0.057896
vt -0.777930 -0.213636
vt -0.892649 -0.202755
vt -0.892649 -0.779227
vt -0.777930 -0.847669
vt -0.773907 -0.979174
vt -0.710994 -1.135217
vt -0.673198 -1.006685
vt -0.605879 -1.149060
vt -0.890670 -0.922605
vt -0.892649 -1.067463
vt -0.807838 -1.094659
vt -0.774643 -1.238193
vt -0.890670 -1.210841
vt -0.807838 -1.297063
vt -0.875158 1.354710
vt -0.605879 1.354710
vt -0.642122 -1.280726
vt -0.484552 -1.199137
vt 0.666002 0.032944
vt 0.635034 0.191316
vt 0.638991 -0.181165
vt 0.500915 -0.440312
vt 0.150999 -0.648797
vt 0.341802 -0.572688
vt -0.045337 -0.665510
vt -0.368935 -0.490493
vt -0.630829 -0.550805
vt -0.599196 -0.097632
vt -0.977450 -0.459042
vt -1.221087 -0.375087
vt -0.793869 0.145330
vt -1.372030 -0.306547
vt -1.280230 0.225858
vt 0.456568 0.481292
vt 0.235085 0.624020
vt -0.019805 0.662404
vt -0.272544 0.608587
vt -0.492311 0.441399
vt -0.670566 0.195407
vt -0.497250 0.293865
vt -0.445224 0.139676
vt -0.391684 0.223659
vt -0.350062 0.073459
vt -0.262109 0.217824
vt -0.101150 0.062300
vt -0.122495 0.218131
vt 0.015330 0.219805
vt -0.042921 1.386292
vt 0.015954 0.784507
vt 0.118774 1.220017
vt 0.035258 1.901903
vt 0.514468 0.802876
vt 0.502034 1.200422
vt 0.383550 0.769511
vt 0.477629 0.470161
vt 0.505149 0.299011
vt 0.382993 0.223208
vt 0.457966 0.149205
vt 0.148482 0.062300
vt 0.199711 0.218163
vt 0.364001 0.077668
vt 0.514468 1.921383
vt 0.421152 1.895141
vt 0.370812 1.334037
vt -0.217648 1.915134
vt -0.341925 1.835946
vt -0.262488 1.332614
vt -0.388304 1.114737
vt -0.262266 0.783636
vt -0.414446 0.715355
vt -0.262614 0.412463
vt -0.415627 0.413001
vt -0.444140 1.847525
vt -0.507663 1.943343
vt -0.475937 1.247174
vt -0.507663 0.802876
vt -0.507653 0.572883
vt -0.122407 0.412759
vt -0.121986 0.716761
vt -0.137194 1.103663
vt -0.127283 1.853127
vt 0.015640 0.413065
vt 0.140853 0.412879
vt 0.199673 0.717198
vt 0.195320 1.858568
vt 0.255912 0.412858
vt 0.252988 1.191805
vt 0.309897 1.858261
vt 0.370929 0.412767
vt 0.156705 -0.648106
vt 0.095184 -0.411967
vt -0.034835 -0.674327
vt -0.124418 -0.400552
vt -0.151544 -0.756757
vt -0.326339 -0.262948
vt -1.061249 -0.885585
vt -0.920877 -1.029890
vt 0.356149 -0.563703
vt 0.279327 -0.312461
vt 0.518305 -0.419478
vt 0.406526 -0.103071
vt 0.625558 -0.230818
vt 0.666547 -0.017708
vt 0.406415 0.116644
vt 0.636928 0.197277
vt 0.323988 0.271768
vt 0.540025 0.391117
vt 0.385933 0.543743
vt 0.155543 0.389181
vt 0.191241 0.638774
vt -0.033339 0.665890
vt -0.051534 0.419668
vt -0.253871 0.616570
vt -0.253972 0.333796
vt -0.496456 0.434337
vt -0.396617 0.135403
vt -0.674900 0.220083
vt -0.416389 -0.073459
vt -0.791379 0.187185
vt -1.329699 -0.377373
vt -1.350269 -0.291936
vt -1.379579 -0.093171
vt -1.329311 0.282372
vt -1.368352 0.196088
vt -1.381459 -0.004820
vt -1.499120 0.026775
vt -1.475290 0.184600
vt -1.471927 -0.285494
vt -1.490666 -0.129262
vt -1.260065 -0.566293
vt -1.434198 -0.439324
vt -1.378118 -0.585823
vt -1.222181 -0.645587
vt -1.114791 -0.815901
vt -1.311517 -0.727911
vt -1.226204 -0.859548
vt -1.131516 -0.984684
vt -1.019288 -1.094896
vt -0.853935 -1.086879
vt -0.686628 -1.198846
vt -0.902062 -1.198422
vt -0.769373 -1.282892
vt -0.609299 -1.240671
vt -0.422283 -1.315425
vt -0.323818 -1.316620
vt -0.633184 -1.359783
vt -0.485832 -1.414819
s 1
usemtl 83,165,183.002
f 196/1/1 229/2/2 234/3/3
f 234/3/3 229/2/2 244/4/4
f 234/3/3 244/4/4 247/5/5
f 247/5/5 244/4/4 250/6/6
f 283/7/7 282/8/8 250/9/6
f 250/9/6 282/8/8 247/10/5
f 144/11/9 148/12/10 139/13/11
f 144/11/9 139/13/11 128/14/12
f 128/14/12 139/13/11 129/15/13
f 45/16/14 59/17/15 49/18/16
f 49/18/16 59/17/15 58/19/17
f 49/18/16 58/19/17 51/20/18
f 58/19/17 59/17/15 68/21/19
f 68/21/19 59/17/15 85/22/20
f 68/21/19 85/22/20 105/23/21
f 105/23/21 85/22/20 115/24/22
f 105/23/21 115/24/22 125/25/23
f 125/25/23 115/24/22 159/26/24
f 125/25/23 159/26/24 161/27/25
f 161/27/25 159/26/24 158/28/26
f 161/27/25 158/28/26 196/29/1
f 196/29/1 158/28/26 208/30/27
f 196/29/1 208/30/27 229/31/2
f 229/31/2 208/30/27 237/32/28
f 237/32/28 208/30/27 239/33/29
f 239/33/29 208/30/27 240/34/30
f 239/33/29 240/34/30 241/35/31
f 241/35/31 240/34/30 207/36/32
f 241/35/31 207/36/32 232/37/33
f 241/35/31 232/37/33 227/38/34
f 227/39/34 232/40/33 218/41/35
f 218/41/35 232/40/33 216/42/36
f 218/41/35 216/42/36 210/43/37
f 210/43/37 216/42/36 195/44/38
f 210/43/37 195/44/38 188/45/39
f 188/45/39 195/44/38 150/46/40
f 150/46/40 195/44/38 160/47/41
f 150/46/40 160/47/41 129/48/13
f 129/48/13 160/47/41 126/49/42
f 129/48/13 126/49/42 128/50/12
f 128/50/12 126/49/42 109/51/43
f 109/51/43 126/49/42 89/52/44
f 109/51/43 89/52/44 71/53/45
f 71/53/45 89/52/44 63/54/46
f 71/53/45 63/54/46 60/55/47
f 60/55/47 63/54/46 57/56/48
f 60/55/47 57/56/48 52/57/49
f 52/57/49 57/56/48 50/58/50
f 52/57/49 50/58/50 48/59/51
f 48/59/51 50/58/50 49/18/16
f 48/59/51 49/18/16 51/20/18
f 148/60/10 168/61/52 139/62/11
f 139/62/11 168/61/52 150/63/40
f 249/64/53 250/65/6 244/66/4
f 244/66/4 243/67/54 245/68/55
f 193/69/56 223/70/57 203/71/58
f 193/69/56 203/71/58 168/61/52
f 193/69/56 168/61/52 148/60/10
f 243/67/54 239/72/29 245/68/55
f 245/68/55 239/72/29 241/73/31
f 245/68/55 241/73/31 238/74/59
f 238/74/59 241/73/31 227/75/34
f 238/74/59 227/75/34 223/70/57
f 223/70/57 227/75/34 210/76/37
f 223/70/57 210/76/37 203/71/58
f 244/66/4 229/77/2 243/67/54
f 243/67/54 229/77/2 237/78/28
f 227/75/34 218/79/35 210/76/37
f 210/76/37 188/80/39 203/71/58
f 203/71/58 188/80/39 168/61/52
f 139/62/11 150/63/40 129/81/13
f 193/69/56 148/60/10 181/82/60
f 188/80/39 150/63/40 168/61/52
f 193/69/56 181/82/60 222/83/61
f 193/69/56 222/83/61 223/70/57
f 223/70/57 222/83/61 238/74/59
f 238/74/59 222/83/61 249/64/53
f 238/74/59 249/64/53 245/68/55
f 245/68/55 249/64/53 244/66/4
f 237/78/28 239/72/29 243/67/54
f 250/84/6 249/85/53 283/86/7
f 283/86/7 249/85/53 293/87/62
f 249/85/53 298/88/63 293/87/62
f 293/87/62 298/88/63 305/89/64
f 305/89/64 298/88/63 308/90/65
f 222/91/61 296/92/66 249/85/53
f 222/91/61 285/93/67 290/94/68
f 222/91/61 278/95/69 285/93/67
f 285/93/67 278/95/69 299/96/70
f 181/97/60 264/98/71 222/91/61
f 222/91/61 264/98/71 269/99/72
f 181/97/60 258/100/73 264/98/71
f 264/98/71 258/100/73 270/101/74
f 270/101/74 258/100/73 262/102/75
f 148/103/10 179/104/76 181/97/60
f 181/97/60 179/104/76 202/105/77
f 181/97/60 202/105/77 231/106/78
f 231/106/78 202/105/77 233/107/79
f 233/107/79 202/105/77 211/108/80
f 231/106/78 242/109/81 181/97/60
f 181/97/60 242/109/81 255/110/82
f 255/110/82 242/109/81 257/111/83
f 257/111/83 242/109/81 248/112/84
f 255/110/82 258/100/73 181/97/60
f 222/91/61 269/99/72 276/113/85
f 276/113/85 269/99/72 280/114/86
f 280/114/86 269/99/72 274/115/87
f 276/113/85 278/95/69 222/91/61
f 299/96/70 278/95/69 288/116/88
f 290/94/68 296/92/66 222/91/61
f 296/92/66 290/94/68 311/117/89
f 311/117/89 290/94/68 303/118/90
f 296/92/66 298/88/63 249/85/53
f 148/119/10 144/120/9 178/121/91
f 148/119/10 178/121/91 179/122/76
f 300/123/92 314/124/93 307/125/94
f 307/125/94 314/124/93 318/126/95
f 315/127/96 314/128/97 300/129/98
f 315/127/96 300/129/98 305/130/64
f 305/130/64 300/129/98 293/131/62
f 306/123/99 316/124/100 302/125/101
f 302/125/101 316/124/100 313/126/102
f 313/132/102 303/133/103 302/134/101
f 302/134/101 303/133/103 286/135/104
f 286/135/104 303/133/103 290/136/105
f 313/132/102 319/137/106 303/133/103
f 320/138/107 315/139/96 305/140/64
f 320/138/107 305/140/64 308/141/65
f 318/132/95 308/133/108 307/134/94
f 307/134/94 308/133/108 297/135/109
f 297/135/109 308/133/108 298/136/110
f 318/132/95 320/137/111 308/133/108
f 311/142/89 303/141/90 319/138/112
f 311/142/89 319/138/112 317/139/113
f 299/140/70 288/141/88 312/138/114
f 299/140/70 312/138/114 310/139/115
f 310/127/115 301/143/116 299/144/70
f 299/144/70 301/143/116 284/145/117
f 299/144/70 284/145/117 285/131/67
f 301/143/116 310/127/115 309/128/118
f 301/146/116 309/124/118 304/126/119
f 301/146/116 304/126/119 287/147/120
f 279/146/121 291/124/122 281/126/123
f 279/146/121 281/126/123 273/147/124
f 289/148/125 281/149/126 291/150/122
f 289/148/125 291/150/122 292/151/127
f 292/127/127 291/128/122 279/143/121
f 292/127/127 279/143/121 280/152/86
f 280/152/86 279/143/121 275/145/128
f 280/152/86 275/145/128 276/131/129
f 280/140/86 274/141/87 289/138/130
f 280/140/86 289/138/130 292/153/127
f 281/132/126 274/133/131 273/154/132
f 273/154/132 274/133/131 268/135/133
f 268/135/133 274/133/131 269/136/134
f 281/132/126 289/137/125 274/133/131
f 248/155/84 252/156/135 260/157/136
f 260/157/136 257/158/83 248/155/84
f 257/159/137 253/143/138 254/145/139
f 257/159/137 254/145/139 255/131/140
f 253/143/138 257/159/137 259/128/141
f 259/128/141 257/159/137 260/160/142
f 259/150/141 260/151/142 252/148/135
f 259/150/141 252/148/135 251/149/143
f 262/155/75 267/156/144 272/157/145
f 272/157/145 270/158/74 262/155/75
f 270/161/146 265/143/147 263/145/148
f 270/161/146 263/145/148 264/131/149
f 265/143/147 270/161/146 271/128/150
f 271/128/150 270/161/146 272/160/151
f 271/150/150 272/151/151 267/148/144
f 271/150/150 267/148/144 266/149/152
f 265/146/147 271/124/150 266/126/153
f 265/146/147 266/126/153 261/147/154
f 253/162/138 259/124/141 251/126/155
f 253/162/138 251/126/155 246/147/156
f 226/124/157 219/126/158 221/162/159
f 221/162/159 219/126/158 209/147/160
f 220/148/161 219/149/162 226/150/157
f 220/148/161 226/150/157 235/151/163
f 235/160/163 226/128/157 233/159/164
f 233/159/164 226/128/157 221/143/159
f 233/159/164 221/143/159 230/145/165
f 233/159/164 230/145/165 231/131/166
f 211/155/80 220/156/161 235/157/167
f 235/157/167 233/158/79 211/155/80
f 219/132/162 220/163/161 209/164/168
f 209/164/168 220/163/161 211/165/80
f 209/164/168 211/165/80 202/166/77
f 209/164/168 202/166/77 194/135/169
f 277/167/170 278/168/171 276/169/129
f 277/167/170 276/169/129 275/170/128
f 268/171/133 269/172/134 264/173/149
f 268/171/133 264/173/149 263/174/148
f 266/132/152 267/163/144 261/164/172
f 261/164/172 267/163/144 262/165/75
f 261/164/172 262/165/75 258/175/73
f 261/164/172 258/175/73 256/135/173
f 256/176/173 258/177/73 255/178/140
f 256/176/173 255/178/140 254/179/139
f 251/132/143 252/163/135 246/180/174
f 246/180/174 252/163/135 248/165/84
f 246/180/174 248/165/84 242/181/81
f 246/180/174 242/181/81 236/135/175
f 236/182/175 242/183/81 231/184/166
f 236/182/175 231/184/166 230/185/165
f 194/186/169 202/187/77 179/188/76
f 194/186/169 179/188/76 178/189/91
f 282/190/8 283/191/7 293/192/62
f 282/190/8 293/192/62 294/193/176
f 294/194/176 293/131/62 300/129/98
f 320/148/111 318/149/95 314/150/97
f 320/148/111 314/150/97 315/151/96
f 317/127/113 316/128/177 306/195/178
f 317/127/113 306/195/178 311/196/89
f 311/196/89 306/195/178 296/197/66
f 296/197/66 306/195/178 295/198/179
f 319/148/106 313/149/102 316/150/177
f 319/148/106 316/150/177 317/151/113
f 309/150/118 310/151/115 312/148/180
f 309/150/118 312/148/180 304/149/181
f 304/132/181 312/137/180 288/133/182
f 304/132/181 288/133/182 287/154/183
f 287/154/183 288/133/182 277/135/170
f 277/135/170 288/133/182 278/136/171
f 286/199/104 290/200/105 285/201/67
f 286/199/104 285/201/67 284/202/117
f 297/203/109 298/204/110 296/205/66
f 297/203/109 296/205/66 295/206/179
f 45/207/14 49/208/16 37/209/184
f 45/207/14 37/209/184 38/210/185
f 14/211/186 24/212/187 23/213/188
f 23/213/188 24/212/187 38/214/185
f 23/213/188 38/214/185 37/215/184
f 14/211/186 23/213/188 13/216/189
f 36/217/190 28/218/191 35/219/192
f 35/219/192 28/218/191 16/220/193
f 16/220/193 28/218/191 15/221/194
f 36/222/195 35/223/196 47/224/197
f 47/224/197 35/223/196 46/225/198
f 47/224/197 46/225/198 90/226/199
f 90/226/199 46/225/198 89/227/200
f 232/228/33 207/229/32 224/230/201
f 90/231/202 78/232/203 101/233/204
f 177/234/205 182/235/206 204/236/207
f 217/237/208 204/236/207 215/238/209
f 207/239/32 215/238/209 228/240/210
f 224/241/201 228/240/210 213/242/211
f 224/241/201 213/242/211 212/243/212
f 214/244/213 212/243/212 198/245/214
f 214/244/213 198/245/214 200/246/215
f 180/247/216 153/248/217 138/249/218
f 160/250/219 138/249/218 126/251/220
f 103/252/221 126/251/220 75/253/222
f 72/254/223 121/255/224 98/256/225
f 72/254/223 73/257/226 121/255/224
f 103/252/221 89/258/200 126/251/220
f 138/249/218 160/250/219 180/247/216
f 228/240/210 224/241/201 207/239/32
f 160/250/219 195/259/38 180/247/216
f 212/243/212 214/244/213 224/241/201
f 225/260/227 232/261/33 224/241/201
f 216/262/36 232/261/33 225/260/227
f 217/237/208 177/234/205 204/236/207
f 182/235/206 177/234/205 154/263/228
f 154/263/228 177/234/205 157/264/229
f 154/263/228 157/264/229 136/265/230
f 157/264/229 90/231/202 136/265/230
f 136/265/230 90/231/202 101/233/204
f 75/253/222 126/251/220 138/249/218
f 75/253/222 138/249/218 135/266/231
f 135/266/231 138/249/218 153/248/217
f 73/257/226 75/253/222 135/266/231
f 151/267/232 153/248/217 180/247/216
f 151/267/232 135/266/231 153/248/217
f 167/268/233 151/267/232 180/247/216
f 167/268/233 180/247/216 200/246/215
f 121/255/224 73/257/226 135/266/231
f 198/245/214 167/268/233 200/246/215
f 121/255/224 135/266/231 145/269/234
f 145/269/234 135/266/231 151/267/232
f 145/269/234 151/267/232 167/268/233
f 98/256/225 121/255/224 132/270/235
f 132/270/235 121/255/224 145/269/234
f 176/271/236 145/269/234 167/268/233
f 176/271/236 167/268/233 199/272/237
f 199/272/237 167/268/233 198/245/214
f 199/272/237 198/245/214 213/242/211
f 213/242/211 198/245/214 212/243/212
f 152/273/238 132/270/235 145/269/234
f 152/273/238 145/269/234 176/271/236
f 99/274/239 98/256/225 132/270/235
f 215/238/209 213/242/211 228/240/210
f 136/265/230 101/233/204 99/274/239
f 136/265/230 99/274/239 132/270/235
f 136/265/230 132/270/235 154/263/228
f 154/263/228 132/270/235 152/273/238
f 154/263/228 152/273/238 176/271/236
f 182/235/206 176/271/236 199/272/237
f 215/238/209 199/272/237 213/242/211
f 182/235/206 154/263/228 176/271/236
f 204/236/207 182/235/206 199/272/237
f 204/236/207 199/272/237 215/238/209
f 180/247/216 195/259/38 200/246/215
f 214/244/213 225/260/227 224/241/201
f 200/246/215 195/259/38 216/262/36
f 200/246/215 216/262/36 214/244/213
f 214/244/213 216/262/36 225/260/227
f 207/239/32 217/237/208 215/238/209
f 36/275/240 35/276/241 27/277/242
f 27/277/242 35/276/241 26/278/243
f 27/277/242 26/278/243 15/279/194
f 15/279/194 26/278/243 16/280/193
f 36/281/244 44/282/245 35/283/246
f 35/283/246 44/282/245 43/284/247
f 43/284/247 44/282/245 89/285/200
f 89/285/200 44/282/245 90/286/199
f 37/287/184 16/288/248 23/289/188
f 37/287/184 49/290/16 50/291/249
f 37/287/184 50/291/249 16/288/248
f 16/288/248 50/291/249 35/292/250
f 35/292/250 50/291/249 57/293/251
f 35/292/250 57/293/251 46/294/252
f 46/294/252 57/293/251 63/295/46
f 46/294/252 63/295/46 89/296/44
f 3/297/253 13/298/189 23/299/188
f 3/297/253 23/299/188 12/300/254
f 12/300/254 23/299/188 16/301/248
f 4/302/255 14/303/186 1/304/256
f 1/304/256 14/303/186 13/305/189
f 1/304/256 13/305/189 2/306/257
f 2/306/257 13/305/189 3/307/253
f 15/308/258 24/309/187 11/310/259
f 11/310/259 24/309/187 14/311/186
f 11/310/259 14/311/186 4/312/255
f 186/313/260 201/314/261 163/315/262
f 163/315/262 201/314/261 171/316/263
f 163/315/262 171/316/263 131/317/264
f 201/314/261 186/313/260 191/318/265
f 191/318/265 186/313/260 173/319/266
f 191/318/265 173/319/266 155/320/267
f 155/320/267 173/319/266 156/321/268
f 155/320/267 156/321/268 134/322/269
f 155/320/267 134/322/269 130/323/270
f 130/323/270 134/322/269 118/324/271
f 130/323/270 118/324/271 106/325/272
f 106/325/272 118/324/271 97/326/273
f 106/325/272 97/326/273 81/327/274
f 81/327/274 97/326/273 70/328/275
f 70/328/275 97/326/273 87/329/276
f 70/330/275 87/331/276 67/332/277
f 67/332/277 87/331/276 91/333/278
f 67/332/277 91/333/278 100/334/279
f 67/332/277 100/334/279 82/335/280
f 82/335/280 100/334/279 113/336/281
f 113/336/281 100/334/279 122/337/282
f 113/336/281 122/337/282 131/317/264
f 131/317/264 122/337/282 140/338/283
f 131/317/264 140/338/283 163/315/262
f 86/339/284 91/340/285 83/341/286
f 83/341/286 91/340/285 87/342/287
f 83/341/286 87/342/287 93/343/288
f 93/343/288 87/342/287 97/344/289
f 93/343/288 97/344/289 102/345/290
f 102/345/290 97/344/289 110/346/291
f 110/346/291 97/344/289 118/347/292
f 110/346/291 118/347/292 124/348/293
f 124/348/293 118/347/292 134/349/294
f 124/348/293 134/349/294 142/350/295
f 142/350/295 134/349/294 149/351/296
f 149/351/296 134/349/294 156/352/297
f 149/351/296 156/352/297 170/353/298
f 170/353/298 156/352/297 173/354/299
f 170/353/298 173/354/299 184/355/300
f 184/355/300 173/354/299 186/356/301
f 184/355/300 186/356/301 187/357/302
f 187/357/302 186/356/301 169/358/303
f 169/359/303 186/360/301 163/361/304
f 169/359/303 163/361/304 162/362/305
f 162/362/305 163/361/304 141/363/306
f 141/363/306 163/361/304 140/364/307
f 141/363/306 140/364/307 127/365/308
f 127/365/308 140/364/307 122/366/309
f 127/365/308 122/366/309 112/367/310
f 112/367/310 122/366/309 100/368/311
f 112/367/310 100/368/311 107/369/312
f 107/369/312 100/368/311 92/370/313
f 92/370/313 100/368/311 91/340/285
f 92/370/313 91/340/285 86/339/284
f 62/371/314 74/372/315 76/373/316
f 162/374/305 141/375/306 147/376/317
f 162/374/305 147/376/317 165/377/318
f 165/377/318 147/376/317 137/378/319
f 165/377/318 137/378/319 172/379/320
f 172/379/320 137/378/319 164/380/321
f 164/380/321 157/381/229 207/382/32
f 77/383/322 65/384/323 111/385/324
f 77/383/322 111/385/324 104/386/325
f 104/386/325 111/385/324 116/387/326
f 116/387/326 133/388/327 127/389/308
f 127/389/308 133/388/327 141/375/306
f 116/387/326 111/385/324 133/388/327
f 65/384/323 90/390/202 119/391/328
f 65/384/323 119/391/328 111/385/324
f 111/385/324 137/378/319 133/388/327
f 133/388/327 147/376/317 141/375/306
f 133/388/327 137/378/319 147/376/317
f 119/391/328 90/390/202 157/381/229
f 119/391/328 157/381/229 164/380/321
f 164/380/321 207/382/32 197/392/329
f 197/392/329 207/382/32 208/393/27
f 197/392/329 208/393/27 206/394/330
f 175/395/331 185/396/332 166/397/333
f 175/395/331 166/397/333 149/398/296
f 142/399/295 149/398/296 143/400/334
f 146/401/335 183/402/336 120/403/337
f 120/403/337 183/402/336 158/404/26
f 206/394/330 183/402/336 185/396/332
f 166/397/333 143/400/334 149/398/296
f 206/394/330 208/393/27 183/402/336
f 185/396/332 183/402/336 146/401/335
f 185/396/332 146/401/335 166/397/333
f 166/397/333 146/401/335 143/400/334
f 183/402/336 208/393/27 158/404/26
f 120/403/337 158/404/26 115/405/22
f 114/406/338 120/403/337 84/407/339
f 114/406/338 84/407/339 96/408/340
f 110/409/291 96/408/340 94/410/341
f 110/409/291 94/410/341 102/411/290
f 83/412/286 93/413/288 80/414/342
f 76/373/316 80/414/342 66/415/343
f 76/373/316 66/415/343 62/371/314
f 62/371/314 66/415/343 61/416/344
f 61/416/344 45/417/14 56/418/345
f 120/403/337 115/405/22 84/407/339
f 102/411/290 94/410/341 93/413/288
f 115/405/22 59/419/15 84/407/339
f 96/408/340 84/407/339 66/415/343
f 96/408/340 66/415/343 80/414/342
f 96/408/340 80/414/342 94/410/341
f 94/410/341 80/414/342 93/413/288
f 84/407/339 59/419/15 61/416/344
f 84/407/339 61/416/344 66/415/343
f 61/416/344 59/419/15 45/417/14
f 96/408/340 110/409/291 117/420/346
f 96/408/340 117/420/346 114/406/338
f 117/420/346 123/421/347 143/400/334
f 117/420/346 143/400/334 146/401/335
f 123/421/347 124/422/293 143/400/334
f 124/422/293 142/399/295 143/400/334
f 149/398/296 170/423/298 175/395/331
f 185/396/332 175/395/331 192/424/348
f 185/396/332 192/424/348 205/425/349
f 185/396/332 205/425/349 206/394/330
f 175/395/331 184/426/300 189/427/350
f 175/395/331 189/427/350 192/424/348
f 192/424/348 189/427/350 205/425/349
f 205/425/349 189/427/350 190/428/351
f 205/425/349 190/428/351 197/392/329
f 184/426/300 187/429/302 189/427/350
f 174/430/352 165/377/318 172/379/320
f 174/430/352 169/431/303 165/377/318
f 169/431/303 162/374/305 165/377/318
f 127/389/308 112/432/310 116/387/326
f 116/387/326 112/432/310 108/433/353
f 116/387/326 108/433/353 104/386/325
f 95/434/354 69/435/355 79/436/356
f 79/436/356 69/435/355 64/437/357
f 107/438/312 92/439/313 95/434/354
f 95/434/354 92/439/313 88/440/358
f 95/434/354 88/440/358 69/435/355
f 74/441/315 86/442/284 76/443/316
f 86/444/284 83/412/286 76/373/316
f 56/418/345 64/445/357 62/371/314
f 64/437/357 69/435/355 62/446/314
f 62/446/314 69/435/355 74/441/315
f 69/435/355 88/440/358 74/441/315
f 74/441/315 88/440/358 92/439/313
f 74/441/315 92/439/313 86/442/284
f 95/434/354 108/433/353 107/438/312
f 107/438/312 108/433/353 112/432/310
f 64/437/357 56/447/345 77/383/322
f 64/437/357 77/383/322 79/436/356
f 95/434/354 79/436/356 108/433/353
f 56/447/345 65/384/323 77/383/322
f 79/436/356 77/383/322 104/386/325
f 79/436/356 104/386/325 108/433/353
f 119/391/328 137/378/319 111/385/324
f 137/378/319 119/391/328 164/380/321
f 172/379/320 164/380/321 197/392/329
f 190/428/351 172/379/320 197/392/329
f 172/379/320 190/428/351 174/430/352
f 169/431/303 174/430/352 187/429/302
f 189/427/350 174/430/352 190/428/351
f 187/429/302 174/430/352 189/427/350
f 184/426/300 175/395/331 170/423/298
f 197/392/329 206/394/330 205/425/349
f 146/401/335 120/403/337 114/406/338
f 146/401/335 114/406/338 117/420/346
f 124/422/293 123/421/347 110/409/291
f 123/421/347 117/420/346 110/409/291
f 56/418/345 62/371/314 61/416/344
f 76/373/316 83/412/286 80/414/342
f 240/448/30 208/449/27 207/450/32
f 217/451/208 207/450/32 157/452/229
f 217/451/208 157/452/229 177/453/205
f 90/454/202 65/455/323 47/456/359
f 47/456/359 65/455/323 56/457/345
f 47/456/359 56/457/345 36/458/360
f 36/458/360 56/457/345 28/459/361
f 28/459/361 56/457/345 38/460/362
f 28/459/361 38/460/362 15/461/258
f 15/461/258 38/460/362 24/462/187
f 158/463/26 159/464/24 115/465/22
f 115/465/22 85/466/20 59/467/15
f 56/457/345 45/468/14 38/460/362
f 15/469/258 11/470/259 10/471/363
f 10/471/363 11/470/259 4/472/255
f 10/471/363 4/472/255 8/473/364
f 8/473/364 4/472/255 1/474/365
f 8/473/364 1/474/365 6/475/366
f 6/475/366 1/474/365 5/476/367
f 53/477/368 29/478/369 40/479/370
f 53/477/368 40/479/370 72/480/223
f 35/481/246 43/482/247 33/483/371
f 35/481/246 33/483/371 26/484/243
f 16/485/193 26/484/243 9/486/372
f 16/485/193 9/486/372 12/487/373
f 1/474/365 2/488/374 5/476/367
f 5/476/367 2/488/374 7/489/375
f 7/489/375 2/488/374 3/490/376
f 7/489/375 3/490/376 9/486/372
f 9/486/372 3/490/376 12/487/373
f 43/482/247 89/491/200 103/492/221
f 43/482/247 103/492/221 55/493/377
f 99/494/239 101/495/204 54/496/378
f 54/496/378 101/495/204 42/497/379
f 54/496/378 42/497/379 32/498/380
f 32/498/380 42/497/379 34/499/381
f 32/498/380 34/499/381 20/500/382
f 20/500/382 34/499/381 25/501/383
f 20/500/382 25/501/383 8/473/364
f 8/473/364 25/501/383 10/471/363
f 78/502/203 90/503/202 44/504/245
f 42/497/379 44/504/245 34/499/381
f 44/504/245 36/505/244 34/499/381
f 36/505/244 27/506/384 34/499/381
f 34/499/381 27/506/384 25/501/383
f 27/506/384 15/469/258 25/501/383
f 10/471/363 25/501/383 15/469/258
f 20/500/382 18/507/385 32/498/380
f 32/498/380 18/507/385 30/508/386
f 32/498/380 30/508/386 39/509/387
f 32/498/380 39/509/387 54/496/378
f 54/496/378 39/509/387 98/510/225
f 54/496/378 98/510/225 99/494/239
f 39/509/387 53/477/368 98/510/225
f 18/507/385 20/500/382 6/475/366
f 6/475/366 20/500/382 8/473/364
f 18/507/385 17/511/388 30/508/386
f 30/508/386 17/511/388 29/478/369
f 30/508/386 29/478/369 39/509/387
f 39/509/387 29/478/369 53/477/368
f 98/510/225 53/477/368 72/480/223
f 17/511/388 18/507/385 5/476/367
f 5/476/367 18/507/385 6/475/366
f 17/511/388 19/512/389 29/478/369
f 29/478/369 19/512/389 31/513/390
f 29/478/369 31/513/390 40/479/370
f 40/479/370 73/514/226 72/480/223
f 19/512/389 17/511/388 7/489/375
f 7/489/375 17/511/388 5/476/367
f 19/512/389 21/515/391 31/513/390
f 40/479/370 31/513/390 41/516/392
f 40/479/370 41/516/392 73/514/226
f 41/516/392 75/517/222 73/514/226
f 21/515/391 19/512/389 7/489/375
f 21/515/391 22/518/393 31/513/390
f 31/513/390 22/518/393 33/483/371
f 31/513/390 33/483/371 41/516/392
f 41/516/392 33/483/371 55/493/377
f 41/516/392 55/493/377 75/517/222
f 22/518/393 21/515/391 9/486/372
f 9/486/372 21/515/391 7/489/375
f 22/518/393 26/484/243 33/483/371
f 33/483/371 43/482/247 55/493/377
f 26/484/243 22/518/393 9/486/372
f 44/504/245 42/497/379 78/502/203
f 78/502/203 42/497/379 101/495/204
f 75/517/222 55/493/377 103/492/221
f 109/519/251 113/520/394 128/521/395
f 128/521/395 113/520/394 131/522/396
f 128/521/395 131/522/396 144/523/252
f 144/523/252 131/522/396 171/524/397
f 144/523/252 171/524/397 263/525/148
f 144/523/252 263/525/148 256/526/398
f 113/520/394 109/519/251 71/527/251
f 113/520/394 71/527/251 82/528/399
f 82/528/399 71/527/251 60/529/400
f 82/528/399 60/529/400 67/530/401
f 67/530/401 60/529/400 52/531/402
f 67/530/401 52/531/402 48/532/403
f 67/530/401 48/532/403 70/533/404
f 70/533/404 48/532/403 51/534/251
f 70/533/404 51/534/251 81/535/251
f 81/535/251 51/534/251 58/536/251
f 81/535/251 58/536/251 68/537/251
f 81/535/251 68/537/251 106/538/251
f 106/538/251 68/537/251 105/539/251
f 106/538/251 105/539/251 125/540/251
f 106/538/251 125/540/251 130/541/404
f 130/541/404 125/540/251 161/542/405
f 130/541/404 161/542/405 155/543/406
f 155/543/406 161/542/405 196/544/407
f 155/543/406 196/544/407 191/545/397
f 191/545/397 196/544/407 234/546/251
f 191/545/397 234/546/251 201/547/251
f 201/547/251 234/546/251 247/548/251
f 201/547/251 247/548/251 284/549/117
f 284/549/117 247/548/251 286/550/104
f 286/550/104 247/548/251 295/551/408
f 282/552/8 294/553/176 247/548/251
f 247/548/251 294/553/176 297/554/109
f 297/554/109 294/553/176 307/555/94
f 294/553/176 300/556/92 307/555/94
f 247/548/251 297/554/109 295/551/408
f 286/550/104 295/551/408 302/557/101
f 302/557/101 295/551/408 306/558/99
f 201/547/251 284/549/117 277/559/409
f 277/559/409 284/549/117 301/560/116
f 277/559/409 301/560/116 287/561/120
f 201/547/251 277/559/409 171/524/397
f 277/559/409 275/562/128 171/524/397
f 171/524/397 275/562/128 268/563/410
f 268/563/410 275/562/128 279/564/121
f 268/563/410 279/564/121 273/565/124
f 171/524/397 268/563/410 263/525/148
f 256/526/398 263/525/148 265/566/147
f 256/526/398 265/566/147 261/567/154
f 144/523/252 256/526/398 254/568/139
f 144/523/252 254/568/139 236/569/411
f 236/569/411 254/568/139 253/570/138
f 236/569/411 253/570/138 246/571/156
f 144/523/252 236/569/411 230/572/165
f 144/523/252 230/572/165 194/573/169
f 144/523/252 194/573/169 178/574/91
f 194/573/169 230/572/165 221/575/159
f 194/573/169 221/575/159 209/576/160
