# Rounded Obrik battery visual: X=28 mm, Y=65 mm, Z=22 mm, fillet radius=5 mm.
# Origin is the battery centre; the assembly places it at base_link +Z 36 mm.
mtllib obrik_battery_28x65x22_r5.mtl
o obrik_battery_28x65x22_r5
s 1
v -0.014000000 -0.027500000 -0.006000000
v -0.014000000 0.027500000 -0.006000000
v -0.014000000 0.027500000 0.006000000
v -0.014000000 -0.027500000 0.006000000
v 0.014000000 -0.027500000 -0.006000000
v 0.014000000 0.027500000 -0.006000000
v 0.014000000 0.027500000 0.006000000
v 0.014000000 -0.027500000 0.006000000
v -0.009000000 -0.032500000 -0.006000000
v 0.009000000 -0.032500000 -0.006000000
v 0.009000000 -0.032500000 0.006000000
v -0.009000000 -0.032500000 0.006000000
v -0.009000000 0.032500000 -0.006000000
v 0.009000000 0.032500000 -0.006000000
v 0.009000000 0.032500000 0.006000000
v -0.009000000 0.032500000 0.006000000
v -0.009000000 -0.027500000 -0.011000000
v 0.009000000 -0.027500000 -0.011000000
v 0.009000000 0.027500000 -0.011000000
v -0.009000000 0.027500000 -0.011000000
v -0.009000000 -0.027500000 0.011000000
v 0.009000000 -0.027500000 0.011000000
v 0.009000000 0.027500000 0.011000000
v -0.009000000 0.027500000 0.011000000
v -0.013619398 -0.029413417 -0.006000000
v -0.013619398 -0.029413417 0.006000000
v -0.012535534 -0.031035534 -0.006000000
v -0.012535534 -0.031035534 0.006000000
v -0.010913417 -0.032119398 -0.006000000
v -0.010913417 -0.032119398 0.006000000
v -0.013619398 0.029413417 -0.006000000
v -0.013619398 0.029413417 0.006000000
v -0.012535534 0.031035534 -0.006000000
v -0.012535534 0.031035534 0.006000000
v -0.010913417 0.032119398 -0.006000000
v -0.010913417 0.032119398 0.006000000
v 0.013619398 -0.029413417 -0.006000000
v 0.013619398 -0.029413417 0.006000000
v 0.012535534 -0.031035534 -0.006000000
v 0.012535534 -0.031035534 0.006000000
v 0.010913417 -0.032119398 -0.006000000
v 0.010913417 -0.032119398 0.006000000
v 0.013619398 0.029413417 -0.006000000
v 0.013619398 0.029413417 0.006000000
v 0.012535534 0.031035534 -0.006000000
v 0.012535534 0.031035534 0.006000000
v 0.010913417 0.032119398 -0.006000000
v 0.010913417 0.032119398 0.006000000
v -0.013619398 -0.027500000 -0.007913417
v -0.013619398 0.027500000 -0.007913417
v -0.012535534 -0.027500000 -0.009535534
v -0.012535534 0.027500000 -0.009535534
v -0.010913417 -0.027500000 -0.010619398
v -0.010913417 0.027500000 -0.010619398
v -0.013619398 -0.027500000 0.007913417
v -0.013619398 0.027500000 0.007913417
v -0.012535534 -0.027500000 0.009535534
v -0.012535534 0.027500000 0.009535534
v -0.010913417 -0.027500000 0.010619398
v -0.010913417 0.027500000 0.010619398
v 0.013619398 -0.027500000 -0.007913417
v 0.013619398 0.027500000 -0.007913417
v 0.012535534 -0.027500000 -0.009535534
v 0.012535534 0.027500000 -0.009535534
v 0.010913417 -0.027500000 -0.010619398
v 0.010913417 0.027500000 -0.010619398
v 0.013619398 -0.027500000 0.007913417
v 0.013619398 0.027500000 0.007913417
v 0.012535534 -0.027500000 0.009535534
v 0.012535534 0.027500000 0.009535534
v 0.010913417 -0.027500000 0.010619398
v 0.010913417 0.027500000 0.010619398
v -0.009000000 -0.032119398 -0.007913417
v 0.009000000 -0.032119398 -0.007913417
v -0.009000000 -0.031035534 -0.009535534
v 0.009000000 -0.031035534 -0.009535534
v -0.009000000 -0.029413417 -0.010619398
v 0.009000000 -0.029413417 -0.010619398
v -0.009000000 -0.032119398 0.007913417
v 0.009000000 -0.032119398 0.007913417
v -0.009000000 -0.031035534 0.009535534
v 0.009000000 -0.031035534 0.009535534
v -0.009000000 -0.029413417 0.010619398
v 0.009000000 -0.029413417 0.010619398
v -0.009000000 0.032119398 -0.007913417
v 0.009000000 0.032119398 -0.007913417
v -0.009000000 0.031035534 -0.009535534
v 0.009000000 0.031035534 -0.009535534
v -0.009000000 0.029413417 -0.010619398
v 0.009000000 0.029413417 -0.010619398
v -0.009000000 0.032119398 0.007913417
v 0.009000000 0.032119398 0.007913417
v -0.009000000 0.031035534 0.009535534
v 0.009000000 0.031035534 0.009535534
v -0.009000000 0.029413417 0.010619398
v 0.009000000 0.029413417 0.010619398
v -0.010767767 -0.028232233 -0.010619398
v -0.010352990 -0.028852990 -0.010619398
v -0.009732233 -0.029267767 -0.010619398
v -0.012266407 -0.028852990 -0.009535534
v -0.011500000 -0.030000000 -0.009535534
v -0.010352990 -0.030766407 -0.009535534
v -0.013267767 -0.029267767 -0.007913417
v -0.012266407 -0.030766407 -0.007913417
v -0.010767767 -0.031767767 -0.007913417
v -0.010767767 -0.028232233 0.010619398
v -0.010352990 -0.028852990 0.010619398
v -0.009732233 -0.029267767 0.010619398
v -0.012266407 -0.028852990 0.009535534
v -0.011500000 -0.030000000 0.009535534
v -0.010352990 -0.030766407 0.009535534
v -0.013267767 -0.029267767 0.007913417
v -0.012266407 -0.030766407 0.007913417
v -0.010767767 -0.031767767 0.007913417
v -0.010767767 0.028232233 -0.010619398
v -0.010352990 0.028852990 -0.010619398
v -0.009732233 0.029267767 -0.010619398
v -0.012266407 0.028852990 -0.009535534
v -0.011500000 0.030000000 -0.009535534
v -0.010352990 0.030766407 -0.009535534
v -0.013267767 0.029267767 -0.007913417
v -0.012266407 0.030766407 -0.007913417
v -0.010767767 0.031767767 -0.007913417
v -0.010767767 0.028232233 0.010619398
v -0.010352990 0.028852990 0.010619398
v -0.009732233 0.029267767 0.010619398
v -0.012266407 0.028852990 0.009535534
v -0.011500000 0.030000000 0.009535534
v -0.010352990 0.030766407 0.009535534
v -0.013267767 0.029267767 0.007913417
v -0.012266407 0.030766407 0.007913417
v -0.010767767 0.031767767 0.007913417
v 0.010767767 -0.028232233 -0.010619398
v 0.010352990 -0.028852990 -0.010619398
v 0.009732233 -0.029267767 -0.010619398
v 0.012266407 -0.028852990 -0.009535534
v 0.011500000 -0.030000000 -0.009535534
v 0.010352990 -0.030766407 -0.009535534
v 0.013267767 -0.029267767 -0.007913417
v 0.012266407 -0.030766407 -0.007913417
v 0.010767767 -0.031767767 -0.007913417
v 0.010767767 -0.028232233 0.010619398
v 0.010352990 -0.028852990 0.010619398
v 0.009732233 -0.029267767 0.010619398
v 0.012266407 -0.028852990 0.009535534
v 0.011500000 -0.030000000 0.009535534
v 0.010352990 -0.030766407 0.009535534
v 0.013267767 -0.029267767 0.007913417
v 0.012266407 -0.030766407 0.007913417
v 0.010767767 -0.031767767 0.007913417
v 0.010767767 0.028232233 -0.010619398
v 0.010352990 0.028852990 -0.010619398
v 0.009732233 0.029267767 -0.010619398
v 0.012266407 0.028852990 -0.009535534
v 0.011500000 0.030000000 -0.009535534
v 0.010352990 0.030766407 -0.009535534
v 0.013267767 0.029267767 -0.007913417
v 0.012266407 0.030766407 -0.007913417
v 0.010767767 0.031767767 -0.007913417
v 0.010767767 0.028232233 0.010619398
v 0.010352990 0.028852990 0.010619398
v 0.009732233 0.029267767 0.010619398
v 0.012266407 0.028852990 0.009535534
v 0.011500000 0.030000000 0.009535534
v 0.010352990 0.030766407 0.009535534
v 0.013267767 0.029267767 0.007913417
v 0.012266407 0.030766407 0.007913417
v 0.010767767 0.031767767 0.007913417
vn -0.992939833 -0.083876359 -0.083876359
vn -0.990014690 0.117401302 -0.078024666
vn -0.993893500 0.078024709 0.078024709
vn -0.990014690 -0.078024666 0.117401302
vn 0.992939833 -0.083876359 -0.083876359
vn 0.990014690 0.117401302 -0.078024666
vn 0.993893500 0.078024709 0.078024709
vn 0.990014690 -0.078024666 0.117401302
vn -0.083350971 -0.990264845 -0.111481622
vn 0.116666058 -0.986295119 -0.116666054
vn 0.111481625 -0.990264845 0.083350967
vn -0.111481562 -0.987493657 0.111481558
vn -0.083350971 0.990264845 -0.111481622
vn 0.116666058 0.986295119 -0.116666054
vn 0.111481625 0.990264845 0.083350967
vn -0.111481562 0.987493657 0.111481558
vn -0.088678135 -0.088678135 -0.992105023
vn 0.088670815 -0.113225474 -0.989604708
vn 0.090637120 0.090637120 -0.991750889
vn -0.113225474 0.088670815 -0.989604708
vn -0.088678135 -0.088678135 0.992105023
vn 0.088670815 -0.113225474 0.989604708
vn 0.090637120 0.090637120 0.991750889
vn -0.113225474 0.088670815 0.989604708
vn -0.919191595 -0.381408558 -0.098052658
vn -0.942628939 -0.319183386 0.097839912
vn -0.703263511 -0.704134991 -0.098052783
vn -0.748729311 -0.655615547 0.097840037
vn -0.380270010 -0.919663188 -0.098052743
vn -0.440842557 -0.892236053 0.097839996
vn -0.919191595 0.381408558 -0.098052658
vn -0.942628939 0.319183386 0.097839912
vn -0.703263511 0.704134991 -0.098052783
vn -0.748729311 0.655615547 0.097840037
vn -0.380270010 0.919663188 -0.098052743
vn -0.440842557 0.892236053 0.097839996
vn 0.919191595 -0.381408558 -0.098052658
vn 0.942628939 -0.319183386 0.097839912
vn 0.703263511 -0.704134991 -0.098052783
vn 0.748729311 -0.655615547 0.097840037
vn 0.380270010 -0.919663188 -0.098052743
vn 0.440842557 -0.892236053 0.097839996
vn 0.919191595 0.381408558 -0.098052658
vn 0.942628939 0.319183386 0.097839912
vn 0.703263511 0.704134991 -0.098052783
vn 0.748729311 0.655615547 0.097840037
vn 0.380270010 0.919663188 -0.098052743
vn 0.440842557 0.892236053 0.097839996
vn -0.919558620 -0.093184625 -0.381744117
vn -0.942997499 0.092983645 -0.319546175
vn -0.704662981 -0.074324151 -0.705638720
vn -0.750053275 0.074163816 -0.657206066
vn -0.381965211 -0.043972130 -0.923130018
vn -0.442331912 0.043876658 -0.895777494
vn -0.919558620 -0.093184625 0.381744117
vn -0.942997499 0.092983645 0.319546175
vn -0.704662981 -0.074324151 0.705638720
vn -0.750053275 0.074163816 0.657206066
vn -0.381965211 -0.043972130 0.923130018
vn -0.442331912 0.043876658 0.895777494
vn 0.919558620 -0.093184625 -0.381744117
vn 0.942997499 0.092983645 -0.319546175
vn 0.704662981 -0.074324151 -0.705638720
vn 0.750053275 0.074163816 -0.657206066
vn 0.381965211 -0.043972130 -0.923130018
vn 0.442331912 0.043876658 -0.895777494
vn 0.919558620 -0.093184625 0.381744117
vn 0.942997499 0.092983645 0.319546175
vn 0.704662981 -0.074324151 0.705638720
vn 0.750053275 0.074163816 0.657206066
vn 0.381965211 -0.043972130 0.923130018
vn 0.442331912 0.043876658 0.895777494
vn -0.088125064 -0.892949627 -0.441446414
vn 0.088318367 -0.920374971 -0.380932774
vn -0.065054444 -0.657136792 -0.750958824
vn 0.065198079 -0.705571755 -0.705632842
vn -0.030308887 -0.345248490 -0.938021775
vn 0.030309395 -0.418771383 -0.907585737
vn -0.088125064 -0.892949627 0.441446414
vn 0.088318367 -0.920374971 0.380932774
vn -0.065054444 -0.657136792 0.750958824
vn 0.065198079 -0.705571755 0.705632842
vn -0.030308887 -0.345248490 0.938021775
vn 0.030309395 -0.418771383 0.907585737
vn -0.088125064 0.892949627 -0.441446414
vn 0.088318367 0.920374971 -0.380932774
vn -0.065054444 0.657136792 -0.750958824
vn 0.065198079 0.705571755 -0.705632842
vn -0.030308887 0.345248490 -0.938021775
vn 0.030309395 0.418771383 -0.907585737
vn -0.088125064 0.892949627 0.441446414
vn 0.088318367 0.920374971 0.380932774
vn -0.065054444 0.657136792 0.750958824
vn 0.065198079 0.705571755 0.705632842
vn -0.030308887 0.345248490 0.938021775
vn 0.030309395 0.418771383 0.907585737
vn -0.378083946 -0.180922366 -0.907920496
vn -0.280067986 -0.311836977 -0.907920494
vn -0.139414362 -0.395277138 -0.907920492
vn -0.649269583 -0.278841724 -0.707598970
vn -0.493138801 -0.506080830 -0.707598980
vn -0.261932147 -0.656273714 -0.707599013
vn -0.851490004 -0.357989969 -0.383155262
vn -0.649677582 -0.656590565 -0.383155152
vn -0.348957521 -0.855231425 -0.383155136
vn -0.378083946 -0.180922366 0.907920496
vn -0.280067986 -0.311836977 0.907920494
vn -0.139414362 -0.395277138 0.907920492
vn -0.649269583 -0.278841724 0.707598970
vn -0.493138801 -0.506080830 0.707598980
vn -0.261932147 -0.656273714 0.707599013
vn -0.851490004 -0.357989969 0.383155262
vn -0.649677582 -0.656590565 0.383155152
vn -0.348957521 -0.855231425 0.383155136
vn -0.378083946 0.180922366 -0.907920496
vn -0.280067986 0.311836977 -0.907920494
vn -0.139414362 0.395277138 -0.907920492
vn -0.649269583 0.278841724 -0.707598970
vn -0.493138801 0.506080830 -0.707598980
vn -0.261932147 0.656273714 -0.707599013
vn -0.851490004 0.357989969 -0.383155262
vn -0.649677582 0.656590565 -0.383155152
vn -0.348957521 0.855231425 -0.383155136
vn -0.378083946 0.180922366 0.907920496
vn -0.280067986 0.311836977 0.907920494
vn -0.139414362 0.395277138 0.907920492
vn -0.649269583 0.278841724 0.707598970
vn -0.493138801 0.506080830 0.707598980
vn -0.261932147 0.656273714 0.707599013
vn -0.851490004 0.357989969 0.383155262
vn -0.649677582 0.656590565 0.383155152
vn -0.348957521 0.855231425 0.383155136
vn 0.378083946 -0.180922366 -0.907920496
vn 0.280067986 -0.311836977 -0.907920494
vn 0.139414362 -0.395277138 -0.907920492
vn 0.649269583 -0.278841724 -0.707598970
vn 0.493138801 -0.506080830 -0.707598980
vn 0.261932147 -0.656273714 -0.707599013
vn 0.851490004 -0.357989969 -0.383155262
vn 0.649677582 -0.656590565 -0.383155152
vn 0.348957521 -0.855231425 -0.383155136
vn 0.378083946 -0.180922366 0.907920496
vn 0.280067986 -0.311836977 0.907920494
vn 0.139414362 -0.395277138 0.907920492
vn 0.649269583 -0.278841724 0.707598970
vn 0.493138801 -0.506080830 0.707598980
vn 0.261932147 -0.656273714 0.707599013
vn 0.851490004 -0.357989969 0.383155262
vn 0.649677582 -0.656590565 0.383155152
vn 0.348957521 -0.855231425 0.383155136
vn 0.378083946 0.180922366 -0.907920496
vn 0.280067986 0.311836977 -0.907920494
vn 0.139414362 0.395277138 -0.907920492
vn 0.649269583 0.278841724 -0.707598970
vn 0.493138801 0.506080830 -0.707598980
vn 0.261932147 0.656273714 -0.707599013
vn 0.851490004 0.357989969 -0.383155262
vn 0.649677582 0.656590565 -0.383155152
vn 0.348957521 0.855231425 -0.383155136
vn 0.378083946 0.180922366 0.907920496
vn 0.280067986 0.311836977 0.907920494
vn 0.139414362 0.395277138 0.907920492
vn 0.649269583 0.278841724 0.707598970
vn 0.493138801 0.506080830 0.707598980
vn 0.261932147 0.656273714 0.707599013
vn 0.851490004 0.357989969 0.383155262
vn 0.649677582 0.656590565 0.383155152
vn 0.348957521 0.855231425 0.383155136
usemtl battery_neutral_grey
f 1//1 3//3 2//2
f 1//1 4//4 3//3
f 5//5 6//6 7//7
f 5//5 7//7 8//8
f 9//9 10//10 11//11
f 9//9 11//11 12//12
f 13//13 15//15 14//14
f 13//13 16//16 15//15
f 17//17 19//19 18//18
f 17//17 20//20 19//19
f 21//21 22//22 23//23
f 21//21 23//23 24//24
f 1//1 25//25 26//26
f 1//1 26//26 4//4
f 25//25 27//27 28//28
f 25//25 28//28 26//26
f 27//27 29//29 30//30
f 27//27 30//30 28//28
f 29//29 9//9 12//12
f 29//29 12//12 30//30
f 2//2 32//32 31//31
f 2//2 3//3 32//32
f 31//31 34//34 33//33
f 31//31 32//32 34//34
f 33//33 36//36 35//35
f 33//33 34//34 36//36
f 35//35 16//16 13//13
f 35//35 36//36 16//16
f 5//5 38//38 37//37
f 5//5 8//8 38//38
f 37//37 40//40 39//39
f 37//37 38//38 40//40
f 39//39 42//42 41//41
f 39//39 40//40 42//42
f 41//41 11//11 10//10
f 41//41 42//42 11//11
f 6//6 43//43 44//44
f 6//6 44//44 7//7
f 43//43 45//45 46//46
f 43//43 46//46 44//44
f 45//45 47//47 48//48
f 45//45 48//48 46//46
f 47//47 14//14 15//15
f 47//47 15//15 48//48
f 1//1 50//50 49//49
f 1//1 2//2 50//50
f 49//49 52//52 51//51
f 49//49 50//50 52//52
f 51//51 54//54 53//53
f 51//51 52//52 54//54
f 53//53 20//20 17//17
f 53//53 54//54 20//20
f 4//4 55//55 56//56
f 4//4 56//56 3//3
f 55//55 57//57 58//58
f 55//55 58//58 56//56
f 57//57 59//59 60//60
f 57//57 60//60 58//58
f 59//59 21//21 24//24
f 59//59 24//24 60//60
f 5//5 61//61 62//62
f 5//5 62//62 6//6
f 61//61 63//63 64//64
f 61//61 64//64 62//62
f 63//63 65//65 66//66
f 63//63 66//66 64//64
f 65//65 18//18 19//19
f 65//65 19//19 66//66
f 8//8 68//68 67//67
f 8//8 7//7 68//68
f 67//67 70//70 69//69
f 67//67 68//68 70//70
f 69//69 72//72 71//71
f 69//69 70//70 72//72
f 71//71 23//23 22//22
f 71//71 72//72 23//23
f 9//9 73//73 74//74
f 9//9 74//74 10//10
f 73//73 75//75 76//76
f 73//73 76//76 74//74
f 75//75 77//77 78//78
f 75//75 78//78 76//76
f 77//77 17//17 18//18
f 77//77 18//18 78//78
f 12//12 80//80 79//79
f 12//12 11//11 80//80
f 79//79 82//82 81//81
f 79//79 80//80 82//82
f 81//81 84//84 83//83
f 81//81 82//82 84//84
f 83//83 22//22 21//21
f 83//83 84//84 22//22
f 13//13 86//86 85//85
f 13//13 14//14 86//86
f 85//85 88//88 87//87
f 85//85 86//86 88//88
f 87//87 90//90 89//89
f 87//87 88//88 90//90
f 89//89 19//19 20//20
f 89//89 90//90 19//19
f 16//16 91//91 92//92
f 16//16 92//92 15//15
f 91//91 93//93 94//94
f 91//91 94//94 92//92
f 93//93 95//95 96//96
f 93//93 96//96 94//94
f 95//95 24//24 23//23
f 95//95 23//23 96//96
f 17//17 97//97 53//53
f 17//17 98//98 97//97
f 17//17 99//99 98//98
f 17//17 77//77 99//99
f 53//53 100//100 51//51
f 53//53 97//97 100//100
f 97//97 101//101 100//100
f 97//97 98//98 101//101
f 98//98 102//102 101//101
f 98//98 99//99 102//102
f 99//99 75//75 102//102
f 99//99 77//77 75//75
f 51//51 103//103 49//49
f 51//51 100//100 103//103
f 100//100 104//104 103//103
f 100//100 101//101 104//104
f 101//101 105//105 104//104
f 101//101 102//102 105//105
f 102//102 73//73 105//105
f 102//102 75//75 73//73
f 49//49 25//25 1//1
f 49//49 103//103 25//25
f 103//103 27//27 25//25
f 103//103 104//104 27//27
f 104//104 29//29 27//27
f 104//104 105//105 29//29
f 105//105 9//9 29//29
f 105//105 73//73 9//9
f 21//21 59//59 106//106
f 21//21 106//106 107//107
f 21//21 107//107 108//108
f 21//21 108//108 83//83
f 59//59 57//57 109//109
f 59//59 109//109 106//106
f 106//106 109//109 110//110
f 106//106 110//110 107//107
f 107//107 110//110 111//111
f 107//107 111//111 108//108
f 108//108 111//111 81//81
f 108//108 81//81 83//83
f 57//57 55//55 112//112
f 57//57 112//112 109//109
f 109//109 112//112 113//113
f 109//109 113//113 110//110
f 110//110 113//113 114//114
f 110//110 114//114 111//111
f 111//111 114//114 79//79
f 111//111 79//79 81//81
f 55//55 4//4 26//26
f 55//55 26//26 112//112
f 112//112 26//26 28//28
f 112//112 28//28 113//113
f 113//113 28//28 30//30
f 113//113 30//30 114//114
f 114//114 30//30 12//12
f 114//114 12//12 79//79
f 20//20 54//54 115//115
f 20//20 115//115 116//116
f 20//20 116//116 117//117
f 20//20 117//117 89//89
f 54//54 52//52 118//118
f 54//54 118//118 115//115
f 115//115 118//118 119//119
f 115//115 119//119 116//116
f 116//116 119//119 120//120
f 116//116 120//120 117//117
f 117//117 120//120 87//87
f 117//117 87//87 89//89
f 52//52 50//50 121//121
f 52//52 121//121 118//118
f 118//118 121//121 122//122
f 118//118 122//122 119//119
f 119//119 122//122 123//123
f 119//119 123//123 120//120
f 120//120 123//123 85//85
f 120//120 85//85 87//87
f 50//50 2//2 31//31
f 50//50 31//31 121//121
f 121//121 31//31 33//33
f 121//121 33//33 122//122
f 122//122 33//33 35//35
f 122//122 35//35 123//123
f 123//123 35//35 13//13
f 123//123 13//13 85//85
f 24//24 124//124 60//60
f 24//24 125//125 124//124
f 24//24 126//126 125//125
f 24//24 95//95 126//126
f 60//60 127//127 58//58
f 60//60 124//124 127//127
f 124//124 128//128 127//127
f 124//124 125//125 128//128
f 125//125 129//129 128//128
f 125//125 126//126 129//129
f 126//126 93//93 129//129
f 126//126 95//95 93//93
f 58//58 130//130 56//56
f 58//58 127//127 130//130
f 127//127 131//131 130//130
f 127//127 128//128 131//131
f 128//128 132//132 131//131
f 128//128 129//129 132//132
f 129//129 91//91 132//132
f 129//129 93//93 91//91
f 56//56 32//32 3//3
f 56//56 130//130 32//32
f 130//130 34//34 32//32
f 130//130 131//131 34//34
f 131//131 36//36 34//34
f 131//131 132//132 36//36
f 132//132 16//16 36//36
f 132//132 91//91 16//16
f 18//18 65//65 133//133
f 18//18 133//133 134//134
f 18//18 134//134 135//135
f 18//18 135//135 78//78
f 65//65 63//63 136//136
f 65//65 136//136 133//133
f 133//133 136//136 137//137
f 133//133 137//137 134//134
f 134//134 137//137 138//138
f 134//134 138//138 135//135
f 135//135 138//138 76//76
f 135//135 76//76 78//78
f 63//63 61//61 139//139
f 63//63 139//139 136//136
f 136//136 139//139 140//140
f 136//136 140//140 137//137
f 137//137 140//140 141//141
f 137//137 141//141 138//138
f 138//138 141//141 74//74
f 138//138 74//74 76//76
f 61//61 5//5 37//37
f 61//61 37//37 139//139
f 139//139 37//37 39//39
f 139//139 39//39 140//140
f 140//140 39//39 41//41
f 140//140 41//41 141//141
f 141//141 41//41 10//10
f 141//141 10//10 74//74
f 22//22 142//142 71//71
f 22//22 143//143 142//142
f 22//22 144//144 143//143
f 22//22 84//84 144//144
f 71//71 145//145 69//69
f 71//71 142//142 145//145
f 142//142 146//146 145//145
f 142//142 143//143 146//146
f 143//143 147//147 146//146
f 143//143 144//144 147//147
f 144//144 82//82 147//147
f 144//144 84//84 82//82
f 69//69 148//148 67//67
f 69//69 145//145 148//148
f 145//145 149//149 148//148
f 145//145 146//146 149//149
f 146//146 150//150 149//149
f 146//146 147//147 150//150
f 147//147 80//80 150//150
f 147//147 82//82 80//80
f 67//67 38//38 8//8
f 67//67 148//148 38//38
f 148//148 40//40 38//38
f 148//148 149//149 40//40
f 149//149 42//42 40//40
f 149//149 150//150 42//42
f 150//150 11//11 42//42
f 150//150 80//80 11//11
f 19//19 151//151 66//66
f 19//19 152//152 151//151
f 19//19 153//153 152//152
f 19//19 90//90 153//153
f 66//66 154//154 64//64
f 66//66 151//151 154//154
f 151//151 155//155 154//154
f 151//151 152//152 155//155
f 152//152 156//156 155//155
f 152//152 153//153 156//156
f 153//153 88//88 156//156
f 153//153 90//90 88//88
f 64//64 157//157 62//62
f 64//64 154//154 157//157
f 154//154 158//158 157//157
f 154//154 155//155 158//158
f 155//155 159//159 158//158
f 155//155 156//156 159//159
f 156//156 86//86 159//159
f 156//156 88//88 86//86
f 62//62 43//43 6//6
f 62//62 157//157 43//43
f 157//157 45//45 43//43
f 157//157 158//158 45//45
f 158//158 47//47 45//45
f 158//158 159//159 47//47
f 159//159 14//14 47//47
f 159//159 86//86 14//14
f 23//23 72//72 160//160
f 23//23 160//160 161//161
f 23//23 161//161 162//162
f 23//23 162//162 96//96
f 72//72 70//70 163//163
f 72//72 163//163 160//160
f 160//160 163//163 164//164
f 160//160 164//164 161//161
f 161//161 164//164 165//165
f 161//161 165//165 162//162
f 162//162 165//165 94//94
f 162//162 94//94 96//96
f 70//70 68//68 166//166
f 70//70 166//166 163//163
f 163//163 166//166 167//167
f 163//163 167//167 164//164
f 164//164 167//167 168//168
f 164//164 168//168 165//165
f 165//165 168//168 92//92
f 165//165 92//92 94//94
f 68//68 7//7 44//44
f 68//68 44//44 166//166
f 166//166 44//44 46//46
f 166//166 46//46 167//167
f 167//167 46//46 48//48
f 167//167 48//48 168//168
f 168//168 48//48 15//15
f 168//168 15//15 92//92
