# Blender 5.1.2
# www.blender.org
mtllib vl53l0x_PCB.mtl
o vl53l0x_PCB
v -0.002010 -0.001500 0.006990
v -0.002010 0.000000 0.006990
v -0.002010 -0.001500 0.003990
v -0.002010 0.000000 0.003990
v -0.002010 -0.003500 -0.000510
v -0.002010 -0.002300 -0.000510
v -0.002010 -0.003500 -0.002510
v -0.002010 -0.002300 -0.002510
v -0.001810 -0.004300 0.005990
v -0.001810 -0.003450 0.005990
v -0.001810 -0.004300 0.004390
v -0.001810 -0.003450 0.004390
v -0.001810 0.000900 0.002105
v -0.001810 0.002500 0.002105
v -0.001810 0.000900 0.001255
v -0.001810 0.002500 0.001255
v -0.001810 0.000900 0.000415
v -0.001810 0.002500 0.000415
v -0.001810 0.000900 -0.000435
v -0.001810 0.002500 -0.000435
v -0.001810 0.000900 -0.001275
v -0.001810 0.002500 -0.001275
v -0.001810 0.000900 -0.002125
v -0.001810 0.002500 -0.002125
v -0.001510 -0.004500 0.002990
v -0.001510 -0.001500 0.002990
v -0.001510 -0.004500 0.001190
v -0.001510 -0.001500 0.001190
v -0.001510 -0.002100 -0.004660
v -0.001510 -0.000500 -0.004660
v -0.001510 -0.002100 -0.005510
v -0.001510 -0.000500 -0.005510
v -0.001510 -0.002100 -0.006160
v -0.001510 -0.000500 -0.006160
v -0.001510 -0.002100 -0.007010
v -0.001510 -0.000500 -0.007010
v -0.001015 -0.001650 0.011723
v -0.001015 -0.002577 0.011669
v -0.001015 -0.000798 0.011355
v -0.001015 -0.003194 0.011344
v -0.001020 -0.002347 0.011232
v -0.001020 -0.001389 0.011122
v -0.001015 -0.003682 0.010846
v -0.001015 -0.000201 0.010644
v -0.001020 -0.003300 0.010550
v -0.001020 -0.000648 0.010461
v -0.001014 -0.004000 0.009974
v -0.001014 -0.000014 0.009972
v -0.001020 -0.003503 0.009578
v -0.001020 -0.000534 0.009294
v -0.001015 -0.000041 0.009276
v -0.001015 -0.003892 0.009051
v -0.001020 -0.003220 0.008848
v -0.001020 -0.001108 0.008520
v -0.001016 -0.000458 0.008446
v -0.001015 -0.003532 0.008454
v -0.001020 -0.002611 0.008358
v -0.001020 -0.001838 0.008237
v -0.001016 -0.003007 0.007996
v -0.001014 -0.001000 0.008008
v -0.001016 -0.001650 0.007757
v -0.001014 -0.002347 0.007770
v -0.001015 -0.006079 0.007449
v -0.001016 -0.005474 0.007296
v -0.001016 -0.006652 0.007198
v -0.001015 -0.005090 0.006802
v -0.001020 -0.006143 0.006928
v -0.001020 -0.005721 0.006857
v -0.001015 -0.006949 0.006648
v -0.001020 -0.006479 0.006521
v -0.001020 -0.005540 0.006469
v -0.001015 -0.005090 0.006178
v -0.001020 -0.005756 0.006099
v -0.001015 -0.006846 0.006032
v -0.001020 -0.006183 0.006067
v -0.001015 -0.005357 0.005791
v -0.001015 -0.006387 0.005609
v -0.001015 -0.005764 0.005557
v -0.001015 -0.006079 0.004909
v -0.001015 -0.005474 0.004756
v -0.001015 -0.006652 0.004658
v -0.001014 -0.005164 0.004402
v -0.001020 -0.006143 0.004388
v -0.001020 -0.005721 0.004317
v -0.001014 -0.006949 0.004108
v -0.001020 -0.006479 0.003981
v -0.001015 -0.005038 0.003950
v -0.001020 -0.005540 0.003929
v -0.001020 -0.005756 0.003559
v -0.001015 -0.006899 0.003642
v -0.001020 -0.006183 0.003527
v -0.001014 -0.005165 0.003498
v -0.001015 -0.006652 0.003242
v -0.001015 -0.005474 0.003144
v -0.001015 -0.006079 0.002991
v -0.001015 -0.005764 0.002343
v -0.001015 -0.006233 0.002331
v -0.001015 -0.006652 0.002118
v -0.001014 -0.005357 0.002109
v -0.001015 -0.005090 0.001722
v -0.001020 -0.006143 0.001848
v -0.001020 -0.005721 0.001777
v -0.001014 -0.006949 0.001568
v -0.001020 -0.006479 0.001441
v -0.001020 -0.005540 0.001389
v -0.001015 -0.005090 0.001098
v -0.001020 -0.005756 0.001019
v -0.001015 -0.006899 0.001102
v -0.001020 -0.006183 0.000987
v -0.001015 -0.006652 0.000702
v -0.001015 -0.005357 0.000711
v -0.001015 -0.005764 0.000477
v -0.001015 -0.006233 0.000489
v -0.001015 -0.005764 -0.000197
v -0.001015 -0.006233 -0.000209
v -0.001015 -0.006652 -0.000422
v -0.001015 -0.005241 -0.000539
v -0.001020 -0.006143 -0.000692
v -0.001020 -0.005721 -0.000763
v -0.001014 -0.006949 -0.000972
v -0.001020 -0.006479 -0.001099
v -0.001014 -0.005038 -0.001130
v -0.001020 -0.005540 -0.001151
v -0.001020 -0.005756 -0.001521
v -0.001015 -0.006899 -0.001438
v -0.001020 -0.006183 -0.001553
v -0.001015 -0.005241 -0.001721
v -0.001015 -0.006652 -0.001838
v -0.001015 -0.005919 -0.002109
v -0.001014 -0.005922 -0.002723
v -0.001015 -0.006387 -0.002789
v -0.001015 -0.005474 -0.002864
v -0.001015 -0.006846 -0.003212
v -0.001015 -0.005090 -0.003358
v -0.001020 -0.006143 -0.003232
v -0.001020 -0.005721 -0.003303
v -0.001020 -0.006442 -0.003539
v -0.001020 -0.005540 -0.003691
v -0.001014 -0.006949 -0.003828
v -0.001014 -0.005090 -0.003982
v -0.001020 -0.006298 -0.004046
v -0.001020 -0.005756 -0.004061
v -0.001015 -0.006652 -0.004378
v -0.001015 -0.005474 -0.004476
v -0.001015 -0.006079 -0.004629
v -0.001015 -0.005764 -0.005277
v -0.001015 -0.006387 -0.005329
v -0.001015 -0.005241 -0.005619
v -0.001015 -0.006846 -0.005752
v -0.001020 -0.006143 -0.005772
v -0.001020 -0.005721 -0.005843
v -0.001020 -0.006479 -0.006179
v -0.001014 -0.005063 -0.006054
v -0.001020 -0.005540 -0.006231
v -0.001015 -0.006949 -0.006368
v -0.001015 -0.005090 -0.006522
v -0.001020 -0.005756 -0.006601
v -0.001020 -0.006183 -0.006633
v -0.001016 -0.006652 -0.006918
v -0.001016 -0.005474 -0.007016
v -0.001015 -0.006079 -0.007169
v -0.001016 -0.002117 -0.007750
v -0.001015 -0.001426 -0.007844
v -0.001014 -0.002792 -0.007924
v -0.001016 -0.000798 -0.008145
v -0.001014 -0.003382 -0.008296
v -0.001020 -0.001767 -0.008267
v -0.001020 -0.002545 -0.008350
v -0.001020 -0.001052 -0.008583
v -0.001015 -0.000329 -0.008661
v -0.001020 -0.003300 -0.008950
v -0.001015 -0.003892 -0.009071
v -0.001020 -0.000590 -0.009215
v -0.001015 -0.000041 -0.009296
v -0.001014 -0.004000 -0.009994
v -0.001020 -0.003503 -0.009922
v -0.001020 -0.000507 -0.009993
v -0.001014 -0.000014 -0.009992
v -0.001015 -0.000201 -0.010664
v -0.001020 -0.003220 -0.010652
v -0.001020 -0.000954 -0.010879
v -0.001015 -0.003682 -0.010866
v -0.001020 -0.002611 -0.011142
v -0.001020 -0.001838 -0.011263
v -0.001015 -0.000798 -0.011375
v -0.001015 -0.003007 -0.011504
v -0.001015 -0.001650 -0.011743
v -0.001015 -0.002347 -0.011730
v -0.001010 -0.001525 0.012483
v -0.001010 -0.002848 0.012369
v -0.001010 -0.003789 0.011844
v -0.001010 -0.000286 0.011905
v -0.001010 -0.004652 0.010629
v -0.001010 0.000413 0.011084
v -0.001010 0.000731 0.010133
v -0.001010 -0.007500 0.007990
v -0.001010 -0.004750 0.007990
v -0.001010 0.000750 0.007990
v -0.001010 0.003500 0.007990
v -0.001010 -0.001500 0.006990
v -0.001010 0.000000 0.006990
v -0.001010 -0.004300 0.005990
v -0.001010 -0.003450 0.005990
v -0.001010 -0.004300 0.004390
v -0.001010 -0.003450 0.004390
v -0.001010 -0.001500 0.003990
v -0.001010 0.000000 0.003990
v -0.001010 -0.004500 0.002990
v -0.001010 -0.001500 0.002990
v -0.001010 0.000900 0.002105
v -0.001010 0.002500 0.002105
v -0.001010 0.000900 0.001255
v -0.001010 0.002500 0.001255
v -0.001010 -0.004500 0.001190
v -0.001010 -0.001500 0.001190
v -0.001010 0.000900 0.000415
v -0.001010 0.002500 0.000415
v -0.001010 0.000900 -0.000435
v -0.001010 0.002500 -0.000435
v -0.001010 -0.003500 -0.000510
v -0.001010 -0.002300 -0.000510
v -0.001010 0.000900 -0.001275
v -0.001010 0.002500 -0.001275
v -0.001010 0.000900 -0.002125
v -0.001010 0.002500 -0.002125
v -0.001010 -0.003500 -0.002510
v -0.001010 -0.002300 -0.002510
v -0.001010 -0.002100 -0.004660
v -0.001010 -0.000500 -0.004660
v -0.001010 -0.002100 -0.005510
v -0.001010 -0.000500 -0.005510
v -0.001010 -0.002100 -0.006160
v -0.001010 -0.000500 -0.006160
v -0.001010 -0.002100 -0.007010
v -0.001010 -0.000500 -0.007010
v -0.001010 -0.007500 -0.008010
v -0.001010 -0.004750 -0.008010
v -0.001010 0.000750 -0.008010
v -0.001010 0.003500 -0.008010
v -0.001010 -0.004731 -0.010153
v -0.001010 0.000695 -0.010402
v -0.001010 -0.004275 -0.011363
v -0.001010 0.000165 -0.011474
v -0.001010 -0.003001 -0.012357
v -0.001010 -0.000656 -0.012173
v -0.001010 -0.001681 -0.012503
v -0.000010 -0.002475 0.012483
v -0.000010 -0.001152 0.012369
v -0.000010 -0.003714 0.011905
v -0.000010 -0.000211 0.011844
v -0.000005 -0.001650 0.011723
v -0.000005 -0.002577 0.011669
v -0.000005 -0.000798 0.011355
v -0.000005 -0.003194 0.011344
v -0.000010 -0.004413 0.011084
v -0.000010 0.000652 0.010629
v -0.000005 -0.003682 0.010846
v -0.000005 -0.000201 0.010644
v -0.000010 -0.004731 0.010133
v -0.000006 -0.004000 0.009974
v -0.000006 0.000013 0.009740
v -0.000005 -0.003892 0.009051
v -0.000004 -0.000201 0.008836
v -0.000005 -0.003382 0.008276
v -0.000005 -0.000628 0.008285
v -0.000004 -0.001203 0.007891
v -0.000010 -0.007500 0.007990
v -0.000010 -0.004750 0.007990
v -0.000010 0.000750 0.007990
v -0.000010 0.003500 0.007990
v -0.000006 -0.002792 0.007904
v -0.000004 -0.002117 0.007730
v -0.000005 -0.006079 0.007449
v -0.000004 -0.005474 0.007296
v -0.000004 -0.006652 0.007198
v -0.000004 -0.005090 0.006802
v -0.000005 -0.006949 0.006648
v -0.000007 -0.005063 0.006334
v -0.000005 -0.006846 0.006032
v -0.000005 -0.005241 0.005899
v -0.000005 -0.006387 0.005609
v -0.000005 -0.005764 0.005557
v -0.000005 -0.006079 0.004909
v -0.000005 -0.005474 0.004756
v -0.000005 -0.006652 0.004658
v -0.000006 -0.005090 0.004262
v -0.000006 -0.006949 0.004108
v -0.000006 -0.005090 0.003638
v -0.000005 -0.006899 0.003642
v -0.000005 -0.006652 0.003242
v -0.000005 -0.005605 0.003050
v -0.000005 -0.006233 0.003029
v -0.000006 -0.005764 0.002343
v -0.000005 -0.006233 0.002331
v -0.000010 -0.001250 0.002240
v -0.000010 0.001250 0.002240
v -0.000005 -0.006652 0.002118
v -0.000005 -0.005241 0.002001
v -0.000006 -0.006949 0.001568
v -0.000006 -0.005063 0.001566
v -0.000005 -0.005090 0.001098
v -0.000005 -0.006899 0.001102
v -0.000005 -0.006652 0.000702
v -0.000006 -0.005474 0.000604
v -0.000005 -0.006079 0.000451
v -0.000005 -0.006079 -0.000171
v -0.000005 -0.005474 -0.000324
v -0.000005 -0.006652 -0.000422
v -0.000006 -0.005090 -0.000818
v -0.000006 -0.006949 -0.000972
v -0.000005 -0.005090 -0.001442
v -0.000005 -0.006899 -0.001438
v -0.000005 -0.006652 -0.001838
v -0.000006 -0.005357 -0.001829
v -0.000005 -0.005764 -0.002063
v -0.000005 -0.006233 -0.002051
v -0.000010 -0.001250 -0.002260
v -0.000010 0.001250 -0.002260
v -0.000006 -0.005922 -0.002723
v -0.000005 -0.006387 -0.002789
v -0.000005 -0.005474 -0.002864
v -0.000005 -0.006846 -0.003212
v -0.000006 -0.005090 -0.003358
v -0.000006 -0.006949 -0.003828
v -0.000006 -0.005090 -0.003982
v -0.000005 -0.006652 -0.004378
v -0.000006 -0.005474 -0.004476
v -0.000005 -0.006079 -0.004629
v -0.000006 -0.005922 -0.005263
v -0.000005 -0.006387 -0.005329
v -0.000005 -0.005474 -0.005404
v -0.000005 -0.006846 -0.005752
v -0.000006 -0.005090 -0.005898
v -0.000005 -0.006949 -0.006368
v -0.000005 -0.005090 -0.006522
v -0.000004 -0.006652 -0.006918
v -0.000004 -0.005474 -0.007016
v -0.000005 -0.006079 -0.007169
v -0.000004 -0.002117 -0.007750
v -0.000004 -0.001203 -0.007911
v -0.000006 -0.002792 -0.007924
v -0.000010 -0.007500 -0.008010
v -0.000010 -0.004750 -0.008010
v -0.000010 0.000750 -0.008010
v -0.000010 0.003500 -0.008010
v -0.000005 -0.003382 -0.008296
v -0.000005 -0.000628 -0.008305
v -0.000004 -0.000201 -0.008856
v -0.000005 -0.003892 -0.009071
v -0.000006 0.000013 -0.009760
v -0.000010 -0.004723 -0.010164
v -0.000006 -0.004000 -0.009994
v -0.000010 0.000731 -0.010153
v -0.000005 -0.000201 -0.010664
v -0.000005 -0.003682 -0.010866
v -0.000010 -0.004352 -0.011248
v -0.000010 0.000413 -0.011104
v -0.000005 -0.000798 -0.011375
v -0.000005 -0.003007 -0.011504
v -0.000005 -0.001650 -0.011743
v -0.000010 -0.000512 -0.012112
v -0.000005 -0.002347 -0.011730
v -0.000010 -0.003129 -0.012304
v -0.000010 -0.001778 -0.012513
v 0.000000 -0.001653 0.011232
v 0.000000 -0.002611 0.011122
v 0.000000 -0.003220 0.010632
v 0.000000 -0.000700 0.010550
v 0.000000 -0.003503 0.009902
v 0.000000 -0.000497 0.009578
v 0.000000 -0.003382 0.009129
v 0.000000 -0.000780 0.008848
v 0.000000 -0.002892 0.008520
v 0.000000 -0.001389 0.008358
v 0.000000 -0.002162 0.008237
v 0.000000 -0.006183 0.006913
v 0.000000 -0.005756 0.006881
v 0.000000 -0.006479 0.006459
v 0.000000 -0.005540 0.006511
v 0.000000 -0.005721 0.006123
v 0.000000 -0.006143 0.006052
v 0.000000 -0.006183 0.004373
v 0.000000 -0.005756 0.004341
v 0.000000 -0.006479 0.003919
v 0.000000 -0.005540 0.003971
v 0.000000 -0.005721 0.003583
v 0.000000 -0.006143 0.003512
v 0.000000 -0.006183 0.001833
v 0.000000 -0.005756 0.001801
v 0.000000 -0.006479 0.001379
v 0.000000 -0.005540 0.001431
v 0.000000 -0.005721 0.001043
v 0.000000 -0.006143 0.000972
v 0.000000 -0.006298 -0.000754
v 0.000000 -0.005756 -0.000739
v 0.000000 -0.005540 -0.001109
v 0.000000 -0.006442 -0.001261
v 0.000000 -0.005721 -0.001497
v 0.000000 -0.006143 -0.001568
v 0.000000 -0.006298 -0.003294
v 0.000000 -0.005756 -0.003279
v 0.000000 -0.005540 -0.003649
v 0.000000 -0.006442 -0.003801
v 0.000000 -0.005721 -0.004037
v 0.000000 -0.006143 -0.004108
v 0.000000 -0.006183 -0.005787
v 0.000000 -0.005756 -0.005819
v 0.000000 -0.006479 -0.006241
v 0.000000 -0.005540 -0.006189
v 0.000000 -0.005721 -0.006577
v 0.000000 -0.006143 -0.006648
v 0.000000 -0.001838 -0.008257
v 0.000000 -0.002810 -0.008460
v 0.000000 -0.001108 -0.008540
v 0.000000 -0.003410 -0.009215
v 0.000000 -0.000618 -0.009149
v 0.000000 -0.003493 -0.009993
v 0.000000 -0.000497 -0.009922
v 0.000000 -0.003046 -0.010879
v 0.000000 -0.000780 -0.010652
v 0.000000 -0.001389 -0.011142
v 0.000000 -0.002162 -0.011263
v 0.000990 -0.001250 0.002240
v 0.000990 0.001250 0.002240
v 0.000990 -0.001250 -0.002260
v 0.000990 0.001250 -0.002260
vn 0.0260 0.8524 -0.5222
vn -0.0234 0.9328 -0.3595
vn 0.0208 0.9957 0.0907
vn -0.0211 0.9851 0.1706
vn 0.0187 0.8178 0.5753
vn -0.0313 0.6880 0.7250
vn 0.0231 0.3997 0.9164
vn -0.0337 0.1226 0.9919
vn 0.0337 -0.1226 0.9919
vn -0.0231 -0.3997 0.9164
vn 0.0313 -0.6880 0.7250
vn -0.0187 -0.8178 0.5753
vn 0.0211 -0.9851 0.1706
vn -0.0095 -0.9943 0.1061
vn 0.0095 -0.9331 -0.3595
vn -0.0096 -0.9140 -0.4055
vn 0.0095 -0.6282 -0.7780
vn -0.0095 -0.5892 -0.8079
vn 0.0097 -0.1552 -0.9878
vn -0.0208 -0.0907 -0.9957
vn 0.0234 0.3595 -0.9328
vn -0.0257 0.5218 -0.8527
vn 0.0224 0.9978 -0.0616
vn -0.0224 0.9978 0.0616
vn 0.0198 0.4396 0.8980
vn -0.0168 0.3479 0.9374
vn 0.0148 -0.5295 0.8482
vn -0.0148 -0.6055 0.7957
vn 0.0147 -0.9988 0.0463
vn -0.0147 -0.9988 -0.0463
vn 0.0147 -0.6056 -0.7956
vn -0.0148 -0.5295 -0.8482
vn 0.0168 0.3479 -0.9374
vn -0.0198 0.4396 -0.8980
vn 0.0518 0.9680 -0.2457
vn -0.0554 0.6099 -0.7905
vn -0.0518 0.9680 0.2457
vn 0.0554 0.6099 0.7905
vn -0.0307 0.2954 0.9549
vn 0.0321 -0.4954 0.8681
vn -0.0147 -0.6056 0.7956
vn -0.0321 -0.4954 -0.8681
vn 0.0307 0.2953 -0.9549
vn 0.0522 0.9973 -0.0508
vn -0.0521 0.6089 -0.7916
vn -0.0375 0.9638 0.2640
vn 0.0321 0.4327 0.9010
vn -0.0147 0.3106 0.9504
vn 0.0147 -0.6057 -0.7956
vn -0.0323 -0.4956 -0.8680
vn 0.0376 0.3300 -0.9432
vn 0.0201 0.4398 0.8979
vn -0.0147 -0.6057 0.7956
vn 0.0224 0.9979 -0.0612
vn -0.0145 -0.6059 0.7954
vn -0.0147 -0.5292 -0.8484
vn 0.0321 0.8377 -0.5452
vn -0.0158 0.9936 -0.1116
vn 0.0336 0.9956 0.0879
vn -0.0271 0.9146 0.4035
vn 0.0269 0.8066 0.5906
vn -0.0269 0.5906 0.8066
vn 0.0271 0.4035 0.9146
vn -0.0270 0.1079 0.9938
vn 0.0270 -0.1079 0.9938
vn -0.0271 -0.4035 0.9146
vn 0.0336 -0.6022 0.7976
vn -0.0233 -0.8043 0.5938
vn 0.0367 -0.9629 0.2675
vn -0.0169 -0.9977 0.0662
vn 0.0249 -0.8891 -0.4569
vn -0.0253 -0.8402 -0.5417
vn 0.0218 -0.4263 -0.9043
vn -0.0308 -0.2504 -0.9677
vn 0.0308 0.2504 -0.9677
vn -0.0090 0.4141 -0.9102
vn -0.0140 0.7965 -0.6044
vn -1.0000 -0.0071 -0.0015
vn -1.0000 -0.0079 0.0010
vn -0.9999 -0.0107 -0.0004
vn -1.0000 -0.0086 0.0048
vn -1.0000 -0.0070 0.0042
vn -1.0000 -0.0046 0.0063
vn -1.0000 -0.0022 0.0093
vn -1.0000 -0.0023 0.0079
vn -1.0000 0.0013 0.0078
vn -1.0000 0.0039 0.0087
vn -1.0000 0.0048 0.0064
vn -1.0000 0.0089 0.0042
vn -1.0000 0.0078 0.0031
vn -1.0000 0.0077 0.0012
vn -1.0000 0.0093 -0.0018
vn -1.0000 0.0076 -0.0006
vn -1.0000 0.0051 -0.0042
vn -1.0000 0.0053 -0.0082
vn -1.0000 0.0034 -0.0072
vn -1.0000 0.0012 -0.0081
vn -1.0000 -0.0002 -0.0089
vn -1.0000 -0.0005 -0.0066
vn -1.0000 -0.0025 -0.0088
vn -1.0000 -0.0025 -0.0049
vn -1.0000 -0.0078 -0.0053
vn -1.0000 -0.0050 -0.0036
vn 0.9999 -0.0111 0.0012
vn 1.0000 -0.0081 0.0015
vn 1.0000 -0.0065 -0.0017
vn 1.0000 -0.0083 -0.0039
vn 1.0000 -0.0038 -0.0036
vn 0.9999 -0.0056 -0.0088
vn 1.0000 -0.0022 -0.0050
vn 1.0000 -0.0020 -0.0086
vn 1.0000 -0.0017 -0.0043
vn 1.0000 0.0039 -0.0078
vn 1.0000 0.0024 -0.0040
vn 1.0000 0.0042 -0.0045
vn 1.0000 0.0065 -0.0057
vn 1.0000 0.0064 -0.0024
vn 0.9999 0.0101 -0.0000
vn 1.0000 0.0082 0.0006
vn 1.0000 0.0085 0.0049
vn 1.0000 0.0073 0.0031
vn 1.0000 0.0046 0.0062
vn 1.0000 0.0022 0.0094
vn 1.0000 0.0013 0.0081
vn 1.0000 -0.0023 0.0077
vn 1.0000 -0.0037 0.0087
vn 1.0000 -0.0048 0.0066
vn 1.0000 -0.0078 0.0056
vn 1.0000 -0.0071 0.0040
vn -1.0000 -0.0031 -0.0023
vn -1.0000 -0.0094 0.0004
vn -1.0000 -0.0089 -0.0000
vn -1.0000 -0.0046 0.0045
vn -1.0000 -0.0023 0.0077
vn -1.0000 -0.0003 0.0085
vn -1.0000 0.0049 0.0064
vn -1.0000 0.0034 0.0061
vn -1.0000 0.0081 0.0020
vn -1.0000 0.0086 -0.0008
vn -1.0000 0.0069 -0.0020
vn -1.0000 0.0048 -0.0076
vn -1.0000 0.0034 -0.0034
vn -1.0000 0.0003 -0.0041
vn -1.0000 -0.0040 -0.0087
vn -1.0000 -0.0016 -0.0036
vn 1.0000 -0.0086 -0.0009
vn 1.0000 -0.0093 0.0004
vn 1.0000 -0.0032 -0.0024
vn 1.0000 -0.0033 -0.0090
vn 1.0000 -0.0016 -0.0036
vn 1.0000 0.0006 -0.0039
vn 1.0000 0.0055 -0.0075
vn 1.0000 0.0083 -0.0020
vn 1.0000 0.0097 -0.0010
vn 1.0000 0.0067 -0.0011
vn 0.9998 0.0197 -0.0013
vn 1.0000 0.0036 0.0069
vn 1.0000 0.0034 0.0062
vn 1.0000 -0.0003 0.0085
vn 1.0000 -0.0034 0.0072
vn 1.0000 -0.0045 0.0045
vn -0.9999 -0.0148 -0.0014
vn -1.0000 -0.0091 0.0011
vn -1.0000 -0.0098 0.0009
vn -1.0000 -0.0040 0.0026
vn -1.0000 -0.0032 0.0091
vn -1.0000 -0.0005 0.0043
vn -1.0000 0.0063 0.0073
vn -1.0000 0.0035 0.0031
vn -1.0000 0.0067 0.0028
vn -1.0000 0.0098 -0.0002
vn -1.0000 0.0074 0.0006
vn -1.0000 0.0065 -0.0032
vn -1.0000 0.0056 -0.0077
vn -1.0000 0.0034 -0.0035
vn -1.0000 -0.0003 -0.0039
vn -1.0000 -0.0038 -0.0079
vn -1.0000 -0.0023 -0.0029
vn 1.0000 -0.0094 -0.0001
vn 1.0000 -0.0090 0.0011
vn 0.9999 -0.0151 -0.0014
vn 1.0000 -0.0023 -0.0030
vn 1.0000 -0.0033 -0.0085
vn 1.0000 -0.0012 -0.0043
vn 1.0000 0.0020 -0.0034
vn 1.0000 0.0067 -0.0073
vn 1.0000 0.0052 -0.0017
vn 0.9999 0.0107 0.0002
vn 1.0000 0.0047 0.0013
vn 1.0000 0.0053 0.0080
vn 1.0000 0.0027 0.0032
vn 1.0000 -0.0006 0.0043
vn 1.0000 -0.0041 0.0084
vn 1.0000 -0.0040 0.0025
vn -0.9999 -0.0153 -0.0014
vn -1.0000 -0.0094 0.0012
vn -1.0000 -0.0040 0.0025
vn -1.0000 -0.0031 0.0087
vn -1.0000 -0.0010 0.0042
vn -1.0000 0.0019 0.0038
vn -1.0000 0.0061 0.0077
vn -1.0000 0.0028 0.0039
vn -1.0000 0.0077 0.0017
vn -1.0000 0.0090 -0.0005
vn -1.0000 0.0082 -0.0015
vn -1.0000 0.0030 -0.0031
vn -1.0000 0.0009 -0.0039
vn -1.0000 -0.0037 -0.0079
vn -1.0000 -0.0010 -0.0042
vn -1.0000 -0.0024 -0.0029
vn 0.9999 -0.0155 -0.0014
vn 1.0000 -0.0022 -0.0031
vn 1.0000 -0.0036 -0.0079
vn 1.0000 -0.0002 -0.0046
vn 0.9999 0.0063 -0.0079
vn 1.0000 0.0027 -0.0038
vn 1.0000 0.0044 -0.0012
vn 1.0000 0.0097 0.0002
vn 1.0000 0.0060 0.0006
vn 1.0000 0.0057 0.0025
vn 1.0000 0.0042 0.0086
vn 1.0000 0.0003 0.0040
vn 1.0000 -0.0038 0.0084
vn 1.0000 -0.0007 0.0042
vn 1.0000 -0.0041 0.0025
vn -0.9997 -0.0227 -0.0018
vn -1.0000 0.0015 0.0042
vn -1.0000 0.0060 0.0078
vn -1.0000 0.0058 0.0028
vn -0.9999 0.0105 -0.0001
vn -1.0000 0.0066 0.0003
vn -1.0000 0.0050 -0.0021
vn -1.0000 0.0050 -0.0078
vn -1.0000 -0.0000 -0.0041
vn -1.0000 -0.0045 -0.0084
vn -1.0000 -0.0020 -0.0030
vn 1.0000 -0.0092 -0.0017
vn 1.0000 -0.0086 0.0010
vn 0.9997 -0.0229 -0.0016
vn 1.0000 -0.0027 -0.0085
vn 1.0000 -0.0015 -0.0046
vn 1.0000 0.0017 -0.0042
vn 1.0000 0.0062 -0.0074
vn 1.0000 0.0036 -0.0034
vn 1.0000 0.0047 -0.0013
vn 0.9999 0.0101 0.0007
vn 1.0000 0.0048 0.0014
vn 1.0000 0.0049 0.0079
vn 1.0000 0.0034 0.0038
vn 1.0000 -0.0004 0.0040
vn 1.0000 -0.0066 0.0072
vn -1.0000 -0.0097 0.0017
vn -1.0000 -0.0090 -0.0008
vn -1.0000 -0.0090 0.0018
vn -1.0000 -0.0027 0.0095
vn -1.0000 -0.0013 0.0038
vn -1.0000 0.0004 0.0042
vn -1.0000 0.0056 0.0082
vn -1.0000 0.0017 0.0037
vn -1.0000 0.0055 0.0010
vn -0.9999 0.0100 -0.0013
vn -1.0000 0.0060 -0.0017
vn -1.0000 0.0053 -0.0076
vn -1.0000 0.0032 -0.0029
vn -1.0000 -0.0005 -0.0041
vn -1.0000 -0.0066 -0.0071
vn -1.0000 -0.0041 -0.0026
vn 1.0000 -0.0090 0.0018
vn 1.0000 -0.0092 -0.0009
vn 0.9999 -0.0099 -0.0026
vn 1.0000 -0.0040 -0.0026
vn 1.0000 -0.0033 -0.0083
vn 1.0000 0.0002 -0.0044
vn 0.9999 0.0067 -0.0078
vn 1.0000 0.0031 -0.0038
vn 1.0000 0.0045 -0.0016
vn 0.9999 0.0104 0.0004
vn 1.0000 0.0047 0.0014
vn 1.0000 0.0046 0.0078
vn 1.0000 0.0032 0.0035
vn 1.0000 -0.0000 0.0041
vn 1.0000 -0.0053 0.0075
vn 1.0000 -0.0006 0.0037
vn -1.0000 -0.0086 0.0009
vn -1.0000 -0.0094 -0.0004
vn -1.0000 -0.0045 0.0021
vn -1.0000 -0.0031 0.0090
vn -1.0000 -0.0016 0.0036
vn -1.0000 0.0009 0.0038
vn -1.0000 0.0057 0.0024
vn -1.0000 0.0097 -0.0001
vn -1.0000 0.0062 0.0013
vn -1.0000 0.0053 -0.0007
vn -1.0000 0.0048 -0.0069
vn -1.0000 0.0037 -0.0050
vn -1.0000 -0.0003 -0.0072
vn -1.0000 -0.0034 -0.0072
vn -1.0000 -0.0041 -0.0042
vn 1.0000 -0.0046 0.0024
vn 1.0000 -0.0095 -0.0004
vn 1.0000 -0.0085 -0.0000
vn 1.0000 -0.0045 -0.0040
vn 1.0000 -0.0023 -0.0077
vn 1.0000 -0.0003 -0.0072
vn 1.0000 0.0049 -0.0064
vn 1.0000 0.0032 -0.0052
vn 1.0000 0.0049 -0.0009
vn 0.9999 0.0100 0.0013
vn 1.0000 0.0044 0.0018
vn 1.0000 0.0053 0.0084
vn 1.0000 0.0031 0.0039
vn 1.0000 0.0007 0.0046
vn 1.0000 -0.0038 0.0088
vn 1.0000 -0.0012 0.0038
vn -0.9999 -0.0106 -0.0013
vn -1.0000 -0.0082 -0.0012
vn -1.0000 -0.0068 0.0019
vn -0.9999 -0.0082 0.0059
vn -1.0000 -0.0036 0.0039
vn -0.9999 -0.0048 0.0091
vn -1.0000 -0.0035 0.0064
vn -1.0000 -0.0012 0.0084
vn -1.0000 0.0021 0.0086
vn -1.0000 0.0018 0.0073
vn -1.0000 0.0056 0.0070
vn -1.0000 0.0043 0.0055
vn -1.0000 0.0058 0.0037
vn -1.0000 0.0084 0.0036
vn -1.0000 0.0075 0.0009
vn -0.9999 0.0108 -0.0019
vn -1.0000 0.0084 -0.0019
vn -1.0000 0.0089 -0.0032
vn -1.0000 0.0067 -0.0072
vn -1.0000 0.0052 -0.0066
vn -1.0000 0.0016 -0.0078
vn -1.0000 0.0013 -0.0095
vn -1.0000 -0.0013 -0.0080
vn -1.0000 -0.0039 -0.0088
vn -1.0000 -0.0047 -0.0070
vn -1.0000 -0.0079 -0.0058
vn -1.0000 -0.0071 -0.0042
vn 1.0000 -0.0066 0.0020
vn 1.0000 -0.0082 -0.0011
vn 0.9999 -0.0106 -0.0018
vn 1.0000 -0.0070 -0.0041
vn 1.0000 -0.0067 -0.0072
vn 1.0000 -0.0043 -0.0069
vn 1.0000 -0.0012 -0.0095
vn 1.0000 -0.0015 -0.0081
vn 1.0000 0.0015 -0.0079
vn 1.0000 0.0040 -0.0090
vn 1.0000 0.0050 -0.0064
vn 1.0000 0.0078 -0.0058
vn 1.0000 0.0077 -0.0032
vn 0.9999 0.0111 -0.0007
vn 1.0000 0.0082 -0.0003
vn 1.0000 0.0083 0.0025
vn 1.0000 0.0063 0.0022
vn 1.0000 0.0055 0.0073
vn 1.0000 0.0047 0.0044
vn 1.0000 0.0025 0.0038
vn 1.0000 0.0010 0.0079
vn 1.0000 -0.0011 0.0044
vn 0.9999 -0.0058 0.0088
vn 1.0000 -0.0027 0.0056
vn 1.0000 -0.0041 0.0037
vn 1.0000 -0.0083 0.0037
vn -1.0000 -0.0000 -0.0000
vn -1.0000 0.0001 -0.0002
vn -1.0000 -0.0006 -0.0015
vn -1.0000 0.0018 0.0010
vn -1.0000 0.0046 -0.0019
vn -1.0000 0.0047 -0.0036
vn -1.0000 0.0033 -0.0056
vn -1.0000 0.0007 -0.0068
vn -1.0000 -0.0026 -0.0062
vn -1.0000 -0.0051 -0.0035
vn -1.0000 -0.0053 -0.0011
vn -1.0000 -0.0023 -0.0028
vn -1.0000 -0.0032 -0.0035
vn -1.0000 -0.0041 0.0037
vn -1.0000 -0.0014 0.0015
vn -1.0000 -0.0058 0.0017
vn -1.0000 0.0035 -0.0007
vn -1.0000 -0.0045 0.0051
vn -1.0000 -0.0020 0.0064
vn -1.0000 0.0011 0.0065
vn -1.0000 0.0041 0.0052
vn -1.0000 0.0056 0.0029
vn -1.0000 0.0054 0.0012
vn -1.0000 0.0019 -0.0009
vn -1.0000 0.0008 -0.0015
vn -1.0000 0.0030 -0.0030
vn -1.0000 0.0046 -0.0001
vn -1.0000 0.0035 0.0002
vn -1.0000 0.0055 -0.0000
vn -1.0000 0.0019 0.0001
vn -1.0000 0.0013 0.0004
vn -1.0000 0.0010 0.0024
vn -1.0000 0.0031 0.0034
vn -1.0000 0.0039 -0.0000
vn -1.0000 0.0010 0.0004
vn 1.0000 0.0025 0.0007
vn 1.0000 -0.0000 -0.0000
vn 1.0000 0.0025 -0.0007
vn 1.0000 0.0008 -0.0002
vn 1.0000 0.0059 0.0017
vn 1.0000 0.0045 0.0051
vn 1.0000 0.0021 0.0064
vn 1.0000 -0.0012 0.0065
vn 1.0000 -0.0040 0.0053
vn 1.0000 -0.0056 0.0028
vn 1.0000 -0.0054 0.0010
vn 1.0000 -0.0018 0.0025
vn 1.0000 -0.0032 -0.0035
vn 1.0000 -0.0028 -0.0030
vn 1.0000 -0.0054 -0.0010
vn 1.0000 -0.0053 -0.0032
vn 1.0000 -0.0028 -0.0061
vn 1.0000 0.0005 -0.0068
vn 1.0000 0.0036 -0.0055
vn 1.0000 0.0055 -0.0029
vn 1.0000 0.0055 -0.0011
vn 1.0000 0.0008 0.0003
vn -0.0000 1.0000 -0.0000
vn -0.0000 -0.0000 1.0000
vn -0.0000 1.0000 0.0089
vn 0.0311 0.9927 0.1163
vn 0.0168 0.9997 0.0167
vn 0.0219 0.9530 0.3022
vn -0.0062 0.8594 0.5113
vn 0.0208 0.6594 0.7515
vn -0.0172 0.6114 0.7911
vn 0.0160 0.3154 0.9488
vn -0.0133 0.1747 0.9845
vn 0.0133 -0.1747 0.9845
vn -0.0160 -0.3154 0.9488
vn 0.0177 -0.6114 0.7911
vn -0.0208 -0.6594 0.7515
vn 0.0062 -0.8594 0.5113
vn -0.0219 -0.9530 0.3022
vn -0.0311 -0.9927 0.1163
vn -0.0168 -0.9997 0.0167
vn -0.0000 -1.0000 0.0089
vn -0.0000 -1.0000 -0.0000
vn -0.0000 -0.0000 -1.0000
vn -0.0000 -1.0000 -0.0089
vn 0.0222 -0.9843 -0.1753
vn 0.0022 -0.9999 -0.0099
vn 0.0052 -0.9892 -0.1462
vn 0.0078 -0.8360 -0.5486
vn -0.0087 -0.8018 -0.5975
vn 0.0092 -0.4254 -0.9049
vn -0.0111 -0.3677 -0.9299
vn 0.0102 0.0760 -0.9971
vn -0.0005 0.1119 -0.9937
vn 0.0122 0.5301 -0.8479
vn -0.0138 0.4698 -0.8827
vn -0.0090 0.7834 -0.6215
vn 0.0186 0.8662 -0.4994
vn -0.0173 0.9760 -0.2169
vn -0.0237 0.9913 -0.1298
vn -0.0082 0.9999 -0.0130
vn -0.0000 1.0000 -0.0089
vt 0.101000 -0.387365
vt -0.001000 -0.415912
vt 0.101000 -0.471239
vt -0.001000 -0.471239
vt 0.101000 0.455182
vt -0.001000 0.448026
vt 0.101000 0.376642
vt -0.001000 0.348523
vt 0.101000 0.298102
vt -0.001000 0.251676
vt 0.101000 0.219563
vt -0.001000 0.173137
vt 0.101000 0.122716
vt -0.001000 0.094597
vt 0.101000 0.023213
vt -0.001000 0.016057
vt 0.101000 -0.055327
vt -0.001000 -0.062482
vt 0.101000 -0.133867
vt -0.001000 -0.141023
vt 0.101000 -0.212407
vt -0.001000 -0.219562
vt 0.101000 -0.290946
vt -0.001000 -0.319493
vt 0.101000 0.135415
vt -0.001000 0.128360
vt 0.101000 0.089134
vt -0.001000 0.084862
vt 0.101000 0.045635
vt -0.001000 0.041363
vt 0.101000 0.002136
vt -0.001000 -0.002136
vt 0.101000 -0.041363
vt -0.001000 -0.045635
vt 0.101000 -0.084862
vt -0.001000 -0.089134
vt 0.101000 -0.128361
vt -0.001000 -0.135415
vt -0.001000 -0.100629
vt -0.001000 -0.141372
vt 0.101000 0.141372
vt 0.101000 0.100629
vt -0.001000 0.128361
vt 0.101000 0.132633
vt 0.101000 -0.133171
vt -0.001000 -0.455182
vt -0.001000 0.471239
vt -0.001000 0.408756
vt -0.001000 0.330216
vt 0.101000 0.219562
vt 0.101000 0.141023
vt 0.101000 0.044175
vt 0.101000 -0.073634
vt -0.001000 -0.083874
vt 0.101000 -0.173137
vt -0.001000 -0.201255
vt 0.101000 -0.269984
vt -0.001000 -0.298102
vt -0.001000 -0.376642
vt -0.186668 -0.907059
vt -0.197304 -0.998062
vt -0.147910 -0.959125
vt -0.124133 -1.052757
vt -0.165968 -1.084158
vt -0.119432 -1.135425
vt -0.033301 -1.118020
vt -0.056973 -1.165302
vt 0.034495 -1.170630
vt 0.060208 -1.111031
vt 0.118624 -1.134340
vt 0.129527 -1.044183
vt 0.177518 -1.064153
vt 0.198648 -0.998219
vt 0.140509 -0.932330
vt 0.193294 -0.929189
vt 0.152173 -0.847311
vt 0.087703 -0.854843
vt 0.100000 -0.801795
vt 0.034495 -0.779370
vt 0.015875 -0.827090
vt -0.034730 -0.778038
vt -0.060208 -0.838969
vt -0.099324 -0.802966
vt -0.120157 -0.887298
vt -0.153209 -0.846443
vt 0.147910 -0.990875
vt 0.197304 -0.998062
vt 0.186668 -0.907059
vt 0.136031 -0.914793
vt 0.136321 -0.830509
vt 0.079216 -0.791357
vt 0.011550 -0.776688
vt -0.060207 -0.838969
vt -0.078680 -0.792598
vt -0.137248 -0.829525
vt -0.177518 -0.885847
vt -0.198648 -0.975000
vt -0.177518 -1.064153
vt -0.118624 -1.134340
vt -0.033302 -1.118020
vt -0.034495 -1.170630
vt 0.056973 -1.165302
vt 0.060207 -1.111031
vt 0.119432 -1.135425
vt 0.120157 -1.062703
vt 0.165968 -1.084158
vt -0.482411 -0.605402
vt -0.492426 -0.665423
vt -0.441767 -0.652650
vt -0.463464 -0.718940
vt -0.413516 -0.691603
vt -0.407738 -0.743384
vt -0.373439 -0.684757
vt -0.348748 -0.728446
vt -0.311373 -0.680425
vt -0.356308 -0.647885
vt -0.311373 -0.619575
vt -0.376921 -0.612840
vt -0.335658 -0.580106
vt -0.376997 -0.559163
vt -0.417471 -0.609897
vt -0.437641 -0.564188
vt 0.441350 -0.646643
vt 0.492426 -0.665423
vt 0.482411 -0.605402
vt 0.413515 -0.608397
vt 0.437641 -0.564188
vt 0.376997 -0.559163
vt 0.373439 -0.615244
vt 0.326054 -0.592445
vt 0.356308 -0.652115
vt 0.306296 -0.634364
vt 0.311373 -0.680425
vt 0.376921 -0.687160
vt 0.348748 -0.728446
vt 0.407738 -0.743384
vt 0.417471 -0.690103
vt 0.463464 -0.718940
vt -0.489853 -0.365154
vt -0.492427 -0.411423
vt -0.441350 -0.399357
vt -0.463464 -0.464940
vt -0.413515 -0.437603
vt -0.407738 -0.489384
vt -0.373439 -0.430757
vt -0.348748 -0.474446
vt -0.316450 -0.441215
vt -0.356308 -0.393885
vt -0.306296 -0.396001
vt -0.316450 -0.350785
vt -0.376921 -0.358840
vt -0.348749 -0.317554
vt -0.407738 -0.302616
vt -0.417471 -0.355897
vt -0.463464 -0.327060
vt 0.441350 -0.392643
vt 0.492427 -0.411423
vt 0.489853 -0.365154
vt 0.463464 -0.327060
vt 0.413516 -0.354397
vt 0.423321 -0.303907
vt 0.363454 -0.312024
vt 0.373439 -0.361243
vt 0.311373 -0.365575
vt 0.356308 -0.398115
vt 0.311373 -0.426426
vt 0.376921 -0.433160
vt 0.348748 -0.474446
vt 0.407738 -0.489384
vt 0.417471 -0.436103
vt 0.463464 -0.464940
vt -0.489853 -0.111154
vt -0.492426 -0.157423
vt -0.441350 -0.145357
vt -0.463464 -0.210940
vt -0.413515 -0.183603
vt -0.423321 -0.234093
vt -0.376997 -0.232837
vt -0.373439 -0.176757
vt -0.335658 -0.211894
vt -0.311373 -0.172425
vt -0.356308 -0.139885
vt -0.311373 -0.111575
vt -0.376921 -0.104840
vt -0.335658 -0.072106
vt -0.376997 -0.051163
vt -0.417471 -0.101897
vt -0.423321 -0.049907
vt -0.463464 -0.073059
vt 0.441350 -0.138643
vt 0.492426 -0.157423
vt 0.489853 -0.111154
vt 0.463464 -0.073059
vt 0.413515 -0.100397
vt 0.407738 -0.048616
vt 0.373439 -0.107243
vt 0.348749 -0.063554
vt 0.311373 -0.111575
vt 0.356308 -0.144115
vt 0.306296 -0.157636
vt 0.326054 -0.199555
vt 0.376921 -0.179160
vt 0.376997 -0.232837
vt 0.417471 -0.182103
vt 0.423321 -0.234093
vt 0.463464 -0.210940
vt -0.489853 0.142846
vt -0.492426 0.096577
vt -0.441350 0.108643
vt -0.463464 0.043060
vt -0.413515 0.070397
vt -0.423321 0.019907
vt -0.376997 0.021163
vt -0.373439 0.077243
vt -0.326054 0.054445
vt -0.356308 0.114115
vt -0.306296 0.112000
vt -0.326054 0.169555
vt -0.376921 0.149160
vt -0.392173 0.203248
vt -0.417471 0.152103
vt -0.463464 0.180941
vt 0.441917 0.124511
vt 0.492426 0.096577
vt 0.489853 0.142846
vt 0.463464 0.180941
vt 0.413515 0.153603
vt 0.423321 0.204093
vt 0.376997 0.202837
vt 0.373439 0.146757
vt 0.335658 0.181894
vt 0.311373 0.142425
vt 0.356308 0.109885
vt 0.311373 0.081575
vt 0.376921 0.074840
vt 0.348749 0.033554
vt 0.407738 0.018616
vt 0.425908 0.079132
vt 0.463464 0.043060
vt -0.441917 0.353489
vt -0.492426 0.381423
vt -0.482411 0.321402
vt -0.413515 0.324397
vt -0.437640 0.280188
vt -0.392155 0.271324
vt -0.373439 0.331243
vt -0.348748 0.287554
vt -0.311373 0.335575
vt -0.356308 0.368115
vt -0.311373 0.396425
vt -0.376921 0.403160
vt -0.348749 0.444446
vt -0.407738 0.459385
vt -0.425908 0.398867
vt -0.463464 0.434941
vt 0.482411 0.321402
vt 0.492426 0.381423
vt 0.441917 0.378511
vt 0.463464 0.434941
vt 0.413515 0.407603
vt 0.407738 0.459385
vt 0.373439 0.400757
vt 0.348749 0.444446
vt 0.311373 0.396425
vt 0.356308 0.363885
vt 0.311373 0.335575
vt 0.376921 0.328840
vt 0.348749 0.287554
vt 0.392155 0.271324
vt 0.425908 0.333133
vt 0.437640 0.280188
vt -0.441350 0.616643
vt -0.492426 0.635423
vt -0.482411 0.575402
vt -0.413515 0.578397
vt -0.437641 0.534188
vt -0.376997 0.529164
vt -0.373439 0.585243
vt -0.326054 0.562445
vt -0.356308 0.622115
vt -0.306296 0.604364
vt -0.311373 0.650426
vt -0.376921 0.657160
vt -0.348749 0.698446
vt -0.407738 0.713385
vt -0.417471 0.660103
vt -0.463464 0.688941
vt 0.482411 0.575402
vt 0.492426 0.635423
vt 0.441350 0.623357
vt 0.463464 0.688941
vt 0.413515 0.661603
vt 0.407738 0.713385
vt 0.373439 0.654757
vt 0.348749 0.698446
vt 0.311373 0.650426
vt 0.356308 0.617885
vt 0.311373 0.589575
vt 0.376921 0.582840
vt 0.348749 0.541554
vt 0.392155 0.525325
vt 0.417471 0.579897
vt 0.437641 0.534188
vt -0.147910 0.990875
vt -0.197304 0.998062
vt -0.186668 0.907059
vt -0.124133 0.897243
vt -0.136321 0.830509
vt -0.053615 0.836238
vt -0.079216 0.791357
vt -0.011550 0.776688
vt 0.022949 0.828021
vt 0.057361 0.783402
vt 0.093363 0.859187
vt 0.118624 0.815660
vt 0.167098 0.865098
vt 0.138762 0.921385
vt 0.193294 0.929189
vt 0.146979 0.997949
vt 0.198648 0.998219
vt 0.177518 1.064153
vt 0.100350 1.082208
vt 0.118624 1.134340
vt 0.034495 1.170630
vt 0.015874 1.122910
vt -0.034730 1.171962
vt -0.060208 1.111031
vt -0.099325 1.147034
vt -0.120157 1.062702
vt -0.165968 1.084159
vt 0.186668 0.907059
vt 0.197304 0.998062
vt 0.165968 1.084159
vt 0.100349 1.082208
vt 0.099325 1.147034
vt 0.034730 1.171962
vt -0.034495 1.170630
vt -0.118624 1.134340
vt -0.120157 1.062703
vt -0.177518 1.064153
vt -0.198648 0.975000
vt -0.136031 0.914793
vt -0.177518 0.885847
vt -0.087703 0.854843
vt -0.137248 0.829525
vt -0.078681 0.792599
vt -0.015875 0.827090
vt 0.011550 0.776688
vt 0.077757 0.850867
vt 0.079216 0.791357
vt 0.136321 0.830509
vt 0.550000 1.775000
vt 0.450000 1.017500
vt 0.550000 0.175000
vt 0.450000 0.932500
vt 0.450000 0.848500
vt 0.290000 0.932500
vt 0.290000 0.848500
vt 0.050000 0.855000
vt 0.200000 0.575000
vt 0.050000 0.675000
vt 0.050000 0.575000
vt -0.145000 0.535000
vt -0.145000 0.375000
vt 0.275000 1.775000
vt 0.450000 1.186500
vt 0.450000 1.101500
vt 0.290000 1.101500
vt 0.290000 1.017500
vt 0.265077 2.013074
vt 0.193294 1.904189
vt 0.167098 1.840098
vt 0.198648 1.973219
vt 0.214626 2.119874
vt 0.177518 2.039153
vt 0.133282 2.189077
vt 0.118624 2.109340
vt 0.034495 2.145630
vt 0.031646 2.221883
vt -0.034730 2.146962
vt -0.097765 2.203537
vt -0.099325 2.122034
vt -0.165968 2.059159
vt -0.222146 2.106493
vt -0.197304 1.973062
vt -0.271151 1.989075
vt -0.186668 1.882059
vt -0.275000 1.775000
vt -0.136321 1.805509
vt -0.311373 1.625426
vt -0.306296 1.579364
vt -0.550000 1.775000
vt -0.407738 1.688385
vt -0.348749 1.673446
vt -0.550000 0.175000
vt -0.492426 1.071577
vt -0.492426 1.356424
vt -0.492426 1.610424
vt -0.482411 1.550402
vt -0.463464 1.409941
vt -0.437641 1.509188
vt -0.407738 1.434384
vt -0.376997 1.504163
vt -0.348749 1.419446
vt -0.326054 1.537445
vt -0.311373 1.371426
vt -0.275000 0.175000
vt -0.407738 0.231616
vt -0.463464 0.256060
vt -0.256207 -0.085990
vt -0.186668 0.067941
vt -0.230000 0.375000
vt -0.153209 0.128558
vt -0.099324 0.172034
vt -0.197304 -0.023062
vt -0.165968 -0.109159
vt -0.177362 -0.208481
vt -0.119432 -0.160425
vt -0.084079 -0.260485
vt -0.056973 -0.190302
vt 0.046021 -0.267418
vt 0.034495 -0.195630
vt 0.118624 -0.159340
vt 0.169874 -0.214626
vt 0.177518 -0.089153
vt 0.239077 -0.133281
vt 0.198648 -0.023219
vt 0.271151 -0.039075
vt 0.193294 0.045811
vt 0.275000 0.175000
vt 0.200000 0.275000
vt 0.152173 0.127688
vt 0.100000 0.173205
vt 0.050000 0.275000
vt 0.034495 0.195630
vt -0.034730 0.196962
vt 0.450000 0.763500
vt 0.290000 0.763500
vt -0.482411 0.369598
vt -0.492427 0.563577
vt -0.492426 0.309577
vt -0.463464 0.510060
vt -0.437641 0.410812
vt -0.407738 0.485615
vt -0.376997 0.415837
vt -0.335658 0.394894
vt -0.348748 0.500554
vt -0.316450 0.533785
vt -0.311373 0.355425
vt -0.311373 0.294575
vt -0.348748 0.246554
vt -0.489853 0.609846
vt -0.492426 0.817577
vt -0.463464 0.764060
vt -0.463464 0.647941
vt -0.423321 0.740907
vt -0.407738 0.672385
vt -0.376997 0.742163
vt -0.348749 0.657446
vt -0.335658 0.763106
vt -0.316450 0.624215
vt -0.306296 0.579000
vt -0.250000 0.675000
vt -0.311373 0.802575
vt -0.230000 0.535000
vt -0.489853 0.863846
vt -0.463464 1.018060
vt -0.463464 0.901941
vt -0.423321 0.994907
vt -0.423321 0.925093
vt -0.376997 0.996163
vt -0.376997 0.923837
vt -0.326054 1.029445
vt -0.335658 0.902894
vt -0.311373 0.863426
vt -0.250000 0.855000
vt -0.482411 1.296402
vt -0.489853 1.117846
vt -0.463464 1.155941
vt -0.437640 1.255188
vt -0.392173 1.178249
vt -0.392155 1.246324
vt -0.348748 1.262553
vt -0.326054 1.144555
vt -0.311373 1.310575
vt -0.306296 1.087001
vt -0.150000 1.225000
vt -0.150000 1.025000
vt -0.463464 1.663941
vt 0.150000 1.675000
vt 0.118624 1.790660
vt 0.057361 1.758402
vt -0.010000 1.675000
vt -0.011550 1.751688
vt -0.079216 1.766357
vt -0.010000 1.590000
vt -0.010000 1.525000
vt 0.150000 1.525000
vt -0.010000 1.440000
vt -0.030000 1.225000
vt 0.150000 1.440000
vt -0.030000 1.025000
vt 0.290000 1.186500
vt 0.150000 1.590000
vt -0.325000 1.200000
vt -0.325000 0.750000
vt -0.075000 0.750000
vt -0.137248 0.145475
vt -0.078680 0.182402
vt -0.198648 -0.000000
vt -0.177518 0.089153
vt -0.177518 -0.089153
vt -0.118624 -0.159340
vt -0.034495 -0.195630
vt 0.056973 -0.190302
vt 0.119432 -0.160425
vt 0.165968 -0.109159
vt 0.197304 -0.023062
vt 0.186668 0.067941
vt 0.136321 0.144491
vt 0.306296 0.340636
vt 0.311373 0.548574
vt 0.079216 0.183643
vt 0.311373 0.609425
vt 0.306296 0.817364
vt 0.311373 0.863426
vt 0.407738 0.231616
vt 0.348748 0.246554
vt 0.492426 1.071577
vt 0.492426 0.817577
vt 0.492427 0.563577
vt 0.489853 0.609846
vt 0.463464 0.764060
vt 0.463464 0.647941
vt 0.423321 0.740907
vt 0.423321 0.671093
vt 0.376997 0.742163
vt 0.363454 0.662976
vt 0.326054 0.775445
vt 0.407738 1.688385
vt 0.463464 1.663941
vt 0.271035 1.990259
vt 0.186668 1.882059
vt 0.136321 1.805509
vt 0.197304 1.973062
vt 0.229451 2.094854
vt 0.165968 2.059159
vt 0.110305 2.197918
vt 0.099325 2.122034
vt 0.034730 2.146962
vt -0.022005 2.222833
vt -0.034495 2.145630
vt -0.144854 2.179451
vt -0.118624 2.109340
vt -0.177518 2.039153
vt -0.239077 2.083282
vt -0.198648 1.950001
vt -0.177518 1.860847
vt -0.137248 1.804525
vt -0.075000 1.200000
vt -0.078681 1.767599
vt 0.011550 1.751688
vt 0.079216 1.766357
vt 0.311373 1.310575
vt 0.311373 1.371426
vt 0.311373 1.056575
vt 0.311373 1.117426
vt 0.335658 1.156894
vt 0.348749 1.262553
vt 0.376997 1.177837
vt 0.392155 1.246324
vt 0.423321 1.179093
vt 0.311373 1.564575
vt 0.311373 1.625426
vt 0.348749 1.673446
vt 0.482411 1.550402
vt 0.492426 1.356424
vt 0.492426 1.610424
vt 0.463464 1.409941
vt 0.437641 1.509188
vt 0.407738 1.434384
vt 0.392155 1.500324
vt 0.348749 1.419446
vt 0.348749 1.516554
vt 0.482411 1.296402
vt 0.489853 1.117846
vt 0.463464 1.155941
vt 0.437640 1.255188
vt 0.489853 0.863846
vt 0.463464 1.018060
vt 0.463464 0.901941
vt 0.407738 0.993616
vt 0.407738 0.926384
vt 0.348749 0.911446
vt 0.348749 1.008554
vt 0.482411 0.369598
vt 0.492426 0.309577
vt 0.463464 0.256060
vt 0.463464 0.510060
vt 0.437641 0.410812
vt 0.407738 0.485615
vt 0.376997 0.415837
vt 0.348748 0.500554
vt 0.326054 0.382555
vt 0.311373 0.294575
vt 0.011550 0.198312
vt -0.000000 -0.100000
vt 1.600000 -0.100000
vt -0.000000 0.000000
vt 1.600000 0.000000
vt 0.275000 -0.100000
vt 0.275000 0.000000
vt -0.175000 -0.100000
vt -0.175000 0.000000
vt 0.000000 -0.089032
vt -0.100000 -0.039327
vt -0.100000 -0.139841
vt 0.000000 -0.238131
vt -0.100000 -0.247834
vt 0.000000 -0.346123
vt -0.100000 -0.385053
vt 0.000000 -0.478885
vt -0.100000 -0.517815
vt 0.000000 -0.616105
vt -0.100000 -0.625807
vt 0.000000 -0.724097
vt -0.100000 -0.774906
vt 0.000000 -0.824611
vt 0.175000 -0.100000
vt 0.175000 0.000000
vt -0.275000 -0.100000
vt -0.275000 0.000000
vt -1.600000 -0.100000
vt -1.600000 0.000000
vt 0.000000 -0.904456
vt -0.100000 -0.903265
vt 0.000000 -1.018846
vt -0.100000 -1.032670
vt 0.000000 -1.180835
vt -0.100000 -1.194659
vt 0.000000 -1.318054
vt -0.100000 -1.327757
vt 0.000000 -1.450815
vt -0.100000 -1.435748
vt -0.100000 -1.543740
vt 0.000000 -1.588035
vt -0.100000 -1.663667
vt 0.000000 -1.688549
vt -0.250000 -0.100000
vt -0.250000 0.000000
vt -0.450000 -0.100000
vt -0.450000 0.000000
vt 0.250000 -0.100000
vt 0.250000 0.000000
vt 0.450000 -0.100000
vt 0.450000 0.000000
vt -0.325000 -0.225000
vt -0.075000 -0.225000
vt -0.325000 0.225000
vt -0.075000 0.225000
vt -0.145000 0.080000
vt -0.230000 0.080000
vt -0.145000 0.000000
vt -0.230000 0.000000
vt -0.440000 0.080000
vt -0.600000 0.080000
vt -0.440000 0.000000
vt -0.600000 0.000000
vt 0.230000 0.080000
vt 0.145000 0.080000
vt 0.230000 0.000000
vt 0.145000 0.000000
vt 0.600000 0.080000
vt 0.440000 0.080000
vt 0.600000 0.000000
vt 0.440000 0.000000
vt -0.145000 -0.440000
vt -0.230000 -0.440000
vt -0.145000 -0.600000
vt -0.230000 -0.600000
vt 0.450000 0.080000
vt 0.290000 0.080000
vt 0.290000 0.000000
vt -0.126500 0.080000
vt -0.211500 0.080000
vt -0.126500 0.000000
vt -0.211500 0.000000
vt -0.290000 0.080000
vt -0.450000 0.080000
vt -0.290000 0.000000
vt 0.211500 0.080000
vt 0.126500 0.080000
vt 0.211500 0.000000
vt 0.126500 0.000000
vt 0.450000 -0.126500
vt 0.290000 -0.126500
vt 0.450000 -0.211500
vt 0.290000 -0.211500
vt 0.042500 0.080000
vt -0.042500 0.080000
vt 0.042500 0.000000
vt -0.042500 0.000000
vt 0.450000 0.042500
vt 0.290000 0.042500
vt 0.450000 -0.042500
vt 0.290000 -0.042500
vt 0.450000 0.211500
vt 0.290000 0.211500
vt 0.450000 0.126500
vt 0.290000 0.126500
vt 0.150000 0.050000
vt -0.010000 0.050000
vt 0.150000 0.000000
vt -0.010000 0.000000
vt 0.700000 0.050000
vt 0.615000 0.050000
vt 0.700000 0.000000
vt 0.615000 0.000000
vt 0.010000 0.050000
vt -0.150000 0.050000
vt 0.010000 0.000000
vt -0.150000 0.000000
vt -0.615000 0.050000
vt -0.700000 0.050000
vt -0.615000 0.000000
vt -0.700000 0.000000
vt 0.150000 0.700000
vt -0.010000 0.700000
vt 0.150000 0.615000
vt -0.010000 0.615000
vt 0.550000 0.050000
vt 0.465000 0.050000
vt 0.550000 0.000000
vt 0.465000 0.000000
vt -0.465000 0.050000
vt -0.550000 0.050000
vt -0.465000 0.000000
vt -0.550000 0.000000
vt 0.150000 0.550000
vt -0.010000 0.550000
vt 0.150000 0.465000
vt -0.010000 0.465000
vt 0.300000 0.050000
vt 0.120000 0.050000
vt 0.300000 0.000000
vt 0.120000 0.000000
vt 0.050000 0.050000
vt -0.250000 0.050000
vt 0.050000 0.000000
vt -0.120000 0.050000
vt -0.300000 0.050000
vt -0.120000 0.000000
vt -0.300000 0.000000
vt 0.250000 0.050000
vt -0.050000 0.050000
vt -0.050000 0.000000
vt 0.050000 -0.120000
vt -0.250000 -0.120000
vt 0.050000 -0.300000
vt -0.250000 -0.300000
vt 0.200000 0.100000
vt 0.050000 0.100000
vt 0.200000 0.000000
vt -0.400000 0.100000
vt -0.700000 0.100000
vt -0.400000 0.000000
vt -0.050000 0.100000
vt -0.200000 0.100000
vt -0.200000 0.000000
vt 0.700000 0.100000
vt 0.400000 0.100000
vt 0.400000 0.000000
vt 0.200000 -0.400000
vt 0.050000 -0.400000
vt 0.200000 -0.700000
vt 0.050000 -0.700000
vt -0.030000 0.100000
vt -0.150000 0.100000
vt -0.030000 0.000000
vt 0.250000 0.100000
vt 0.150000 0.100000
vt 0.030000 0.100000
vt 0.030000 0.000000
vt -0.250000 0.100000
vt -0.030000 0.250000
vt -0.150000 0.250000
vt -0.030000 0.050000
s 1
usemtl 243,203,124
f 171/1/1 415/2/2 176/3/3
f 176/3/3 415/2/2 417/4/4
f 176/5/3 417/6/4 180/7/5
f 180/7/5 417/6/4 419/8/6
f 180/7/5 419/8/6 183/9/7
f 183/9/7 419/8/6 422/10/8
f 183/9/7 422/10/8 184/11/9
f 184/11/9 422/10/8 421/12/10
f 184/11/9 421/12/10 181/13/11
f 181/13/11 421/12/10 420/14/12
f 181/13/11 420/14/12 177/15/13
f 177/15/13 420/14/12 418/16/14
f 177/15/13 418/16/14 173/17/15
f 173/17/15 418/16/14 416/18/16
f 173/17/15 416/18/16 169/19/17
f 169/19/17 416/18/16 414/20/18
f 169/19/17 414/20/18 167/21/19
f 167/21/19 414/20/18 412/22/20
f 167/21/19 412/22/20 168/23/21
f 168/23/21 412/22/20 413/24/22
f 168/23/21 413/24/22 171/1/1
f 171/1/1 413/24/22 415/2/2
f 152/25/23 408/26/24 158/27/25
f 158/27/25 408/26/24 411/28/26
f 158/27/25 411/28/26 157/29/27
f 157/29/27 411/28/26 410/30/28
f 157/29/27 410/30/28 154/31/29
f 154/31/29 410/30/28 409/32/30
f 154/31/29 409/32/30 151/33/31
f 151/33/31 409/32/30 407/34/32
f 151/33/31 407/34/32 150/35/33
f 150/35/33 407/34/32 406/36/34
f 150/35/33 406/36/34 152/37/23
f 152/37/23 406/36/34 408/38/24
f 137/37/35 400/39/36 403/40/37
f 137/41/35 403/26/37 141/42/38
f 141/42/38 403/26/37 405/28/39
f 141/42/38 405/28/39 142/29/40
f 142/29/40 405/28/39 404/30/41
f 142/29/40 404/30/41 138/31/29
f 138/31/29 404/30/41 402/32/30
f 138/31/29 402/32/30 136/33/31
f 136/33/31 402/32/30 401/34/42
f 136/33/31 401/34/42 135/35/43
f 135/35/43 401/34/42 400/39/36
f 135/35/43 400/39/36 137/37/35
f 121/37/44 394/39/45 397/40/46
f 121/25/44 397/43/46 126/27/47
f 126/27/47 397/43/46 399/28/48
f 126/27/47 399/28/48 124/29/27
f 124/29/27 399/28/48 398/30/41
f 124/29/27 398/30/41 123/31/29
f 123/31/29 398/30/41 396/32/30
f 123/31/29 396/32/30 119/33/49
f 119/33/49 396/32/30 395/34/50
f 119/33/49 395/34/50 118/35/51
f 118/35/51 395/34/50 394/39/45
f 118/35/51 394/39/45 121/37/44
f 104/25/23 390/43/24 109/27/52
f 109/27/52 390/43/24 393/28/26
f 109/27/52 393/28/26 107/29/27
f 107/29/27 393/28/26 392/30/53
f 107/29/27 392/30/53 105/31/29
f 105/31/29 392/30/53 391/32/30
f 105/31/29 391/32/30 102/33/31
f 102/33/31 391/32/30 389/34/32
f 102/33/31 389/34/32 101/35/33
f 101/35/33 389/34/32 388/36/34
f 101/35/33 388/36/34 104/37/23
f 104/37/23 388/36/34 390/38/24
f 86/25/54 384/43/24 91/27/25
f 91/27/25 384/43/24 387/28/26
f 91/27/25 387/28/26 89/29/27
f 89/29/27 387/28/26 386/30/55
f 89/29/27 386/30/55 88/31/29
f 88/31/29 386/30/55 385/32/30
f 88/31/29 385/32/30 84/33/31
f 84/33/31 385/32/30 383/34/56
f 84/33/31 383/34/56 83/35/33
f 83/35/33 383/34/56 382/36/34
f 83/35/33 382/36/34 86/37/54
f 86/37/54 382/36/34 384/38/24
f 70/44/23 378/43/24 75/27/25
f 75/27/25 378/43/24 381/28/26
f 75/27/25 381/28/26 73/29/27
f 73/29/27 381/28/26 380/30/41
f 73/29/27 380/30/41 71/31/29
f 71/31/29 380/30/41 379/32/30
f 71/31/29 379/32/30 68/33/49
f 68/33/49 379/32/30 377/34/32
f 68/33/49 377/34/32 67/35/33
f 67/35/33 377/34/32 376/36/34
f 67/35/33 376/36/34 70/45/23
f 70/45/23 376/36/34 378/38/24
f 45/1/57 369/46/58 49/3/59
f 49/5/59 369/47/58 371/48/60
f 49/5/59 371/48/60 53/7/61
f 53/7/61 371/48/60 373/49/62
f 53/7/61 373/49/62 57/9/63
f 57/9/63 373/49/62 375/10/64
f 57/9/63 375/10/64 58/50/65
f 58/50/65 375/10/64 374/12/66
f 58/50/65 374/12/66 54/51/67
f 54/51/67 374/12/66 372/14/68
f 54/51/67 372/14/68 50/52/69
f 50/52/69 372/14/68 370/16/70
f 50/52/69 370/16/70 46/53/71
f 46/53/71 370/16/70 368/54/72
f 46/53/71 368/54/72 42/55/73
f 42/55/73 368/54/72 365/56/74
f 42/55/73 365/56/74 41/57/75
f 41/57/75 365/56/74 366/58/76
f 41/57/75 366/58/76 45/1/57
f 45/1/57 366/58/76 367/59/77
f 45/1/57 367/59/77 369/46/58
f 52/60/78 47/61/79 49/62/80
f 49/62/80 47/61/79 45/63/81
f 45/63/81 47/61/79 43/64/82
f 45/63/81 43/64/82 40/65/83
f 45/63/81 40/65/83 41/66/84
f 41/66/84 40/65/83 38/67/85
f 41/66/84 38/67/85 37/68/86
f 41/66/84 37/68/86 42/69/87
f 42/69/87 37/68/86 39/70/88
f 42/69/87 39/70/88 46/71/89
f 46/71/89 39/70/88 44/72/90
f 46/71/89 44/72/90 48/73/91
f 46/71/89 48/73/91 50/74/92
f 50/74/92 48/73/91 51/75/93
f 50/74/92 51/75/93 55/76/94
f 50/74/92 55/76/94 54/77/95
f 54/77/95 55/76/94 60/78/96
f 54/77/95 60/78/96 61/79/97
f 54/77/95 61/79/97 58/80/98
f 58/80/98 61/79/97 62/81/99
f 58/80/98 62/81/99 57/82/100
f 57/82/100 62/81/99 59/83/101
f 57/82/100 59/83/101 53/84/102
f 53/84/102 59/83/101 56/85/103
f 53/84/102 56/85/103 52/60/78
f 53/84/102 52/60/78 49/62/80
f 369/86/104 260/87/105 262/88/106
f 369/86/104 262/88/106 371/89/107
f 371/89/107 262/88/106 264/90/108
f 371/89/107 264/90/108 373/77/109
f 373/77/109 264/90/108 271/91/110
f 373/77/109 271/91/110 375/80/111
f 375/80/111 271/91/110 272/92/112
f 375/80/111 272/92/112 374/93/113
f 374/93/113 272/92/112 266/94/114
f 374/93/113 266/94/114 265/95/115
f 374/93/113 265/95/115 372/84/116
f 372/84/116 265/95/115 263/96/117
f 372/84/116 263/96/117 370/62/118
f 370/62/118 263/96/117 261/97/119
f 370/62/118 261/97/119 368/63/120
f 368/63/120 261/97/119 258/98/121
f 368/63/120 258/98/121 253/99/122
f 368/63/120 253/99/122 365/100/123
f 365/100/123 253/99/122 251/101/124
f 365/100/123 251/101/124 252/102/125
f 365/100/123 252/102/125 366/103/126
f 366/103/126 252/102/125 254/104/127
f 366/103/126 254/104/127 367/105/128
f 367/105/128 254/104/127 257/106/129
f 367/105/128 257/106/129 369/86/104
f 369/86/104 257/106/129 260/87/105
f 74/107/130 69/108/131 70/109/132
f 70/109/132 69/108/131 65/110/133
f 70/109/132 65/110/133 67/111/134
f 67/111/134 65/110/133 63/112/135
f 67/111/134 63/112/135 68/113/136
f 68/113/136 63/112/135 64/114/137
f 68/113/136 64/114/137 66/115/138
f 68/113/136 66/115/138 71/116/139
f 71/116/139 66/115/138 72/117/140
f 71/116/139 72/117/140 73/118/141
f 73/118/141 72/117/140 76/119/142
f 73/118/141 76/119/142 78/120/143
f 73/118/141 78/120/143 75/121/144
f 75/121/144 78/120/143 77/122/145
f 75/121/144 77/122/145 74/107/130
f 75/121/144 74/107/130 70/109/132
f 378/123/146 277/124/147 279/125/148
f 378/123/146 279/125/148 381/126/149
f 381/126/149 279/125/148 281/127/150
f 381/126/149 281/127/150 282/128/151
f 381/126/149 282/128/151 380/129/152
f 380/129/152 282/128/151 280/130/153
f 380/129/152 280/130/153 379/131/154
f 379/131/154 280/130/153 278/132/155
f 379/131/154 278/132/155 276/133/156
f 379/131/154 276/133/156 377/134/157
f 377/134/157 276/133/156 274/135/158
f 377/134/157 274/135/158 273/136/159
f 377/134/157 273/136/159 376/137/160
f 376/137/160 273/136/159 275/138/161
f 376/137/160 275/138/161 378/123/146
f 378/123/146 275/138/161 277/124/147
f 90/139/162 85/140/163 86/141/164
f 86/141/164 85/140/163 81/142/165
f 86/141/164 81/142/165 83/143/166
f 83/143/166 81/142/165 79/144/167
f 83/143/166 79/144/167 84/145/168
f 84/145/168 79/144/167 80/146/169
f 84/145/168 80/146/169 82/147/170
f 84/145/168 82/147/170 88/148/171
f 88/148/171 82/147/170 87/149/172
f 88/148/171 87/149/172 92/150/173
f 88/148/171 92/150/173 89/151/174
f 89/151/174 92/150/173 94/152/175
f 89/151/174 94/152/175 95/153/176
f 89/151/174 95/153/176 91/154/177
f 91/154/177 95/153/176 93/155/178
f 91/154/177 93/155/178 86/141/164
f 86/141/164 93/155/178 90/139/162
f 384/156/179 287/157/180 289/158/181
f 384/156/179 289/158/181 290/159/182
f 384/156/179 290/159/182 387/160/183
f 387/160/183 290/159/182 292/161/184
f 387/160/183 292/161/184 291/162/185
f 387/160/183 291/162/185 386/163/186
f 386/163/186 291/162/185 288/164/187
f 386/163/186 288/164/187 385/165/188
f 385/165/188 288/164/187 286/166/189
f 385/165/188 286/166/189 383/167/190
f 383/167/190 286/166/189 284/168/191
f 383/167/190 284/168/191 283/169/192
f 383/167/190 283/169/192 382/170/193
f 382/170/193 283/169/192 285/171/194
f 382/170/193 285/171/194 384/156/179
f 384/156/179 285/171/194 287/157/180
f 108/172/195 103/173/196 104/174/164
f 104/174/164 103/173/196 98/175/197
f 104/174/164 98/175/197 101/176/198
f 101/176/198 98/175/197 97/177/199
f 101/176/198 97/177/199 96/178/200
f 101/176/198 96/178/200 102/179/201
f 102/179/201 96/178/200 99/180/202
f 102/179/201 99/180/202 100/181/203
f 102/179/201 100/181/203 105/182/204
f 105/182/204 100/181/203 106/183/205
f 105/182/204 106/183/205 107/184/141
f 107/184/141 106/183/205 111/185/206
f 107/184/141 111/185/206 112/186/207
f 107/184/141 112/186/207 109/187/208
f 109/187/208 112/186/207 113/188/209
f 109/187/208 113/188/209 110/189/210
f 109/187/208 110/189/210 104/174/164
f 104/174/164 110/189/210 108/172/195
f 390/190/179 299/191/180 302/192/211
f 390/190/179 302/192/211 303/193/212
f 390/190/179 303/193/212 393/194/213
f 393/194/213 303/193/212 305/195/214
f 393/194/213 305/195/214 392/196/215
f 392/196/215 305/195/214 304/197/216
f 392/196/215 304/197/216 301/198/217
f 392/196/215 301/198/217 391/199/218
f 391/199/218 301/198/217 300/200/219
f 391/199/218 300/200/219 298/201/220
f 391/199/218 298/201/220 389/202/221
f 389/202/221 298/201/220 293/203/222
f 389/202/221 293/203/222 388/204/223
f 388/204/223 293/203/222 294/205/224
f 388/204/223 294/205/224 297/206/225
f 388/204/223 297/206/225 390/190/179
f 390/190/179 297/206/225 299/191/180
f 125/207/226 120/208/163 121/209/164
f 121/209/164 120/208/163 116/210/197
f 121/209/164 116/210/197 118/211/198
f 118/211/198 116/210/197 115/212/199
f 118/211/198 115/212/199 114/213/227
f 118/211/198 114/213/227 119/214/228
f 119/214/228 114/213/227 117/215/229
f 119/214/228 117/215/229 123/216/230
f 123/216/230 117/215/229 122/217/231
f 123/216/230 122/217/231 127/218/232
f 123/216/230 127/218/232 124/219/233
f 124/219/233 127/218/232 129/220/234
f 124/219/233 129/220/234 126/221/235
f 126/221/235 129/220/234 128/222/236
f 126/221/235 128/222/236 121/209/164
f 121/209/164 128/222/236 125/207/226
f 397/223/237 310/224/238 312/225/239
f 397/223/237 312/225/239 313/226/212
f 397/223/237 313/226/212 399/227/240
f 399/227/240 313/226/212 316/228/241
f 399/227/240 316/228/241 315/229/242
f 399/227/240 315/229/242 398/230/243
f 398/230/243 315/229/242 314/231/244
f 398/230/243 314/231/244 311/232/245
f 398/230/243 311/232/245 396/233/246
f 396/233/246 311/232/245 309/234/247
f 396/233/246 309/234/247 395/235/248
f 395/235/248 309/234/247 307/236/249
f 395/235/248 307/236/249 306/237/250
f 395/235/248 306/237/250 394/238/251
f 394/238/251 306/237/250 308/239/225
f 394/238/251 308/239/225 310/224/238
f 394/238/251 310/224/238 397/223/237
f 137/240/252 139/241/253 133/242/254
f 137/240/252 133/242/254 135/243/255
f 135/243/255 133/242/254 131/244/256
f 135/243/255 131/244/256 130/245/257
f 135/243/255 130/245/257 136/246/258
f 136/246/258 130/245/257 132/247/259
f 136/246/258 132/247/259 134/248/260
f 136/246/258 134/248/260 138/249/261
f 138/249/261 134/248/260 140/250/262
f 138/249/261 140/250/262 142/251/263
f 142/251/263 140/250/262 144/252/264
f 142/251/263 144/252/264 145/253/265
f 142/251/263 145/253/265 141/254/266
f 141/254/266 145/253/265 143/255/267
f 141/254/266 143/255/267 139/241/253
f 141/254/266 139/241/253 137/240/252
f 322/256/268 324/257/269 403/258/270
f 403/258/270 324/257/269 326/259/271
f 403/258/270 326/259/271 405/260/272
f 405/260/272 326/259/271 328/261/273
f 405/260/272 328/261/273 404/262/274
f 404/262/274 328/261/273 327/263/275
f 404/262/274 327/263/275 325/264/276
f 404/262/274 325/264/276 402/265/277
f 402/265/277 325/264/276 323/266/278
f 402/265/277 323/266/278 401/267/279
f 401/267/279 323/266/278 321/268/280
f 401/267/279 321/268/280 319/269/281
f 401/267/279 319/269/281 400/270/282
f 400/270/282 319/269/281 320/271/283
f 400/270/282 320/271/283 322/256/268
f 400/270/282 322/256/268 403/258/270
f 152/272/284 155/273/285 149/274/286
f 152/272/284 149/274/286 150/275/287
f 150/275/287 149/274/286 147/276/288
f 150/275/287 147/276/288 146/277/289
f 150/275/287 146/277/289 151/278/228
f 151/278/228 146/277/289 148/279/290
f 151/278/228 148/279/290 154/280/291
f 154/280/291 148/279/290 153/281/292
f 154/280/291 153/281/292 156/282/293
f 154/280/291 156/282/293 157/283/294
f 157/283/294 156/282/293 160/284/295
f 157/283/294 160/284/295 161/285/296
f 157/283/294 161/285/296 158/286/297
f 158/286/297 161/285/296 159/287/298
f 158/286/297 159/287/298 152/272/284
f 152/272/284 159/287/298 155/273/285
f 332/288/299 334/289/300 408/290/301
f 408/290/301 334/289/300 336/291/302
f 408/290/301 336/291/302 411/292/303
f 411/292/303 336/291/302 338/293/304
f 411/292/303 338/293/304 410/294/305
f 410/294/305 338/293/304 337/295/306
f 410/294/305 337/295/306 335/296/307
f 410/294/305 335/296/307 409/297/308
f 409/297/308 335/296/307 333/298/309
f 409/297/308 333/298/309 407/299/310
f 407/299/310 333/298/309 331/300/311
f 407/299/310 331/300/311 329/301/312
f 407/299/310 329/301/312 406/302/313
f 406/302/313 329/301/312 330/303/314
f 406/302/313 330/303/314 332/288/299
f 406/302/313 332/288/299 408/290/301
f 176/304/315 175/305/316 172/306/317
f 176/304/315 172/306/317 171/307/318
f 171/307/318 172/306/317 166/308/319
f 171/307/318 166/308/319 168/309/320
f 168/309/320 166/308/319 164/310/321
f 168/309/320 164/310/321 162/311/322
f 168/309/320 162/311/322 167/312/323
f 167/312/323 162/311/322 163/313/324
f 167/312/323 163/313/324 169/314/325
f 169/314/325 163/313/324 165/315/326
f 169/314/325 165/315/326 170/316/327
f 169/314/325 170/316/327 173/317/328
f 173/317/328 170/316/327 174/318/329
f 173/317/328 174/318/329 177/319/330
f 177/319/330 174/318/329 178/320/331
f 177/319/330 178/320/331 179/321/332
f 177/319/330 179/321/332 181/322/333
f 181/322/333 179/321/332 185/323/334
f 181/322/333 185/323/334 187/324/335
f 181/322/333 187/324/335 184/325/336
f 184/325/336 187/324/335 188/326/337
f 184/325/336 188/326/337 183/327/338
f 183/327/338 188/326/337 186/328/339
f 183/327/338 186/328/339 180/329/340
f 180/329/340 186/328/339 182/330/341
f 180/329/340 182/330/341 176/304/315
f 176/304/315 182/330/341 175/305/316
f 349/331/342 352/332/343 417/319/344
f 417/319/344 352/332/343 355/333/345
f 417/319/344 355/333/345 419/334/346
f 419/334/346 355/333/345 359/335/347
f 419/334/346 359/335/347 422/325/348
f 422/325/348 359/335/347 362/336/349
f 422/325/348 362/336/349 360/337/350
f 422/325/348 360/337/350 421/327/351
f 421/327/351 360/337/350 358/338/352
f 421/327/351 358/338/352 420/339/353
f 420/339/353 358/338/352 354/340/354
f 420/339/353 354/340/354 418/304/355
f 418/304/355 354/340/354 350/341/356
f 418/304/355 350/341/356 416/342/357
f 416/342/357 350/341/356 348/343/358
f 416/342/357 348/343/358 414/344/359
f 414/344/359 348/343/358 347/345/360
f 414/344/359 347/345/360 340/346/361
f 414/344/359 340/346/361 412/347/362
f 412/347/362 340/346/361 339/348/363
f 412/347/362 339/348/363 413/349/364
f 413/349/364 339/348/363 341/350/365
f 413/349/364 341/350/365 346/351/366
f 413/349/364 346/351/366 415/317/367
f 415/317/367 346/351/366 349/331/342
f 415/317/367 349/331/342 417/319/344
usemtl 64,64,64
f 239/352/368 219/353/368 199/354/368
f 199/354/368 219/353/368 217/355/368
f 199/354/368 217/355/368 213/356/368
f 213/356/368 217/355/368 216/357/368
f 213/356/368 216/357/368 212/358/368
f 212/358/368 216/357/368 215/359/368
f 212/358/368 215/359/368 207/360/368
f 207/360/368 215/359/368 209/361/368
f 207/360/368 209/361/368 206/362/369
f 206/362/369 209/361/368 205/363/368
f 206/362/369 205/363/368 203/364/370
f 238/365/371 225/366/368 239/352/368
f 239/352/368 225/366/368 223/367/368
f 239/352/368 223/367/368 219/353/368
f 219/353/368 223/367/368 222/368/368
f 219/353/368 222/368/368 218/369/368
f 218/369/368 222/368/368 215/359/368
f 218/369/368 215/359/368 216/357/368
f 241/370/372 174/371/329 238/365/371
f 238/365/371 174/371/329 170/372/327
f 174/371/329 241/370/372 178/373/331
f 241/370/372 243/374/373 178/373/331
f 178/373/331 243/374/373 179/375/332
f 179/375/332 243/374/373 245/376/374
f 179/375/332 245/376/374 185/377/334
f 185/377/334 245/376/374 187/378/335
f 187/378/335 245/376/374 246/379/375
f 187/378/335 246/379/375 188/380/337
f 188/380/337 246/379/375 244/381/376
f 188/380/337 244/381/376 186/382/339
f 186/382/339 244/381/376 182/383/341
f 182/383/341 244/381/376 242/384/377
f 182/383/341 242/384/377 175/385/316
f 175/385/316 242/384/377 240/386/378
f 175/385/316 240/386/378 172/387/317
f 172/387/317 240/386/378 237/388/379
f 172/387/317 237/388/379 166/389/319
f 166/389/319 237/388/379 156/390/293
f 166/389/319 156/390/293 153/391/292
f 236/392/380 161/393/296 237/388/379
f 237/388/379 161/393/296 160/394/295
f 196/395/381 120/396/163 236/392/380
f 236/392/380 120/396/163 139/397/253
f 236/392/380 139/397/253 155/398/285
f 155/398/285 139/397/253 149/399/286
f 149/399/286 139/397/253 143/400/267
f 149/399/286 143/400/267 147/401/288
f 147/401/288 143/400/267 145/402/265
f 147/401/288 145/402/265 146/403/289
f 146/403/289 145/402/265 144/404/264
f 146/403/289 144/404/264 148/405/290
f 148/405/290 144/404/264 140/406/262
f 197/407/382 63/408/135 196/395/381
f 196/395/381 63/408/135 65/409/133
f 193/410/383 52/411/78 197/407/382
f 197/407/382 52/411/78 202/412/384
f 202/412/384 52/411/78 56/413/103
f 202/412/384 56/413/103 203/364/370
f 203/364/370 56/413/103 59/414/101
f 52/411/78 193/410/383 47/415/79
f 47/415/79 193/410/383 43/416/82
f 43/416/82 193/410/383 191/417/385
f 43/416/82 191/417/385 40/418/83
f 40/418/83 191/417/385 190/419/386
f 40/418/83 190/419/386 38/420/85
f 38/420/85 190/419/386 189/421/387
f 38/420/85 189/421/387 37/422/86
f 37/422/86 189/421/387 39/423/88
f 39/423/88 189/421/387 192/424/388
f 39/423/88 192/424/388 44/425/90
f 44/425/90 192/424/388 194/426/389
f 44/425/90 194/426/389 48/427/91
f 48/427/91 194/426/389 195/428/390
f 48/427/91 195/428/390 51/429/93
f 51/429/93 195/428/390 198/430/391
f 51/429/93 198/430/391 201/431/392
f 51/429/93 201/431/392 55/432/94
f 55/432/94 201/431/392 60/433/96
f 60/433/96 201/431/392 200/434/393
f 60/433/96 200/434/393 61/435/97
f 61/435/97 200/434/393 62/436/99
f 62/436/99 200/434/393 206/362/369
f 62/436/99 206/362/369 203/364/370
f 199/354/368 211/437/368 198/430/391
f 198/430/391 211/437/368 210/438/368
f 198/430/391 210/438/368 207/360/368
f 207/360/368 210/438/368 212/358/368
f 59/414/101 62/436/99 203/364/370
f 74/439/130 85/440/163 69/441/131
f 69/441/131 85/440/163 196/395/381
f 69/441/131 196/395/381 65/409/133
f 74/439/130 81/442/165 85/440/163
f 81/442/165 74/439/130 77/443/145
f 81/442/165 77/443/145 79/444/167
f 79/444/167 77/443/145 78/445/143
f 76/446/142 80/447/169 78/445/143
f 78/445/143 80/447/169 79/444/167
f 80/447/169 76/446/142 82/448/170
f 82/448/170 76/446/142 72/449/140
f 82/448/170 72/449/140 202/412/384
f 202/412/384 72/449/140 66/450/138
f 202/412/384 66/450/138 197/407/382
f 197/407/382 66/450/138 64/451/137
f 197/407/382 64/451/137 63/408/135
f 90/452/162 103/453/196 85/440/163
f 85/440/163 103/453/196 196/395/381
f 196/395/381 103/453/196 120/396/163
f 103/453/196 90/452/162 98/454/197
f 98/454/197 90/452/162 93/455/178
f 98/454/197 93/455/178 97/456/199
f 97/456/199 93/455/178 95/457/176
f 97/456/199 95/457/176 96/458/200
f 96/458/200 95/457/176 94/459/175
f 96/458/200 94/459/175 99/460/202
f 99/460/202 94/459/175 92/461/173
f 87/462/172 208/463/394 92/461/173
f 92/461/173 208/463/394 100/464/203
f 92/461/173 100/464/203 99/460/202
f 208/463/394 87/462/172 204/465/395
f 204/465/395 87/462/172 82/448/170
f 120/396/163 103/453/196 108/466/195
f 120/396/163 108/466/195 116/467/197
f 116/467/197 108/466/195 110/468/210
f 116/467/197 110/468/210 115/469/199
f 115/469/199 110/468/210 113/470/209
f 115/469/199 113/470/209 114/471/227
f 114/471/227 113/470/209 112/472/207
f 114/471/227 112/472/207 117/473/229
f 117/473/229 112/472/207 111/474/206
f 117/473/229 111/474/206 106/475/205
f 117/473/229 106/475/205 214/476/396
f 214/476/396 106/475/205 100/464/203
f 214/476/396 100/464/203 208/463/394
f 139/397/253 120/396/163 133/477/254
f 133/477/254 120/396/163 125/478/226
f 133/477/254 125/478/226 128/479/236
f 133/477/254 128/479/236 131/480/256
f 131/480/256 128/479/236 129/481/234
f 131/480/256 129/481/234 130/482/257
f 130/482/257 129/481/234 132/483/259
f 132/483/259 129/481/234 127/484/232
f 132/483/259 127/484/232 134/485/260
f 134/485/260 127/484/232 122/486/231
f 134/485/260 122/486/231 226/487/397
f 134/485/260 226/487/397 140/406/262
f 140/406/262 226/487/397 153/391/292
f 140/406/262 153/391/292 148/405/290
f 226/487/397 122/486/231 220/488/398
f 220/488/398 122/486/231 214/476/396
f 214/476/396 122/486/231 117/473/229
f 236/392/380 155/398/285 159/489/298
f 159/489/298 161/393/296 236/392/380
f 160/394/295 156/390/293 237/388/379
f 238/365/371 170/372/327 235/490/399
f 235/490/399 170/372/327 165/491/326
f 165/491/326 163/492/324 235/490/399
f 235/490/399 163/492/324 234/493/400
f 234/493/400 163/492/324 162/494/322
f 162/494/322 164/495/321 234/493/400
f 234/493/400 164/495/321 232/496/401
f 232/496/401 164/495/321 230/497/402
f 232/496/401 230/497/402 231/498/368
f 164/495/321 166/389/319 230/497/402
f 230/497/402 166/389/319 226/487/397
f 230/497/402 226/487/397 228/499/368
f 228/499/368 226/487/397 227/500/368
f 228/499/368 227/500/368 229/501/368
f 229/501/368 227/500/368 221/502/368
f 229/501/368 221/502/368 215/359/368
f 215/359/368 221/502/368 220/488/398
f 215/359/368 220/488/398 214/476/396
f 226/487/397 166/389/319 153/391/292
f 202/412/384 204/465/395 82/448/170
f 204/465/395 205/363/368 208/463/394
f 208/463/394 205/363/368 209/361/368
f 213/356/368 211/437/368 199/354/368
f 215/359/368 222/368/368 229/501/368
f 229/501/368 222/368/368 224/503/368
f 229/501/368 224/503/368 238/365/371
f 238/365/371 224/503/368 225/366/368
f 235/490/399 233/504/368 238/365/371
f 238/365/371 233/504/368 231/498/368
f 238/365/371 231/498/368 229/501/368
f 233/504/368 232/496/401 231/498/368
f 207/360/368 201/431/392 198/430/391
f 344/388/403 345/392/404 318/505/404
f 318/505/404 345/392/404 270/395/404
f 318/505/404 270/395/404 296/506/404
f 296/506/404 270/395/404 269/407/405
f 296/506/404 269/407/405 295/507/406
f 295/507/406 269/407/405 265/508/115
f 295/507/406 265/508/115 266/509/114
f 256/410/407 261/510/119 269/407/405
f 269/407/405 261/510/119 263/511/117
f 261/510/119 256/410/407 258/512/121
f 258/512/121 256/410/407 250/417/408
f 258/512/121 250/417/408 253/513/122
f 253/513/122 250/417/408 248/419/409
f 253/513/122 248/419/409 251/514/124
f 251/514/124 248/419/409 247/421/410
f 251/514/124 247/421/410 252/515/125
f 252/515/125 247/421/410 254/516/127
f 254/516/127 247/421/410 249/424/411
f 254/516/127 249/424/411 257/517/129
f 257/517/129 249/424/411 255/426/412
f 257/517/129 255/426/412 260/518/105
f 260/518/105 255/426/412 259/428/413
f 260/518/105 259/428/413 262/519/106
f 262/519/106 259/428/413 268/430/414
f 262/519/106 268/430/414 264/520/108
f 264/520/108 268/430/414 278/521/155
f 264/520/108 278/521/155 286/522/189
f 264/520/108 286/522/189 271/523/110
f 271/523/110 286/522/189 288/524/187
f 271/523/110 288/524/187 295/507/406
f 295/507/406 288/524/187 300/525/219
f 295/507/406 300/525/219 301/526/217
f 267/354/366 273/527/159 268/430/414
f 268/430/414 273/527/159 274/528/158
f 342/352/415 310/529/238 267/354/366
f 267/354/366 310/529/238 299/530/180
f 267/354/366 299/530/180 287/531/180
f 287/531/180 299/530/180 289/532/181
f 289/532/181 299/530/180 297/533/225
f 289/532/181 297/533/225 290/534/182
f 290/534/182 297/533/225 294/535/224
f 290/534/182 294/535/224 292/536/184
f 292/536/184 294/535/224 293/537/222
f 292/536/184 293/537/222 291/538/185
f 291/538/185 293/537/222 298/539/220
f 291/538/185 298/539/220 288/524/187
f 288/524/187 298/539/220 300/525/219
f 343/365/416 338/540/304 342/352/415
f 342/352/415 338/540/304 336/541/302
f 351/542/417 349/543/342 343/365/416
f 343/365/416 349/543/342 346/544/366
f 349/543/342 351/542/417 352/545/343
f 352/545/343 351/542/417 356/546/418
f 352/545/343 356/546/418 355/547/345
f 355/547/345 356/546/418 363/548/419
f 355/547/345 363/548/419 359/549/347
f 359/549/347 363/548/419 362/550/349
f 362/550/349 363/548/419 364/551/420
f 362/550/349 364/551/420 360/552/350
f 360/552/350 364/551/420 361/553/421
f 360/552/350 361/553/421 358/554/352
f 358/554/352 361/553/421 354/555/354
f 354/555/354 361/553/421 357/556/422
f 354/555/354 357/556/422 350/557/356
f 350/557/356 357/556/422 353/386/423
f 350/557/356 353/386/423 344/388/403
f 350/557/356 344/388/403 348/558/358
f 348/558/358 344/388/403 347/559/360
f 347/559/360 344/388/403 317/560/424
f 347/559/360 317/560/424 340/561/361
f 340/561/361 317/560/424 339/562/363
f 339/562/363 317/560/424 341/563/365
f 341/563/365 317/560/424 323/564/278
f 341/563/365 323/564/278 325/565/276
f 317/560/424 344/388/403 318/505/404
f 295/507/406 309/566/247 317/560/424
f 317/560/424 309/566/247 311/567/245
f 317/560/424 311/567/245 323/564/278
f 323/564/278 311/567/245 314/568/244
f 323/564/278 314/568/244 321/569/280
f 321/569/280 314/568/244 315/570/242
f 321/569/280 315/570/242 319/571/281
f 319/571/281 315/570/242 316/572/241
f 346/544/366 333/573/309 335/574/307
f 346/544/366 335/574/307 343/365/416
f 343/365/416 335/574/307 337/575/306
f 333/573/309 346/544/366 325/565/276
f 325/565/276 346/544/366 341/563/365
f 332/576/299 324/577/269 334/578/300
f 334/578/300 324/577/269 342/352/415
f 334/578/300 342/352/415 336/541/302
f 324/577/269 332/576/299 326/579/271
f 326/579/271 332/576/299 330/580/314
f 326/579/271 330/580/314 328/581/273
f 328/581/273 330/580/314 329/582/312
f 328/581/273 329/582/312 327/583/275
f 327/583/275 329/582/312 331/584/311
f 327/583/275 331/584/311 333/573/309
f 327/583/275 333/573/309 325/565/276
f 343/365/416 337/575/306 338/540/304
f 342/352/415 324/577/269 310/529/238
f 310/529/238 324/577/269 322/585/268
f 310/529/238 322/585/268 312/586/239
f 312/586/239 322/585/268 313/587/212
f 313/587/212 322/585/268 320/588/283
f 313/587/212 320/588/283 316/572/241
f 316/572/241 320/588/283 319/571/281
f 299/530/180 310/529/238 302/589/211
f 302/589/211 310/529/238 308/590/225
f 302/589/211 308/590/225 303/591/212
f 303/591/212 308/590/225 306/592/250
f 303/591/212 306/592/250 305/593/214
f 305/593/214 306/592/250 304/594/216
f 304/594/216 306/592/250 307/595/249
f 304/594/216 307/595/249 309/566/247
f 304/594/216 309/566/247 301/526/217
f 301/526/217 309/566/247 295/507/406
f 287/531/180 279/596/148 277/597/147
f 287/531/180 277/597/147 267/354/366
f 267/354/366 277/597/147 275/598/161
f 287/531/180 285/599/194 279/596/148
f 279/596/148 285/599/194 281/600/150
f 281/600/150 285/599/194 283/601/192
f 281/600/150 283/601/192 282/602/151
f 282/602/151 283/601/192 284/603/191
f 282/602/151 284/603/191 280/604/153
f 280/604/153 284/603/191 286/522/189
f 280/604/153 286/522/189 278/521/155
f 267/354/366 275/598/161 273/527/159
f 274/528/158 276/605/156 268/430/414
f 268/430/414 276/605/156 278/521/155
f 263/511/117 265/508/115 269/407/405
f 295/507/406 266/509/114 272/606/112
f 272/606/112 271/523/110 295/507/406
f 239/607/425 199/608/425 345/609/425
f 345/609/425 199/608/425 270/610/425
f 199/607/426 198/611/426 270/609/426
f 270/609/426 198/611/426 269/612/426
f 198/613/427 195/607/428 269/614/429
f 269/614/429 195/607/428 256/615/430
f 256/615/430 195/616/428 194/617/431
f 256/615/430 194/617/431 250/618/432
f 250/618/432 194/617/431 192/619/433
f 250/618/432 192/619/433 248/620/434
f 248/620/434 192/619/433 189/621/435
f 248/620/434 189/621/435 247/622/436
f 247/622/436 189/621/435 190/623/437
f 247/622/436 190/623/437 249/624/438
f 249/624/438 190/623/437 191/625/439
f 249/624/438 191/625/439 255/626/440
f 255/626/440 191/625/439 193/627/441
f 255/626/440 193/627/441 259/628/442
f 193/607/441 197/629/443 259/609/442
f 259/609/442 197/629/443 268/630/444
f 197/631/426 196/607/426 268/632/426
f 268/632/426 196/607/426 267/609/426
f 196/633/445 236/607/445 267/634/445
f 267/634/445 236/607/445 342/609/445
f 236/607/446 237/611/446 342/609/446
f 342/609/446 237/611/446 343/612/446
f 237/613/447 240/607/448 343/614/449
f 343/614/449 240/607/448 351/609/450
f 351/635/450 240/636/448 356/637/451
f 356/637/451 240/636/448 242/638/452
f 356/637/451 242/638/452 363/639/453
f 363/639/453 242/638/452 244/640/454
f 363/639/453 244/640/454 364/641/455
f 364/641/455 244/640/454 246/642/456
f 364/641/455 246/642/456 361/643/457
f 361/643/457 246/642/456 245/644/458
f 361/643/457 245/644/458 243/645/459
f 361/643/457 243/645/459 357/646/460
f 357/646/460 243/645/459 241/647/461
f 357/646/460 241/647/461 353/648/462
f 241/607/461 238/629/463 353/609/462
f 353/609/462 238/629/463 344/630/464
f 238/631/446 239/607/446 344/632/446
f 344/632/446 239/607/446 345/609/446
f 296/649/426 295/607/426 424/650/426
f 424/650/426 295/607/426 423/609/426
f 295/651/445 317/607/445 423/652/445
f 423/652/445 317/607/445 425/609/445
f 317/607/446 318/653/446 425/609/446
f 425/609/446 318/653/446 426/654/446
f 318/607/425 296/655/425 426/609/425
f 426/609/425 296/655/425 424/656/425
f 424/657/404 423/658/404 426/659/404
f 426/659/404 423/658/404 425/660/404
f 205/661/446 204/662/446 12/663/446
f 12/663/446 204/662/446 11/664/446
f 204/665/445 202/666/445 11/667/445
f 11/667/445 202/666/445 9/668/445
f 202/669/426 203/670/426 9/671/426
f 9/671/426 203/670/426 10/672/426
f 203/673/425 205/674/425 10/675/425
f 10/675/425 205/674/425 12/676/425
f 12/677/368 11/678/368 10/679/368
f 10/679/368 11/678/368 9/680/368
f 213/681/446 212/682/446 16/656/446
f 16/656/446 212/682/446 15/683/446
f 212/684/445 210/685/445 15/686/445
f 15/686/445 210/685/445 13/687/445
f 210/688/426 211/689/426 13/690/426
f 13/690/426 211/689/426 14/652/426
f 211/691/425 213/692/425 14/693/425
f 14/693/425 213/692/425 16/694/425
f 16/695/368 15/696/368 14/697/368
f 14/697/368 15/696/368 13/698/368
f 219/681/446 218/682/446 20/656/446
f 20/656/446 218/682/446 19/683/446
f 218/699/445 216/700/445 19/701/445
f 19/701/445 216/700/445 17/702/445
f 216/688/426 217/689/426 17/690/426
f 17/690/426 217/689/426 18/652/426
f 217/699/425 219/700/425 18/701/425
f 18/701/425 219/700/425 20/702/425
f 20/703/368 19/704/368 18/705/368
f 18/705/368 19/704/368 17/706/368
f 225/681/446 224/682/446 24/656/446
f 24/656/446 224/682/446 23/683/446
f 224/691/445 222/692/445 23/693/445
f 23/693/445 222/692/445 21/694/445
f 222/688/426 223/689/426 21/690/426
f 21/690/426 223/689/426 22/652/426
f 223/684/425 225/685/425 22/686/425
f 22/686/425 225/685/425 24/687/425
f 24/707/368 23/708/368 22/709/368
f 22/709/368 23/708/368 21/710/368
f 235/711/446 234/712/446 36/713/446
f 36/713/446 234/712/446 35/714/446
f 234/715/445 232/716/445 35/717/445
f 35/717/445 232/716/445 33/718/445
f 232/719/426 233/720/426 33/721/426
f 33/721/426 233/720/426 34/722/426
f 233/723/425 235/724/425 34/725/425
f 34/725/425 235/724/425 36/726/425
f 36/727/368 35/728/368 34/729/368
f 34/729/368 35/728/368 33/730/368
f 231/711/446 230/712/446 32/713/446
f 32/713/446 230/712/446 31/714/446
f 230/731/445 228/732/445 31/733/445
f 31/733/445 228/732/445 29/734/445
f 228/719/426 229/720/426 29/721/426
f 29/721/426 229/720/426 30/722/426
f 229/735/425 231/736/425 30/737/425
f 30/737/425 231/736/425 32/738/425
f 32/739/368 31/740/368 30/741/368
f 30/741/368 31/740/368 29/742/368
f 209/743/425 215/744/425 26/745/425
f 26/745/425 215/744/425 28/746/425
f 215/747/446 214/748/446 28/749/446
f 28/749/446 214/748/446 27/650/446
f 214/750/445 208/751/445 27/752/445
f 27/752/445 208/751/445 25/753/445
f 208/754/426 209/755/426 25/654/426
f 25/654/426 209/755/426 26/756/426
f 28/757/368 27/758/368 26/759/368
f 26/759/368 27/758/368 25/760/368
f 207/761/446 206/762/446 4/763/446
f 4/763/446 206/762/446 3/749/446
f 206/764/445 200/765/445 3/766/445
f 3/766/445 200/765/445 1/726/445
f 200/767/426 201/768/426 1/756/426
f 1/756/426 201/768/426 2/769/426
f 201/770/425 207/771/425 2/717/425
f 2/717/425 207/771/425 4/772/425
f 4/773/368 3/774/368 2/775/368
f 2/775/368 3/774/368 1/776/368
f 227/777/446 226/778/446 8/779/446
f 8/779/446 226/778/446 7/722/446
f 226/780/445 220/762/445 7/654/445
f 7/654/445 220/762/445 5/749/445
f 220/781/426 221/782/426 5/713/426
f 5/713/426 221/782/426 6/783/426
f 221/767/425 227/784/425 6/756/425
f 6/756/425 227/784/425 8/650/425
f 8/785/368 7/786/368 6/787/368
f 6/787/368 7/786/368 5/720/368
