# Blender 5.1.2
# www.blender.org
mtllib LD19.mtl
o LD19
v -0.026753 0.007543 0.000000
v -0.026753 0.007543 0.003600
v -0.026751 0.008539 0.000000
v -0.026751 0.008539 0.003600
v -0.026474 0.006586 0.000000
v -0.026474 0.006586 0.003600
v -0.026469 0.009494 0.000000
v -0.026469 0.009494 0.003600
v -0.025936 0.005748 0.000000
v -0.025936 0.005748 0.003600
v -0.025929 0.010332 0.000000
v -0.025929 0.010332 0.003600
v -0.025185 0.005094 0.000000
v -0.025185 0.005094 0.003600
v -0.025176 0.010983 0.000000
v -0.025176 0.010983 0.003600
v -0.024038 0.004608 0.000000
v -0.024020 0.004589 0.003600
v -0.024009 0.011484 0.000000
v -0.024028 0.011465 0.003600
v -0.024238 0.008037 0.000000
v -0.024238 0.008037 0.003600
v -0.024111 0.007562 0.000000
v -0.024111 0.007562 0.003600
v -0.024110 0.008512 0.000000
v -0.024110 0.008512 0.003600
v -0.023764 0.007214 0.000000
v -0.023764 0.007214 0.003600
v -0.023762 0.008859 0.000000
v -0.023762 0.008859 0.003600
v -0.023289 0.007086 0.000000
v -0.023289 0.007086 0.003600
v -0.023286 0.008986 0.000000
v -0.023286 0.008986 0.003600
v -0.022814 0.007212 0.000000
v -0.022814 0.007212 0.003600
v -0.022812 0.008858 0.000000
v -0.022812 0.008858 0.003600
v -0.022466 0.007559 0.000000
v -0.022466 0.007559 0.003600
v -0.022464 0.008509 0.000000
v -0.022464 0.008509 0.003600
v -0.022338 0.008034 0.000000
v -0.022338 0.008034 0.003600
v -0.018882 -0.015105 0.000000
v -0.018885 -0.015043 0.018700
v -0.018893 0.004529 0.000000
v -0.018893 0.004529 0.003600
v -0.018882 0.011529 0.000000
v -0.018882 0.011529 0.003600
v -0.018839 0.015100 -0.000000
v -0.018845 0.015126 0.018700
v -0.018208 -0.016856 0.000000
v -0.018305 -0.016702 0.018700
v -0.018254 0.016758 -0.000000
v -0.018157 0.016912 0.018700
v -0.016758 -0.018254 0.000000
v -0.016912 -0.018157 0.018700
v -0.016856 0.018208 -0.000000
v -0.016702 0.018305 0.018700
v -0.015101 -0.018839 0.000000
v -0.015126 -0.018845 0.018700
v -0.015105 0.018882 -0.000000
v -0.015126 0.018866 0.018700
v -0.003486 -0.024921 0.000000
v -0.003466 -0.024940 0.003600
v -0.003529 -0.018895 0.000000
v -0.003529 -0.018895 0.003600
v -0.002984 -0.026088 0.000000
v -0.002984 -0.026088 0.003600
v -0.002333 -0.026842 0.000000
v -0.002333 -0.026842 0.003600
v -0.001496 -0.027381 0.000000
v -0.001496 -0.027381 0.003600
v -0.000987 -0.024199 0.000000
v -0.000987 -0.024199 0.003600
v -0.000860 -0.024674 0.000000
v -0.000860 -0.024674 0.003600
v -0.000859 -0.023724 0.000000
v -0.000859 -0.023724 0.003600
v -0.000540 -0.027664 0.000000
v -0.000540 -0.027664 0.003600
v -0.000513 -0.025022 0.000000
v -0.000513 -0.025022 0.003600
v -0.000511 -0.023377 0.000000
v -0.000511 -0.023377 0.003600
v -0.000038 -0.025150 0.000000
v -0.000038 -0.025150 0.003600
v -0.000035 -0.023250 0.000000
v -0.000035 -0.023250 0.003600
v 0.000437 -0.025023 0.000000
v 0.000437 -0.025023 0.003600
v 0.000439 -0.023378 0.000000
v 0.000439 -0.023378 0.003600
v 0.000456 -0.027665 0.000000
v 0.000456 -0.027665 0.003600
v 0.000785 -0.024676 0.000000
v 0.000785 -0.024676 0.003600
v 0.000787 -0.023726 0.000000
v 0.000787 -0.023726 0.003600
v 0.000913 -0.024201 0.000000
v 0.000913 -0.024201 0.003600
v 0.001412 -0.027386 0.000000
v 0.001412 -0.027386 0.003600
v 0.002251 -0.026849 0.000000
v 0.002251 -0.026849 0.003600
v 0.002905 -0.026097 0.000000
v 0.002905 -0.026097 0.003600
v 0.003390 -0.024951 0.000000
v 0.003410 -0.024932 0.003600
v 0.003471 -0.018905 0.000000
v 0.003471 -0.018905 0.003600
v 0.015105 -0.018882 0.000000
v 0.015043 -0.018885 0.018700
v 0.015183 0.018820 -0.000000
v 0.015163 0.018835 0.018700
v 0.016324 -0.018479 0.000000
v 0.016324 -0.018479 0.018700
v 0.016758 0.018254 -0.000000
v 0.016912 0.018157 0.018700
v 0.017637 -0.017562 0.000000
v 0.017508 -0.017690 0.018700
v 0.018208 0.016856 -0.000000
v 0.018305 0.016702 0.018700
v 0.018429 -0.016381 0.000000
v 0.018429 -0.016381 0.018700
v 0.018839 -0.015100 0.000000
v 0.018835 -0.015163 0.018700
v 0.018882 0.015105 -0.000000
v 0.018894 0.015001 0.018700
v 0.018907 0.004471 0.000000
v 0.018907 0.004471 0.003600
v 0.018918 0.011471 0.000000
v 0.018918 0.011471 0.003600
v 0.022362 0.007966 0.000000
v 0.022362 0.007966 0.003600
v 0.022489 0.007491 0.000000
v 0.022489 0.007491 0.003600
v 0.022490 0.008441 0.000000
v 0.022490 0.008441 0.003600
v 0.022836 0.007142 0.000000
v 0.022836 0.007142 0.003600
v 0.022838 0.008788 0.000000
v 0.022838 0.008788 0.003600
v 0.024034 0.004516 0.000000
v 0.024052 0.004535 0.003600
v 0.023311 0.007014 0.000000
v 0.023311 0.007014 0.003600
v 0.023314 0.008914 0.000000
v 0.023314 0.008914 0.003600
v 0.024063 0.011392 0.000000
v 0.024044 0.011411 0.003600
v 0.023786 0.007141 0.000000
v 0.023786 0.007141 0.003600
v 0.023788 0.008786 0.000000
v 0.023788 0.008786 0.003600
v 0.024134 0.007488 0.000000
v 0.024134 0.007488 0.003600
v 0.024136 0.008438 0.000000
v 0.024136 0.008438 0.003600
v 0.024262 0.007963 0.000000
v 0.024262 0.007963 0.003600
v 0.025200 0.005017 0.000000
v 0.025200 0.005017 0.003600
v 0.025209 0.010906 0.000000
v 0.025209 0.010906 0.003600
v 0.025954 0.005668 0.000000
v 0.025954 0.005668 0.003600
v 0.025961 0.010252 0.000000
v 0.025961 0.010252 0.003600
v 0.026494 0.006506 0.000000
v 0.026494 0.006506 0.003600
v 0.026498 0.009414 0.000000
v 0.026498 0.009414 0.003600
v 0.026776 0.007461 0.000000
v 0.026776 0.007461 0.003600
v 0.026777 0.008457 0.000000
v 0.026777 0.008457 0.003600
v 0.018894 0.014959 0.018700
v 0.018877 0.015077 0.022200
v 0.018831 -0.015134 0.018700
v 0.018848 -0.015017 0.022200
v 0.018582 0.016094 0.018700
v 0.018373 0.016572 0.022200
v 0.018533 -0.016150 0.018700
v 0.018533 -0.016150 0.022200
v 0.017970 0.017178 0.018700
v 0.017816 -0.017355 0.018700
v 0.017917 -0.017233 0.022200
v 0.017609 0.017555 0.022200
v 0.017505 -0.000835 0.022200
v 0.017470 -0.000061 0.034692
v 0.017393 0.001933 0.022200
v 0.017367 0.001895 0.034692
v 0.017353 -0.002017 0.034692
v 0.017239 0.000757 0.034945
v 0.017001 -0.003050 0.034935
v 0.016799 0.004993 0.022200
v 0.017046 0.003828 0.034692
v 0.016880 -0.004710 0.022200
v 0.017018 -0.003947 0.034692
v 0.016628 0.018322 0.018700
v 0.016488 0.018397 0.022200
v 0.016432 -0.018448 0.018700
v 0.016572 -0.018373 0.022200
v 0.016800 0.003597 0.034974
v 0.016743 -0.003086 0.035000
v 0.016510 0.005712 0.034692
v 0.016469 -0.005828 0.034692
v 0.015988 0.006410 0.034965
v 0.016084 -0.006014 0.034982
v 0.016177 0.014627 0.018700
v 0.016177 0.014124 0.022200
v 0.016133 -0.014173 0.018700
v 0.016114 -0.014061 0.022200
v 0.016067 0.014974 0.022200
v 0.015927 0.013441 0.018700
v 0.016022 -0.015023 0.018700
v 0.015940 -0.015261 0.022200
v 0.015779 0.007569 0.022200
v 0.015766 0.007525 0.034692
v 0.015409 -0.008348 0.022200
v 0.015713 -0.007635 0.034692
v 0.015607 0.015697 0.018700
v 0.015520 0.015770 0.022200
v 0.015602 0.013055 0.022200
v 0.015563 -0.013103 0.018700
v 0.015476 -0.013030 0.022200
v 0.015471 -0.015818 0.018700
v 0.015530 -0.007508 0.034933
v 0.015134 0.018831 0.018700
v 0.015017 0.018848 0.022200
v 0.014959 -0.018894 0.018700
v 0.015077 -0.018877 0.022200
v 0.015295 0.012861 0.018700
v 0.015251 -0.015939 0.022200
v 0.014207 0.010261 0.022200
v 0.014825 0.009243 0.034692
v 0.014760 -0.009346 0.034692
v 0.014481 0.016150 0.018700
v 0.014368 0.016150 0.022200
v 0.014363 0.012606 0.018700
v 0.014476 0.012606 0.022200
v 0.014437 -0.012650 0.018700
v 0.014324 -0.012650 0.022200
v 0.014319 -0.016194 0.018700
v 0.014432 -0.016194 0.022200
v 0.014159 0.009810 0.034965
v 0.014338 -0.009450 0.034983
v 0.013697 0.010844 0.034692
v 0.013665 -0.010932 0.022200
v 0.013620 -0.010940 0.034692
v 0.013328 0.015774 0.018700
v 0.013241 0.015701 0.022200
v 0.013237 0.013059 0.018700
v 0.013324 0.012986 0.022200
v 0.013285 -0.013026 0.018700
v 0.013198 -0.013099 0.022200
v 0.013193 -0.015741 0.018700
v 0.013501 -0.015936 0.022200
v 0.012770 -0.011631 0.034935
v 0.012870 -0.015355 0.022200
v 0.012778 0.014979 0.018700
v 0.012778 0.014979 0.022200
v 0.012667 0.014129 0.018700
v 0.012686 0.014017 0.022200
v 0.012734 -0.013821 0.018700
v 0.012623 -0.014167 0.022200
v 0.012623 -0.014671 0.018700
v 0.011567 0.013165 0.022200
v 0.012396 0.012310 0.034692
v 0.011787 -0.012969 0.022200
v 0.012310 -0.012396 0.034692
v 0.011619 0.012716 0.034966
v 0.010632 -0.013485 0.034980
v 0.010940 0.013620 0.034692
v 0.010844 -0.013697 0.034692
v 0.009333 0.014803 0.022200
v 0.009346 0.014760 0.034692
v 0.008606 -0.015266 0.022200
v 0.009243 -0.014825 0.034692
v 0.008496 0.014984 0.034966
v 0.009155 -0.014620 0.034933
v 0.007356 -0.015517 0.034980
v 0.006570 0.016247 0.022200
v 0.007635 0.015713 0.034692
v 0.007525 -0.015766 0.034692
v 0.005828 0.016469 0.034692
v 0.004993 -0.016799 0.022200
v 0.005712 -0.016510 0.034692
v 0.004946 0.016499 0.034966
v 0.005672 -0.016291 0.034933
v 0.003711 -0.016766 0.034980
v 0.003920 0.017055 0.022200
v 0.003947 0.017018 0.034692
v 0.003828 -0.017046 0.034692
v 0.000835 0.017505 0.022200
v 0.002017 0.017353 0.034692
v 0.001130 -0.017489 0.022200
v 0.001895 -0.017367 0.034692
v 0.001148 0.017186 0.034967
v 0.000748 -0.017215 0.034962
v 0.000061 0.017470 0.034692
v -0.000061 -0.017470 0.034692
v -0.002708 0.017010 0.034967
v -0.001958 -0.017139 0.034933
v -0.001895 0.017367 0.034692
v -0.002017 -0.017353 0.034692
v -0.003081 0.017252 0.022200
v -0.001986 -0.017387 0.022200
v -0.003945 -0.016712 0.034980
v -0.003828 0.017046 0.034692
v -0.003947 -0.017018 0.034692
v -0.004710 -0.016880 0.022200
v -0.006417 0.015978 0.034971
v -0.005722 -0.016273 0.034933
v -0.005712 0.016510 0.034692
v -0.005828 -0.016469 0.034692
v -0.005755 0.016527 0.022200
v -0.007569 -0.015413 0.034980
v -0.007525 0.015766 0.034692
v -0.007635 -0.015713 0.034692
v -0.008606 0.015266 0.022200
v -0.007617 -0.015755 0.022200
v -0.009825 0.014147 0.034968
v -0.010145 -0.013907 0.034973
v -0.009243 0.014825 0.034692
v -0.009346 -0.014760 0.034692
v -0.010021 -0.014378 0.022200
v -0.010844 0.013697 0.034692
v -0.010940 -0.013620 0.034692
v -0.011787 0.012969 0.022200
v -0.012728 0.011604 0.034968
v -0.012986 -0.011300 0.034973
v -0.012310 0.012396 0.034692
v -0.012396 -0.012310 0.034692
v -0.012969 -0.011787 0.022200
v -0.012623 0.014671 0.018700
v -0.012642 0.014783 0.022200
v -0.012667 -0.014129 0.018700
v -0.012686 -0.014017 0.022200
v -0.012734 0.013821 0.018700
v -0.012734 0.013821 0.022200
v -0.012917 -0.015315 0.018700
v -0.012860 -0.015217 0.022200
v -0.013193 0.015741 0.018700
v -0.013036 0.015545 0.022200
v -0.013285 0.013026 0.018700
v -0.013198 0.013099 0.022200
v -0.013237 -0.013059 0.018700
v -0.013324 -0.012986 0.022200
v -0.013823 0.016106 0.022200
v -0.013549 -0.015895 0.018700
v -0.013549 -0.015895 0.022200
v -0.013620 0.010940 0.034692
v -0.013697 -0.010844 0.034692
v -0.014378 0.010021 0.022200
v -0.014319 0.016194 0.018700
v -0.014437 0.012650 0.018700
v -0.014324 0.012650 0.022200
v -0.014363 -0.012606 0.018700
v -0.014476 -0.012606 0.022200
v -0.014481 -0.016150 0.018700
v -0.014368 -0.016150 0.022200
v -0.014959 0.018894 0.018700
v -0.015077 0.018877 0.022200
v -0.015134 -0.018831 0.018700
v -0.015017 -0.018848 0.022200
v -0.014592 0.009200 0.034933
v -0.014620 -0.009155 0.034933
v -0.014679 0.016146 0.022200
v -0.014760 0.009346 0.034692
v -0.014825 -0.009243 0.034692
v -0.015817 0.006816 0.034968
v -0.015533 -0.007319 0.034980
v -0.015266 -0.008606 0.022200
v -0.015471 0.015818 0.018700
v -0.015559 0.015745 0.022200
v -0.015563 0.013103 0.018700
v -0.015476 0.013030 0.022200
v -0.015515 -0.012982 0.018700
v -0.015602 -0.013055 0.022200
v -0.015299 -0.015892 0.018700
v -0.015299 -0.015892 0.022200
v -0.015713 0.007635 0.034692
v -0.015766 -0.007525 0.034692
v -0.015986 -0.015213 0.018700
v -0.015930 -0.015311 0.022200
v -0.015755 0.007617 0.022200
v -0.016022 0.015023 0.018700
v -0.016022 0.015023 0.022200
v -0.016133 0.014173 0.018700
v -0.016114 0.014061 0.022200
v -0.016157 -0.014012 0.018700
v -0.016177 -0.014124 0.022200
v -0.016094 0.018582 0.018700
v -0.016572 0.018373 0.022200
v -0.016628 -0.018322 0.018700
v -0.016488 -0.018397 0.022200
v -0.016608 -0.004543 0.034970
v -0.016938 0.003122 0.034967
v -0.016469 0.005828 0.034692
v -0.016510 -0.005712 0.034692
v -0.016880 0.004710 0.022200
v -0.016799 -0.004993 0.022200
v -0.017178 0.017970 0.018700
v -0.017208 -0.000728 0.034967
v -0.017018 0.003947 0.034692
v -0.017046 -0.003828 0.034692
v -0.017353 0.002017 0.034692
v -0.017367 -0.001895 0.034692
v -0.017505 0.000835 0.022200
v -0.017393 -0.001933 0.022200
v -0.017470 0.000061 0.034692
v -0.017917 0.017233 0.022200
v -0.017970 -0.017178 0.018700
v -0.017609 -0.017555 0.022200
v -0.018322 0.016628 0.018700
v -0.018373 -0.016572 0.022200
v -0.018533 0.016150 0.022200
v -0.018582 -0.016094 0.018700
v -0.018831 0.015134 0.018700
v -0.018848 0.015017 0.022200
v -0.018894 -0.014959 0.018700
v -0.018877 -0.015077 0.022200
vn -0.0048 -1.0000 -0.0000
vn -0.0032 -1.0000 0.0009
vn -0.1048 -0.7319 -0.6733
vn -0.1551 -0.7159 0.6807
vn 0.0004 -1.0000 0.0010
vn 0.0975 -0.7308 0.6756
vn 0.1181 -0.7182 -0.6857
vn 0.0020 -1.0000 -0.0000
vn 0.9864 -0.1616 -0.0286
vn 1.0000 -0.0026 0.0011
vn 0.7326 0.0956 0.6739
vn 1.0000 0.0052 0.0004
vn 0.9820 0.1868 0.0283
vn 1.0000 0.0099 -0.0000
vn 0.9931 -0.1169 -0.0003
vn 1.0000 -0.0035 -0.0000
vn 0.9002 -0.4355 -0.0004
vn 0.8929 -0.4502 0.0008
vn 0.7142 -0.6999 -0.0008
vn 0.6978 -0.7163 0.0008
vn 0.3297 -0.6589 -0.6762
vn 0.3185 -0.6635 0.6770
vn -0.3931 -0.6373 -0.6628
vn -0.4155 -0.6239 0.6619
vn -0.8334 -0.5526 -0.0018
vn -0.8527 -0.5225 0.0014
vn -0.9828 -0.1822 0.0284
vn -0.9918 -0.1282 0.0009
vn -0.0000 -0.0000 1.0000
vn -0.7156 0.1433 0.6836
vn 0.6391 0.3905 0.6626
vn -0.6239 0.4155 0.6619
vn -0.9907 0.1361 -0.0005
vn -0.8511 0.5250 -0.0013
vn -0.4142 0.6246 -0.6621
vn -0.5248 0.8512 0.0011
vn -0.1347 0.7196 -0.6812
vn -0.1409 0.9900 0.0006
vn -0.0000 -0.0000 -1.0000
vn 0.1198 0.7312 -0.6715
vn 0.3947 0.6358 -0.6633
vn 0.1840 0.9825 -0.0286
vn 0.5552 0.8317 0.0018
vn 0.8334 0.5526 -0.0018
vn -0.8668 -0.4987 -0.0000
vn -1.0000 0.0015 -0.0000
vn -0.8653 0.5013 -0.0000
vn -0.4987 0.8668 -0.0000
vn 0.0015 1.0000 -0.0000
vn 0.5013 0.8653 -0.0000
vn 0.8668 0.4987 -0.0000
vn 1.0000 -0.0015 -0.0000
vn 0.8653 -0.5013 -0.0000
vn 0.4987 -0.8668 -0.0000
vn -0.0015 -1.0000 -0.0000
vn -0.5013 -0.8653 -0.0000
vn -0.1706 -0.9853 -0.0042
vn -0.0132 -0.9999 -0.0020
vn -0.2082 -0.9773 -0.0394
vn -0.0118 -0.9999 -0.0000
vn -0.1676 0.9858 0.0042
vn -0.2052 0.9779 0.0394
vn -0.5278 0.8494 0.0011
vn -0.5305 0.8477 -0.0000
vn -0.7548 0.6560 -0.0000
vn -0.7547 0.6560 -0.0000
vn -0.9090 0.4168 -0.0000
vn -0.9896 0.1438 -0.0000
vn -0.9900 -0.1408 -0.0000
vn -0.9103 -0.4140 -0.0000
vn -0.7567 -0.6537 -0.0000
vn -0.5331 -0.8460 -0.0000
vn -0.5304 -0.8477 -0.0011
vn -0.0087 1.0000 -0.0000
vn -0.0101 0.9999 0.0020
vn -1.0000 0.0005 0.0011
vn -1.0000 0.0079 0.0006
vn -0.9999 0.0121 -0.0000
vn -1.0000 -0.0006 -0.0000
vn 0.1706 0.9853 -0.0042
vn 0.0132 0.9999 -0.0020
vn 0.2082 0.9774 0.0355
vn 0.0117 0.9999 -0.0000
vn 0.1676 -0.9858 0.0042
vn 0.2052 -0.9779 0.0394
vn 0.5278 -0.8494 0.0011
vn 0.5305 -0.8477 -0.0000
vn 0.7548 -0.6560 -0.0000
vn 0.7547 -0.6560 -0.0000
vn 0.9090 -0.4168 -0.0000
vn 0.9896 -0.1438 -0.0000
vn 0.9900 0.1408 -0.0000
vn 0.9103 0.4140 -0.0000
vn 0.7567 0.6537 -0.0000
vn 0.5331 0.8460 -0.0000
vn 0.5304 0.8477 -0.0011
vn 0.0087 -1.0000 -0.0000
vn 0.0101 -0.9999 0.0020
vn -0.9860 -0.1666 0.0042
vn -0.9781 -0.2044 0.0396
vn -0.8494 -0.5278 0.0011
vn -0.8477 -0.5305 -0.0000
vn -0.6560 -0.7548 -0.0000
vn -0.6560 -0.7547 -0.0000
vn -0.4168 -0.9090 -0.0000
vn -0.1438 -0.9896 -0.0000
vn 0.1408 -0.9900 -0.0000
vn 0.4140 -0.9103 -0.0000
vn 0.6537 -0.7567 -0.0000
vn 0.6537 -0.7568 -0.0000
vn 0.8460 -0.5331 -0.0000
vn 0.8477 -0.5304 -0.0011
vn 0.9776 -0.2074 0.0354
vn 0.9855 -0.1696 -0.0042
vn 0.9999 -0.0113 -0.0018
vn 0.9999 -0.0102 -0.0000
vn -1.0000 -0.0072 -0.0000
vn -1.0000 -0.0083 0.0018
vn -0.9898 -0.1421 0.0074
vn -0.9931 -0.1134 0.0296
vn -0.9258 -0.3779 -0.0068
vn -0.8813 -0.4725 0.0109
vn -0.7716 -0.6360 -0.0119
vn -0.6993 -0.7148 0.0073
vn -0.4924 -0.8703 -0.0088
vn -0.4530 -0.8915 0.0043
vn -0.1469 -0.9891 -0.0046
vn -0.1289 -0.9912 -0.0294
vn 0.1259 -0.9916 0.0294
vn 0.1438 -0.9896 0.0046
vn 0.4618 -0.8870 -0.0049
vn 0.4918 -0.8707 0.0054
vn 0.7521 -0.6590 -0.0051
vn 0.7714 -0.6363 0.0031
vn 0.9176 -0.3974 -0.0027
vn 0.9228 -0.3853 0.0017
vn 0.9918 -0.1280 -0.0020
vn 0.9928 -0.1164 -0.0296
vn 0.9931 0.1134 0.0296
vn 0.9898 0.1421 0.0074
vn 0.9339 -0.3574 0.0037
vn 0.9442 -0.3294 -0.0037
vn 0.9845 0.1755 0.0044
vn 0.9739 0.2269 -0.0076
vn 0.6682 0.7439 0.0084
vn 0.6190 0.7854 -0.0084
vn 0.0574 0.9983 0.0076
vn -0.0278 0.9995 -0.0130
vn -0.4805 0.8770 0.0105
vn -0.6632 0.7481 -0.0221
vn -0.8668 0.4984 0.0189
vn -0.9838 0.1784 -0.0189
vn -0.9894 -0.1438 0.0221
vn -0.9329 -0.3601 -0.0105
vn -0.6661 -0.7458 0.0130
vn -0.6002 -0.7998 -0.0076
vn -0.0337 -0.9994 0.0084
vn 0.0307 -0.9995 -0.0084
vn 0.5977 -0.8017 0.0076
vn 0.6390 -0.7692 -0.0044
vn 0.0337 0.9994 0.0084
vn -0.0307 0.9995 -0.0084
vn -0.5977 0.8017 0.0076
vn -0.6390 0.7692 -0.0044
vn -0.9339 0.3574 0.0037
vn -0.9442 0.3294 -0.0037
vn -0.9845 -0.1755 0.0044
vn -0.9805 -0.1965 0.0027
vn -0.6724 -0.7400 0.0173
vn -0.7626 -0.6468 -0.0019
vn -0.3267 -0.9450 -0.0142
vn -0.0302 -0.9993 0.0221
vn 0.1926 -0.9812 -0.0105
vn 0.6000 -0.7999 0.0121
vn 0.6571 -0.7538 -0.0036
vn 0.9317 -0.3630 0.0105
vn 0.9889 -0.1468 -0.0221
vn 0.9843 0.1753 0.0189
vn 0.8683 0.4957 -0.0189
vn 0.6655 0.7461 0.0221
vn 0.4831 0.8755 -0.0105
vn 0.0309 0.9994 0.0130
vn -0.0233 0.9997 0.0027
vn -0.5952 0.8035 0.0126
vn -0.5046 0.8634 -0.0019
vn -0.8933 0.4494 -0.0126
vn -0.9368 0.3499 0.0019
vn -0.9853 -0.1711 -0.0020
vn -0.9790 -0.2038 -0.0084
vn -0.6682 -0.7439 0.0084
vn -0.6190 -0.7854 -0.0084
vn 0.6638 -0.7478 -0.0130
vn 0.9784 -0.2068 0.0084
vn 0.9896 -0.1434 -0.0084
vn 0.8933 0.4494 0.0076
vn 0.8685 0.4957 -0.0044
vn 0.5141 0.8577 0.0037
vn 0.4884 0.8726 -0.0037
vn 0.0219 0.9998 0.0036
vn -0.0188 0.9998 -0.0036
vn -0.4857 0.8741 0.0037
vn -0.5115 0.8593 -0.0037
vn -0.8669 0.4984 0.0044
vn -0.8919 0.4522 -0.0076
vn -0.9901 -0.1403 0.0084
vn 0.6166 -0.7873 0.0084
vn 0.6660 -0.7459 -0.0084
vn -0.0044 -0.0146 0.9999
vn 0.5506 -0.0937 0.8295
vn 0.4889 0.0739 0.8692
vn 0.9368 -0.0655 0.3438
vn 0.8885 0.1689 0.4266
vn 0.2974 -0.1652 0.9404
vn 0.4739 -0.2304 0.8499
vn 0.2509 -0.2219 0.9422
vn 0.3829 -0.3514 0.8544
vn 0.1524 -0.2824 0.9471
vn 0.2788 -0.4422 0.8525
vn 0.0850 -0.3032 0.9491
vn 0.1737 -0.4939 0.8520
vn 0.0209 -0.3185 0.9477
vn -0.0507 -0.4947 0.8676
vn 0.0429 -0.4951 0.8678
vn -0.1193 -0.2958 0.9478
vn -0.1723 -0.4963 0.8509
vn -0.1857 -0.2581 0.9481
vn -0.4249 -0.2739 0.8628
vn -0.3383 -0.3537 0.8720
vn -0.3198 -0.0770 0.9444
vn -0.4060 0.2498 0.8791
vn -0.4550 0.1395 0.8795
vn -0.3067 0.2325 0.9230
vn 0.9234 -0.1440 0.3559
vn 0.8988 -0.2728 0.3433
vn 0.8700 -0.3538 0.3435
vn 0.8295 -0.4527 0.3271
vn 0.7686 -0.5424 0.3392
vn 0.7071 -0.6194 0.3410
vn 0.6160 -0.7092 0.3429
vn 0.5444 -0.7677 0.3381
vn 0.4623 -0.8240 0.3276
vn 0.3573 -0.8715 0.3359
vn 0.2674 -0.9062 0.3276
vn 0.1546 -0.9291 0.3360
vn 0.0663 -0.9260 0.3717
vn -0.0674 -0.9416 0.3299
vn -0.1579 -0.9373 0.3108
vn -0.2558 -0.9000 0.3529
vn -0.3633 -0.8780 0.3117
vn -0.4575 -0.8234 0.3358
vn -0.5257 -0.7643 0.3735
vn -0.2409 -0.2868 0.9272
vn -0.6395 -0.6935 0.3319
vn -0.6770 -0.6277 0.3842
vn -0.7778 -0.5339 0.3317
vn -0.8233 -0.4632 0.3282
vn -0.8709 -0.3580 0.3366
vn -0.8877 -0.2698 0.3730
vn -0.3861 -0.0567 0.9207
vn -0.9325 -0.1440 0.3311
vn -0.9276 -0.0610 0.3685
vn -0.4364 0.0316 0.8992
vn -0.9354 0.0649 0.3476
vn -0.9189 0.1456 0.3667
vn -0.4623 0.1089 0.8800
vn -0.8976 0.2714 0.3473
vn -0.8633 0.3459 0.3675
vn -0.8200 0.4692 0.3278
vn -0.7744 0.5410 0.3280
vn -0.7032 0.6196 0.3489
vn -0.6143 0.7063 0.3518
vn -0.5482 0.7530 0.3640
vn -0.2669 0.3092 0.9128
vn -0.4417 0.8253 0.3517
vn -0.3668 0.8553 0.3660
vn -0.1860 0.3563 0.9157
vn -0.2474 0.9100 0.3327
vn -0.1725 0.9085 0.3807
vn -0.0992 0.3900 0.9155
vn -0.0378 0.9422 0.3328
vn 0.0341 0.9240 0.3809
vn -0.0078 0.3998 0.9165
vn 0.1722 0.9269 0.3334
vn 0.2463 0.8982 0.3642
vn 0.0833 0.3893 0.9173
vn 0.3699 0.8601 0.3513
vn 0.4400 0.8201 0.3658
vn 0.1694 0.3588 0.9179
vn 0.5575 0.7609 0.3320
vn 0.6026 0.7009 0.3815
vn 0.2461 0.3098 0.9184
vn 0.7132 0.6172 0.3325
vn 0.7434 0.5491 0.3818
vn 0.3100 0.2450 0.9186
vn 0.8321 0.4434 0.3331
vn 0.8555 0.3671 0.3651
vn 0.3582 0.1679 0.9184
vn 0.9032 0.2471 0.3510
vn 0.9262 0.1623 0.3404
vn 0.3501 0.1335 0.9271
vn -0.9934 -0.1147 0.0005
vn -0.9983 0.0580 -0.0002
vn -0.9651 0.2619 -0.0018
vn -0.9022 0.4314 0.0005
vn -0.8144 0.5803 -0.0002
vn -0.6726 0.7400 -0.0025
vn -0.4972 0.8676 -0.0018
vn -0.3329 0.9430 0.0005
vn -0.1656 0.9862 -0.0002
vn 0.0406 0.9992 -0.0018
vn 0.2198 0.9755 0.0005
vn 0.3779 0.9258 0.0005
vn 0.5297 0.8482 0.0005
vn 0.6678 0.7443 -0.0002
vn 0.8065 0.5912 -0.0018
vn 0.8998 0.4364 0.0005
vn 0.9595 0.2818 0.0005
vn 0.9934 0.1147 0.0005
vn 0.9983 -0.0580 -0.0002
vn 0.9632 -0.2687 -0.0025
vn 0.8826 -0.4701 -0.0018
vn 0.7835 -0.6213 0.0005
vn 0.6649 -0.7469 -0.0002
vn 0.4911 -0.8711 -0.0025
vn 0.2849 -0.9586 -0.0025
vn 0.0715 -0.9974 -0.0018
vn -0.1092 -0.9940 0.0005
vn -0.2719 -0.9623 0.0005
vn -0.4314 -0.9022 0.0005
vn -0.5803 -0.8144 -0.0002
vn -0.7400 -0.6726 -0.0025
vn -0.8711 -0.4911 -0.0025
vn -0.9565 -0.2917 -0.0018
vn -0.1421 0.9898 0.0074
vn -0.1134 0.9931 0.0296
vn -0.3779 0.9258 -0.0068
vn -0.4887 0.8724 0.0148
vn -0.6340 0.7732 -0.0128
vn -0.7713 0.6364 0.0128
vn -0.8709 0.4913 -0.0148
vn -0.9246 0.3808 0.0068
vn -0.9894 0.1451 -0.0074
vn -0.9928 0.1164 -0.0296
vn 0.9258 0.3779 -0.0068
vn 0.8813 0.4725 0.0109
vn 0.7716 0.6360 -0.0119
vn 0.6993 0.7148 0.0073
vn 0.4924 0.8703 -0.0088
vn 0.4530 0.8915 0.0043
vn 0.1469 0.9891 -0.0046
vn 0.1289 0.9912 -0.0294
vt 1.540000 0.000000
vt 1.540000 0.360000
vt 0.450000 0.000000
vt 0.450000 1.870000
vt 2.240000 0.360000
vt 3.330000 1.870000
vt 3.330000 0.000000
vt 2.240000 0.000000
vt -2.590000 1.870000
vt -0.700000 0.360000
vt 0.290000 1.870000
vt 0.000000 0.360000
vt 0.290000 0.000000
vt 0.000000 0.000000
vt -2.590000 0.000000
vt -0.700000 0.000000
vt 0.000000 0.286112
vt -1.870000 0.279850
vt -0.000000 0.151470
vt -1.870000 0.151470
vt 0.000000 0.009123
vt -1.870000 -0.009122
vt -0.000000 -0.151470
vt -1.870000 -0.151470
vt 0.000000 -0.279850
vt -1.870000 -0.286111
vt 0.000000 0.286111
vt -1.870000 0.283674
vt 0.000000 0.110105
vt -1.870000 0.091860
vt 0.000000 -0.091858
vt -1.870000 -0.110103
vt 0.000000 -0.279850
vt -1.870000 -0.286111
vt 0.442479 0.066754
vt 0.069171 0.442207
vt -2.946754 0.442479
vt 0.442207 -2.949171
vt -3.321779 0.072962
vt 0.075151 -3.321533
vt -3.322954 -2.942542
vt -2.952963 -3.321779
vt -3.125617 -3.253787
vt -3.263473 -3.110202
vt 0.383474 0.230201
vt 0.245615 0.373788
vt -3.075248 0.405436
vt -3.189760 0.322634
vt -3.285436 0.195248
vt 0.230202 -3.263473
vt 0.373787 -3.125617
vt -1.890000 -0.840000
vt -2.235000 -1.190000
vt -1.890000 -1.540000
vt -2.247728 -1.237500
vt -2.282500 -1.272272
vt -2.404034 -0.850644
vt -2.282500 -1.107728
vt -2.247728 -1.142500
vt -2.330000 -1.095000
vt -2.377500 -1.107728
vt -2.519224 -0.895561
vt -2.594512 -0.960799
vt -2.412272 -1.142500
vt -2.648371 -1.044605
vt -2.676438 -1.140190
vt -2.425000 -1.190000
vt -2.676438 -1.239810
vt -2.412272 -1.237500
vt -2.648371 -1.335395
vt -2.594512 -1.419201
vt -2.377500 -1.272272
vt -2.519224 -1.484439
vt -2.401934 -1.529658
vt -2.330000 -1.285000
vt 0.000000 0.286112
vt -1.870000 0.283674
vt 0.000000 0.110102
vt -1.870000 0.091857
vt 0.000000 -0.091857
vt -1.870000 -0.110102
vt -1.870000 -0.277643
vt -1.506754 1.492479
vt -1.881779 1.122962
vt -0.350000 1.500000
vt 1.890000 -0.840000
vt 1.890000 -1.540000
vt 2.235000 -1.190000
vt 2.247728 -1.237500
vt 2.282500 -1.272272
vt 2.404035 -1.529356
vt 2.330000 -1.285000
vt 2.377500 -1.272272
vt 2.519224 -1.484439
vt 2.594512 -1.419201
vt -1.670199 1.433475
vt -1.813787 1.295616
vt -2.404035 -0.850644
vt -2.401934 -1.529658
vt -1.882479 -1.896753
vt -1.512962 -2.271779
vt 1.515152 -2.271533
vt -1.823473 -2.060201
vt -1.685618 -2.203786
vt 1.670201 -2.213473
vt 1.813786 -2.075618
vt 1.881779 -1.902963
vt 2.412272 -1.237500
vt 2.648371 -1.335395
vt 2.676438 -1.239810
vt 2.425000 -1.190000
vt 2.676438 -1.140190
vt 2.412272 -1.142500
vt 2.648371 -1.044605
vt 2.594512 -0.960799
vt 2.377500 -1.107728
vt 2.519224 -0.895561
vt 2.401934 -0.850342
vt 2.330000 -1.095000
vt 2.282500 -1.107728
vt 2.247728 -1.142500
vt 0.350000 1.500000
vt 1.882479 1.116753
vt 1.512963 1.491779
vt 1.845436 1.245248
vt 1.762635 1.359760
vt 1.635248 1.455436
vt 0.339356 2.104034
vt 0.047500 1.947728
vt -0.000000 1.935000
vt -0.047500 1.947728
vt -0.339658 2.101933
vt -0.082272 1.982500
vt -0.095000 2.030000
vt 0.095000 2.030000
vt 0.082272 1.982500
vt 0.082272 2.077500
vt 0.294439 2.219224
vt 0.047500 2.112273
vt 0.229201 2.294513
vt 0.145395 2.348371
vt -0.000000 2.125000
vt 0.049810 2.376438
vt -0.049810 2.376438
vt -0.145395 2.348371
vt -0.047500 2.112273
vt -0.229201 2.294513
vt -0.294439 2.219224
vt -0.082272 2.077500
vt 0.000000 0.277642
vt -1.870000 0.279849
vt 0.000000 0.110102
vt -1.870000 0.091857
vt 0.000000 -0.091857
vt 0.000000 -0.279850
vt -1.870000 -0.290359
vt 0.360000 -0.248709
vt 0.000000 -0.248709
vt 0.360000 -0.298451
vt 0.000000 -0.298451
vt 0.360000 0.298451
vt 0.000000 0.298451
vt 0.360000 0.248709
vt 0.000000 0.248709
vt 0.360000 0.198968
vt 0.000000 0.198968
vt 0.360000 0.149226
vt 0.000000 0.149226
vt 0.360000 0.099484
vt 0.000000 0.099484
vt 0.360000 0.049742
vt 0.000000 0.049742
vt 0.360000 0.000000
vt 0.360000 -0.049742
vt 0.000000 -0.049742
vt 0.360000 -0.099484
vt 0.000000 -0.099484
vt 0.360000 -0.149226
vt 0.000000 -0.149226
vt 0.360000 -0.198968
vt 0.000000 -0.198968
vt 0.440000 0.000000
vt 0.440000 0.360000
vt -0.360000 -0.474729
vt 0.000000 -0.476858
vt -0.360000 -0.349859
vt -0.000000 -0.349859
vt -0.360000 -0.249899
vt -0.000000 -0.249899
vt -0.360000 -0.149940
vt -0.000000 -0.149940
vt -0.360000 -0.049980
vt -0.000000 -0.049980
vt -0.360000 0.049980
vt -0.000000 0.049980
vt -0.360000 0.149940
vt -0.000000 0.149940
vt -0.360000 0.249899
vt -0.000000 0.249899
vt -0.360000 0.349859
vt -0.000000 0.349859
vt -0.360000 0.476858
vt 0.000000 0.474729
vt 1.440000 0.360000
vt 0.740000 0.360000
vt 0.740000 0.000000
vt 1.440000 0.000000
vt -0.360000 -0.474729
vt 0.000000 -0.476858
vt -0.360000 0.476858
vt 0.000000 0.474728
vt 2.404034 -1.529356
vt -0.360000 0.075050
vt 0.000000 0.072921
vt -0.360000 0.199920
vt -0.000000 0.199920
vt -0.360000 0.299879
vt -0.000000 0.299879
vt -0.360000 0.399839
vt -0.000000 0.399839
vt -0.360000 0.499799
vt -0.000000 0.499799
vt -0.360000 0.599759
vt -0.000000 0.599759
vt -0.360000 0.699718
vt -0.000000 0.699718
vt -0.360000 0.799678
vt -0.000000 0.799678
vt -0.360000 0.899638
vt -0.000000 0.899638
vt -0.360000 1.026638
vt 0.000000 1.024508
vt 0.530000 0.000000
vt 0.530000 0.360000
vt -0.100000 0.000000
vt 0.430000 0.000000
vt -0.100000 0.360000
vt 0.430000 0.360000
vt 0.339356 2.004034
vt 0.082272 1.882500
vt 0.350000 1.400000
vt 0.047500 1.847728
vt 0.000000 1.835000
vt 0.095000 1.930000
vt 0.294439 2.119224
vt 0.082272 1.977500
vt 0.229201 2.194512
vt 0.145395 2.248371
vt 0.047500 2.012273
vt 0.049810 2.276438
vt 0.000000 2.025000
vt -0.049810 2.276438
vt -0.047500 2.012273
vt -0.145395 2.248371
vt -0.082272 1.977500
vt -0.229201 2.194512
vt -0.294439 2.119224
vt -0.095000 1.930000
vt -0.339658 2.001932
vt -0.082272 1.882500
vt -0.350000 1.400000
vt -0.047500 1.847728
vt 1.510339 -1.493072
vt 1.445675 -1.222341
vt 1.333568 -1.185669
vt 1.658098 -1.441217
vt 1.555127 -1.178373
vt 1.791209 -1.327974
vt 1.610708 -1.074338
vt 1.855746 -1.222208
vt 1.884235 -1.108527
vt 1.586415 -0.958914
vt 1.527500 -0.898446
vt 1.555126 1.701627
vt 1.445675 1.657659
vt 1.883072 1.900337
vt 1.610708 1.805662
vt 1.604446 1.889853
vt 1.855746 2.002208
vt 1.781151 2.120229
vt 1.546431 1.965669
vt 1.644119 2.228689
vt 1.434325 2.002341
vt 1.498526 2.274235
vt -1.510337 2.273072
vt 1.324874 1.958374
vt -1.445675 2.002341
vt -1.352500 1.981554
vt -1.658098 2.221217
vt -1.527500 1.981554
vt -1.791208 2.107975
vt -1.592090 1.911255
vt -1.855746 2.002208
vt -1.884235 1.888528
vt -1.608738 1.794485
vt -1.546432 1.694332
vt -1.883072 -1.120337
vt -1.555126 -0.921626
vt -1.610708 -1.025662
vt -1.604446 -1.109854
vt -1.831217 -1.268098
vt -1.546432 -1.185669
vt -1.717975 -1.401208
vt -1.612208 -1.465746
vt -1.434325 -1.222341
vt -1.498527 -1.494235
vt -1.324873 -1.178373
vt -1.293586 1.921085
vt 1.269291 1.854337
vt -1.269291 1.805663
vt 1.275554 1.770147
vt 1.333569 1.694331
vt -1.324874 1.701627
vt 1.324874 -0.921627
vt -1.333569 -0.914331
vt 1.269291 -1.025662
vt -1.275554 -0.990146
vt -1.269291 -1.074338
vt 1.275554 -1.109854
vt -1.434325 1.657659
vt -1.445675 -0.877659
vt 1.434325 -0.877659
vt -2.220000 -0.282637
vt -1.870000 -0.294524
vt -1.870000 -0.176715
vt -2.220000 -0.124596
vt -1.870000 -0.052117
vt -2.220000 0.000000
vt -1.870000 0.124597
vt -2.220000 0.140474
vt -1.870000 0.282638
vt -2.220000 0.294526
vt 0.450000 2.220000
vt 3.330000 2.220000
vt -2.220000 -0.282638
vt -1.870000 -0.294526
vt -1.870000 -0.140474
vt -2.220000 -0.124597
vt -1.870000 0.036240
vt -2.220000 0.052116
vt -1.870000 0.176715
vt -2.220000 0.176715
vt -1.870000 0.282638
vt -2.220000 0.294526
vt 0.350000 -0.488692
vt 0.000000 -0.488692
vt 0.350000 -0.549779
vt 0.000000 -0.549779
vt 0.350000 0.524940
vt 0.000000 0.513532
vt 0.350000 0.402766
vt 0.000000 0.391358
vt 0.350000 0.280594
vt 0.000000 0.269186
vt 0.350000 0.183260
vt 0.000000 0.147013
vt 0.350000 0.097334
vt 0.000000 0.024840
vt 0.350000 -0.024840
vt 0.000000 -0.061087
vt 0.350000 -0.147012
vt 0.000000 -0.158420
vt 0.350000 -0.269186
vt 0.000000 -0.280594
vt 0.350000 -0.391360
vt 0.000000 -0.402768
vt 0.350000 0.524940
vt 0.000000 0.513532
vt 0.350000 0.402766
vt 0.000000 0.391358
vt 0.350000 0.280594
vt 0.000000 0.269186
vt 0.350000 0.158421
vt 0.000000 0.147013
vt 0.350000 0.061087
vt 0.000000 0.061087
vt 0.350000 -0.024839
vt 0.000000 -0.036247
vt 0.350000 -0.147012
vt 0.000000 -0.122173
vt 0.000000 -0.219508
vt 0.350000 -0.269185
vt 0.000000 -0.305433
vt 0.350000 -0.391359
vt 0.000000 -0.402767
vt 0.000000 -0.524940
vt 0.000000 0.549779
vt 0.000000 0.452445
vt 0.350000 0.402766
vt 0.000000 0.366519
vt 0.350000 0.280594
vt 0.000000 0.269185
vt 0.350000 0.158421
vt 0.000000 0.183260
vt 0.000000 0.085926
vt 0.350000 -0.024839
vt 0.350000 -0.147013
vt 0.000000 -0.158421
vt 0.350000 -0.269185
vt 0.000000 -0.280593
vt 0.350000 -0.391358
vt 0.000000 -0.402766
vt 0.350000 0.549779
vt 0.350000 0.463853
vt 0.000000 0.452445
vt 0.350000 0.366519
vt 0.350000 0.280593
vt 0.000000 0.269185
vt 0.350000 0.097334
vt 0.000000 0.085926
vt 0.350000 -0.024839
vt 0.000000 -0.036247
vt 0.350000 -0.147012
vt 0.000000 -0.158420
vt 0.350000 -0.269186
vt 0.000000 -0.280594
vt 0.350000 -0.391359
vt 0.000000 -0.402767
vt 0.350000 -0.513532
vt 0.000000 -0.524940
vt -0.078540 5.138067
vt -0.052360 5.146378
vt -0.054519 5.533894
vt -0.067499 -5.369665
vt -0.019565 -5.451780
vt -0.019566 -5.257073
vt -0.059611 4.832837
vt -0.052360 4.672954
vt -0.059444 4.442452
vt -0.052360 4.172359
vt -0.051158 3.891554
vt -0.052360 3.699422
vt -0.050849 3.501840
vt -0.052360 3.310009
vt -0.050609 3.112375
vt -0.052360 2.531183
vt -0.052509 2.806326
vt -0.050549 2.334252
vt -0.052360 2.141771
vt -0.050926 1.945608
vt -0.052360 0.973532
vt -0.052936 1.252141
vt -0.055828 0.780209
vt -0.052360 -0.973532
vt -0.059442 -0.699441
vt -0.058039 -1.277766
vt -0.019565 5.451780
vt -0.019565 5.257073
vt -0.019566 5.062367
vt -0.019565 4.867661
vt -0.019565 4.672954
vt -0.019566 4.478248
vt -0.019566 4.283541
vt -0.019566 4.088835
vt -0.019566 3.894128
vt -0.019566 3.699422
vt -0.019566 3.504716
vt -0.019565 3.310009
vt -0.019566 3.115303
vt -0.019566 2.920596
vt -0.019566 2.725890
vt -0.019565 2.531183
vt -0.019565 2.336477
vt -0.019565 2.141771
vt -0.019565 1.947064
vt -0.019566 1.752358
vt -0.052035 1.640852
vt -0.019566 1.557651
vt -0.019566 1.362945
vt -0.019566 1.168239
vt -0.019566 0.973532
vt -0.019565 0.778826
vt -0.019565 0.584119
vt -0.056010 0.473168
vt -0.019566 0.389413
vt -0.019566 0.194706
vt -0.057427 0.082265
vt -0.019565 0.000000
vt -0.019565 -0.194706
vt -0.058738 -0.308429
vt -0.019565 -0.389413
vt -0.019565 -0.584119
vt -0.019565 -0.778826
vt -0.019566 -0.973532
vt -0.019566 -1.168239
vt -0.019565 -1.362945
vt -0.019565 -1.557651
vt -0.057853 -1.668261
vt -0.019566 -1.752358
vt -0.019566 -1.947064
vt -0.057735 -2.059499
vt -0.019566 -2.141771
vt -0.019566 -2.336477
vt -0.057195 -2.448631
vt -0.019566 -2.531183
vt -0.019566 -2.725890
vt -0.056869 -2.838598
vt -0.019566 -2.920596
vt -0.019565 -3.115303
vt -0.056579 -3.228470
vt -0.019566 -3.310009
vt -0.019565 -3.504716
vt -0.056333 -3.618280
vt -0.019566 -3.699422
vt -0.019565 -3.894128
vt -0.056130 -4.008046
vt -0.019565 -4.088835
vt -0.019566 -4.283541
vt -0.055966 -4.397786
vt -0.019566 -4.478248
vt -0.019565 -4.672954
vt -0.055837 -4.787513
vt -0.019565 -4.867661
vt -0.019566 -5.062367
vt -0.059704 -5.083603
vt -0.000000 -5.301438
vt -1.230000 -5.301438
vt -0.000000 -5.497787
vt -1.230000 -5.497787
vt 0.000000 5.417042
vt -1.230000 5.497787
vt -1.230000 5.301438
vt 0.000000 5.024341
vt -1.230000 5.105088
vt -1.230000 4.908739
vt -0.000000 4.712389
vt -1.230000 4.712389
vt 0.000000 4.435293
vt -1.230000 4.516040
vt -1.230000 4.319690
vt 0.000000 4.042594
vt -1.230000 4.123341
vt -1.230000 3.926991
vt 0.000000 3.649893
vt -1.230000 3.730641
vt -1.230000 3.534292
vt -0.000000 3.337942
vt -1.230000 3.337942
vt 0.000000 3.060844
vt -1.230000 3.141593
vt -1.230000 2.945243
vt 0.000000 2.668146
vt -1.230000 2.748894
vt -1.230000 2.552544
vt -0.000000 2.356194
vt -1.230000 2.356194
vt 0.000000 2.079097
vt -1.230000 2.159845
vt -1.230000 1.963495
vt -0.000000 1.767146
vt -1.230000 1.767146
vt 0.000000 1.490049
vt -1.230000 1.570796
vt -1.230000 1.374447
vt 0.000000 1.097348
vt -1.230000 1.178097
vt -1.230000 0.981748
vt -0.000000 0.785398
vt -1.230000 0.785398
vt 0.000000 0.508302
vt -1.230000 0.589049
vt -1.230000 0.392699
vt -0.000000 0.196350
vt -1.230000 0.196350
vt 0.000000 -0.080746
vt -1.230000 0.000000
vt -1.230000 -0.196350
vt 0.000000 -0.473447
vt -1.230000 -0.392699
vt -1.230000 -0.589049
vt 0.000000 -0.866143
vt -1.230000 -0.785398
vt -1.230000 -0.981748
vt -0.000000 -1.178097
vt -1.230000 -1.178097
vt 0.000000 -1.455193
vt -1.230000 -1.374447
vt -1.230000 -1.570796
vt 0.000000 -1.847893
vt -1.230000 -1.767146
vt -1.230000 -1.963495
vt 0.000000 -2.240591
vt -1.230000 -2.159845
vt -1.230000 -2.356194
vt 0.000000 -2.633289
vt -1.230000 -2.552544
vt -1.230000 -2.748894
vt -0.000000 -2.945243
vt -1.230000 -2.945243
vt 0.000000 -3.222338
vt -1.230000 -3.141593
vt -1.230000 -3.337942
vt -0.000000 -3.534292
vt -1.230000 -3.534292
vt 0.000000 -3.811388
vt -1.230000 -3.730641
vt -1.230000 -3.926991
vt 0.000000 -4.204088
vt -1.230000 -4.123341
vt -1.230000 -4.319690
vt 0.000000 -4.596787
vt -1.230000 -4.516040
vt -1.230000 -4.712389
vt 0.000000 -4.989485
vt -1.230000 -4.908739
vt -1.230000 -5.105088
vt 1.700000 0.000000
vt 1.669641 0.305184
vt 1.669641 -0.305182
vt 1.557262 0.675099
vt 1.364187 1.009853
vt 1.100516 1.292151
vt 0.779999 1.507437
vt 0.419278 1.644672
vt 0.037037 1.696862
vt -0.346966 1.661415
vt -0.712922 1.540259
vt -1.042010 1.339718
vt -1.317311 1.070188
vt -1.524695 0.745586
vt -1.653535 0.382631
vt -1.697227 0.000000
vt -1.653535 -0.382630
vt 1.557264 -0.675096
vt -1.524696 -0.745585
vt 1.364185 -1.009856
vt -1.317310 -1.070189
vt 1.100518 -1.292150
vt -1.042008 -1.339720
vt 0.779999 -1.507437
vt -0.712921 -1.540260
vt 0.419279 -1.644672
vt -0.346961 -1.661416
vt 0.037036 -1.696862
vt -1.883072 -1.510338
vt -1.745475 0.080577
vt -1.884236 1.498525
vt -1.683782 0.466963
vt -1.610708 -1.415662
vt -1.555127 -1.311627
vt -1.586415 -1.531085
vt -1.831217 -1.658098
vt -1.758198 -1.758198
vt -1.527500 -1.591555
vt -1.644118 -1.838690
vt -1.434325 -1.612341
vt -1.498526 -1.884236
vt 1.510337 -1.883072
vt 0.115363 -1.743521
vt -0.195938 -1.738996
vt -0.466961 -1.683782
vt 1.445675 -1.612341
vt 1.352500 -1.591555
vt 1.658098 -1.831217
vt 1.527500 -1.591555
vt 1.791207 -1.717976
vt 1.592090 -1.521255
vt 1.855746 -1.612208
vt 1.884236 -1.498525
vt 1.608738 -1.404485
vt 1.546432 -1.304331
vt 1.537658 -0.829930
vt 1.434325 -1.267659
vt 1.368205 -1.091107
vt 1.324874 -1.311627
vt 1.177261 -1.291213
vt 1.269291 -1.415662
vt 1.293586 -1.531085
vt 0.860421 -1.520806
vt 1.883072 1.510338
vt 1.745475 -0.080577
vt 1.683782 -0.466963
vt 1.610709 1.415662
vt 1.555126 1.311627
vt 1.604446 1.499853
vt 1.831216 1.658099
vt 1.546432 1.575669
vt 1.758198 1.758198
vt 1.644119 1.838689
vt 1.434325 1.612341
vt 1.498528 1.884235
vt -1.510338 1.883072
vt 0.080578 1.745475
vt 0.389412 1.706124
vt -1.470388 1.612341
vt -1.386390 1.603889
vt -1.658098 1.831217
vt -1.555127 1.568373
vt -1.791209 1.717974
vt -1.604446 1.499853
vt -1.855746 1.612208
vt -1.608737 1.404485
vt -1.546431 1.304331
vt -1.435066 0.996875
vt -1.434325 1.267659
vt -1.324874 1.311626
vt -1.177260 1.291214
vt -1.275554 1.380147
vt -1.271262 1.475515
vt -0.860421 1.520806
vt -1.305942 1.552488
vt 1.151284 1.314428
vt 1.271262 1.404485
vt 1.275554 1.499853
vt 0.931056 1.481767
vt 1.324873 1.568373
vt 1.414908 1.025286
vt 1.445675 1.267659
vt 1.333569 1.304331
vt -1.520806 -0.860421
vt -1.445675 -1.267659
vt -1.291214 -1.177260
vt -1.333568 -1.304331
vt -1.271262 -1.404485
vt -0.996875 -1.435066
vt -1.287911 -1.521256
vt -1.352500 -1.591555
vt -1.576696 0.759297
vt -0.577988 1.651796
vt -0.309846 1.719642
vt 0.652550 1.620912
vt 1.576696 0.759297
vt 1.674138 0.500438
vt 1.738996 0.195938
vt 0.500439 -1.674138
vt -0.759297 -1.576696
vt -1.674138 -0.500439
vt -1.738996 -0.195938
vt -2.220000 -0.282637
vt -1.870000 -0.294525
vt -2.220000 -0.124597
vt -1.870000 -0.052118
vt -2.220000 0.052119
vt -1.870000 0.124597
vt -2.220000 0.294526
vt -2.220000 -0.282637
vt -1.870000 -0.294524
vt -2.220000 -0.124596
vt -1.870000 -0.052119
vt -1.870000 0.124597
vt -2.220000 0.140473
vt -1.870000 0.282637
vt -2.220000 0.294524
vt -2.590000 2.220000
vt 0.290000 2.220000
s 1
usemtl 64,64,64
f 67/1/1 68/2/2 61/3/3
f 61/3/3 68/2/2 62/4/4
f 62/4/4 68/2/2 112/5/5
f 62/4/4 112/5/5 114/6/6
f 114/6/6 112/5/5 113/7/7
f 113/7/7 112/5/5 111/8/8
f 128/9/9 132/10/10 130/11/11
f 130/11/11 132/10/10 134/12/12
f 130/11/11 134/12/12 129/13/13
f 129/13/13 134/12/12 133/14/14
f 128/9/9 127/15/15 132/10/10
f 132/10/10 127/15/15 131/16/16
f 127/17/15 128/18/9 125/19/17
f 125/19/17 128/18/9 126/20/18
f 125/19/17 126/20/18 121/21/19
f 121/21/19 126/20/18 122/22/20
f 121/21/19 122/22/20 117/23/21
f 117/23/21 122/22/20 118/24/22
f 117/23/21 118/24/22 113/25/7
f 113/25/7 118/24/22 114/26/6
f 61/27/3 62/28/4 57/29/23
f 57/29/23 62/28/4 58/30/24
f 57/29/23 58/30/24 53/31/25
f 53/31/25 58/30/24 54/32/26
f 53/31/25 54/32/26 45/33/27
f 45/33/27 54/32/26 46/34/28
f 46/35/29 62/36/4 114/37/6
f 46/35/29 114/37/6 52/38/30
f 52/38/30 114/37/6 128/39/29
f 52/38/30 128/39/29 64/40/29
f 64/40/29 128/39/29 130/41/11
f 64/40/29 130/41/11 116/42/29
f 116/42/29 130/41/11 120/43/29
f 120/43/29 130/41/11 124/44/31
f 46/35/29 54/45/29 62/36/4
f 62/36/4 54/45/29 58/46/24
f 114/37/6 118/47/22 122/48/29
f 122/48/29 126/49/29 114/37/6
f 114/37/6 126/49/29 128/39/29
f 52/38/30 64/40/29 60/50/29
f 60/50/29 56/51/32 52/38/30
f 132/52/29 136/53/29 134/54/29
f 134/54/29 136/53/29 140/55/29
f 134/54/29 140/55/29 144/56/29
f 146/57/29 142/58/29 132/52/29
f 132/52/29 142/58/29 138/59/29
f 132/52/29 138/59/29 136/53/29
f 142/58/29 146/57/29 148/60/29
f 148/60/29 146/57/29 154/61/29
f 154/61/29 146/57/29 164/62/29
f 154/61/29 164/62/29 168/63/29
f 154/61/29 168/63/29 158/64/29
f 158/64/29 168/63/29 172/65/29
f 158/64/29 172/65/29 176/66/29
f 158/64/29 176/66/29 162/67/29
f 162/67/29 176/66/29 178/68/29
f 162/67/29 178/68/29 160/69/29
f 160/69/29 178/68/29 174/70/29
f 160/69/29 174/70/29 170/71/29
f 160/69/29 170/71/29 156/72/29
f 156/72/29 170/71/29 166/73/29
f 156/72/29 166/73/29 152/74/29
f 156/72/29 152/74/29 150/75/29
f 150/75/29 152/74/29 144/56/29
f 144/56/29 152/74/29 134/54/29
f 51/76/33 52/77/30 55/78/34
f 55/78/34 52/77/30 56/79/32
f 55/78/34 56/79/32 59/80/35
f 59/80/35 56/79/32 60/81/36
f 59/80/35 60/81/36 63/33/37
f 63/33/37 60/81/36 64/82/38
f 61/83/3 45/84/39 67/85/39
f 67/85/39 45/84/39 47/52/39
f 67/85/39 47/52/39 131/86/39
f 131/86/39 47/52/39 133/87/39
f 131/86/39 133/87/39 135/88/39
f 135/88/39 133/87/39 139/89/39
f 139/89/39 133/87/39 143/90/39
f 143/90/39 133/87/39 151/91/39
f 143/90/39 151/91/39 149/92/39
f 149/92/39 151/91/39 155/93/39
f 155/93/39 151/91/39 165/94/39
f 155/93/39 165/94/39 169/95/39
f 61/83/3 57/96/23 53/97/39
f 61/83/3 53/97/39 45/84/39
f 17/98/39 35/58/39 47/52/39
f 47/52/39 35/58/39 39/59/39
f 47/52/39 39/59/39 43/53/39
f 35/58/39 17/98/39 31/60/39
f 31/60/39 17/98/39 27/61/39
f 27/61/39 17/98/39 13/62/39
f 27/61/39 13/62/39 9/63/39
f 27/61/39 9/63/39 23/64/39
f 23/64/39 9/63/39 5/65/39
f 23/64/39 5/65/39 1/66/39
f 23/64/39 1/66/39 21/67/39
f 21/67/39 1/66/39 3/68/39
f 21/67/39 3/68/39 25/69/39
f 25/69/39 3/68/39 7/70/39
f 25/69/39 7/70/39 11/71/39
f 25/69/39 11/71/39 29/72/39
f 29/72/39 11/71/39 15/73/39
f 29/72/39 15/73/39 19/99/39
f 29/72/39 19/99/39 33/75/39
f 33/75/39 19/99/39 37/56/39
f 37/56/39 19/99/39 49/54/39
f 37/56/39 49/54/39 41/55/39
f 41/55/39 49/54/39 43/53/39
f 43/53/39 49/54/39 47/52/39
f 51/100/39 63/101/37 49/54/39
f 49/54/39 63/101/37 115/102/40
f 49/54/39 115/102/40 47/52/39
f 47/52/39 115/102/40 133/87/39
f 63/101/37 51/100/39 55/103/39
f 55/103/39 59/104/35 63/101/37
f 115/102/40 119/105/41 123/106/39
f 115/102/40 123/106/39 129/107/39
f 129/107/39 133/87/39 115/102/40
f 155/93/39 169/95/39 159/108/39
f 159/108/39 169/95/39 173/109/39
f 159/108/39 173/109/39 177/110/39
f 159/108/39 177/110/39 161/111/39
f 161/111/39 177/110/39 175/112/39
f 161/111/39 175/112/39 157/113/39
f 157/113/39 175/112/39 171/114/39
f 157/113/39 171/114/39 167/115/39
f 157/113/39 167/115/39 153/116/39
f 153/116/39 167/115/39 163/117/39
f 153/116/39 163/117/39 145/118/39
f 153/116/39 145/118/39 147/119/39
f 147/119/39 145/118/39 141/120/39
f 141/120/39 145/118/39 131/86/39
f 141/120/39 131/86/39 137/121/39
f 137/121/39 131/86/39 135/88/39
f 67/85/39 131/86/39 111/122/39
f 111/122/39 131/86/39 127/123/39
f 111/122/39 127/123/39 113/124/7
f 113/124/7 127/123/39 125/125/39
f 125/125/39 121/126/39 113/124/7
f 113/124/7 121/126/39 117/127/21
f 109/128/39 93/129/39 111/122/39
f 111/122/39 93/129/39 89/130/39
f 111/122/39 89/130/39 67/85/39
f 67/85/39 89/130/39 85/131/39
f 67/85/39 85/131/39 65/132/39
f 65/132/39 85/131/39 79/133/39
f 65/132/39 79/133/39 75/134/39
f 109/128/39 101/135/39 99/136/39
f 109/128/39 99/136/39 93/129/39
f 101/135/39 109/128/39 97/137/39
f 97/137/39 109/128/39 107/138/39
f 97/137/39 107/138/39 91/139/39
f 91/139/39 107/138/39 105/140/39
f 91/139/39 105/140/39 103/141/39
f 91/139/39 103/141/39 87/142/39
f 87/142/39 103/141/39 95/143/39
f 87/142/39 95/143/39 81/144/39
f 81/144/39 73/145/39 87/142/39
f 87/142/39 73/145/39 83/146/39
f 83/146/39 73/145/39 71/147/39
f 83/146/39 71/147/39 69/148/39
f 83/146/39 69/148/39 77/149/39
f 77/149/39 69/148/39 65/132/39
f 77/149/39 65/132/39 75/134/39
f 64/6/38 116/4/42 63/7/37
f 63/7/37 116/4/42 115/3/40
f 115/150/40 116/151/42 119/152/41
f 119/152/41 116/151/42 120/153/43
f 119/152/41 120/153/43 123/154/44
f 123/154/44 120/153/43 124/81/31
f 123/154/44 124/81/31 129/155/13
f 129/155/13 124/81/31 130/156/11
f 42/157/45 41/158/45 44/159/46
f 44/159/46 41/158/45 43/160/46
f 44/161/46 43/162/46 40/163/47
f 40/163/47 43/162/46 39/164/47
f 40/163/47 39/164/47 36/165/48
f 36/165/48 39/164/47 35/166/48
f 36/165/48 35/166/48 32/167/49
f 32/167/49 35/166/48 31/168/49
f 32/167/49 31/168/49 28/169/50
f 28/169/50 31/168/49 27/170/50
f 28/169/50 27/170/50 24/171/51
f 24/171/51 27/170/50 23/172/51
f 24/171/51 23/172/51 22/173/52
f 22/173/52 23/172/51 21/14/52
f 22/173/52 21/14/52 26/174/53
f 26/174/53 21/14/52 25/175/53
f 26/174/53 25/175/53 30/176/54
f 30/176/54 25/175/53 29/177/54
f 30/176/54 29/177/54 34/178/55
f 34/178/55 29/177/54 33/179/55
f 34/178/55 33/179/55 38/180/56
f 38/180/56 33/179/55 37/181/56
f 38/180/56 37/181/56 42/157/45
f 42/157/45 37/181/56 41/158/45
f 160/157/45 159/158/45 162/159/46
f 162/159/46 159/158/45 161/160/46
f 162/161/46 161/162/46 158/163/47
f 158/163/47 161/162/46 157/164/47
f 158/163/47 157/164/47 154/165/48
f 154/165/48 157/164/47 153/166/48
f 154/165/48 153/166/48 148/167/49
f 148/167/49 153/166/48 147/168/49
f 148/167/49 147/168/49 142/169/50
f 142/169/50 147/168/49 141/170/50
f 142/169/50 141/170/50 138/171/51
f 138/171/51 141/170/50 137/172/51
f 138/171/51 137/172/51 136/173/52
f 136/173/52 137/172/51 135/14/52
f 136/173/52 135/14/52 140/174/53
f 140/174/53 135/14/52 139/175/53
f 140/174/53 139/175/53 144/176/54
f 144/176/54 139/175/53 143/177/54
f 144/176/54 143/177/54 150/178/55
f 150/178/55 143/177/54 149/179/55
f 150/178/55 149/179/55 156/180/56
f 156/180/56 149/179/55 155/181/56
f 156/180/56 155/181/56 160/157/45
f 160/157/45 155/181/56 159/158/45
f 17/14/57 47/182/58 18/12/59
f 18/12/59 47/182/58 48/183/60
f 20/184/61 19/185/62 16/186/63
f 16/186/63 19/185/62 15/187/64
f 16/186/63 15/187/64 12/188/65
f 12/188/65 15/187/64 11/189/66
f 12/188/65 11/189/66 8/190/67
f 8/190/67 11/189/66 7/191/67
f 8/190/67 7/191/67 4/192/68
f 4/192/68 7/191/67 3/193/68
f 4/192/68 3/193/68 2/194/69
f 2/194/69 3/193/68 1/195/69
f 2/194/69 1/195/69 6/196/70
f 6/196/70 1/195/69 5/197/70
f 6/196/70 5/197/70 10/198/71
f 10/198/71 5/197/70 9/199/71
f 10/198/71 9/199/71 14/200/72
f 14/200/72 9/199/71 13/201/73
f 14/200/72 13/201/73 18/202/59
f 18/202/59 13/201/73 17/203/57
f 49/14/74 19/182/62 50/12/75
f 50/12/75 19/182/62 20/183/61
f 45/7/27 46/6/28 48/204/76
f 48/204/76 46/6/28 52/4/30
f 48/204/76 52/4/30 50/205/77
f 50/205/77 52/4/30 51/3/33
f 50/205/77 51/3/33 49/206/78
f 48/204/76 47/207/79 45/7/27
f 151/14/80 133/182/81 152/12/82
f 152/12/82 133/182/81 134/183/83
f 146/208/84 145/209/85 164/186/86
f 164/186/86 145/209/85 163/187/87
f 164/186/86 163/187/87 168/188/88
f 168/188/88 163/187/87 167/189/89
f 168/188/88 167/189/89 172/190/90
f 172/190/90 167/189/89 171/191/90
f 172/190/90 171/191/90 176/192/91
f 176/192/91 171/191/90 175/193/91
f 176/192/91 175/193/91 178/194/92
f 178/194/92 175/193/91 177/195/92
f 178/194/92 177/195/92 174/196/93
f 174/196/93 177/195/92 173/197/93
f 174/196/93 173/197/93 170/198/94
f 170/198/94 173/197/93 169/199/94
f 170/198/94 169/199/94 166/200/95
f 166/200/95 169/199/94 165/201/96
f 166/200/95 165/201/96 152/210/82
f 152/210/82 165/201/96 151/211/80
f 131/14/97 145/182/85 132/12/98
f 132/12/98 145/182/85 146/183/84
f 50/87/29 44/88/29 48/86/29
f 48/86/29 44/88/29 40/121/29
f 48/86/29 40/121/29 36/120/29
f 20/212/29 38/90/29 50/87/29
f 50/87/29 38/90/29 42/89/29
f 50/87/29 42/89/29 44/88/29
f 38/90/29 20/212/29 34/92/29
f 34/92/29 20/212/29 30/93/29
f 30/93/29 20/212/29 16/94/29
f 30/93/29 16/94/29 12/95/29
f 30/93/29 12/95/29 26/108/29
f 26/108/29 12/95/29 8/109/29
f 26/108/29 8/109/29 4/110/29
f 26/108/29 4/110/29 22/111/29
f 22/111/29 4/110/29 2/112/29
f 22/111/29 2/112/29 24/113/29
f 24/113/29 2/112/29 6/114/29
f 24/113/29 6/114/29 10/115/29
f 24/113/29 10/115/29 28/116/29
f 28/116/29 10/115/29 14/117/29
f 28/116/29 14/117/29 18/118/29
f 28/116/29 18/118/29 32/119/29
f 32/119/29 18/118/29 36/120/29
f 36/120/29 18/118/29 48/86/29
f 66/213/99 65/214/100 70/215/101
f 70/215/101 65/214/100 69/216/102
f 70/215/101 69/216/102 72/217/103
f 72/217/103 69/216/102 71/218/104
f 72/217/103 71/218/104 74/219/105
f 74/219/105 71/218/104 73/220/105
f 74/219/105 73/220/105 82/221/106
f 82/221/106 73/220/105 81/222/106
f 82/221/106 81/222/106 96/223/107
f 96/223/107 81/222/106 95/224/107
f 96/223/107 95/224/107 104/225/108
f 104/225/108 95/224/107 103/226/108
f 104/225/108 103/226/108 106/227/109
f 106/227/109 103/226/108 105/228/110
f 106/227/109 105/228/110 108/229/111
f 108/229/111 105/228/110 107/230/112
f 108/229/111 107/230/112 110/231/113
f 110/231/113 107/230/112 109/232/114
f 109/14/114 111/233/115 110/12/113
f 110/12/113 111/233/115 112/234/116
f 67/235/117 65/236/100 68/237/118
f 68/237/118 65/236/100 66/238/99
f 100/157/45 99/158/45 102/159/46
f 102/159/46 99/158/45 101/160/46
f 102/161/46 101/162/46 98/163/47
f 98/163/47 101/162/46 97/164/47
f 98/163/47 97/164/47 92/165/48
f 92/165/48 97/164/47 91/166/48
f 92/165/48 91/166/48 88/167/49
f 88/167/49 91/166/48 87/168/49
f 88/167/49 87/168/49 84/169/50
f 84/169/50 87/168/49 83/170/50
f 84/169/50 83/170/50 78/171/51
f 78/171/51 83/170/50 77/172/51
f 78/171/51 77/172/51 76/173/52
f 76/173/52 77/172/51 75/14/52
f 76/173/52 75/14/52 80/174/53
f 80/174/53 75/14/52 79/175/53
f 80/174/53 79/175/53 86/176/54
f 86/176/54 79/175/53 85/177/54
f 86/176/54 85/177/54 90/178/55
f 90/178/55 85/177/54 89/179/55
f 90/178/55 89/179/55 94/180/56
f 94/180/56 89/179/55 93/181/56
f 94/180/56 93/181/56 100/157/45
f 100/157/45 93/181/56 99/158/45
f 66/239/29 80/240/29 68/241/29
f 68/241/29 80/240/29 86/242/29
f 68/241/29 86/242/29 90/243/29
f 80/240/29 66/239/29 76/244/29
f 76/244/29 66/239/29 70/245/29
f 76/244/29 70/245/29 78/246/29
f 78/246/29 70/245/29 72/247/29
f 78/246/29 72/247/29 74/248/29
f 78/246/29 74/248/29 84/249/29
f 84/249/29 74/248/29 82/250/29
f 84/249/29 82/250/29 88/251/29
f 88/251/29 82/250/29 96/252/29
f 88/251/29 96/252/29 92/253/29
f 92/253/29 96/252/29 104/254/29
f 92/253/29 104/254/29 98/255/29
f 98/255/29 104/254/29 106/256/29
f 98/255/29 106/256/29 108/257/29
f 98/255/29 108/257/29 102/258/29
f 102/258/29 108/257/29 110/259/29
f 102/258/29 110/259/29 100/260/29
f 100/260/29 110/259/29 112/261/29
f 100/260/29 112/261/29 94/262/29
f 94/262/29 112/261/29 90/243/29
f 90/243/29 112/261/29 68/241/29
usemtl 26,26,26
f 231/263/39 240/264/39 253/265/39
f 231/263/39 202/266/39 240/264/39
f 240/264/39 202/266/39 224/267/39
f 224/267/39 202/266/39 187/268/39
f 224/267/39 187/268/39 212/269/39
f 212/269/39 187/268/39 183/270/39
f 212/269/39 183/270/39 179/271/39
f 212/269/39 179/271/39 217/272/39
f 217/272/39 179/271/39 235/273/39
f 235/273/39 179/271/39 227/274/39
f 235/273/39 227/274/39 244/275/39
f 179/271/39 181/276/39 227/274/39
f 227/274/39 181/276/39 214/277/39
f 214/277/39 181/276/39 218/278/39
f 218/278/39 181/276/39 185/279/39
f 218/278/39 185/279/39 188/280/39
f 218/278/39 188/280/39 229/281/39
f 229/281/39 188/280/39 204/282/39
f 229/281/39 204/282/39 246/283/39
f 246/283/39 204/282/39 233/284/39
f 367/285/39 259/286/39 233/284/39
f 233/284/39 259/286/39 246/283/39
f 367/285/39 363/287/39 353/288/39
f 367/285/39 398/289/39 363/287/39
f 363/287/39 398/289/39 383/290/39
f 383/290/39 398/289/39 416/291/39
f 383/290/39 416/291/39 387/292/39
f 387/292/39 416/291/39 421/293/39
f 387/292/39 421/293/39 424/294/39
f 387/292/39 424/294/39 394/295/39
f 394/295/39 424/294/39 381/296/39
f 381/296/39 424/294/39 422/297/39
f 381/296/39 422/297/39 379/298/39
f 379/298/39 422/297/39 392/299/39
f 392/299/39 422/297/39 390/300/39
f 390/300/39 422/297/39 418/301/39
f 390/300/39 418/301/39 377/302/39
f 377/302/39 418/301/39 406/303/39
f 377/302/39 406/303/39 396/304/39
f 377/302/39 396/304/39 358/305/39
f 358/305/39 396/304/39 365/306/39
f 231/263/39 346/307/39 365/306/39
f 365/306/39 346/307/39 358/305/39
f 353/288/39 344/308/39 367/285/39
f 367/285/39 344/308/39 269/309/39
f 367/285/39 269/309/39 259/286/39
f 269/309/39 344/308/39 340/310/39
f 269/309/39 340/310/39 267/311/39
f 267/311/39 340/310/39 257/312/39
f 257/312/39 340/310/39 350/313/39
f 257/312/39 350/313/39 255/314/39
f 255/314/39 350/313/39 348/315/39
f 255/314/39 348/315/39 265/316/39
f 265/316/39 348/315/39 342/317/39
f 265/316/39 342/317/39 338/318/39
f 265/316/39 338/318/39 263/319/39
f 263/319/39 338/318/39 253/265/39
f 253/265/39 338/318/39 231/263/39
f 348/315/39 350/313/39 361/320/39
f 348/315/39 361/320/39 359/321/39
f 359/321/39 361/320/39 379/298/39
f 379/298/39 361/320/39 381/296/39
f 235/273/39 244/275/39 242/322/39
f 242/322/39 244/275/39 255/314/39
f 255/314/39 244/275/39 257/312/39
f 338/318/39 346/307/39 231/263/39
f 425/323/119 424/324/120 421/325/121
f 425/323/119 421/325/121 419/326/122
f 419/326/122 421/325/121 416/327/123
f 419/326/122 416/327/123 417/328/124
f 417/328/124 416/327/123 398/329/125
f 417/328/124 398/329/125 399/330/126
f 399/330/126 398/329/125 367/331/127
f 399/330/126 367/331/127 368/332/128
f 367/4/127 233/6/129 368/333/128
f 368/333/128 233/6/129 234/334/130
f 234/335/130 233/336/129 204/337/131
f 234/335/130 204/337/131 205/338/132
f 205/338/132 204/337/131 188/339/133
f 205/338/132 188/339/133 189/340/134
f 189/340/134 188/339/133 185/341/135
f 189/340/134 185/341/135 186/342/136
f 186/342/136 185/341/135 181/343/137
f 186/342/136 181/343/137 182/344/138
f 181/4/137 179/6/139 182/333/138
f 182/333/138 179/6/139 180/334/140
f 263/345/141 264/346/142 265/347/143
f 265/347/143 264/346/142 266/348/144
f 265/349/143 266/350/144 255/351/145
f 255/351/145 266/350/144 256/352/146
f 255/351/145 256/352/146 242/353/147
f 242/353/147 256/352/146 243/354/148
f 242/353/147 243/354/148 235/355/149
f 235/355/149 243/354/148 226/356/150
f 235/355/149 226/356/150 217/357/151
f 217/357/151 226/356/150 213/358/152
f 217/357/151 213/358/152 212/359/153
f 212/359/153 213/358/152 216/360/154
f 212/359/153 216/360/154 224/361/155
f 224/361/155 216/360/154 225/362/156
f 224/361/155 225/362/156 240/363/157
f 240/363/157 225/362/156 241/364/158
f 240/363/157 241/364/158 253/365/159
f 253/365/159 241/364/158 254/366/160
f 253/365/159 254/366/160 263/345/141
f 263/345/141 254/366/160 264/346/142
f 390/345/141 391/346/142 392/347/143
f 392/347/143 391/346/142 393/348/144
f 392/367/143 393/368/144 379/369/145
f 379/369/145 393/368/144 380/370/146
f 379/369/145 380/370/146 359/371/161
f 359/371/161 380/370/146 360/372/162
f 359/371/161 360/372/162 348/373/163
f 348/373/163 360/372/162 349/374/164
f 348/373/163 349/374/164 342/375/165
f 342/375/165 349/374/164 343/376/166
f 342/375/165 343/376/166 338/377/167
f 338/377/167 343/376/166 339/378/168
f 338/377/167 339/378/168 346/379/169
f 346/379/169 339/378/168 347/380/170
f 346/379/169 347/380/170 352/381/171
f 346/379/169 352/381/171 358/382/172
f 358/382/172 352/381/171 371/383/173
f 358/382/172 371/383/173 377/384/174
f 377/384/174 371/383/173 378/385/175
f 377/384/174 378/385/175 390/345/141
f 390/345/141 378/385/175 391/346/142
f 267/345/176 268/386/177 269/347/178
f 269/349/178 268/387/177 262/388/179
f 269/349/178 262/388/179 259/389/180
f 259/389/180 262/388/179 260/390/181
f 259/389/180 260/390/181 246/391/182
f 246/391/182 260/390/181 247/392/183
f 246/391/182 247/392/183 229/393/184
f 229/393/184 247/392/183 236/394/185
f 229/393/184 236/394/185 219/395/186
f 229/393/184 219/395/186 218/375/187
f 218/375/187 219/395/186 214/396/188
f 214/396/188 219/395/186 215/378/189
f 214/396/188 215/378/189 227/397/190
f 227/397/190 215/378/189 228/398/191
f 227/397/190 228/398/191 244/399/157
f 244/399/157 228/398/191 245/400/158
f 244/399/157 245/400/158 257/401/159
f 257/401/159 245/400/158 258/402/192
f 257/401/159 258/402/192 267/345/176
f 267/345/176 258/402/192 268/386/177
f 394/403/193 395/387/194 387/404/195
f 387/404/195 395/387/194 388/405/196
f 387/404/195 388/405/196 383/406/197
f 383/406/197 388/405/196 384/390/198
f 383/406/197 384/390/198 363/407/199
f 363/407/199 384/390/198 364/408/200
f 363/407/199 364/408/200 353/355/201
f 353/355/201 364/408/200 354/394/202
f 353/355/201 354/394/202 344/409/203
f 344/409/203 354/394/202 345/410/204
f 344/409/203 345/410/204 340/411/205
f 340/411/205 345/410/204 341/412/189
f 340/411/205 341/412/189 350/413/190
f 350/413/190 341/412/189 351/414/191
f 350/413/190 351/414/191 361/415/157
f 361/415/157 351/414/191 362/416/158
f 361/415/157 362/416/158 381/417/206
f 381/417/206 362/416/158 382/418/207
f 381/417/206 382/418/207 394/419/193
f 394/419/193 382/418/207 395/420/194
f 207/421/208 197/422/209 196/423/210
f 196/424/210 192/425/211 194/426/212
f 197/422/209 207/421/208 211/427/213
f 230/428/214 211/427/213 249/429/215
f 261/430/216 249/429/215 275/431/217
f 283/432/218 275/431/217 284/433/219
f 292/434/220 284/433/219 293/435/221
f 306/436/222 302/437/223 311/438/224
f 316/439/225 311/438/224 320/440/226
f 370/441/227 334/442/228 375/443/229
f 369/444/230 374/445/231 333/446/232
f 192/447/211 196/423/210 195/448/233
f 195/448/233 196/423/210 197/422/209
f 195/448/233 197/422/209 201/449/234
f 201/449/234 197/422/209 209/450/235
f 209/450/235 197/422/209 211/427/213
f 209/450/235 211/427/213 223/451/236
f 223/451/236 211/427/213 230/428/214
f 223/451/236 230/428/214 239/452/237
f 239/452/237 230/428/214 249/429/215
f 239/452/237 249/429/215 252/453/238
f 252/453/238 249/429/215 261/430/216
f 252/453/238 261/430/216 273/454/239
f 273/454/239 261/430/216 277/455/240
f 277/455/240 261/430/216 275/431/217
f 277/455/240 275/431/217 281/456/241
f 281/456/241 275/431/217 283/432/218
f 281/456/241 283/432/218 287/457/242
f 287/457/242 283/432/218 284/433/219
f 287/457/242 284/433/219 290/458/243
f 290/458/243 284/433/219 292/434/220
f 290/458/243 292/434/220 296/459/244
f 296/459/244 292/434/220 293/435/221
f 296/459/244 293/435/221 300/460/245
f 300/460/245 293/435/221 302/437/223
f 300/460/245 302/437/223 304/461/246
f 304/461/246 302/437/223 308/462/247
f 308/462/247 302/437/223 306/436/222
f 308/462/247 306/436/222 313/463/248
f 313/463/248 306/436/222 311/438/224
f 313/463/248 311/438/224 318/464/249
f 318/464/249 311/438/224 316/439/225
f 318/464/249 316/439/225 322/465/250
f 322/465/250 316/439/225 320/440/226
f 322/465/250 320/440/226 328/466/251
f 328/466/251 320/440/226 326/467/252
f 328/466/251 326/467/252 331/468/253
f 331/468/253 326/467/252 336/469/254
f 336/469/254 326/467/252 334/442/228
f 336/469/254 334/442/228 356/470/255
f 356/470/255 334/442/228 373/471/256
f 373/471/256 334/442/228 370/441/227
f 373/471/256 370/441/227 386/472/257
f 386/472/257 370/441/227 375/443/229
f 386/472/257 375/443/229 403/473/258
f 403/473/258 375/443/229 400/474/259
f 403/473/258 400/474/259 409/475/260
f 409/475/260 400/474/259 411/476/261
f 411/476/261 400/474/259 407/477/262
f 411/476/261 407/477/262 414/478/263
f 414/478/263 407/477/262 410/479/264
f 410/479/264 407/477/262 401/480/265
f 410/479/264 401/480/265 408/481/266
f 408/481/266 401/480/265 402/482/267
f 402/482/267 401/480/265 374/445/231
f 402/482/267 374/445/231 385/483/268
f 385/483/268 374/445/231 372/484/269
f 372/484/269 374/445/231 369/444/230
f 372/484/269 369/444/230 355/485/270
f 355/485/270 369/444/230 333/446/232
f 355/485/270 333/446/232 335/486/271
f 335/486/271 333/446/232 330/487/272
f 330/487/272 333/446/232 325/488/273
f 330/487/272 325/488/273 327/489/274
f 327/489/274 325/488/273 321/490/275
f 321/490/275 325/488/273 315/491/276
f 321/490/275 315/491/276 317/492/277
f 317/492/277 315/491/276 312/493/278
f 312/493/278 315/491/276 305/494/279
f 312/493/278 305/494/279 307/495/280
f 307/495/280 305/494/279 303/496/281
f 303/496/281 305/494/279 301/497/282
f 303/496/281 301/497/282 298/498/283
f 298/498/283 301/497/282 295/499/284
f 295/499/284 301/497/282 291/500/285
f 295/499/284 291/500/285 288/501/286
f 288/501/286 291/500/285 286/502/287
f 286/502/287 291/500/285 282/503/288
f 286/502/287 282/503/288 279/504/289
f 279/504/289 282/503/288 276/505/290
f 276/505/290 282/503/288 274/506/291
f 276/505/290 274/506/291 271/507/292
f 271/507/292 274/506/291 250/508/293
f 250/508/293 274/506/291 248/509/294
f 250/508/293 248/509/294 238/510/295
f 238/510/295 248/509/294 221/511/296
f 221/511/296 248/509/294 210/512/297
f 221/511/296 210/512/297 208/513/298
f 208/513/298 210/512/297 199/514/299
f 199/514/299 210/512/297 206/515/300
f 199/514/299 206/515/300 194/426/212
f 194/426/212 206/515/300 196/424/210
f 413/516/301 411/517/261 412/518/302
f 412/518/302 411/517/261 414/519/263
f 412/520/302 414/521/263 410/522/264
f 412/520/302 410/522/264 404/523/303
f 404/523/303 410/522/264 408/524/266
f 404/523/303 408/524/266 402/525/267
f 404/523/303 402/525/267 389/526/304
f 389/526/304 402/525/267 385/527/268
f 389/526/304 385/527/268 357/528/305
f 357/528/305 385/527/268 372/529/269
f 357/528/305 372/529/269 355/530/270
f 357/528/305 355/530/270 332/531/306
f 332/531/306 355/530/270 335/532/271
f 332/531/306 335/532/271 330/533/272
f 332/531/306 330/533/272 323/534/307
f 323/534/307 330/533/272 327/535/274
f 323/534/307 327/535/274 321/536/275
f 323/534/307 321/536/275 319/537/308
f 319/537/308 321/536/275 317/538/277
f 319/537/308 317/538/277 309/539/309
f 309/539/309 317/538/277 312/540/278
f 309/539/309 312/540/278 307/541/280
f 309/539/309 307/541/280 297/542/310
f 297/542/310 307/541/280 303/543/281
f 297/542/310 303/543/281 298/544/283
f 297/542/310 298/544/283 294/545/311
f 294/545/311 298/544/283 295/546/284
f 294/545/311 295/546/284 285/547/312
f 285/547/312 295/546/284 288/548/286
f 285/547/312 288/548/286 286/549/287
f 285/547/312 286/549/287 278/550/313
f 278/550/313 286/549/287 279/551/289
f 278/550/313 279/551/289 270/552/314
f 270/552/314 279/551/289 276/553/290
f 270/552/314 276/553/290 271/554/292
f 270/552/314 271/554/292 237/555/315
f 237/555/315 271/554/292 250/556/293
f 237/555/315 250/556/293 238/557/295
f 237/555/315 238/557/295 220/558/316
f 220/558/316 238/557/295 221/559/296
f 220/558/316 221/559/296 198/560/317
f 198/560/317 221/559/296 208/561/298
f 198/560/317 208/561/298 199/562/299
f 198/560/317 199/562/299 193/563/318
f 193/563/318 199/562/299 194/564/212
f 193/563/318 194/564/212 191/565/319
f 191/565/319 194/564/212 192/566/211
f 191/565/319 192/566/211 195/567/233
f 191/565/319 195/567/233 200/568/320
f 200/568/320 195/567/233 201/569/234
f 200/568/320 201/569/234 209/570/235
f 200/568/320 209/570/235 222/571/321
f 222/571/321 209/570/235 223/572/236
f 222/571/321 223/572/236 239/573/237
f 222/571/321 239/573/237 251/574/322
f 251/574/322 239/573/237 252/575/238
f 251/574/322 252/575/238 272/576/323
f 272/576/323 252/575/238 273/577/239
f 272/576/323 273/577/239 277/578/240
f 272/576/323 277/578/240 280/579/324
f 280/579/324 277/578/240 281/580/241
f 280/579/324 281/580/241 287/581/242
f 280/579/324 287/581/242 289/582/325
f 289/582/325 287/581/242 290/583/243
f 289/582/325 290/583/243 296/584/244
f 289/582/325 296/584/244 299/585/326
f 299/585/326 296/584/244 300/586/245
f 299/585/326 300/586/245 304/587/246
f 299/585/326 304/587/246 310/588/327
f 310/588/327 304/587/246 308/589/247
f 310/588/327 308/589/247 314/590/328
f 314/590/328 308/589/247 313/591/248
f 314/590/328 313/591/248 318/592/249
f 314/590/328 318/592/249 324/593/329
f 324/593/329 318/592/249 322/594/250
f 324/593/329 322/594/250 329/595/330
f 329/595/330 322/594/250 328/596/251
f 329/595/330 328/596/251 331/597/253
f 329/595/330 331/597/253 337/598/331
f 337/598/331 331/597/253 336/599/254
f 337/598/331 336/599/254 356/600/255
f 337/598/331 356/600/255 376/601/332
f 376/601/332 356/600/255 373/602/256
f 376/601/332 373/602/256 386/603/257
f 376/601/332 386/603/257 405/604/333
f 405/604/333 386/603/257 403/605/258
f 405/604/333 403/605/258 409/606/260
f 405/604/333 409/606/260 413/516/301
f 413/516/301 409/606/260 411/517/261
f 196/607/210 206/608/300 207/609/208
f 207/609/208 206/608/300 210/610/297
f 207/609/208 210/610/297 248/611/294
f 248/611/294 274/612/291 207/609/208
f 207/609/208 274/612/291 282/613/288
f 207/609/208 282/613/288 291/614/285
f 291/614/285 301/615/282 207/609/208
f 207/609/208 301/615/282 305/616/279
f 207/609/208 305/616/279 315/617/276
f 207/609/208 315/617/276 325/618/273
f 207/609/208 325/618/273 333/619/232
f 333/619/232 374/620/231 207/609/208
f 207/609/208 374/620/231 401/621/265
f 207/609/208 401/621/265 407/622/262
f 407/622/262 400/623/259 207/609/208
f 207/609/208 400/623/259 211/624/213
f 211/624/213 400/623/259 375/625/229
f 211/624/213 375/625/229 249/626/215
f 249/626/215 375/625/229 334/627/228
f 249/626/215 334/627/228 275/628/217
f 275/628/217 334/627/228 326/629/252
f 275/628/217 326/629/252 284/630/219
f 284/630/219 326/629/252 320/631/226
f 284/630/219 320/631/226 293/632/221
f 293/632/221 320/631/226 311/633/224
f 293/632/221 311/633/224 302/634/223
f 425/635/29 412/636/29 423/637/29
f 423/637/29 412/636/29 404/638/29
f 425/635/29 395/639/29 382/640/29
f 395/639/29 425/635/29 388/641/29
f 388/641/29 425/635/29 419/642/29
f 388/641/29 419/642/29 417/643/29
f 388/641/29 417/643/29 384/644/29
f 384/644/29 417/643/29 399/645/29
f 384/644/29 399/645/29 364/646/29
f 364/646/29 399/645/29 368/647/29
f 234/648/29 299/649/29 368/647/29
f 368/647/29 299/649/29 310/650/29
f 368/647/29 310/650/29 314/651/29
f 234/648/29 247/652/29 260/653/29
f 234/648/29 205/654/29 247/652/29
f 247/652/29 205/654/29 236/655/29
f 236/655/29 205/654/29 189/656/29
f 236/655/29 189/656/29 219/657/29
f 219/657/29 189/656/29 186/658/29
f 219/657/29 186/658/29 182/659/29
f 219/657/29 182/659/29 215/660/29
f 215/660/29 182/659/29 228/661/29
f 228/661/29 182/659/29 222/662/29
f 228/661/29 222/662/29 245/663/29
f 245/663/29 222/662/29 251/664/29
f 245/663/29 251/664/29 258/665/29
f 258/665/29 251/664/29 272/666/29
f 258/665/29 272/666/29 268/667/29
f 268/667/29 272/666/29 262/668/29
f 262/668/29 272/666/29 280/669/29
f 262/668/29 280/669/29 234/648/29
f 262/668/29 234/648/29 260/653/29
f 180/670/29 191/671/29 182/659/29
f 182/659/29 191/671/29 200/672/29
f 180/670/29 213/673/29 226/674/29
f 213/673/29 180/670/29 216/675/29
f 216/675/29 180/670/29 184/676/29
f 216/675/29 184/676/29 225/677/29
f 225/677/29 184/676/29 190/678/29
f 225/677/29 190/678/29 203/679/29
f 225/677/29 203/679/29 241/680/29
f 241/680/29 203/679/29 232/681/29
f 366/682/29 297/683/29 232/681/29
f 232/681/29 297/683/29 294/684/29
f 366/682/29 371/685/29 352/686/29
f 366/682/29 397/687/29 371/685/29
f 371/685/29 397/687/29 378/688/29
f 378/688/29 397/687/29 415/689/29
f 378/688/29 415/689/29 391/690/29
f 391/690/29 415/689/29 420/691/29
f 391/690/29 420/691/29 423/637/29
f 391/690/29 423/637/29 393/692/29
f 393/692/29 423/637/29 380/693/29
f 380/693/29 423/637/29 357/694/29
f 380/693/29 357/694/29 360/695/29
f 360/695/29 357/694/29 349/696/29
f 349/696/29 357/694/29 332/697/29
f 349/696/29 332/697/29 343/698/29
f 343/698/29 332/697/29 339/699/29
f 339/699/29 332/697/29 323/700/29
f 339/699/29 323/700/29 347/701/29
f 347/701/29 323/700/29 366/682/29
f 347/701/29 366/682/29 352/686/29
f 270/702/29 266/703/29 264/704/29
f 270/702/29 264/704/29 278/705/29
f 278/705/29 264/704/29 254/706/29
f 278/705/29 254/706/29 232/681/29
f 232/681/29 254/706/29 241/680/29
f 180/670/29 226/674/29 237/707/29
f 237/707/29 226/674/29 243/708/29
f 237/707/29 243/708/29 256/709/29
f 237/707/29 256/709/29 270/702/29
f 270/702/29 256/709/29 266/703/29
f 425/635/29 382/640/29 376/710/29
f 376/710/29 382/640/29 362/711/29
f 376/710/29 362/711/29 337/712/29
f 337/712/29 362/711/29 351/713/29
f 337/712/29 351/713/29 341/714/29
f 337/712/29 341/714/29 329/715/29
f 329/715/29 341/714/29 345/716/29
f 329/715/29 345/716/29 368/647/29
f 368/647/29 345/716/29 354/717/29
f 368/647/29 354/717/29 364/646/29
f 423/637/29 404/638/29 389/718/29
f 423/637/29 389/718/29 357/694/29
f 366/682/29 323/700/29 319/719/29
f 366/682/29 319/719/29 309/720/29
f 366/682/29 309/720/29 297/683/29
f 294/684/29 285/721/29 232/681/29
f 232/681/29 285/721/29 278/705/29
f 237/707/29 220/722/29 180/670/29
f 180/670/29 220/722/29 198/723/29
f 198/723/29 193/724/29 180/670/29
f 180/670/29 193/724/29 191/671/29
f 182/659/29 200/672/29 222/662/29
f 234/648/29 280/669/29 289/725/29
f 289/725/29 299/649/29 234/648/29
f 368/647/29 314/651/29 324/726/29
f 368/647/29 324/726/29 329/715/29
f 425/635/29 376/710/29 405/727/29
f 405/727/29 413/728/29 425/635/29
f 425/635/29 413/728/29 412/636/29
f 366/729/334 365/730/335 396/325/336
f 366/729/334 396/325/336 397/731/337
f 397/731/337 396/325/336 406/732/338
f 397/731/337 406/732/338 415/733/339
f 415/733/339 406/732/338 418/734/340
f 415/733/339 418/734/340 420/342/341
f 420/342/341 418/734/340 422/331/342
f 420/342/341 422/331/342 423/735/343
f 180/736/140 179/737/139 183/325/344
f 180/736/140 183/325/344 184/738/345
f 184/738/345 183/325/344 187/739/346
f 184/738/345 187/739/346 190/328/347
f 190/328/347 187/739/346 202/740/348
f 190/328/347 202/740/348 203/741/349
f 203/741/349 202/740/348 231/742/350
f 203/741/349 231/742/350 232/743/351
f 231/4/350 365/6/335 232/333/351
f 232/333/351 365/6/335 366/334/334
f 422/9/342 424/11/120 423/744/343
f 423/744/343 424/11/120 425/745/119
