# Blender 5.2.0 LTS
# www.blender.org
mtllib OrangePI Cam v1.mtl
o OrangePI_Cam_v1
v 0.000000 -0.011013 -0.000044
v 0.000000 -0.010762 -0.000974
v 0.000000 -0.010711 0.001105
v 0.000000 -0.010107 -0.001681
v 0.000000 -0.009992 0.000208
v 0.000000 -0.009940 -0.000342
v 0.000000 -0.009588 0.001948
v 0.000000 -0.009676 -0.000755
v 0.000000 -0.009626 0.000797
v 0.000000 -0.009361 -0.001971
v 0.000000 -0.009032 -0.001013
v 0.000000 -0.009174 0.000985
v 0.000000 -0.008623 0.000940
v 0.000000 -0.008374 -0.000797
v 0.000000 -0.008107 0.000478
v 0.000000 -0.008008 -0.000208
v 0.000000 -0.007000 -0.007000
v 0.000000 -0.007000 -0.002000
v 0.000000 -0.007000 0.002000
v 0.000000 -0.007000 0.007000
v 0.000000 0.007000 -0.007000
v 0.000000 0.007000 -0.002000
v 0.000000 0.007000 0.002000
v 0.000000 0.007000 0.007000
v 0.000000 0.008008 0.000208
v 0.000000 0.008107 -0.000478
v 0.000000 0.008374 0.000797
v 0.000000 0.008623 -0.000940
v 0.000000 0.009032 0.001013
v 0.000000 0.009588 -0.001948
v 0.000000 0.009361 0.001971
v 0.000000 0.009174 -0.000985
v 0.000000 0.009626 -0.000797
v 0.000000 0.009676 0.000755
v 0.000000 0.010107 0.001681
v 0.000000 0.009992 -0.000208
v 0.000000 0.009940 0.000342
v 0.000000 0.010711 -0.001105
v 0.000000 0.010762 0.000974
v 0.000000 0.011013 0.000044
v 0.000300 -0.004020 -0.013682
v 0.000300 -0.004020 -0.007000
v 0.000433 0.004020 -0.013682
v 0.000300 0.004020 -0.007000
v 0.000500 -0.011028 -0.000183
v 0.000500 -0.010762 0.000974
v 0.000500 -0.010535 -0.001302
v 0.000500 -0.010107 0.001681
v 0.000500 -0.009992 -0.000208
v 0.000500 -0.009940 0.000342
v 0.000500 -0.009588 -0.001948
v 0.000500 -0.009626 -0.000797
v 0.000500 -0.009676 0.000755
v 0.000500 -0.009361 0.001971
v 0.000500 -0.008968 -0.001013
v 0.000500 -0.009174 0.000985
v 0.000500 -0.008684 0.000963
v 0.000500 -0.008324 -0.000755
v 0.000500 -0.008139 0.000534
v 0.000500 -0.007997 -0.000144
v 0.000500 -0.007000 -0.007000
v 0.000500 -0.007000 -0.002000
v 0.000500 -0.007000 0.002000
v 0.000500 -0.007000 0.007000
v 0.000500 -0.004500 -0.004000
v 0.000500 -0.004500 0.005000
v 0.000500 -0.004020 -0.013682
v 0.000500 -0.004020 -0.007000
v 0.000500 0.004020 -0.007000
v 0.000500 0.004500 -0.004000
v 0.000500 0.004500 0.005000
v 0.000500 0.007000 -0.007000
v 0.000500 0.007000 -0.002000
v 0.000500 0.007000 0.002000
v 0.000500 0.007000 0.007000
v 0.000500 0.007997 0.000144
v 0.000500 0.008139 -0.000534
v 0.000500 0.008324 0.000755
v 0.000500 0.008684 -0.000963
v 0.000500 0.008968 0.001013
v 0.000500 0.009361 -0.001971
v 0.000500 0.009588 0.001948
v 0.000500 0.009174 -0.000985
v 0.000500 0.009676 -0.000755
v 0.000500 0.009626 0.000797
v 0.000500 0.010107 -0.001681
v 0.000500 0.009940 -0.000342
v 0.000500 0.009992 0.000208
v 0.000500 0.010535 0.001302
v 0.000500 0.010762 -0.000974
v 0.000500 0.011028 0.000183
v 0.005500 -0.004500 -0.004000
v 0.005500 -0.004500 0.005000
v 0.005500 0.004500 -0.004000
v 0.005500 0.004500 0.005000
vn -0.9992 0.0356 -0.0199
vn -0.9999 0.0073 -0.0088
vn -0.7083 0.7059 -0.0079
vn -1.0000 -0.0000 -0.0000
vn -0.0000 1.0000 -0.0000
vn -0.0000 -0.0000 -1.0000
vn 0.9998 0.0037 -0.0214
vn 0.7090 0.0059 -0.7052
vn -0.0000 -1.0000 -0.0000
vn -0.0000 -0.0000 1.0000
vn 1.0000 -0.0000 -0.0000
vn 0.0146 -0.9772 0.2118
vn -0.0149 -0.9908 0.1348
vn 0.0152 -0.8848 -0.4658
vn -0.0149 -0.8456 -0.5336
vn 0.0119 -0.3992 -0.9168
vn -0.0092 -0.3341 -0.9425
vn 0.0091 0.1648 -0.9863
vn -0.0090 0.1826 -0.9831
vn 0.0092 0.6363 -0.7714
vn 0.0098 0.6767 -0.7362
vn 0.0190 0.9726 -0.2319
vn 0.0009 0.9311 -0.3648
vn -0.0190 0.9726 0.2319
vn -0.0013 0.9311 0.3648
vn -0.0069 0.6601 0.7512
vn -0.0147 0.6119 0.7908
vn 0.0149 0.0393 0.9991
vn -0.0149 -0.0389 0.9991
vn 0.0147 -0.6119 0.7908
vn -0.0151 -0.6723 0.7401
vn 0.0190 -0.9726 0.2319
vn 0.0009 -0.9311 0.3648
vn -0.0190 -0.9726 -0.2319
vn -0.0013 -0.9311 -0.3648
vn -0.0069 -0.6601 -0.7512
vn -0.0147 -0.6119 -0.7908
vn 0.0149 -0.0393 -0.9991
vn -0.0149 0.0389 -0.9991
vn 0.0147 0.6119 -0.7908
vn -0.0151 0.6723 -0.7401
vn 0.0146 0.9772 -0.2118
vn -0.0149 0.9908 -0.1348
vn 0.0152 0.8848 0.4658
vn -0.0149 0.8456 0.5336
vn 0.0119 0.3992 0.9168
vn -0.0092 0.3341 0.9425
vn 0.0091 -0.1648 0.9863
vn -0.0090 -0.1826 0.9831
vn 0.0092 -0.6363 0.7714
vn 0.0098 -0.6767 0.7362
vn -0.0000 0.0201 -0.9998
vn -0.0414 0.2971 -0.9540
vn -0.0049 0.0191 -0.9998
vn 0.0198 0.1108 -0.9936
vn -0.0710 0.5737 -0.8160
vn 0.0004 0.8445 -0.5355
vn 0.0198 0.9039 -0.4274
vn -0.0088 0.9970 0.0769
vn -0.0198 0.9989 -0.0415
vn 0.0303 0.8846 0.4653
vn 0.0226 0.7625 0.6466
vn 0.0241 0.5634 0.8258
vn 0.0287 0.2874 0.9574
vn -0.0198 0.1108 0.9936
vn 0.0049 0.0191 0.9998
vn -0.0000 0.0201 0.9998
vn -0.0000 -0.0201 0.9998
vn -0.0414 -0.2971 0.9540
vn -0.0049 -0.0191 0.9998
vn 0.0198 -0.1108 0.9936
vn -0.0710 -0.5737 0.8160
vn 0.0004 -0.8445 0.5355
vn 0.0198 -0.9039 0.4274
vn -0.0088 -0.9970 -0.0769
vn -0.0198 -0.9989 0.0415
vn 0.0303 -0.8846 -0.4653
vn 0.0226 -0.7625 -0.6466
vn 0.0241 -0.5634 -0.8258
vn 0.0287 -0.2874 -0.9574
vn -0.0198 -0.1108 -0.9936
vn 0.0049 -0.0191 -0.9998
vn -0.0000 -0.0201 -0.9998
vn 1.0000 0.0016 -0.0015
vn 1.0000 -0.0000 -0.0033
vt -0.402045 -0.334080
vt 0.402045 -0.334080
vt -0.402045 0.334080
vt 0.402045 0.334080
vt -0.668160 0.043333
vt -0.000000 0.030000
vt -0.000000 0.050000
vt -0.804091 0.030000
vt 0.000000 0.043333
vt -0.804091 0.050000
vt -0.900000 0.050000
vt -0.900000 0.550000
vt -0.000000 0.550000
vt 0.450000 0.450000
vt -0.450000 0.450000
vt 0.450000 -0.450000
vt -0.450000 -0.450000
vt 0.000000 0.314159
vt -0.050000 0.314159
vt 0.000000 0.265059
vt -0.050000 0.258540
vt 0.000000 0.195246
vt -0.050000 0.188727
vt 0.000000 0.139626
vt -0.050000 0.139626
vt 0.000000 0.090526
vt -0.050000 0.084007
vt 0.000000 0.020713
vt -0.050000 0.034907
vt -0.050000 -0.020713
vt 0.000000 -0.034907
vt 0.000000 -0.084007
vt -0.050000 -0.090526
vt 0.000000 -0.153820
vt -0.050000 -0.160339
vt 0.000000 -0.223634
vt -0.050000 -0.230152
vt 0.000000 -0.293447
vt -0.050000 -0.299966
vt 0.000000 -0.293446
vt -0.050000 -0.279253
vt -0.050000 -0.314159
vt -0.050000 0.293446
vt 0.000000 0.279253
vt 0.000000 0.230153
vt -0.050000 0.223634
vt 0.000000 0.160339
vt -0.050000 0.153820
vt -0.050000 0.014194
vt 0.000000 -0.049101
vt -0.050000 -0.055620
vt 0.000000 -0.118914
vt -0.050000 -0.125433
vt 0.000000 -0.174533
vt -0.050000 -0.174533
vt -0.050000 -0.230153
vt -0.668160 0.030000
vt -0.668160 0.050000
vt -1.400000 0.050000
vt -1.400000 0.000000
vt -1.102045 0.030000
vt -0.000000 0.000000
vt -0.297955 0.030000
vt -0.297955 0.050000
vt -1.102045 0.050000
vt -0.500000 0.000000
vt -0.500000 0.050000
vt -0.200000 0.000000
vt -0.200000 0.050000
vt 0.050000 -0.664596
vt 0.000000 -0.686886
vt 0.050000 -0.744766
vt 0.000000 -0.827684
vt 0.050000 -0.841431
vt 0.050000 -0.960156
vt 0.000000 -0.946861
vt 0.000000 -1.043525
vt 0.050000 -1.083091
vt 0.000000 -1.140190
vt 0.050000 -1.198070
vt 0.000000 -1.220360
vt -0.700000 0.134080
vt -0.700000 -0.365920
vt -0.450000 -0.065920
vt -0.402045 -0.365920
vt 0.402045 -0.365920
vt 0.402045 -1.034080
vt -0.402045 -1.034080
vt 0.450000 -0.065920
vt 0.700000 -0.365920
vt 0.700000 0.134080
vt 0.935925 0.138442
vt 0.869365 0.240429
vt 0.816335 0.282031
vt 0.917365 0.235599
vt 1.009186 0.168200
vt 0.965786 0.260724
vt 1.073768 0.237942
vt 0.993969 0.299878
vt 1.095231 0.351313
vt 0.996421 0.354375
vt 1.051510 0.462465
vt 0.960818 0.411605
vt 0.956942 0.522750
vt 0.896757 0.432561
vt 0.700000 0.534080
vt 0.834214 0.407436
vt 0.700000 1.034080
vt 0.450000 0.834080
vt -0.700000 1.034080
vt -0.450000 0.834080
vt -0.700000 0.534080
vt -0.935925 0.529718
vt -0.869365 0.427731
vt -0.816335 0.386129
vt -0.917365 0.432561
vt -1.009187 0.499960
vt -0.965786 0.407436
vt -1.073768 0.430218
vt -0.993969 0.368282
vt -1.095231 0.316847
vt -0.996421 0.313785
vt -1.051510 0.205695
vt -0.960818 0.256555
vt -0.956942 0.145409
vt -0.896757 0.235599
vt -0.834214 0.260724
vt 0.802452 0.347987
vt -0.802452 0.320173
vt 0.839182 0.256555
vt 0.803579 0.313786
vt 0.903243 0.235599
vt 1.009187 0.168200
vt 1.098542 0.329708
vt 1.064964 0.440682
vt 0.917365 0.432561
vt 0.863270 0.425512
vt 0.813092 0.380512
vt -0.839182 0.411605
vt -0.803579 0.354374
vt -0.903243 0.432561
vt -1.009186 0.499960
vt -1.098542 0.338452
vt -1.064964 0.227478
vt -0.917365 0.235599
vt -0.863270 0.242647
vt -0.813092 0.287648
s 1
usemtl 160,160,160.001
f 43/1/1 41/2/2 44/3/3
f 44/3/3 41/2/2 42/4/4
f 43/5/1 44/6/3 69/7/5
f 41/8/6 43/9/7 67/10/8
f 65/11/6 70/7/6 92/12/6
f 92/12/6 70/7/6 94/13/6
f 66/11/9 65/7/9 93/12/9
f 93/12/9 65/7/9 92/13/9
f 70/11/5 71/7/5 94/12/5
f 94/12/5 71/7/5 95/13/5
f 71/11/10 66/7/10 95/12/10
f 95/12/10 66/7/10 93/13/10
f 95/14/11 93/15/11 94/16/11
f 94/16/11 93/15/11 92/17/11
f 16/18/12 60/19/13 15/20/14
f 15/20/14 60/19/13 59/21/15
f 15/20/14 59/21/15 13/22/16
f 13/22/16 59/21/15 57/23/17
f 13/22/16 57/23/17 12/24/18
f 12/24/18 57/23/17 56/25/19
f 12/24/18 56/25/19 9/26/20
f 9/26/20 56/25/19 53/27/21
f 9/26/20 53/27/21 5/28/22
f 5/28/22 53/27/21 50/29/23
f 5/28/22 50/29/23 49/30/24
f 5/28/22 49/30/24 6/31/25
f 6/31/25 49/30/24 8/32/26
f 8/32/26 49/30/24 52/33/27
f 8/32/26 52/33/27 11/34/28
f 11/34/28 52/33/27 55/35/29
f 11/34/28 55/35/29 14/36/30
f 14/36/30 55/35/29 58/37/31
f 14/36/30 58/37/31 16/38/12
f 16/38/12 58/37/31 60/39/13
f 36/40/32 87/41/33 88/42/34
f 36/18/32 88/43/34 37/44/35
f 37/44/35 88/43/34 34/45/36
f 34/45/36 88/43/34 85/46/37
f 34/45/36 85/46/37 29/47/38
f 29/47/38 85/46/37 80/48/39
f 29/47/38 80/48/39 27/26/40
f 27/26/40 80/48/39 78/27/41
f 27/26/40 78/27/41 25/28/42
f 25/28/42 78/27/41 76/49/43
f 25/28/42 76/49/43 26/50/44
f 26/50/44 76/49/43 77/51/45
f 26/50/44 77/51/45 28/52/46
f 28/52/46 77/51/45 79/53/47
f 28/52/46 79/53/47 32/54/48
f 32/54/48 79/53/47 83/55/49
f 32/54/48 83/55/49 33/36/50
f 33/36/50 83/55/49 84/56/51
f 33/36/50 84/56/51 36/40/32
f 36/40/32 84/56/51 87/41/33
f 42/57/9 41/6/9 68/58/9
f 68/58/9 41/6/9 67/7/9
f 61/59/6 17/60/6 42/61/6
f 42/61/6 17/60/6 21/62/6
f 42/61/6 21/62/6 44/63/6
f 44/63/6 21/62/6 72/7/6
f 44/63/6 72/7/6 69/64/6
f 42/61/6 68/65/6 61/59/6
f 21/66/5 22/62/5 72/67/5
f 72/67/5 22/62/5 73/7/5
f 22/68/52 30/62/53 73/69/54
f 73/69/54 30/62/53 81/7/55
f 81/70/55 30/71/53 86/72/56
f 86/72/56 30/71/53 38/73/57
f 86/72/56 38/73/57 90/74/58
f 90/74/58 38/73/57 91/75/59
f 91/75/59 38/73/57 40/76/60
f 91/75/59 40/76/60 39/77/61
f 91/75/59 39/77/61 89/78/62
f 89/78/62 39/77/61 35/79/63
f 89/78/62 35/79/63 82/80/64
f 82/80/64 35/79/63 31/81/65
f 31/68/65 23/62/66 82/69/64
f 82/69/64 23/62/66 74/7/67
f 23/66/5 24/62/5 74/67/5
f 74/67/5 24/62/5 75/7/5
f 24/60/10 20/62/10 75/59/10
f 75/59/10 20/62/10 64/7/10
f 20/66/9 19/62/9 64/67/9
f 64/67/9 19/62/9 63/7/9
f 19/68/68 7/62/69 63/69/70
f 63/69/70 7/62/69 54/7/71
f 54/70/71 7/71/69 48/72/72
f 48/72/72 7/71/69 3/73/73
f 48/72/72 3/73/73 46/74/74
f 46/74/74 3/73/73 45/75/75
f 45/75/75 3/73/73 1/76/76
f 45/75/75 1/76/76 2/77/77
f 45/75/75 2/77/77 47/78/78
f 47/78/78 2/77/77 4/79/79
f 47/78/78 4/79/79 51/80/80
f 51/80/80 4/79/79 10/81/81
f 10/68/81 18/62/82 51/69/80
f 51/69/80 18/62/82 62/7/83
f 18/66/9 17/62/9 62/67/9
f 62/67/9 17/62/9 61/7/9
f 62/82/11 61/83/11 65/84/11
f 65/84/11 61/83/11 68/85/84
f 65/84/11 68/85/84 69/86/85
f 69/86/85 68/85/84 43/87/7
f 43/87/7 68/85/84 67/88/8
f 65/84/11 69/86/85 70/89/11
f 70/89/11 69/86/85 72/90/11
f 70/89/11 72/90/11 73/91/11
f 81/92/11 79/93/11 73/91/11
f 73/91/11 79/93/11 77/94/11
f 81/92/11 83/95/11 79/93/11
f 81/92/11 86/96/11 83/95/11
f 83/95/11 86/96/11 84/97/11
f 84/97/11 86/96/11 90/98/11
f 84/97/11 90/98/11 87/99/11
f 87/99/11 90/98/11 91/100/11
f 87/99/11 91/100/11 88/101/11
f 88/101/11 91/100/11 89/102/11
f 88/101/11 89/102/11 85/103/11
f 85/103/11 89/102/11 82/104/11
f 85/103/11 82/104/11 80/105/11
f 74/106/11 78/107/11 82/104/11
f 82/104/11 78/107/11 80/105/11
f 75/108/11 71/109/11 74/106/11
f 74/106/11 71/109/11 70/89/11
f 74/106/11 70/89/11 73/91/11
f 75/108/11 64/110/11 71/109/11
f 71/109/11 64/110/11 66/111/11
f 66/111/11 64/110/11 63/112/11
f 66/111/11 63/112/11 65/84/11
f 65/84/11 63/112/11 62/82/11
f 54/113/11 57/114/11 63/112/11
f 63/112/11 57/114/11 59/115/11
f 54/113/11 56/116/11 57/114/11
f 54/113/11 48/117/11 56/116/11
f 56/116/11 48/117/11 53/118/11
f 53/118/11 48/117/11 46/119/11
f 53/118/11 46/119/11 50/120/11
f 50/120/11 46/119/11 45/121/11
f 50/120/11 45/121/11 49/122/11
f 49/122/11 45/121/11 47/123/11
f 49/122/11 47/123/11 52/124/11
f 52/124/11 47/123/11 51/125/11
f 52/124/11 51/125/11 55/126/11
f 62/82/11 58/127/11 51/125/11
f 51/125/11 58/127/11 55/126/11
f 77/94/11 76/128/11 73/91/11
f 73/91/11 76/128/11 74/106/11
f 74/106/11 76/128/11 78/107/11
f 60/129/11 62/82/11 63/112/11
f 60/129/11 63/112/11 59/115/11
f 60/129/11 58/127/11 62/82/11
f 21/83/4 17/90/4 22/82/4
f 22/82/4 17/90/4 18/91/4
f 22/82/4 18/91/4 23/112/4
f 23/112/4 18/91/4 19/106/4
f 23/112/4 19/106/4 24/110/4
f 24/110/4 19/106/4 20/108/4
f 10/92/4 14/130/4 18/91/4
f 18/91/4 14/130/4 16/131/4
f 10/92/4 11/132/4 14/130/4
f 10/92/4 4/133/4 11/132/4
f 11/132/4 4/133/4 8/97/4
f 8/97/4 4/133/4 2/98/4
f 8/97/4 2/98/4 6/99/4
f 6/99/4 2/98/4 1/134/4
f 6/99/4 1/134/4 5/101/4
f 5/101/4 1/134/4 3/135/4
f 5/101/4 3/135/4 9/103/4
f 9/103/4 3/135/4 12/136/4
f 12/136/4 3/135/4 7/104/4
f 12/136/4 7/104/4 13/137/4
f 13/137/4 7/104/4 19/106/4
f 13/137/4 19/106/4 15/138/4
f 15/138/4 19/106/4 16/131/4
f 16/131/4 19/106/4 18/91/4
f 31/113/4 27/139/4 23/112/4
f 23/112/4 27/139/4 25/140/4
f 31/113/4 29/141/4 27/139/4
f 31/113/4 35/142/4 29/141/4
f 29/141/4 35/142/4 34/118/4
f 34/118/4 35/142/4 39/119/4
f 34/118/4 39/119/4 37/120/4
f 37/120/4 39/119/4 40/143/4
f 37/120/4 40/143/4 36/122/4
f 36/122/4 40/143/4 38/144/4
f 36/122/4 38/144/4 33/124/4
f 33/124/4 38/144/4 32/145/4
f 32/145/4 38/144/4 30/125/4
f 32/145/4 30/125/4 28/146/4
f 28/146/4 30/125/4 22/82/4
f 28/146/4 22/82/4 26/147/4
f 26/147/4 22/82/4 25/140/4
f 25/140/4 22/82/4 23/112/4
